<svg id="Vrstva_1" data-name="Vrstva 1" xmlns="http://www.w3.org/2000/svg" viewBox="0 0 274.96 96.38"><defs><style>.cls-1{fill:#dc301b;}</style></defs><path class="cls-1" d="M50.56,46.19c0,7.55-5.35,13.36-12.45,13.36a10.92,10.92,0,0,1-8.4-3.75V69.05h-6.4V33.29h6.4v3.25a10.89,10.89,0,0,1,8.4-3.75C45.21,32.79,50.56,38.59,50.56,46.19Zm-6.6,0c0-4.3-3.05-7.5-7.1-7.5a7.17,7.17,0,0,0-7.15,7.5,7.13,7.13,0,1,0,14.25,0Z"/><path class="cls-1" d="M53.06,26a4.88,4.88,0,1,1,4.85,4.8A4.85,4.85,0,0,1,53.06,26Zm1.65,33.06V33.29a7.66,7.66,0,0,0,6.4,0V59.05Z"/><path class="cls-1" d="M86.11,22.79h6.4V59.05h-6.4V55.84a10.94,10.94,0,0,1-8.4,3.71c-7,0-12.45-5.81-12.45-13.36s5.4-13.4,12.45-13.4a10.94,10.94,0,0,1,8.4,3.7Zm0,23.4c0-4.3-3-7.5-7.1-7.5s-7.1,3.2-7.1,7.5a7.11,7.11,0,1,0,14.2,0Z"/><path class="cls-1" d="M113,37.37a4.07,4.07,0,0,1-4,4.24,3.66,3.66,0,0,1-2.93-1.39v4.43h-1.63V33.28h1.63V34.5A3.68,3.68,0,0,1,109,33.12,4.07,4.07,0,0,1,113,37.37Zm-1.69,0a2.64,2.64,0,1,0-2.64,2.73A2.64,2.64,0,0,0,111.34,37.37Z"/><path class="cls-1" d="M116.17,34.45a3,3,0,0,1,3.21-1.25v1.57c-1.8-.49-3.21.47-3.21,2v4.63h-1.63V33.28h1.63Z"/><path class="cls-1" d="M126.74,36.09v5.36H125.1V40.2a3.41,3.41,0,0,1-2.86,1.41,2.34,2.34,0,0,1-2.63-2.29c0-1.7,1.46-2.35,3-2.51l1.6-.18c.61-.05.89-.27.89-.82,0-.81-.68-1.33-1.66-1.33a1.88,1.88,0,0,0-2,1.54l-1.6-.4c.31-1.53,1.7-2.5,3.59-2.5S126.74,34.12,126.74,36.09Zm-1.64,1.82v-.3a2.09,2.09,0,0,1-.92.27l-1.59.17c-.78.1-1.34.48-1.34,1.16s.52,1.07,1.36,1.07A2.45,2.45,0,0,0,125.1,37.91Z"/><path class="cls-1" d="M135.15,33.28v1.35L130.4,40h4.75v1.46h-6.82V40.09l4.76-5.37h-4.76V33.28Zm-2.49-.84h-1.85L129,29.88h1.58l1.15,1.52,1.16-1.52h1.56Z"/><path class="cls-1" d="M137.68,39a1.6,1.6,0,0,0,1.81,1.33c1.09,0,1.81-.48,1.81-1.12,0-1.94-5-.37-5-3.57,0-1.42,1.36-2.47,3.2-2.47s3.09.92,3.34,2.31l-1.63.34a1.54,1.54,0,0,0-1.71-1.32c-.9,0-1.57.42-1.57,1.06,0,1.86,5,.32,5,3.62,0,1.44-1.5,2.48-3.45,2.48s-3.2-.91-3.44-2.31Z"/><path class="cls-1" d="M152.13,41.45h-2.08l-2.82-3.56-1.3,1.4v2.16H144.3V29.84h1.63v7.3l3.49-3.86h2.07l-3.16,3.41Z"/><path class="cls-1" d="M159.39,36.09v5.36h-1.63V40.2a3.44,3.44,0,0,1-2.87,1.41,2.34,2.34,0,0,1-2.62-2.29c0-1.7,1.46-2.35,3-2.51l1.6-.18c.61-.05.9-.27.9-.82,0-.81-.69-1.33-1.67-1.33a1.87,1.87,0,0,0-2,1.54l-1.6-.4c.3-1.53,1.7-2.5,3.58-2.5S159.39,34.12,159.39,36.09Zm-1.63,1.82v-.3a2.15,2.15,0,0,1-.93.27l-1.58.17c-.79.1-1.35.48-1.35,1.16s.53,1.07,1.36,1.07A2.46,2.46,0,0,0,157.76,37.91Zm.67-8-1.89,2.56h-1.66l1.73-2.56Z"/><path class="cls-1" d="M165.39,31.12a1.29,1.29,0,1,1,1.3,1.28A1.29,1.29,0,0,1,165.39,31.12Zm.48,10.33V33.28a1.8,1.8,0,0,0,.82.16,1.86,1.86,0,0,0,.81-.16v8.17Z"/><path class="cls-1" d="M177.06,36.57v4.88h-1.64V36.82a2.23,2.23,0,0,0-4.46,0v4.63h-1.64V33.28H171v1.17a3.27,3.27,0,0,1,2.69-1.33A3.31,3.31,0,0,1,177.06,36.57Z"/><path class="cls-1" d="M177.77,34.72V33.28h1.75v-2.4h1.63v2.4h2.32v1.44h-2.32v3.83c0,1,.42,1.44,1.43,1.44h.89v1.46h-.89c-2.09,0-3.06-1-3.06-3V34.72Z"/><path class="cls-1" d="M192.74,37.91H186a2.77,2.77,0,0,0,5.17.8l1.38.59a4.26,4.26,0,0,1-3.88,2.31,4.25,4.25,0,1,1,4.12-3.7ZM186,36.63h5.12a2.57,2.57,0,0,0-2.56-2.1A2.63,2.63,0,0,0,186,36.63Z"/><path class="cls-1" d="M200.86,33.28h1.64v7.29a4.34,4.34,0,0,1-8.17,1.93l1.48-.73a2.55,2.55,0,0,0,2.36,1.55,2.67,2.67,0,0,0,2.69-2.75v-.48a3.64,3.64,0,0,1-2.93,1.36,4.17,4.17,0,0,1,0-8.33,3.67,3.67,0,0,1,2.93,1.36Zm0,4a2.64,2.64,0,1,0-2.64,2.65A2.6,2.6,0,0,0,200.86,37.29Z"/><path class="cls-1" d="M206,34.45a3,3,0,0,1,3.2-1.25v1.57c-1.79-.49-3.2.47-3.2,2v4.63h-1.64V33.28H206Z"/><path class="cls-1" d="M213.65,33.12a4.25,4.25,0,1,1-4.32,4.25A4.19,4.19,0,0,1,213.65,33.12Zm0,7A2.75,2.75,0,1,0,211,37.37,2.63,2.63,0,0,0,213.65,40.1Z"/><path class="cls-1" d="M224.93,33.28h1.65l-3.35,8.17h-1.84L218,33.28h1.76l2.57,6.58Z"/><path class="cls-1" d="M233.86,36.09v5.36h-1.64V40.2a3.42,3.42,0,0,1-2.86,1.41,2.34,2.34,0,0,1-2.63-2.29c0-1.7,1.46-2.35,3-2.51l1.6-.18c.6-.05.89-.27.89-.82,0-.81-.69-1.33-1.66-1.33a1.88,1.88,0,0,0-2,1.54l-1.6-.4c.31-1.53,1.7-2.5,3.59-2.5S233.86,34.12,233.86,36.09Zm-1.64,1.82v-.3a2.1,2.1,0,0,1-.93.27l-1.58.17c-.79.1-1.34.48-1.34,1.16s.52,1.07,1.36,1.07A2.45,2.45,0,0,0,232.22,37.91Z"/><path class="cls-1" d="M243.34,36.57v4.88h-1.63V36.82a2.23,2.23,0,0,0-4.46,0v4.63h-1.64V33.28h1.64v1.17a3.27,3.27,0,0,1,2.68-1.33A3.3,3.3,0,0,1,243.34,36.57Z"/><path class="cls-1" d="M251.74,36.09v5.36h-1.63V40.2a3.42,3.42,0,0,1-2.86,1.41,2.34,2.34,0,0,1-2.63-2.29c0-1.7,1.46-2.35,3-2.51l1.6-.18c.61-.05.9-.27.9-.82,0-.81-.69-1.33-1.66-1.33a1.87,1.87,0,0,0-2,1.54l-1.6-.4c.3-1.53,1.7-2.5,3.59-2.5S251.74,34.12,251.74,36.09Zm-1.63,1.82v-.3a2.15,2.15,0,0,1-.93.27l-1.58.17c-.79.1-1.35.48-1.35,1.16s.53,1.07,1.36,1.07A2.46,2.46,0,0,0,250.11,37.91Zm.67-8-1.89,2.56h-1.66L249,29.88Z"/><path class="cls-1" d="M111.07,47.44h1.64V59.05h-1.64V57.82a3.65,3.65,0,0,1-2.93,1.39,4.25,4.25,0,0,1,0-8.49,3.67,3.67,0,0,1,2.93,1.38Zm0,7.53a2.64,2.64,0,1,0-2.64,2.73A2.64,2.64,0,0,0,111.07,55Z"/><path class="cls-1" d="M118.54,50.72A4.25,4.25,0,1,1,114.22,55,4.2,4.2,0,0,1,118.54,50.72Zm0,7A2.75,2.75,0,1,0,115.9,55,2.63,2.63,0,0,0,118.54,57.7Z"/><path class="cls-1" d="M133,55a4.07,4.07,0,0,1-4,4.24A3.66,3.66,0,0,1,126,57.82v4.43h-1.63V50.88H126V52.1a3.68,3.68,0,0,1,2.93-1.38A4.07,4.07,0,0,1,133,55Zm-1.68,0a2.65,2.65,0,1,0-2.64,2.73A2.65,2.65,0,0,0,131.3,55Z"/><path class="cls-1" d="M136.13,52.05a3,3,0,0,1,3.2-1.25v1.57c-1.8-.49-3.2.47-3.2,2.05v4.63h-1.64V50.88h1.64Z"/><path class="cls-1" d="M146.69,53.69v5.36h-1.63V57.8a3.44,3.44,0,0,1-2.87,1.41,2.33,2.33,0,0,1-2.62-2.29c0-1.7,1.45-2.35,3-2.51l1.6-.18c.61,0,.9-.27.9-.82,0-.81-.69-1.32-1.67-1.32a1.86,1.86,0,0,0-2,1.53l-1.6-.4c.3-1.54,1.69-2.5,3.58-2.5S146.69,51.72,146.69,53.69Zm-1.63,1.82v-.3a2.15,2.15,0,0,1-.93.27l-1.59.17c-.78.1-1.34.48-1.34,1.16s.53,1.07,1.36,1.07A2.46,2.46,0,0,0,145.06,55.51Z"/><path class="cls-1" d="M154.13,50.88h1.65l-3.35,8.17h-1.84l-3.34-8.17H149l2.56,6.58Z"/><path class="cls-1" d="M163.06,53.69v5.36h-1.64V57.8a3.42,3.42,0,0,1-2.86,1.41,2.34,2.34,0,0,1-2.63-2.29c0-1.7,1.46-2.35,3-2.51l1.6-.18c.61,0,.89-.27.89-.82,0-.81-.68-1.32-1.66-1.32a1.87,1.87,0,0,0-2,1.53l-1.6-.4c.31-1.54,1.7-2.5,3.59-2.5S163.06,51.72,163.06,53.69Zm-1.64,1.82v-.3a2.09,2.09,0,0,1-.92.27l-1.59.17c-.78.1-1.34.48-1.34,1.16s.52,1.07,1.36,1.07A2.45,2.45,0,0,0,161.42,55.51Z"/></svg>