<?xml version="1.0" encoding="UTF-8" standalone="no"?>
<svg
   xmlns:dc="http://purl.org/dc/elements/1.1/"
   xmlns:cc="http://creativecommons.org/ns#"
   xmlns:rdf="http://www.w3.org/1999/02/22-rdf-syntax-ns#"
   xmlns:svg="http://www.w3.org/2000/svg"
   xmlns="http://www.w3.org/2000/svg"
   xmlns:sodipodi="http://sodipodi.sourceforge.net/DTD/sodipodi-0.dtd"
   xmlns:inkscape="http://www.inkscape.org/namespaces/inkscape"
   version="1.1"
   id="svg2"
   xml:space="preserve"
   width="257.33334"
   height="257.33334"
   viewBox="0 0 257.33334 257.33334"
   sodipodi:docname="Praha.eps"><metadata
     id="metadata8"><rdf:RDF><cc:Work
         rdf:about=""><dc:format>image/svg+xml</dc:format><dc:type
           rdf:resource="http://purl.org/dc/dcmitype/StillImage" /></cc:Work></rdf:RDF></metadata><defs
     id="defs6" /><sodipodi:namedview
     pagecolor="#ffffff"
     bordercolor="#666666"
     borderopacity="1"
     objecttolerance="10"
     gridtolerance="10"
     guidetolerance="10"
     inkscape:pageopacity="0"
     inkscape:pageshadow="2"
     inkscape:window-width="640"
     inkscape:window-height="480"
     id="namedview4" /><g
     id="g10"
     inkscape:groupmode="layer"
     inkscape:label="ink_ext_XXXXXX"
     transform="matrix(1.3333333,0,0,-1.3333333,0,257.33333)"><g
       id="g12"
       transform="scale(0.1)"><path
         d="M 0,1927.56 H 1927.56 V 0 H 0 v 1927.56"
         style="fill:#ffffff;fill-opacity:1;fill-rule:evenodd;stroke:none"
         id="path14" /><path
         d="M 86.5664,1840.83 H 945.938 V 86.4453 H 86.5664 V 1840.83"
         style="fill:#c81429;fill-opacity:1;fill-rule:evenodd;stroke:none"
         id="path16" /><path
         d="M 980.047,1840.84 H 1840.9 V 86.4453 H 980.047 V 1840.84"
         style="fill:#c81429;fill-opacity:1;fill-rule:evenodd;stroke:none"
         id="path18" /><path
         d="m 308.953,1565.27 c -7.539,0 -13.437,0.58 -18.262,1.54 0,5.71 0,68.14 0,73.8 4.164,0.66 11.571,1.55 21.297,1.55 16.77,0 44.879,-4.79 44.879,-36.92 0,-25.41 -17.465,-39.97 -47.914,-39.97 z m 62.856,87.56 c -13.387,12.03 -33.711,18.12 -60.407,18.12 -19.281,0 -36.722,-1.47 -51.898,-4.35 l -3.117,-0.6 v -210.73 h 34.304 c 0,0 0,74.23 0,82.12 5.676,-0.87 11.688,-1.21 17.633,-1.21 27.43,0 50.809,8.43 65.832,23.8 11.532,12.2 17.317,27.91 17.317,46.81 0,18.7 -6.969,35.05 -19.664,46.04"
         style="fill:#ffe100;fill-opacity:1;fill-rule:evenodd;stroke:none"
         id="path20" /><path
         d="m 568.199,1608 c 0,-21.49 -16.765,-35.38 -42.715,-35.38 0,0 -17.789,0 -23.441,0 0,6.58 0,62.78 0,68.13 3.82,0.73 11.086,1.72 22.508,1.72 19.937,0 43.648,-5.99 43.648,-34.47 z m 25.946,-91.34 c -5.067,20.93 -14.028,34.16 -26.774,41.19 21.777,9.93 35.449,29.39 35.449,52.92 0,16.94 -6.386,32.29 -17.547,42.06 -13.621,12.36 -33.531,18.12 -62.566,18.12 -17.914,0 -37.797,-1.78 -51.894,-4.67 l -3.075,-0.62 v -210.39 h 34.305 c 0,0 0,82.44 0,89.47 5.508,0 21.273,0 21.273,0 21.825,0 32.125,-10.06 37.934,-37.11 6.25,-29.02 10.488,-44.56 13.918,-50.44 l 1.086,-1.92 h 36 l -2.805,5.54 c -3.898,7.82 -9.008,28.99 -15.304,55.85"
         style="fill:#ffe100;fill-opacity:1;fill-rule:evenodd;stroke:none"
         id="path22" /><path
         d="m 793.555,1548.77 c -8.125,0 -43.383,0 -51.461,0 2.851,8.47 18.511,54.68 18.511,54.68 2.872,8.46 4.79,17 6.895,25.52 1.98,-7.08 7.281,-25.84 7.281,-25.84 0,-0.01 13.965,-40.33 18.774,-54.36 z m -43.934,120.71 -72.738,-214.16 h 35.672 c 0,0 19.84,60.11 21.437,64.97 4.934,0 62.832,0 67.715,0 1.629,-4.79 22.043,-64.97 22.043,-64.97 h 36.613 l -73.101,214.16 h -37.641"
         style="fill:#ffe100;fill-opacity:1;fill-rule:evenodd;stroke:none"
         id="path24" /><path
         d="m 1204.5,1455.32 c 0,0 0,89.77 0,96.81 -6.82,0 -85.41,0 -92.23,0 0,-7.04 0,-96.81 0,-96.81 h -34.6 v 214.16 h 34.6 c 0,0 0,-79.41 0,-86.4 6.82,0 85.41,0 92.23,0 0,6.99 0,86.4 0,86.4 h 34.61 v -214.16 h -34.61"
         style="fill:#ffe100;fill-opacity:1;fill-rule:evenodd;stroke:none"
         id="path26" /><path
         d="m 1437.33,1548.77 c -8.1,0 -43.38,0 -51.46,0 2.85,8.47 18.51,54.68 18.51,54.68 2.93,8.54 4.8,17.05 6.89,25.55 2.05,-7.26 7.29,-25.87 7.29,-25.87 0.02,-0.01 13.95,-40.33 18.77,-54.36 z m -43.91,120.71 -72.78,-214.16 h 35.69 c 0,0 19.86,60.11 21.42,64.97 4.97,0 62.88,0 67.74,0 1.62,-4.79 22.05,-64.97 22.05,-64.97 h 36.61 l -73.08,214.16 h -37.65"
         style="fill:#ffe100;fill-opacity:1;fill-rule:evenodd;stroke:none"
         id="path28" /><path
         d="m 308.953,1179.7 c -7.539,0 -13.437,0.62 -18.262,1.59 0,5.68 0,68.1 0,73.79 4.164,0.67 11.571,1.54 21.297,1.54 16.77,0 44.879,-4.8 44.879,-36.89 0,-25.45 -17.465,-40.03 -47.914,-40.03 z m 62.856,87.61 c -13.387,11.99 -33.711,18.11 -60.407,18.11 -19.281,0 -36.722,-1.48 -51.898,-4.38 l -3.117,-0.58 v -210.72 h 34.304 c 0,0 0,74.21 0,82.14 5.676,-0.9 11.688,-1.26 17.633,-1.26 27.43,0 50.809,8.47 65.832,23.81 11.532,12.18 17.317,27.92 17.317,46.8 0,18.71 -6.969,35.06 -19.664,46.08"
         style="fill:#ffe100;fill-opacity:1;fill-rule:evenodd;stroke:none"
         id="path30" /><path
         d="m 568.199,1222.46 c 0,-21.5 -16.765,-35.39 -42.715,-35.39 0,0 -17.789,0 -23.441,0 0,6.62 0,62.79 0,68.15 3.82,0.72 11.086,1.7 22.508,1.7 19.937,0 43.648,-5.97 43.648,-34.46 z m 25.946,-91.32 c -5.067,20.89 -14.028,34.15 -26.747,41.15 21.75,9.98 35.422,29.39 35.422,52.91 0,16.97 -6.386,32.3 -17.547,42.11 -13.621,12.33 -33.531,18.11 -62.566,18.11 -17.914,0 -37.797,-1.79 -51.894,-4.68 l -3.075,-0.62 v -210.38 h 34.305 c 0,0 0,82.43 0,89.44 5.508,0 21.273,0 21.273,0 21.825,0 32.125,-10.05 37.934,-37.07 6.25,-29.01 10.488,-44.58 13.918,-50.43 l 1.086,-1.94 h 36 l -2.805,5.56 c -3.898,7.79 -9.008,28.96 -15.304,55.84"
         style="fill:#ffe100;fill-opacity:1;fill-rule:evenodd;stroke:none"
         id="path32" /><path
         d="m 793.555,1163.23 c -8.125,0 -43.383,0 -51.461,0 2.851,8.47 18.511,54.68 18.511,54.68 2.852,8.4 4.79,16.97 6.895,25.51 1.98,-7 7.281,-25.82 7.281,-25.82 0,-0.02 13.965,-40.36 18.774,-54.37 z m -43.934,120.68 -72.738,-214.12 h 35.672 c 0,0 19.84,60.12 21.437,64.96 4.934,0 62.832,0 67.715,0 1.629,-4.8 22.043,-64.96 22.043,-64.96 h 36.613 l -73.101,214.12 h -37.641"
         style="fill:#ffe100;fill-opacity:1;fill-rule:evenodd;stroke:none"
         id="path34" /><path
         d="m 1166.86,1156.79 c 0,0 35.34,0 41.63,0 0,-6.43 0,-50.53 0,-55.08 -6.78,-2.71 -18.23,-4.35 -31.7,-4.35 -46.73,0 -75.8,30.47 -75.8,79.49 0,48.88 30.33,79.19 79.17,79.19 17.73,0 31.72,-2.7 44.03,-8.5 l 4.02,-1.88 9,29.11 -2.96,1.43 c -9.45,4.54 -29.13,9.87 -53.46,9.87 -69.18,0 -115.63,-44.39 -115.63,-110.43 0,-32.26 10.9,-61.28 29.93,-79.65 19.98,-19.09 46.11,-28.33 79.89,-28.33 32.41,0 58.01,8.85 65.09,11.56 l 2.45,0.97 v 105.71 h -75.66 v -29.11"
         style="fill:#ffe100;fill-opacity:1;fill-rule:evenodd;stroke:none"
         id="path36" /><path
         d="m 1334.29,1284.04 v -125.45 c 0,-59.35 27.67,-92.05 77.93,-92.05 52.09,0 81.95,33.87 81.95,92.97 v 124.53 h -34.6 v -126.4 c 0,-40.35 -16.07,-61.7 -46.43,-61.7 -28.53,0 -44.25,21.91 -44.25,61.7 v 126.4 h -34.6"
         style="fill:#ffe100;fill-opacity:1;fill-rule:evenodd;stroke:none"
         id="path38" /><path
         d="m 1718.52,1099.82 v -30.03 h -124.11 v 214.12 h 119.51 v -30 c 0,0 -77.89,0 -84.85,0 0,-6.37 0,-51.24 0,-57.59 6.91,0 79.96,0 79.96,0 v -29.7 c 0,0 -73.05,0 -79.96,0 0,-6.51 0,-60.28 0,-66.8 6.98,0 89.45,0 89.45,0"
         style="fill:#ffe100;fill-opacity:1;fill-rule:evenodd;stroke:none"
         id="path40" /><path
         d="m 308.953,794.27 c -7.515,0 -13.422,0.578 -18.262,1.531 0,5.699 0,68.117 0,73.808 4.313,0.68 11.594,1.536 21.297,1.536 16.77,0 44.879,-4.793 44.879,-36.875 0,-25.454 -17.465,-40 -47.914,-40 z m 62.856,87.57 c -13.387,12.015 -33.711,18.113 -60.407,18.113 -19.281,0 -36.722,-1.453 -51.898,-4.355 l -3.117,-0.606 V 684.273 h 34.304 c 0,0 0,74.207 0,82.122 5.817,-0.887 12.008,-1.243 17.633,-1.243 27.43,0 50.809,8.477 65.832,23.836 11.532,12.176 17.317,27.895 17.317,46.789 0,18.703 -6.969,35.043 -19.664,46.063"
         style="fill:#ffe100;fill-opacity:1;fill-rule:evenodd;stroke:none"
         id="path42" /><path
         d="m 568.199,836.996 c 0,-21.508 -16.765,-35.391 -42.715,-35.391 0,0 -17.789,0 -23.441,0 0,6.598 0,62.805 0,68.149 3.82,0.73 11.086,1.73 22.508,1.73 19.937,0 43.648,-6.004 43.648,-34.488 z m 25.946,-91.336 c -5.067,20.895 -14.028,34.164 -26.774,41.172 21.777,9.969 35.449,29.406 35.449,52.922 0,16.953 -6.386,32.301 -17.547,42.086 -13.621,12.336 -33.531,18.113 -62.566,18.113 -17.953,0 -37.844,-1.789 -51.922,-4.66 l -3.047,-0.664 V 684.273 h 34.305 c 0,0 0,82.461 0,89.461 5.508,0 21.273,0 21.273,0 21.825,0 32.125,-10.05 37.934,-37.101 6.25,-29.004 10.488,-44.567 13.918,-50.449 l 1.086,-1.911 h 36 l -2.805,5.567 c -3.898,7.789 -9.008,28.969 -15.304,55.82"
         style="fill:#ffe100;fill-opacity:1;fill-rule:evenodd;stroke:none"
         id="path44" /><path
         d="m 793.555,777.766 c -8.125,0 -43.383,0 -51.461,0 2.851,8.468 18.511,54.691 18.511,54.691 2.872,8.41 4.79,16.977 6.895,25.492 1.98,-7.066 7.281,-25.816 7.281,-25.816 0,0 13.965,-40.356 18.774,-54.367 z M 749.621,898.477 676.883,684.324 h 35.672 c 0,0 19.84,60.102 21.437,64.942 4.934,0 62.832,0 67.715,0 1.629,-4.762 22.043,-64.942 22.043,-64.942 h 36.613 l -73.101,214.153 h -37.641"
         style="fill:#ffe100;fill-opacity:1;fill-rule:evenodd;stroke:none"
         id="path46" /><path
         d="m 1166.86,771.328 c 0,0 35.34,0 41.63,0 0,-6.418 0,-50.566 0,-55.113 -6.79,-2.664 -18.23,-4.309 -31.7,-4.309 -46.73,0 -75.8,30.469 -75.8,79.481 0,48.851 30.33,79.191 79.17,79.191 17.76,0 31.72,-2.683 44.03,-8.484 l 4.02,-1.903 9,29.114 -3,1.453 c -9.44,4.535 -29.11,9.824 -53.42,9.824 -69.18,0 -115.63,-44.352 -115.63,-110.426 0,-32.23 10.9,-61.234 29.93,-79.625 19.98,-19.097 46.11,-28.355 79.89,-28.355 32.41,0 58.01,8.875 65.09,11.605 l 2.45,0.938 v 105.726 h -75.66 v -29.117"
         style="fill:#ffe100;fill-opacity:1;fill-rule:evenodd;stroke:none"
         id="path48" /><path
         d="m 1436.78,777.766 c -8.08,0 -43.36,0 -51.44,0 2.85,8.468 18.52,54.691 18.52,54.691 2.81,8.246 5.02,16.523 7.08,24.863 2.1,-7.504 7.1,-25.187 7.1,-25.187 0,0 13.92,-40.356 18.74,-54.367 z m -43.89,120.711 -72.76,-214.153 h 35.69 c 0,0 19.81,60.102 21.43,64.942 4.93,0 62.84,0 67.73,0 1.62,-4.762 22.02,-64.942 22.02,-64.942 h 36.61 l -73.05,214.153 h -37.67"
         style="fill:#ffe100;fill-opacity:1;fill-rule:evenodd;stroke:none"
         id="path50" /><path
         d="m 308.953,408.781 c -7.515,0 -13.422,0.582 -18.262,1.547 0,5.711 0,68.133 0,73.817 4.313,0.683 11.594,1.531 21.297,1.531 16.77,0 44.879,-4.801 44.879,-36.926 0,-25.395 -17.465,-39.969 -47.914,-39.969 z m 62.856,87.571 c -13.364,12.019 -33.688,18.117 -60.407,18.117 -19.211,0 -36.675,-1.461 -51.898,-4.348 l -3.117,-0.598 v -210.73 h 34.304 c 0,0 0,74.25 0,82.164 5.817,-0.914 12.008,-1.269 17.633,-1.269 27.43,0 50.809,8.453 65.832,23.816 11.532,12.187 17.317,27.922 17.317,46.801 0,18.699 -6.969,35.062 -19.664,46.047"
         style="fill:#ffe100;fill-opacity:1;fill-rule:evenodd;stroke:none"
         id="path52" /><path
         d="m 568.199,451.535 c 0,-21.512 -16.765,-35.402 -42.715,-35.402 0,0 -17.789,0 -23.441,0 0,6.582 0,62.789 0,68.148 3.82,0.731 11.086,1.707 22.508,1.707 19.937,0 43.648,-5.976 43.648,-34.453 z m 25.946,-91.347 c -5.067,20.917 -14.028,34.175 -26.774,41.171 21.777,9.985 35.449,29.399 35.449,52.911 0,16.984 -6.386,32.324 -17.547,42.082 -13.617,12.351 -33.519,18.117 -62.566,18.117 -17.914,0 -37.797,-1.766 -51.894,-4.676 l -3.075,-0.617 V 298.793 h 34.305 c 0,0 0,82.461 0,89.477 5.508,0 21.273,0 21.273,0 21.825,0 32.125,-10.071 37.934,-37.122 6.121,-28.593 10.539,-44.593 13.918,-50.445 l 1.086,-1.91 h 36 l -2.805,5.543 c -3.898,7.84 -9.008,29 -15.304,55.852"
         style="fill:#ffe100;fill-opacity:1;fill-rule:evenodd;stroke:none"
         id="path54" /><path
         d="m 793.555,392.297 c -8.125,0 -43.383,0 -51.461,0 2.851,8.48 18.511,54.664 18.511,54.664 2.872,8.445 4.79,16.992 6.895,25.527 1.98,-7.066 7.281,-25.816 7.281,-25.816 0,-0.035 13.965,-40.359 18.774,-54.375 z M 749.621,512.984 676.883,298.852 h 35.672 c 0,0 19.84,60.101 21.437,64.945 4.934,0 62.832,0 67.715,0 1.629,-4.785 22.043,-64.945 22.043,-64.945 h 36.613 l -73.101,214.132 h -37.641"
         style="fill:#ffe100;fill-opacity:1;fill-rule:evenodd;stroke:none"
         id="path56" /><path
         d="m 1166.86,385.867 c 0,0 35.34,0 41.63,0 0,-6.418 0,-50.558 0,-55.109 -6.78,-2.703 -18.19,-4.324 -31.7,-4.324 -46.73,0 -75.8,30.441 -75.8,79.484 0,48.867 30.33,79.176 79.17,79.176 17.73,0 31.72,-2.684 44.03,-8.516 l 4.02,-1.867 9,29.086 -2.96,1.461 c -9.45,4.535 -29.13,9.863 -53.46,9.863 -69.18,0 -115.63,-44.379 -115.63,-110.457 0,-32.207 10.9,-61.211 29.93,-79.601 19.98,-19.09 46.11,-28.348 79.89,-28.348 32.41,0 58.01,8.863 65.09,11.582 l 2.45,0.957 v 105.711 h -75.66 v -29.098"
         style="fill:#ffe100;fill-opacity:1;fill-rule:evenodd;stroke:none"
         id="path58" /></g></g></svg>
