<svg xmlns="http://www.w3.org/2000/svg" width="100" height="100" viewBox="0.5 100.5 100 100">
  <title>SWU-Logo</title>
  <rect x=".5" y="100.5" fill="#0082c4" width="100" height="100"/>
  <g fill="#FFF">
    <path d="M27.398 164.186c-1.654-.55-3.47-.81-5.413-.81-3.986 0-7.907 1.85-7.907 6.903 0 7.485 9.916 5.704 9.916 10.016 0 2.04-2.302 2.915-4.018 2.915-1.783 0-3.566-.55-5.12-1.394l-.423 4.086c2.235.552 3.337.873 5.8.873 4.572 0 8.494-1.88 8.494-6.838 0-7.584-9.918-5.93-9.918-9.854 0-2.463 2.008-3.145 3.564-3.145 1.59 0 3.176.356 4.604.974l.42-3.726"/>
    <polyline points="37.506,186.386 43.374,186.386 47.392,168.305 47.457,168.305 51.54,186.386 57.375,186.386 63.271,163.766 58.865,163.766 54.619,181.85 54.555,181.85 50.568,163.766 44.411,163.766 40.554,181.85 40.488,181.85 36.276,163.766 31.51,163.766 37.506,186.386"/>
    <path d="M67.684 178.22c0 6.06 3.435 8.558 9.236 8.558 5.803 0 9.24-2.498 9.24-8.56v-14.452h-4.54v13.062c0 3.856-1.23 6.385-4.7 6.385-3.467 0-4.7-2.528-4.7-6.385v-13.062h-4.536v14.453"/>
  </g>
</svg>
