<svg xmlns="http://www.w3.org/2000/svg" viewBox="0 0 205.39808 62.08922"><defs><style>.cls-1{fill:#0072ce;}</style></defs><title>Tallinn_logo_RGB</title><g id="Tekstid._Tallinna_sinine" data-name="Tekstid. Tallinna sinine"><path class="cls-1" d="M85.4601,20.48909H76.07321v26.499H69.78527v-26.499H60.39837V15.09961H85.4601Z"/><path class="cls-1" d="M103.7696,31.4928V46.98805H98.51455V44.60772c-1.43723,1.976-3.95225,3.14384-7.41064,3.14384-4.716,0-8.219-2.20074-8.219-6.55733,0-4.85072,3.81756-7.00656,9.92566-8.08435l5.38974-.98826v-.53877c0-2.20074-1.61682-3.50328-4.31169-3.50328a6.75927,6.75927,0,0,0-3.59307.85331,22.03164,22.03164,0,0,0-3.54818,2.87446l-3.68287-3.36859a13.22629,13.22629,0,0,1,10.73433-5.165C100.22143,23.27376,103.7696,26.50765,103.7696,31.4928Zm-5.56933,6.15325V36.29862l-3.86246.80841c-3.90761.85331-5.74892,1.70687-5.74892,3.68287,0,1.43723,1.30228,2.2908,3.503,2.2908C95.4605,43.0807,98.20027,41.37382,98.20027,37.64606Z"/><path class="cls-1" d="M115.02349,46.98805h-5.839V15.09961h5.839Z"/><path class="cls-1" d="M126.54287,46.98805h-5.83871V15.09961h5.83871Z"/><path class="cls-1" d="M138.06225,20.57889h-5.83871V15.09961h5.83871Zm0,26.40916h-5.83871V24.03727h5.83871Z"/><path class="cls-1" d="M164.31311,31.26832V46.98805h-5.83871v-13.968c0-3.05431-1.527-4.716-4.26679-4.716a4.54311,4.54311,0,0,0-4.626,4.85072V46.98805h-5.83871V24.03727h5.43438v2.60508a7.99053,7.99053,0,0,1,6.91677-3.36859C161.304,23.27376,164.31311,26.4625,164.31311,31.26832Z"/><path class="cls-1" d="M190.29847,31.26832V46.98805h-5.83871v-13.968c0-3.05431-1.527-4.716-4.26679-4.716a4.54317,4.54317,0,0,0-4.62623,4.85072V46.98805H169.728V24.03727h5.43464v2.60508a7.99006,7.99006,0,0,1,6.91651-3.36859C187.28932,23.27376,190.29847,26.4625,190.29847,31.26832Z"/></g><g id="Logod._Tallinna_sinine" data-name="Logod. Tallinna sinine"><g id="Tallinna_logo-5" data-name="Tallinna logo"><path class="cls-1" d="M37.64718,26.4671c-3.58157-.97654-5.37235-2.19721-9.483-2.9296-4.19207-.7731-8.09923-.52895-13.06459,0v4.964c5.65725-.85446,13.79718-2.03444,20.02423-.89516,5.08745.93586,5.53514,2.80754,10.17491,3.82476V27.56571A37.67771,37.67771,0,0,1,37.64718,26.4671Z"/><path class="cls-1" d="M45.29871,33.8725c-3.54088-2.44136-6.83754-2.56342-10.21562-2.52271-6.79684.12206-11.925.97652-19.98352,2.31927v3.97063a11.61636,11.61636,0,0,0,.05933,1.26762c5.87587-1.05217,10.89612-1.7808,13.046-2.1052,6.14565-.97654,12.49479-1.95308,17.09386-1.18Z"/><path class="cls-1" d="M16.53782,43.14756a12.11175,12.11175,0,0,0,.97348,1.45c3.35538,4.24665,12.37285,7.60206,12.68781,7.70707h0c.3146-.10486,9.33237-3.46032,12.68783-7.70707a11.63371,11.63371,0,0,0,1.65568-2.86747,11.90353,11.90353,0,0,0,.62626-2.28394c.03395-.216.059-.4192.07752-.608C44.3652,38.95449,17.2802,43.03783,16.53782,43.14756Z"/><path class="cls-1" d="M27.79786,18.08519c-3.82577-.40689-6.634-1.34275-12.69829-2.23791v3.33652a34.23059,34.23059,0,0,1,10.8261,1.302c1.18029.32553,3.50018,1.01725,4.39557,1.26137,4.72116,1.302,11.111,1.302,14.97747,1.74962V19.59068C39.80426,18.61414,31.94922,18.53275,27.79786,18.08519Z"/><path class="cls-1" d="M30.19942,9.78463h-.00028a60.62324,60.62324,0,0,0-15.09957,1.74964v1.54617l30.19914,2.6041V11.53427A60.62333,60.62333,0,0,0,30.19942,9.78463Z"/></g></g></svg>