<?xml version="1.0" encoding="UTF-8" standalone="no"?>
<!-- Generator: Adobe Illustrator 19.2.1, SVG Export Plug-In . SVG Version: 6.00 Build 0)  -->

<svg
   version="1.1"
   id="layer"
   x="0px"
   y="0px"
   viewBox="0 0 600.08887 220.08884"
   xml:space="preserve"
   sodipodi:docname="tlt.svg"
   width="600.08887"
   height="220.08884"
   inkscape:version="1.2.2 (b0a84865, 2022-12-01)"
   xmlns:inkscape="http://www.inkscape.org/namespaces/inkscape"
   xmlns:sodipodi="http://sodipodi.sourceforge.net/DTD/sodipodi-0.dtd"
   xmlns="http://www.w3.org/2000/svg"
   xmlns:svg="http://www.w3.org/2000/svg"><defs
   id="defs89" /><sodipodi:namedview
   id="namedview87"
   pagecolor="#ffffff"
   bordercolor="#000000"
   borderopacity="0.25"
   inkscape:showpageshadow="2"
   inkscape:pageopacity="0.0"
   inkscape:pagecheckerboard="0"
   inkscape:deskcolor="#d1d1d1"
   showgrid="false"
   inkscape:zoom="0.36196319"
   inkscape:cx="302.51695"
   inkscape:cy="107.74576"
   inkscape:window-width="1920"
   inkscape:window-height="1054"
   inkscape:window-x="0"
   inkscape:window-y="25"
   inkscape:window-maximized="1"
   inkscape:current-layer="layer" />
<style
   type="text/css"
   id="style2">
	.st0{fill:#73797C;}
	.st1{fill:#04A64A;}
</style>
<rect
   x="284.88885"
   y="5.3999968"
   class="st0"
   width="3.2"
   height="192.7"
   id="rect4" />
<g
   id="g84"
   inkscape:export-filename="g84.svg"
   inkscape:export-xdpi="96"
   inkscape:export-ydpi="96"
   transform="translate(-26.211161,-217.3)">
	<path
   class="st0"
   d="m 357.9,252.1 h -6.1 c -0.4,0 -0.5,0.1 -0.5,0.5 v 27.7 c 0,0.4 -0.1,0.5 -0.5,0.5 h -2.4 c -0.3,0 -0.5,-0.1 -0.5,-0.5 v -27.7 c 0,-0.4 -0.1,-0.5 -0.5,-0.5 h -6.1 c -0.4,0 -0.5,-0.1 -0.5,-0.5 v -1.9 c 0,-0.4 0.1,-0.5 0.5,-0.5 h 16.5 c 0.4,0 0.5,0.1 0.5,0.5 v 1.9 c 0.2,0.3 0,0.5 -0.4,0.5"
   id="path6" />
	<path
   class="st0"
   d="m 370.3,271.6 c 0,-0.3 -0.2,-0.5 -0.5,-0.5 h -6.6 c -1.7,0 -3,1.3 -3,3 v 0.8 c 0,1.7 1.4,3 3,3 h 2 c 2,0 3.7,-1.5 5.1,-4.3 l 0.1,-1.1 v -0.9 z m 2.9,9.1 h -1.9 c -0.4,0 -0.5,-0.1 -0.5,-0.5 V 278 c 0,-0.3 -0.2,-0.6 -0.4,-0.6 -0.5,0 -1.4,1.1 -3,2.4 -0.6,0.5 -1.7,0.9 -2.3,0.9 h -2 c -3.8,0 -6.3,-2.5 -6.3,-5.9 v -0.3 c 0,-3.4 2.6,-5.8 6.3,-5.8 h 6.6 c 0.4,0 0.5,-0.1 0.5,-0.5 l -0.1,-2 c 0,-3 -2.3,-5.2 -5.3,-5.2 -1.2,0 -2.5,0.5 -3.4,1.3 -1.1,1 -1.4,1.7 -1.8,1.7 -0.1,0 -0.2,0 -0.3,-0.1 l -2.1,-1.1 c -0.2,-0.1 -0.3,-0.2 -0.3,-0.4 0,-1.6 3,-4.4 7.8,-4.4 5.4,0 8.8,3.2 8.8,8.1 v 14 c 0.2,0.5 0.1,0.6 -0.3,0.6"
   id="path8" />
	<path
   class="st0"
   d="m 383.7,280.7 h -2.4 c -0.3,0 -0.5,-0.1 -0.5,-0.5 v -30.5 c 0,-0.3 0.2,-0.5 0.5,-0.5 h 2.4 c 0.3,0 0.5,0.1 0.5,0.5 v 30.5 c 0,0.4 -0.1,0.5 -0.5,0.5"
   id="path10" />
	<path
   class="st0"
   d="m 394.2,280.7 h -2.4 c -0.3,0 -0.5,-0.1 -0.5,-0.5 v -30.5 c 0,-0.3 0.2,-0.5 0.5,-0.5 h 2.4 c 0.4,0 0.5,0.1 0.5,0.5 v 30.5 c 0,0.4 -0.2,0.5 -0.5,0.5"
   id="path12" />
	<path
   class="st0"
   d="m 404.7,280.7 h -2.4 c -0.4,0 -0.5,-0.1 -0.5,-0.5 V 259 c 0,-0.3 0.2,-0.5 0.5,-0.5 h 2.4 c 0.4,0 0.5,0.2 0.5,0.5 v 21.2 c 0,0.4 -0.2,0.5 -0.5,0.5 m -1.3,-27.6 c -1.2,0 -2.2,-1 -2.2,-2.3 0,-1.2 1,-2.2 2.2,-2.2 1.3,0 2.3,1 2.3,2.2 0,1.3 -1,2.3 -2.3,2.3"
   id="path14" />
	<path
   class="st0"
   d="m 429.2,280.7 h -2.4 c -0.3,0 -0.5,-0.1 -0.5,-0.5 v -13.5 c 0,-2.9 -2.4,-5.3 -5.4,-5.3 -3.1,0 -5.3,2.4 -5.3,5.3 v 13.5 c 0,0.4 -0.2,0.5 -0.5,0.5 h -2.4 c -0.4,0 -0.5,-0.1 -0.5,-0.5 v -21.1 c 0,-0.3 0.1,-0.5 0.5,-0.5 h 1.9 c 0.3,0 0.5,0.2 0.5,0.5 v 2 c 0,0.3 0.2,0.6 0.4,0.6 0.4,0 0.8,-0.5 1.5,-1.2 1.1,-1 2,-1.9 4.4,-1.9 4.7,0 8.3,3.4 8.3,8.2 v 13.5 c 0,0.3 -0.1,0.4 -0.5,0.4"
   id="path16" />
	<path
   class="st0"
   d="m 453.8,280.7 h -2.4 c -0.3,0 -0.5,-0.1 -0.5,-0.5 v -13.5 c 0,-2.9 -2.4,-5.3 -5.4,-5.3 -3.1,0 -5.3,2.4 -5.3,5.3 v 13.5 c 0,0.4 -0.1,0.5 -0.5,0.5 h -2.4 c -0.4,0 -0.5,-0.1 -0.5,-0.5 v -21.1 c 0,-0.3 0.1,-0.5 0.5,-0.5 h 1.9 c 0.4,0 0.5,0.2 0.5,0.5 v 2 c 0,0.3 0.2,0.6 0.4,0.6 0.3,0 0.7,-0.5 1.5,-1.2 1.1,-1 2,-1.9 4.4,-1.9 4.7,0 8.3,3.4 8.3,8.2 v 13.5 c 0,0.3 -0.2,0.4 -0.5,0.4"
   id="path18" />
	<path
   class="st0"
   d="m 472.7,271.6 c 0,-0.3 -0.2,-0.5 -0.5,-0.5 h -6.6 c -1.6,0 -3,1.3 -3,3 v 0.8 c 0,1.7 1.4,3 3,3 h 2 c 2,0 3.7,-1.5 5.1,-4.3 l 0.1,-1.1 v -0.9 z m 2.9,9.1 h -1.9 c -0.4,0 -0.5,-0.1 -0.5,-0.5 V 278 c 0,-0.3 -0.2,-0.6 -0.4,-0.6 -0.5,0 -1.4,1.1 -3,2.4 -0.6,0.5 -1.6,0.9 -2.3,0.9 h -2 c -3.8,0 -6.3,-2.5 -6.3,-5.9 v -0.3 c 0,-3.4 2.6,-5.8 6.3,-5.8 h 6.6 c 0.4,0 0.5,-0.1 0.5,-0.5 l -0.1,-2 c 0,-3 -2.3,-5.2 -5.3,-5.2 -1.2,0 -2.5,0.5 -3.3,1.3 -1.1,1 -1.4,1.7 -1.8,1.7 -0.1,0 -0.2,0 -0.3,-0.1 l -2.1,-1.1 c -0.2,-0.1 -0.3,-0.2 -0.3,-0.4 0,-1.6 3,-4.4 7.8,-4.4 5.4,0 8.8,3.2 8.8,8.1 v 14 c 0.1,0.5 0,0.6 -0.4,0.6"
   id="path20" />
	<path
   class="st0"
   d="m 360.8,330.9 h -16.4 c -0.4,0 -0.5,-0.1 -0.5,-0.5 v -30.5 c 0,-0.4 0.1,-0.5 0.5,-0.5 h 2.4 c 0.4,0 0.5,0.1 0.5,0.5 v 27.7 c 0,0.4 0.1,0.5 0.5,0.5 h 13.1 c 0.4,0 0.5,0.2 0.5,0.5 v 1.9 c -0.1,0.2 -0.2,0.4 -0.6,0.4"
   id="path22" />
	<path
   class="st0"
   d="m 368.9,330.9 h -2.4 c -0.4,0 -0.5,-0.1 -0.5,-0.5 v -21.2 c 0,-0.3 0.2,-0.5 0.5,-0.5 h 2.4 c 0.4,0 0.5,0.2 0.5,0.5 v 21.2 c 0,0.3 -0.1,0.5 -0.5,0.5 m -1.2,-27.6 c -1.2,0 -2.2,-1 -2.2,-2.3 0,-1.2 1,-2.2 2.2,-2.2 1.3,0 2.3,0.9 2.3,2.2 -0.1,1.2 -1.1,2.3 -2.3,2.3"
   id="path24" />
	<path
   class="st0"
   d="m 392.5,330.9 h -2.4 c -0.3,0 -0.5,-0.1 -0.5,-0.5 v -13.5 c 0,-2.9 -2.4,-5.3 -5.4,-5.3 -3.1,0 -5.3,2.4 -5.3,5.3 v 13.5 c 0,0.4 -0.2,0.5 -0.5,0.5 H 376 c -0.4,0 -0.5,-0.1 -0.5,-0.5 v -21.1 c 0,-0.4 0.1,-0.5 0.5,-0.5 h 1.9 c 0.4,0 0.5,0.2 0.5,0.5 v 2 c 0,0.3 0.2,0.6 0.4,0.6 0.4,0 0.8,-0.5 1.5,-1.2 1.2,-0.9 2,-1.9 4.4,-1.9 4.7,0 8.3,3.4 8.3,8.2 v 13.5 c 0,0.2 -0.2,0.4 -0.5,0.4"
   id="path26" />
	<path
   class="st0"
   d="m 416,330.9 h -2.4 c -0.3,0 -0.5,-0.1 -0.5,-0.5 v -13.5 c 0,-2.9 -2.4,-5.3 -5.4,-5.3 -3.1,0 -5.3,2.4 -5.3,5.3 v 13.5 c 0,0.4 -0.1,0.5 -0.5,0.5 h -2.4 c -0.4,0 -0.5,-0.1 -0.5,-0.5 v -21.1 c 0,-0.4 0.1,-0.5 0.5,-0.5 h 1.9 c 0.4,0 0.5,0.2 0.5,0.5 v 2 c 0,0.3 0.2,0.6 0.4,0.6 0.3,0 0.7,-0.5 1.5,-1.2 1.1,-0.9 2,-1.9 4.4,-1.9 4.7,0 8.3,3.4 8.3,8.2 v 13.5 c 0,0.2 -0.1,0.4 -0.5,0.4"
   id="path28" />
	<path
   class="st0"
   d="m 435,321.7 c 0,-0.3 -0.2,-0.5 -0.5,-0.5 h -6.6 c -1.7,0 -3,1.3 -3,3 v 0.8 c 0,1.7 1.4,3 3,3 h 2 c 2,0 3.7,-1.5 5.1,-4.3 v -1.1 z m 2.9,9.2 H 436 c -0.3,0 -0.5,-0.1 -0.5,-0.5 v -2.2 c 0,-0.3 -0.2,-0.6 -0.4,-0.6 -0.5,0 -1.4,1.1 -3,2.4 -0.6,0.5 -1.6,0.9 -2.3,0.9 h -2 c -3.8,0 -6.3,-2.5 -6.3,-5.9 v -0.3 c 0,-3.4 2.6,-5.8 6.3,-5.8 h 6.6 c 0.4,0 0.5,-0.2 0.5,-0.5 v -2 c 0,-3 -2.3,-5.2 -5.3,-5.2 -1.2,0 -2.5,0.5 -3.3,1.3 -1.1,0.9 -1.4,1.7 -1.8,1.7 -0.1,0 -0.1,0 -0.3,0 l -2.1,-1.1 c -0.2,-0.1 -0.3,-0.2 -0.3,-0.4 0,-1.5 3,-4.4 7.8,-4.4 5.4,0 8.8,3.2 8.8,8.1 v 14 c 0,0.3 -0.2,0.5 -0.5,0.5"
   id="path30" />
	<path
   class="st0"
   d="m 453,331.3 c -3.8,0 -7.5,-3.4 -7.5,-8.2 V 312 c 0,-0.4 -0.1,-0.5 -0.5,-0.5 h -2.9 c -0.4,0 -0.5,-0.2 -0.5,-0.5 v -1 l 5.7,-6 0.4,-0.2 h 0.8 c 0.3,0 0.5,0.2 0.5,0.5 v 3.7 c 0,0.4 0.2,0.5 0.5,0.5 h 3.7 c 0.4,0 0.5,0.2 0.5,0.5 v 1.9 c 0,0.3 -0.1,0.5 -0.5,0.5 h -3.7 c -0.4,0 -0.5,0.2 -0.5,0.5 V 323 c 0,1.2 0.4,2.3 1.1,3.3 0.5,0.8 1.7,1.2 3.2,1.9 0.2,0.1 0.4,0.2 0.4,0.5 v 2 c -0.1,0.5 -0.3,0.6 -0.7,0.6"
   id="path32" />
	<path
   class="st0"
   d="m 469.5,312.3 c -0.4,0 -1,-0.1 -1.9,-0.1 -3.1,0 -5.3,2.3 -5.3,5.3 v 13 c 0,0.4 -0.2,0.5 -0.5,0.5 h -2.4 c -0.3,0 -0.5,-0.1 -0.5,-0.5 v -21.1 c 0,-0.4 0.2,-0.5 0.5,-0.5 h 1.9 c 0.4,0 0.5,0.1 0.5,0.5 v 2.5 c 0,0.4 0.2,0.6 0.4,0.6 0.6,0 1.4,-1.3 3.2,-2.7 0.6,-0.4 1.6,-0.9 2.3,-0.9 h 1.9 c 0.4,0 0.5,0.1 0.5,0.5 v 2.6 c -0.1,0.2 -0.2,0.3 -0.6,0.3"
   id="path34" />
	<path
   class="st0"
   d="m 485.4,321.7 c 0,-0.3 -0.2,-0.5 -0.5,-0.5 h -6.6 c -1.6,0 -2.9,1.3 -2.9,3 v 0.8 c 0,1.7 1.4,3 2.9,3 h 2 c 2,0 3.7,-1.5 5.1,-4.3 v -1.1 z m 2.9,9.2 h -1.9 c -0.3,0 -0.5,-0.1 -0.5,-0.5 v -2.2 c 0,-0.3 -0.2,-0.6 -0.4,-0.6 -0.5,0 -1.4,1.1 -3,2.4 -0.6,0.5 -1.6,0.9 -2.3,0.9 h -2 c -3.8,0 -6.3,-2.5 -6.3,-5.9 v -0.3 c 0,-3.4 2.6,-5.8 6.3,-5.8 h 6.6 c 0.4,0 0.5,-0.2 0.5,-0.5 v -2 c -0.1,-3 -2.3,-5.2 -5.3,-5.2 -1.3,0 -2.5,0.5 -3.4,1.3 -1.1,0.9 -1.4,1.7 -1.8,1.7 0,0 -0.2,0 -0.2,0 l -2.1,-1.1 c -0.2,-0.1 -0.3,-0.2 -0.3,-0.4 0,-1.5 3,-4.4 7.8,-4.4 5.4,0 8.8,3.2 8.8,8.1 v 14 c 0,0.3 -0.2,0.5 -0.5,0.5"
   id="path36" />
	<path
   class="st0"
   d="m 511.8,330.9 h -2.4 c -0.3,0 -0.5,-0.1 -0.5,-0.5 v -13.5 c 0,-2.9 -2.4,-5.3 -5.4,-5.3 -3.1,0 -5.3,2.4 -5.3,5.3 v 13.5 c 0,0.4 -0.2,0.5 -0.5,0.5 h -2.4 c -0.4,0 -0.5,-0.1 -0.5,-0.5 v -21.1 c 0,-0.4 0.1,-0.5 0.5,-0.5 h 1.9 c 0.3,0 0.5,0.2 0.5,0.5 v 2 c 0,0.3 0.2,0.6 0.4,0.6 0.4,0 0.8,-0.5 1.5,-1.2 1.1,-0.9 2,-1.9 4.4,-1.9 4.7,0 8.3,3.4 8.3,8.2 v 13.5 c 0,0.2 -0.1,0.4 -0.5,0.4"
   id="path38" />
	<path
   class="st0"
   d="m 520.5,314.2 c 0,2.1 1.6,3 5,3.8 5.8,1.3 9,2 9,6.2 0,4.3 -3.1,7.2 -8,7.2 H 525 c -4.7,0 -7.7,-2.8 -7.7,-4.4 0,-0.1 0.1,-0.2 0.4,-0.3 l 2,-1 c 0.1,0 0.2,0 0.2,0 0.1,0 0.3,0.1 0.4,0.2 1.3,1.5 2.3,2.8 4.8,2.8 h 1.6 c 2.8,0 4.6,-1.6 4.6,-3.7 0,-1.9 -1.6,-3 -4.9,-3.7 -5.8,-1.2 -9,-1.8 -9,-6.2 0,-4.1 3.1,-7 7.7,-7 h 1.6 c 4.6,0 7.7,2.8 7.7,4.3 0,0.1 -0.1,0.2 -0.4,0.4 l -1.9,1 c -0.1,0.1 -0.1,0.1 -0.2,0.1 -0.1,0 -0.2,-0.1 -0.4,-0.3 -1.4,-1.5 -2.6,-2.7 -4.8,-2.7 H 525 c -2.9,0 -4.5,1.2 -4.5,3.3"
   id="path40" />
	<path
   class="st0"
   d="m 553.7,316.9 c 0,-2.9 -2.4,-5.3 -5.4,-5.3 -3.1,0 -5.3,2.4 -5.3,5.3 v 5.8 c 0,2.9 2.3,5.4 5.3,5.4 3,0 5.4,-2.5 5.4,-5.4 z m 1,11.7 c -1.5,1.5 -3.3,2.3 -5.4,2.3 -1.2,0 -2.3,-0.3 -2.8,-0.7 -1.8,-1.2 -2.6,-2.5 -3.2,-2.5 -0.2,0 -0.4,0.2 -0.4,0.6 v 13.3 c 0,0.4 -0.2,0.5 -0.5,0.5 H 540 c -0.3,0 -0.5,-0.1 -0.5,-0.5 v -32.4 c 0,-0.4 0.2,-0.5 0.5,-0.5 h 1.9 c 0.4,0 0.5,0.2 0.5,0.5 v 2 c 0,0.3 0.2,0.5 0.4,0.5 0.4,0 0.8,-0.5 1.5,-1.2 1.1,-1 2,-1.9 4.4,-1.9 4.7,0 8.3,3.4 8.3,8.2 v 5.8 c 0.1,2.2 -0.8,4.3 -2.3,6"
   id="path42" />
	<path
   class="st0"
   d="m 575.9,316.4 c 0,-2.9 -2.4,-5.3 -5.4,-5.3 -3.1,0 -5.3,2.4 -5.3,5.3 v 6.8 c 0,2.9 2.3,5.4 5.3,5.4 3,0 5.4,-2.5 5.4,-5.4 z m -5.3,15 c -5.3,0 -8.7,-3.3 -8.7,-8.2 v -6.8 c 0,-5 3.4,-8.2 8.7,-8.2 5.3,0 8.8,3.3 8.8,8.2 v 6.8 c -0.1,4.9 -3.5,8.2 -8.8,8.2"
   id="path44" />
	<path
   class="st0"
   d="m 595.5,312.3 c -0.4,0 -1.1,-0.1 -1.9,-0.1 -3.1,0 -5.3,2.3 -5.3,5.3 v 13 c 0,0.4 -0.1,0.5 -0.5,0.5 h -2.4 c -0.3,0 -0.5,-0.1 -0.5,-0.5 v -21.1 c 0,-0.4 0.2,-0.5 0.5,-0.5 h 1.9 c 0.4,0 0.5,0.1 0.5,0.5 v 2.5 c 0,0.4 0.2,0.6 0.4,0.6 0.6,0 1.4,-1.3 3.2,-2.7 0.6,-0.4 1.6,-0.9 2.3,-0.9 h 1.9 c 0.4,0 0.5,0.1 0.5,0.5 v 2.6 c -0.2,0.2 -0.3,0.3 -0.6,0.3"
   id="path46" />
	<path
   class="st0"
   d="m 611.9,316.9 c 0,-2.9 -2.4,-5.3 -5.4,-5.3 -3.1,0 -5.3,2.4 -5.3,5.3 v 5.8 c 0,2.9 2.3,5.4 5.3,5.4 3,0 5.4,-2.5 5.4,-5.4 z m 2.9,14 h -1.9 c -0.3,0 -0.5,-0.2 -0.5,-0.5 v -2.2 c 0,-0.3 -0.2,-0.6 -0.4,-0.6 -0.4,0 -0.8,0.6 -1.6,1.3 -1.1,1 -2.1,2 -4.5,2 -4.6,0 -8.2,-3.4 -8.2,-8.2 v -5.8 c 0,-4.7 3.5,-8.2 7.8,-8.2 1.2,0 2.2,0.3 2.7,0.6 1.8,1.2 2.6,2.5 3.2,2.5 0.2,0 0.4,-0.2 0.4,-0.5 v -11.4 c 0,-0.4 0.2,-0.5 0.5,-0.5 h 2.4 c 0.3,0 0.5,0.1 0.5,0.5 v 30.5 c 0.1,0.3 -0.1,0.5 -0.4,0.5"
   id="path48" />
	<path
   class="st0"
   d="m 625.2,330.9 h -2.4 c -0.4,0 -0.5,-0.1 -0.5,-0.5 v -21.2 c 0,-0.3 0.2,-0.5 0.5,-0.5 h 2.4 c 0.4,0 0.5,0.2 0.5,0.5 v 21.2 c 0,0.3 -0.1,0.5 -0.5,0.5 M 624,303.3 c -1.2,0 -2.2,-1 -2.2,-2.3 0,-1.2 1,-2.2 2.2,-2.2 1.3,0 2.3,0.9 2.3,2.2 0,1.2 -1.1,2.3 -2.3,2.3"
   id="path50" />
	<path
   class="st0"
   d="m 351.7,357 c 0,-0.2 -0.2,-0.9 -0.5,-2 H 351 c -0.2,0.8 -0.4,1.5 -0.5,2 l -3.6,12.9 c 0,0.1 0,0.1 0,0.2 0,0.3 0.2,0.4 0.5,0.4 h 7.2 c 0.3,0 0.5,-0.1 0.5,-0.4 0,-0.1 -0.1,-0.1 -0.1,-0.2 z m 10.1,23.5 c 0,0.3 -0.2,0.5 -0.5,0.5 h -2.6 c -0.3,0 -0.4,-0.1 -0.5,-0.4 l -2,-6.9 c 0,-0.2 -0.2,-0.3 -0.5,-0.3 h -9.4 c -0.3,0 -0.5,0 -0.5,0.3 l -2,6.9 c 0,0.2 -0.2,0.4 -0.5,0.4 h -2.6 c -0.3,0 -0.6,-0.2 -0.6,-0.5 0,0 0.1,-0.1 0.1,-0.2 l 9.3,-30.5 c 0.1,-0.2 0.2,-0.3 0.5,-0.3 h 1.9 c 0.2,0 0.4,0.1 0.5,0.3 l 9.3,30.5 c 0,0.1 0.1,0.2 0.1,0.2"
   id="path52" />
	<path
   class="st0"
   d="m 384.7,380.6 c 0,0.2 -0.2,0.4 -0.6,0.4 h -3 l -0.5,-0.2 -6.9,-11.3 c -0.1,-0.2 -0.2,-0.3 -0.4,-0.3 -0.1,0 -0.3,0.1 -0.4,0.2 l -2.8,2.8 v 8.4 c 0,0.3 -0.1,0.5 -0.5,0.5 h -2.4 c -0.4,0 -0.5,-0.2 -0.5,-0.5 V 350 c 0,-0.4 0.1,-0.5 0.5,-0.5 h 2.4 c 0.4,0 0.5,0.1 0.5,0.5 v 17.2 c 0,0.4 0.1,0.6 0.4,0.6 0.2,0 0.3,0 0.5,-0.2 l 7.8,-8.6 0.4,-0.1 h 2.8 c 0.3,0 0.5,0.2 0.5,0.4 0,0.1 -0.1,0.2 -0.2,0.4 l -6.1,6.2 c -0.1,0.1 -0.1,0.2 -0.1,0.4 0,0.2 0,0.1 0,0.2 l 8.5,13.8 c 0,0 0.1,0.2 0.1,0.3"
   id="path54" />
	<path
   class="st0"
   d="m 397.7,381.4 c -3.8,0 -7.5,-3.4 -7.5,-8.2 v -11.1 c 0,-0.4 -0.2,-0.5 -0.5,-0.5 h -2.9 c -0.3,0 -0.5,-0.2 -0.5,-0.5 v -1 l 5.7,-6 0.4,-0.2 h 0.8 c 0.3,0 0.5,0.2 0.5,0.5 v 3.7 c 0,0.4 0.2,0.5 0.5,0.5 h 3.7 c 0.4,0 0.5,0.2 0.5,0.5 v 1.9 c 0,0.4 -0.1,0.5 -0.5,0.5 h -3.7 c -0.4,0 -0.5,0.1 -0.5,0.5 v 11.1 c 0,1.2 0.4,2.3 1.1,3.3 0.6,0.7 1.7,1.2 3.2,1.9 0.3,0.1 0.4,0.2 0.4,0.5 v 2 c -0.1,0.5 -0.3,0.6 -0.7,0.6"
   id="path56" />
	<path
   class="st0"
   d="m 406,364.3 c 0,2.1 1.6,3 5,3.8 5.8,1.3 9,2 9,6.2 0,4.3 -3.1,7.2 -8,7.2 h -1.6 c -4.7,0 -7.7,-2.8 -7.7,-4.4 0,-0.1 0.1,-0.2 0.4,-0.3 l 2,-1 c 0.1,-0.1 0.2,-0.1 0.3,-0.1 0.1,0 0.2,0.1 0.4,0.2 1.3,1.5 2.3,2.8 4.8,2.8 h 1.6 c 2.8,0 4.6,-1.6 4.6,-3.7 0,-1.9 -1.6,-3 -4.9,-3.7 -5.8,-1.2 -9,-1.8 -9,-6.2 0,-4.1 3.1,-7 7.7,-7 h 1.6 c 4.6,0 7.7,2.8 7.7,4.3 0,0.1 -0.2,0.2 -0.4,0.4 l -1.9,1 c -0.1,0.1 -0.2,0.1 -0.2,0.1 -0.2,0 -0.2,-0.1 -0.4,-0.3 -1.4,-1.5 -2.6,-2.7 -4.8,-2.7 h -1.6 c -3,0.1 -4.6,1.3 -4.6,3.4"
   id="path58" />
	<path
   class="st0"
   d="m 428.9,381 h -2.4 c -0.4,0 -0.5,-0.1 -0.5,-0.5 v -21.1 c 0,-0.4 0.2,-0.5 0.5,-0.5 h 2.4 c 0.4,0 0.5,0.2 0.5,0.5 v 21.1 c 0,0.3 -0.2,0.5 -0.5,0.5 m -1.3,-27.6 c -1.2,0 -2.2,-1 -2.2,-2.3 0,-1.2 1,-2.2 2.2,-2.2 1.3,0 2.3,1 2.3,2.2 0,1.2 -1,2.3 -2.3,2.3"
   id="path60" />
	<path
   class="st0"
   d="m 447,371.9 c 0,-0.3 -0.2,-0.5 -0.5,-0.5 h -6.6 c -1.6,0 -2.9,1.3 -2.9,3 v 0.8 c 0,1.7 1.3,3 2.9,3 h 2 c 2,0 3.7,-1.5 5.1,-4.3 l 0.1,-1 v -1 z m 2.9,9.1 H 448 c -0.4,0 -0.5,-0.1 -0.5,-0.5 v -2.2 c 0,-0.3 -0.2,-0.6 -0.4,-0.6 -0.5,0 -1.4,1.1 -3,2.4 -0.6,0.5 -1.6,0.9 -2.3,0.9 h -2 c -3.8,0 -6.3,-2.5 -6.3,-5.9 v -0.3 c 0,-3.4 2.6,-5.8 6.3,-5.8 h 6.6 c 0.4,0 0.5,-0.1 0.5,-0.5 l -0.1,-2 c -0.1,-3 -2.3,-5.2 -5.3,-5.2 -1.3,0 -2.5,0.5 -3.4,1.3 -1.1,1 -1.4,1.7 -1.8,1.7 0,0 -0.1,0 -0.2,-0.1 l -2.1,-1.1 c -0.2,-0.1 -0.3,-0.2 -0.3,-0.4 0,-1.6 3,-4.4 7.8,-4.4 5.4,0 8.8,3.2 8.8,8.1 v 14 c 0.1,0.4 0,0.6 -0.4,0.6"
   id="path62" />
	<path
   class="st0"
   d="m 458.6,364.3 c 0,2.1 1.6,3 5,3.8 5.8,1.3 9,2 9,6.2 0,4.3 -3.1,7.2 -8,7.2 H 463 c -4.7,0 -7.7,-2.8 -7.7,-4.4 0,-0.1 0.1,-0.2 0.4,-0.3 l 2,-1 c 0.1,-0.1 0.2,-0.1 0.2,-0.1 0.1,0 0.2,0.1 0.4,0.2 1.3,1.5 2.3,2.8 4.8,2.8 h 1.6 c 2.8,0 4.6,-1.6 4.6,-3.7 0,-1.9 -1.6,-3 -4.9,-3.7 -5.8,-1.2 -9,-1.8 -9,-6.2 0,-4.1 3.1,-7 7.7,-7 h 1.6 c 4.6,0 7.7,2.8 7.7,4.3 0,0.1 -0.1,0.2 -0.4,0.4 l -1.9,1 c -0.1,0.1 -0.2,0.1 -0.2,0.1 -0.1,0 -0.2,-0.1 -0.4,-0.3 -1.4,-1.5 -2.6,-2.7 -4.8,-2.7 h -1.6 c -2.9,0.1 -4.5,1.3 -4.5,3.4"
   id="path64" />
	<path
   class="st0"
   d="m 491.3,366.5 c 0,-2.9 -2.4,-5.3 -5.4,-5.3 -3.1,0 -5.3,2.4 -5.3,5.3 v 0.7 c 0,0.3 0.1,0.5 0.5,0.5 h 9.7 c 0.4,0 0.5,-0.1 0.5,-0.5 z m 2.9,3.6 h -13.1 c -0.4,0 -0.5,0.1 -0.5,0.5 v 2.7 c 0,2.9 2.3,5.4 5.3,5.4 1.2,0 2.4,-0.5 3.3,-1.4 1.1,-1 1.5,-1.7 1.8,-1.7 0,0 0.2,0 0.3,0 l 2.1,1.1 c 0.3,0.1 0.3,0.2 0.3,0.4 0,1.6 -3.1,4.4 -7.8,4.4 -5.3,0 -8.7,-3.3 -8.7,-8.2 v -6.8 c 0,-1.9 0.9,-3.9 2.4,-5.5 1.6,-1.8 3.8,-2.7 6.3,-2.7 4.9,0 8.8,3.9 8.8,8.2 v 3.1 c 0,0.3 -0.1,0.5 -0.5,0.5"
   id="path66" />
	<path
   class="st0"
   d="m 502.8,381 h -2.4 c -0.3,0 -0.5,-0.1 -0.5,-0.5 V 350 c 0,-0.4 0.2,-0.5 0.5,-0.5 h 2.4 c 0.3,0 0.5,0.2 0.5,0.5 v 30.5 c 0,0.3 -0.2,0.5 -0.5,0.5"
   id="path68" />
	<path
   class="st0"
   d="m 518.1,381.4 c -3.8,0 -7.5,-3.4 -7.5,-8.2 v -11.1 c 0,-0.4 -0.1,-0.5 -0.5,-0.5 h -2.9 c -0.3,0 -0.5,-0.2 -0.5,-0.5 v -1 l 5.7,-6 0.4,-0.2 h 0.8 c 0.3,0 0.5,0.2 0.5,0.5 v 3.7 c 0,0.4 0.1,0.5 0.5,0.5 h 3.7 c 0.4,0 0.5,0.2 0.5,0.5 v 1.9 c 0,0.4 -0.1,0.5 -0.5,0.5 h -3.7 c -0.4,0 -0.5,0.1 -0.5,0.5 v 11.1 c 0,1.2 0.3,2.3 1.1,3.3 0.6,0.7 1.7,1.2 3.2,1.9 0.3,0.1 0.4,0.2 0.4,0.5 v 2 c -0.1,0.5 -0.3,0.6 -0.7,0.6"
   id="path70" />
	<path
   class="st0"
   d="m 525.4,364.3 c 0,2.1 1.6,3 5,3.8 5.8,1.3 9,2 9,6.2 0,4.3 -3.1,7.2 -8,7.2 h -1.6 c -4.7,0 -7.7,-2.8 -7.7,-4.4 0,-0.1 0.1,-0.2 0.4,-0.3 l 2,-1 c 0.1,-0.1 0.2,-0.1 0.3,-0.1 0.1,0 0.3,0.1 0.4,0.2 1.3,1.5 2.3,2.8 4.8,2.8 h 1.6 c 2.8,0 4.6,-1.6 4.6,-3.7 0,-1.9 -1.6,-3 -4.9,-3.7 -5.8,-1.2 -9,-1.8 -9,-6.2 0,-4.1 3.1,-7 7.7,-7 h 1.6 c 4.6,0 7.7,2.8 7.7,4.3 0,0.1 -0.2,0.2 -0.4,0.4 l -1.9,1 c -0.1,0.1 -0.1,0.1 -0.2,0.1 -0.2,0 -0.2,-0.1 -0.4,-0.3 -1.4,-1.5 -2.6,-2.7 -4.8,-2.7 H 530 c -3,0.1 -4.6,1.3 -4.6,3.4"
   id="path72" />
	<path
   class="st1"
   d="m 54,380.2 c -1.4,0 -3.3,0.7 -4.2,1.7 l -23,22.9 c -1,1 -0.7,1.8 0.7,1.8 h 27 c 1.4,0 2.5,1.1 2.5,2.5 v 27 c 0,1.4 0.8,1.7 1.7,0.7 l 23,-22.9 c 1,-1 1.7,-2.9 1.7,-4.2 v -27 c 0,-1.4 -1.1,-2.5 -2.5,-2.5 z"
   id="path74" />
	<path
   class="st0"
   d="m 146.5,366.5 h -16.2 c -1.2,0 -1.7,-0.5 -1.7,-1.7 v -98.7 c 0,-1.2 0.5,-2 1.7,-2.4 l 16.2,-5.6 c 1,0 1.7,0.5 1.7,1.7 v 105 c 0,1.2 -0.5,1.7 -1.7,1.7"
   id="path76" />
	<path
   class="st0"
   d="m 108.7,366.5 c -7.4,0 -16.9,-3.8 -22.5,-9.3 -5.5,-5.3 -8.3,-12.6 -8.3,-21.2 v -30.3 c 0,-1.2 -0.5,-1.7 -1.7,-1.7 h -8.9 c -1.2,0 -1.7,-0.5 -1.7,-1.7 l 0.4,-9.1 20.3,-21.5 1.2,-0.5 h 8.4 c 1.2,0 1.7,0.5 1.7,1.7 v 11.3 c 0,1.2 0.5,1.7 1.7,1.7 h 11.4 c 1.2,0 1.7,0.5 1.7,1.7 v 14.6 c 0,1.2 -0.5,1.7 -1.7,1.7 H 99.2 c -1.2,0 -1.7,0.5 -1.7,1.7 V 336 c 0,5.3 3.8,10.2 7.9,11 4.8,1 6.9,0.9 6.9,2.9 v 14.8 c 0,1.6 -1,1.8 -3.6,1.8"
   id="path78" />
	<path
   class="st0"
   d="m 203.1,366.5 c -7.4,0 -16.9,-3.8 -22.5,-9.3 -5.5,-5.3 -8.3,-12.6 -8.3,-21.2 v -30.3 c 0,-1.2 -0.5,-1.7 -1.7,-1.7 h -9 c -1.2,0 -1.7,-0.5 -1.7,-1.7 l 0.3,-9.1 20.3,-21.5 1.2,-0.5 h 8.4 c 1.2,0 1.7,0.5 1.7,1.7 v 11.3 c 0,1.2 0.5,1.7 1.7,1.7 h 11.3 c 1.2,0 1.7,0.5 1.7,1.7 v 14.6 c 0,1.2 -0.5,1.7 -1.7,1.7 h -11.3 c -1.2,0 -1.7,0.5 -1.7,1.7 V 336 c 0,5.3 3.8,10.2 7.9,11 4.8,1 6.9,0.9 6.9,2.9 v 14.8 c 0.1,1.6 -1,1.8 -3.5,1.8"
   id="path80" />
	<path
   class="st1"
   d="m 246.3,240 c 0,12.5 -10.1,22.7 -22.7,22.7 -12.5,0 -22.7,-10.1 -22.7,-22.7 0,-12.5 10.1,-22.7 22.7,-22.7 12.5,0 22.7,10.2 22.7,22.7"
   id="path82" />
</g>
</svg>
