<?xml version="1.0" encoding="utf-8"?>
<!-- Generator: Adobe Illustrator 19.2.1, SVG Export Plug-In . SVG Version: 6.00 Build 0)  -->
<svg version="1.1" id="layer" xmlns="http://www.w3.org/2000/svg" xmlns:xlink="http://www.w3.org/1999/xlink" x="0px" y="0px"
	 viewBox="0 0 652 652" style="enable-background:new 0 0 652 652;" xml:space="preserve">
<style type="text/css">
	.st0{fill:#73797C;}
	.st1{fill:#04A64A;}
</style>
<rect x="311.1" y="222.7" class="st0" width="3.2" height="192.7"/>
<g>
	<path class="st0" d="M357.9,252.1h-6.1c-0.4,0-0.5,0.1-0.5,0.5v27.7c0,0.4-0.1,0.5-0.5,0.5h-2.4c-0.3,0-0.5-0.1-0.5-0.5v-27.7
		c0-0.4-0.1-0.5-0.5-0.5h-6.1c-0.4,0-0.5-0.1-0.5-0.5v-1.9c0-0.4,0.1-0.5,0.5-0.5h16.5c0.4,0,0.5,0.1,0.5,0.5v1.9
		C358.5,251.9,358.3,252.1,357.9,252.1"/>
	<path class="st0" d="M370.3,271.6c0-0.3-0.2-0.5-0.5-0.5h-6.6c-1.7,0-3,1.3-3,3v0.8c0,1.7,1.4,3,3,3h2c2,0,3.7-1.5,5.1-4.3l0.1-1.1
		V271.6z M373.2,280.7h-1.9c-0.4,0-0.5-0.1-0.5-0.5v-2.2c0-0.3-0.2-0.6-0.4-0.6c-0.5,0-1.4,1.1-3,2.4c-0.6,0.5-1.7,0.9-2.3,0.9h-2
		c-3.8,0-6.3-2.5-6.3-5.9v-0.3c0-3.4,2.6-5.8,6.3-5.8h6.6c0.4,0,0.5-0.1,0.5-0.5l-0.1-2c0-3-2.3-5.2-5.3-5.2c-1.2,0-2.5,0.5-3.4,1.3
		c-1.1,1-1.4,1.7-1.8,1.7c-0.1,0-0.2,0-0.3-0.1l-2.1-1.1c-0.2-0.1-0.3-0.2-0.3-0.4c0-1.6,3-4.4,7.8-4.4c5.4,0,8.8,3.2,8.8,8.1v14
		C373.7,280.6,373.6,280.7,373.2,280.7"/>
	<path class="st0" d="M383.7,280.7h-2.4c-0.3,0-0.5-0.1-0.5-0.5v-30.5c0-0.3,0.2-0.5,0.5-0.5h2.4c0.3,0,0.5,0.1,0.5,0.5v30.5
		C384.2,280.6,384.1,280.7,383.7,280.7"/>
	<path class="st0" d="M394.2,280.7h-2.4c-0.3,0-0.5-0.1-0.5-0.5v-30.5c0-0.3,0.2-0.5,0.5-0.5h2.4c0.4,0,0.5,0.1,0.5,0.5v30.5
		C394.7,280.6,394.5,280.7,394.2,280.7"/>
	<path class="st0" d="M404.7,280.7h-2.4c-0.4,0-0.5-0.1-0.5-0.5v-21.2c0-0.3,0.2-0.5,0.5-0.5h2.4c0.4,0,0.5,0.2,0.5,0.5v21.2
		C405.2,280.6,405,280.7,404.7,280.7 M403.4,253.1c-1.2,0-2.2-1-2.2-2.3c0-1.2,1-2.2,2.2-2.2c1.3,0,2.3,1,2.3,2.2
		C405.7,252.1,404.7,253.1,403.4,253.1"/>
	<path class="st0" d="M429.2,280.7h-2.4c-0.3,0-0.5-0.1-0.5-0.5v-13.5c0-2.9-2.4-5.3-5.4-5.3c-3.1,0-5.3,2.4-5.3,5.3v13.5
		c0,0.4-0.2,0.5-0.5,0.5h-2.4c-0.4,0-0.5-0.1-0.5-0.5v-21.1c0-0.3,0.1-0.5,0.5-0.5h1.9c0.3,0,0.5,0.2,0.5,0.5v2
		c0,0.3,0.2,0.6,0.4,0.6c0.4,0,0.8-0.5,1.5-1.2c1.1-1,2-1.9,4.4-1.9c4.7,0,8.3,3.4,8.3,8.2v13.5
		C429.7,280.6,429.6,280.7,429.2,280.7"/>
	<path class="st0" d="M453.8,280.7h-2.4c-0.3,0-0.5-0.1-0.5-0.5v-13.5c0-2.9-2.4-5.3-5.4-5.3c-3.1,0-5.3,2.4-5.3,5.3v13.5
		c0,0.4-0.1,0.5-0.5,0.5h-2.4c-0.4,0-0.5-0.1-0.5-0.5v-21.1c0-0.3,0.1-0.5,0.5-0.5h1.9c0.4,0,0.5,0.2,0.5,0.5v2
		c0,0.3,0.2,0.6,0.4,0.6c0.3,0,0.7-0.5,1.5-1.2c1.1-1,2-1.9,4.4-1.9c4.7,0,8.3,3.4,8.3,8.2v13.5
		C454.3,280.6,454.1,280.7,453.8,280.7"/>
	<path class="st0" d="M472.7,271.6c0-0.3-0.2-0.5-0.5-0.5h-6.6c-1.6,0-3,1.3-3,3v0.8c0,1.7,1.4,3,3,3h2c2,0,3.7-1.5,5.1-4.3l0.1-1.1
		V271.6z M475.6,280.7h-1.9c-0.4,0-0.5-0.1-0.5-0.5v-2.2c0-0.3-0.2-0.6-0.4-0.6c-0.5,0-1.4,1.1-3,2.4c-0.6,0.5-1.6,0.9-2.3,0.9h-2
		c-3.8,0-6.3-2.5-6.3-5.9v-0.3c0-3.4,2.6-5.8,6.3-5.8h6.6c0.4,0,0.5-0.1,0.5-0.5l-0.1-2c0-3-2.3-5.2-5.3-5.2c-1.2,0-2.5,0.5-3.3,1.3
		c-1.1,1-1.4,1.7-1.8,1.7c-0.1,0-0.2,0-0.3-0.1l-2.1-1.1c-0.2-0.1-0.3-0.2-0.3-0.4c0-1.6,3-4.4,7.8-4.4c5.4,0,8.8,3.2,8.8,8.1v14
		C476.1,280.6,476,280.7,475.6,280.7"/>
	<path class="st0" d="M360.8,330.9h-16.4c-0.4,0-0.5-0.1-0.5-0.5v-30.5c0-0.4,0.1-0.5,0.5-0.5h2.4c0.4,0,0.5,0.1,0.5,0.5v27.7
		c0,0.4,0.1,0.5,0.5,0.5h13.1c0.4,0,0.5,0.2,0.5,0.5v1.9C361.3,330.7,361.2,330.9,360.8,330.9"/>
	<path class="st0" d="M368.9,330.9h-2.4c-0.4,0-0.5-0.1-0.5-0.5v-21.2c0-0.3,0.2-0.5,0.5-0.5h2.4c0.4,0,0.5,0.2,0.5,0.5v21.2
		C369.4,330.7,369.3,330.9,368.9,330.9 M367.7,303.3c-1.2,0-2.2-1-2.2-2.3c0-1.2,1-2.2,2.2-2.2c1.3,0,2.3,0.9,2.3,2.2
		C369.9,302.2,368.9,303.3,367.7,303.3"/>
	<path class="st0" d="M392.5,330.9h-2.4c-0.3,0-0.5-0.1-0.5-0.5v-13.5c0-2.9-2.4-5.3-5.4-5.3c-3.1,0-5.3,2.4-5.3,5.3v13.5
		c0,0.4-0.2,0.5-0.5,0.5H376c-0.4,0-0.5-0.1-0.5-0.5v-21.1c0-0.4,0.1-0.5,0.5-0.5h1.9c0.4,0,0.5,0.2,0.5,0.5v2
		c0,0.3,0.2,0.6,0.4,0.6c0.4,0,0.8-0.5,1.5-1.2c1.2-0.9,2-1.9,4.4-1.9c4.7,0,8.3,3.4,8.3,8.2v13.5
		C393,330.7,392.8,330.9,392.5,330.9"/>
	<path class="st0" d="M416,330.9h-2.4c-0.3,0-0.5-0.1-0.5-0.5v-13.5c0-2.9-2.4-5.3-5.4-5.3c-3.1,0-5.3,2.4-5.3,5.3v13.5
		c0,0.4-0.1,0.5-0.5,0.5h-2.4c-0.4,0-0.5-0.1-0.5-0.5v-21.1c0-0.4,0.1-0.5,0.5-0.5h1.9c0.4,0,0.5,0.2,0.5,0.5v2
		c0,0.3,0.2,0.6,0.4,0.6c0.3,0,0.7-0.5,1.5-1.2c1.1-0.9,2-1.9,4.4-1.9c4.7,0,8.3,3.4,8.3,8.2v13.5
		C416.5,330.7,416.4,330.9,416,330.9"/>
	<path class="st0" d="M435,321.7c0-0.3-0.2-0.5-0.5-0.5h-6.6c-1.7,0-3,1.3-3,3v0.8c0,1.7,1.4,3,3,3h2c2,0,3.7-1.5,5.1-4.3l0-1.1
		V321.7z M437.9,330.9H436c-0.3,0-0.5-0.1-0.5-0.5v-2.2c0-0.3-0.2-0.6-0.4-0.6c-0.5,0-1.4,1.1-3,2.4c-0.6,0.5-1.6,0.9-2.3,0.9h-2
		c-3.8,0-6.3-2.5-6.3-5.9v-0.3c0-3.4,2.6-5.8,6.3-5.8h6.6c0.4,0,0.5-0.2,0.5-0.5l0-2c0-3-2.3-5.2-5.3-5.2c-1.2,0-2.5,0.5-3.3,1.3
		c-1.1,0.9-1.4,1.7-1.8,1.7c-0.1,0-0.1,0-0.3,0l-2.1-1.1c-0.2-0.1-0.3-0.2-0.3-0.4c0-1.5,3-4.4,7.8-4.4c5.4,0,8.8,3.2,8.8,8.1v14
		C438.4,330.7,438.2,330.9,437.9,330.9"/>
	<path class="st0" d="M453,331.3c-3.8,0-7.5-3.4-7.5-8.2v-11.1c0-0.4-0.1-0.5-0.5-0.5h-2.9c-0.4,0-0.5-0.2-0.5-0.5v-1l5.7-6l0.4-0.2
		h0.8c0.3,0,0.5,0.2,0.5,0.5v3.7c0,0.4,0.2,0.5,0.5,0.5h3.7c0.4,0,0.5,0.2,0.5,0.5v1.9c0,0.3-0.1,0.5-0.5,0.5h-3.7
		c-0.4,0-0.5,0.2-0.5,0.5v11.1c0,1.2,0.4,2.3,1.1,3.3c0.5,0.8,1.7,1.2,3.2,1.9c0.2,0.1,0.4,0.2,0.4,0.5v2
		C453.6,331.2,453.4,331.3,453,331.3"/>
	<path class="st0" d="M469.5,312.3c-0.4,0-1-0.1-1.9-0.1c-3.1,0-5.3,2.3-5.3,5.3v13c0,0.4-0.2,0.5-0.5,0.5h-2.4
		c-0.3,0-0.5-0.1-0.5-0.5v-21.1c0-0.4,0.2-0.5,0.5-0.5h1.9c0.4,0,0.5,0.1,0.5,0.5v2.5c0,0.4,0.2,0.6,0.4,0.6c0.6,0,1.4-1.3,3.2-2.7
		c0.6-0.4,1.6-0.9,2.3-0.9h1.9c0.4,0,0.5,0.1,0.5,0.5v2.6C470,312.2,469.9,312.3,469.5,312.3"/>
	<path class="st0" d="M485.4,321.7c0-0.3-0.2-0.5-0.5-0.5h-6.6c-1.6,0-2.9,1.3-2.9,3v0.8c0,1.7,1.4,3,2.9,3h2c2,0,3.7-1.5,5.1-4.3
		l0-1.1V321.7z M488.3,330.9h-1.9c-0.3,0-0.5-0.1-0.5-0.5v-2.2c0-0.3-0.2-0.6-0.4-0.6c-0.5,0-1.4,1.1-3,2.4
		c-0.6,0.5-1.6,0.9-2.3,0.9h-2c-3.8,0-6.3-2.5-6.3-5.9v-0.3c0-3.4,2.6-5.8,6.3-5.8h6.6c0.4,0,0.5-0.2,0.5-0.5l0-2
		c-0.1-3-2.3-5.2-5.3-5.2c-1.3,0-2.5,0.5-3.4,1.3c-1.1,0.9-1.4,1.7-1.8,1.7c0,0-0.2,0-0.2,0l-2.1-1.1c-0.2-0.1-0.3-0.2-0.3-0.4
		c0-1.5,3-4.4,7.8-4.4c5.4,0,8.8,3.2,8.8,8.1v14C488.8,330.7,488.6,330.9,488.3,330.9"/>
	<path class="st0" d="M511.8,330.9h-2.4c-0.3,0-0.5-0.1-0.5-0.5v-13.5c0-2.9-2.4-5.3-5.4-5.3c-3.1,0-5.3,2.4-5.3,5.3v13.5
		c0,0.4-0.2,0.5-0.5,0.5h-2.4c-0.4,0-0.5-0.1-0.5-0.5v-21.1c0-0.4,0.1-0.5,0.5-0.5h1.9c0.3,0,0.5,0.2,0.5,0.5v2
		c0,0.3,0.2,0.6,0.4,0.6c0.4,0,0.8-0.5,1.5-1.2c1.1-0.9,2-1.9,4.4-1.9c4.7,0,8.3,3.4,8.3,8.2v13.5
		C512.3,330.7,512.2,330.9,511.8,330.9"/>
	<path class="st0" d="M520.5,314.2c0,2.1,1.6,3,5,3.8c5.8,1.3,9,2,9,6.2c0,4.3-3.1,7.2-8,7.2H525c-4.7,0-7.7-2.8-7.7-4.4
		c0-0.1,0.1-0.2,0.4-0.3l2-1c0.1,0,0.2,0,0.2,0c0.1,0,0.3,0.1,0.4,0.2c1.3,1.5,2.3,2.8,4.8,2.8h1.6c2.8,0,4.6-1.6,4.6-3.7
		c0-1.9-1.6-3-4.9-3.7c-5.8-1.2-9-1.8-9-6.2c0-4.1,3.1-7,7.7-7h1.6c4.6,0,7.7,2.8,7.7,4.3c0,0.1-0.1,0.2-0.4,0.4l-1.9,1
		c-0.1,0.1-0.1,0.1-0.2,0.1c-0.1,0-0.2-0.1-0.4-0.3c-1.4-1.5-2.6-2.7-4.8-2.7H525C522.1,310.9,520.5,312.1,520.5,314.2"/>
	<path class="st0" d="M553.7,316.9c0-2.9-2.4-5.3-5.4-5.3c-3.1,0-5.3,2.4-5.3,5.3v5.8c0,2.9,2.3,5.4,5.3,5.4c3,0,5.4-2.5,5.4-5.4
		V316.9z M554.7,328.6c-1.5,1.5-3.3,2.3-5.4,2.3c-1.2,0-2.3-0.3-2.8-0.7c-1.8-1.2-2.6-2.5-3.2-2.5c-0.2,0-0.4,0.2-0.4,0.6v13.3
		c0,0.4-0.2,0.5-0.5,0.5h-2.4c-0.3,0-0.5-0.1-0.5-0.5v-32.4c0-0.4,0.2-0.5,0.5-0.5h1.9c0.4,0,0.5,0.2,0.5,0.5v2
		c0,0.3,0.2,0.5,0.4,0.5c0.4,0,0.8-0.5,1.5-1.2c1.1-1,2-1.9,4.4-1.9c4.7,0,8.3,3.4,8.3,8.2v5.8C557.1,324.8,556.2,326.9,554.7,328.6
		"/>
	<path class="st0" d="M575.9,316.4c0-2.9-2.4-5.3-5.4-5.3c-3.1,0-5.3,2.4-5.3,5.3v6.8c0,2.9,2.3,5.4,5.3,5.4c3,0,5.4-2.5,5.4-5.4
		V316.4z M570.6,331.4c-5.3,0-8.7-3.3-8.7-8.2v-6.8c0-5,3.4-8.2,8.7-8.2c5.3,0,8.8,3.3,8.8,8.2v6.8
		C579.3,328.1,575.9,331.4,570.6,331.4"/>
	<path class="st0" d="M595.5,312.3c-0.4,0-1.1-0.1-1.9-0.1c-3.1,0-5.3,2.3-5.3,5.3v13c0,0.4-0.1,0.5-0.5,0.5h-2.4
		c-0.3,0-0.5-0.1-0.5-0.5v-21.1c0-0.4,0.2-0.5,0.5-0.5h1.9c0.4,0,0.5,0.1,0.5,0.5v2.5c0,0.4,0.2,0.6,0.4,0.6c0.6,0,1.4-1.3,3.2-2.7
		c0.6-0.4,1.6-0.9,2.3-0.9h1.9c0.4,0,0.5,0.1,0.5,0.5v2.6C595.9,312.2,595.8,312.3,595.5,312.3"/>
	<path class="st0" d="M611.9,316.9c0-2.9-2.4-5.3-5.4-5.3c-3.1,0-5.3,2.4-5.3,5.3v5.8c0,2.9,2.3,5.4,5.3,5.4c3,0,5.4-2.5,5.4-5.4
		V316.9z M614.8,330.9h-1.9c-0.3,0-0.5-0.2-0.5-0.5v-2.2c0-0.3-0.2-0.6-0.4-0.6c-0.4,0-0.8,0.6-1.6,1.3c-1.1,1-2.1,2-4.5,2
		c-4.6,0-8.2-3.4-8.2-8.2v-5.8c0-4.7,3.5-8.2,7.8-8.2c1.2,0,2.2,0.3,2.7,0.6c1.8,1.2,2.6,2.5,3.2,2.5c0.2,0,0.4-0.2,0.4-0.5v-11.4
		c0-0.4,0.2-0.5,0.5-0.5h2.4c0.3,0,0.5,0.1,0.5,0.5v30.5C615.3,330.7,615.1,330.9,614.8,330.9"/>
	<path class="st0" d="M625.2,330.9h-2.4c-0.4,0-0.5-0.1-0.5-0.5v-21.2c0-0.3,0.2-0.5,0.5-0.5h2.4c0.4,0,0.5,0.2,0.5,0.5v21.2
		C625.7,330.7,625.6,330.9,625.2,330.9 M624,303.3c-1.2,0-2.2-1-2.2-2.3c0-1.2,1-2.2,2.2-2.2c1.3,0,2.3,0.9,2.3,2.2
		C626.3,302.2,625.2,303.3,624,303.3"/>
	<path class="st0" d="M351.7,357c0-0.2-0.2-0.9-0.5-2h-0.2c-0.2,0.8-0.4,1.5-0.5,2l-3.6,12.9c0,0.1,0,0.1,0,0.2
		c0,0.3,0.2,0.4,0.5,0.4h7.2c0.3,0,0.5-0.1,0.5-0.4c0-0.1-0.1-0.1-0.1-0.2L351.7,357z M361.8,380.5c0,0.3-0.2,0.5-0.5,0.5h-2.6
		c-0.3,0-0.4-0.1-0.5-0.4l-2-6.9c0-0.2-0.2-0.3-0.5-0.3h-9.4c-0.3,0-0.5,0-0.5,0.3l-2,6.9c0,0.2-0.2,0.4-0.5,0.4h-2.6
		c-0.3,0-0.6-0.2-0.6-0.5c0,0,0.1-0.1,0.1-0.2l9.3-30.5c0.1-0.2,0.2-0.3,0.5-0.3h1.9c0.2,0,0.4,0.1,0.5,0.3l9.3,30.5
		C361.7,380.4,361.8,380.5,361.8,380.5"/>
	<path class="st0" d="M384.7,380.6c0,0.2-0.2,0.4-0.6,0.4h-3l-0.5-0.2l-6.9-11.3c-0.1-0.2-0.2-0.3-0.4-0.3c-0.1,0-0.3,0.1-0.4,0.2
		l-2.8,2.8v8.4c0,0.3-0.1,0.5-0.5,0.5h-2.4c-0.4,0-0.5-0.2-0.5-0.5V350c0-0.4,0.1-0.5,0.5-0.5h2.4c0.4,0,0.5,0.1,0.5,0.5v17.2
		c0,0.4,0.1,0.6,0.4,0.6c0.2,0,0.3,0,0.5-0.2l7.8-8.6l0.4-0.1h2.8c0.3,0,0.5,0.2,0.5,0.4c0,0.1-0.1,0.2-0.2,0.4l-6.1,6.2
		c-0.1,0.1-0.1,0.2-0.1,0.4s0,0.1,0,0.2l8.5,13.8C384.6,380.3,384.7,380.5,384.7,380.6"/>
	<path class="st0" d="M397.7,381.4c-3.8,0-7.5-3.4-7.5-8.2v-11.1c0-0.4-0.2-0.5-0.5-0.5h-2.9c-0.3,0-0.5-0.2-0.5-0.5v-1l5.7-6
		l0.4-0.2h0.8c0.3,0,0.5,0.2,0.5,0.5v3.7c0,0.4,0.2,0.5,0.5,0.5h3.7c0.4,0,0.5,0.2,0.5,0.5v1.9c0,0.4-0.1,0.5-0.5,0.5h-3.7
		c-0.4,0-0.5,0.1-0.5,0.5v11.1c0,1.2,0.4,2.3,1.1,3.3c0.6,0.7,1.7,1.2,3.2,1.9c0.3,0.1,0.4,0.2,0.4,0.5v2
		C398.3,381.3,398.1,381.4,397.7,381.4"/>
	<path class="st0" d="M406,364.3c0,2.1,1.6,3,5,3.8c5.8,1.3,9,2,9,6.2c0,4.3-3.1,7.2-8,7.2h-1.6c-4.7,0-7.7-2.8-7.7-4.4
		c0-0.1,0.1-0.2,0.4-0.3l2-1c0.1-0.1,0.2-0.1,0.3-0.1c0.1,0,0.2,0.1,0.4,0.2c1.3,1.5,2.3,2.8,4.8,2.8h1.6c2.8,0,4.6-1.6,4.6-3.7
		c0-1.9-1.6-3-4.9-3.7c-5.8-1.2-9-1.8-9-6.2c0-4.1,3.1-7,7.7-7h1.6c4.6,0,7.7,2.8,7.7,4.3c0,0.1-0.2,0.2-0.4,0.4l-1.9,1
		c-0.1,0.1-0.2,0.1-0.2,0.1c-0.2,0-0.2-0.1-0.4-0.3c-1.4-1.5-2.6-2.7-4.8-2.7h-1.6C407.6,361,406,362.2,406,364.3"/>
	<path class="st0" d="M428.9,381h-2.4c-0.4,0-0.5-0.1-0.5-0.5v-21.1c0-0.4,0.2-0.5,0.5-0.5h2.4c0.4,0,0.5,0.2,0.5,0.5v21.1
		C429.4,380.8,429.2,381,428.9,381 M427.6,353.4c-1.2,0-2.2-1-2.2-2.3c0-1.2,1-2.2,2.2-2.2c1.3,0,2.3,1,2.3,2.2
		C429.9,352.3,428.9,353.4,427.6,353.4"/>
	<path class="st0" d="M447,371.9c0-0.3-0.2-0.5-0.5-0.5h-6.6c-1.6,0-2.9,1.3-2.9,3v0.8c0,1.7,1.3,3,2.9,3h2c2,0,3.7-1.5,5.1-4.3
		l0.1-1V371.9z M449.9,381h-1.9c-0.4,0-0.5-0.1-0.5-0.5v-2.2c0-0.3-0.2-0.6-0.4-0.6c-0.5,0-1.4,1.1-3,2.4c-0.6,0.5-1.6,0.9-2.3,0.9
		h-2c-3.8,0-6.3-2.5-6.3-5.9v-0.3c0-3.4,2.6-5.8,6.3-5.8h6.6c0.4,0,0.5-0.1,0.5-0.5l-0.1-2c-0.1-3-2.3-5.2-5.3-5.2
		c-1.3,0-2.5,0.5-3.4,1.3c-1.1,1-1.4,1.7-1.8,1.7c0,0-0.1,0-0.2-0.1l-2.1-1.1c-0.2-0.1-0.3-0.2-0.3-0.4c0-1.6,3-4.4,7.8-4.4
		c5.4,0,8.8,3.2,8.8,8.1v14C450.4,380.8,450.3,381,449.9,381"/>
	<path class="st0" d="M458.6,364.3c0,2.1,1.6,3,5,3.8c5.8,1.3,9,2,9,6.2c0,4.3-3.1,7.2-8,7.2h-1.6c-4.7,0-7.7-2.8-7.7-4.4
		c0-0.1,0.1-0.2,0.4-0.3l2-1c0.1-0.1,0.2-0.1,0.2-0.1c0.1,0,0.2,0.1,0.4,0.2c1.3,1.5,2.3,2.8,4.8,2.8h1.6c2.8,0,4.6-1.6,4.6-3.7
		c0-1.9-1.6-3-4.9-3.7c-5.8-1.2-9-1.8-9-6.2c0-4.1,3.1-7,7.7-7h1.6c4.6,0,7.7,2.8,7.7,4.3c0,0.1-0.1,0.2-0.4,0.4l-1.9,1
		c-0.1,0.1-0.2,0.1-0.2,0.1c-0.1,0-0.2-0.1-0.4-0.3c-1.4-1.5-2.6-2.7-4.8-2.7h-1.6C460.2,361,458.6,362.2,458.6,364.3"/>
	<path class="st0" d="M491.3,366.5c0-2.9-2.4-5.3-5.4-5.3c-3.1,0-5.3,2.4-5.3,5.3v0.7c0,0.3,0.1,0.5,0.5,0.5h9.7
		c0.4,0,0.5-0.1,0.5-0.5V366.5z M494.2,370.1h-13.1c-0.4,0-0.5,0.1-0.5,0.5v2.7c0,2.9,2.3,5.4,5.3,5.4c1.2,0,2.4-0.5,3.3-1.4
		c1.1-1,1.5-1.7,1.8-1.7c0,0,0.2,0,0.3,0l2.1,1.1c0.3,0.1,0.3,0.2,0.3,0.4c0,1.6-3.1,4.4-7.8,4.4c-5.3,0-8.7-3.3-8.7-8.2v-6.8
		c0-1.9,0.9-3.9,2.4-5.5c1.6-1.8,3.8-2.7,6.3-2.7c4.9,0,8.8,3.9,8.8,8.2v3.1C494.7,369.9,494.6,370.1,494.2,370.1"/>
	<path class="st0" d="M502.8,381h-2.4c-0.3,0-0.5-0.1-0.5-0.5V350c0-0.4,0.2-0.5,0.5-0.5h2.4c0.3,0,0.5,0.2,0.5,0.5v30.5
		C503.3,380.8,503.1,381,502.8,381"/>
	<path class="st0" d="M518.1,381.4c-3.8,0-7.5-3.4-7.5-8.2v-11.1c0-0.4-0.1-0.5-0.5-0.5h-2.9c-0.3,0-0.5-0.2-0.5-0.5v-1l5.7-6
		l0.4-0.2h0.8c0.3,0,0.5,0.2,0.5,0.5v3.7c0,0.4,0.1,0.5,0.5,0.5h3.7c0.4,0,0.5,0.2,0.5,0.5v1.9c0,0.4-0.1,0.5-0.5,0.5h-3.7
		c-0.4,0-0.5,0.1-0.5,0.5v11.1c0,1.2,0.3,2.3,1.1,3.3c0.6,0.7,1.7,1.2,3.2,1.9c0.3,0.1,0.4,0.2,0.4,0.5v2
		C518.7,381.3,518.5,381.4,518.1,381.4"/>
	<path class="st0" d="M525.4,364.3c0,2.1,1.6,3,5,3.8c5.8,1.3,9,2,9,6.2c0,4.3-3.1,7.2-8,7.2h-1.6c-4.7,0-7.7-2.8-7.7-4.4
		c0-0.1,0.1-0.2,0.4-0.3l2-1c0.1-0.1,0.2-0.1,0.3-0.1c0.1,0,0.3,0.1,0.4,0.2c1.3,1.5,2.3,2.8,4.8,2.8h1.6c2.8,0,4.6-1.6,4.6-3.7
		c0-1.9-1.6-3-4.9-3.7c-5.8-1.2-9-1.8-9-6.2c0-4.1,3.1-7,7.7-7h1.6c4.6,0,7.7,2.8,7.7,4.3c0,0.1-0.2,0.2-0.4,0.4l-1.9,1
		c-0.1,0.1-0.1,0.1-0.2,0.1c-0.2,0-0.2-0.1-0.4-0.3c-1.4-1.5-2.6-2.7-4.8-2.7h-1.6C527,361,525.4,362.2,525.4,364.3"/>
	<path class="st1" d="M54,380.2c-1.4,0-3.3,0.7-4.2,1.7l-23,22.9c-1,1-0.7,1.8,0.7,1.8h27c1.4,0,2.5,1.1,2.5,2.5v27
		c0,1.4,0.8,1.7,1.7,0.7l23-22.9c1-1,1.7-2.9,1.7-4.2v-27c0-1.4-1.1-2.5-2.5-2.5L54,380.2z"/>
	<path class="st0" d="M146.5,366.5h-16.2c-1.2,0-1.7-0.5-1.7-1.7v-98.7c0-1.2,0.5-2,1.7-2.4l16.2-5.6c1,0,1.7,0.5,1.7,1.7v105
		C148.2,366,147.7,366.5,146.5,366.5"/>
	<path class="st0" d="M108.7,366.5c-7.4,0-16.9-3.8-22.5-9.3c-5.5-5.3-8.3-12.6-8.3-21.2v-30.3c0-1.2-0.5-1.7-1.7-1.7h-8.9
		c-1.2,0-1.7-0.5-1.7-1.7l0.4-9.1l20.3-21.5l1.2-0.5h8.4c1.2,0,1.7,0.5,1.7,1.7v11.3c0,1.2,0.5,1.7,1.7,1.7h11.4
		c1.2,0,1.7,0.5,1.7,1.7v14.6c0,1.2-0.5,1.7-1.7,1.7H99.2c-1.2,0-1.7,0.5-1.7,1.7V336c0,5.3,3.8,10.2,7.9,11c4.8,1,6.9,0.9,6.9,2.9
		v14.8C112.3,366.3,111.3,366.5,108.7,366.5"/>
	<path class="st0" d="M203.1,366.5c-7.4,0-16.9-3.8-22.5-9.3c-5.5-5.3-8.3-12.6-8.3-21.2v-30.3c0-1.2-0.5-1.7-1.7-1.7h-9
		c-1.2,0-1.7-0.5-1.7-1.7l0.3-9.1l20.3-21.5l1.2-0.5h8.4c1.2,0,1.7,0.5,1.7,1.7v11.3c0,1.2,0.5,1.7,1.7,1.7h11.3
		c1.2,0,1.7,0.5,1.7,1.7v14.6c0,1.2-0.5,1.7-1.7,1.7h-11.3c-1.2,0-1.7,0.5-1.7,1.7V336c0,5.3,3.8,10.2,7.9,11c4.8,1,6.9,0.9,6.9,2.9
		v14.8C206.7,366.3,205.6,366.5,203.1,366.5"/>
	<path class="st1" d="M246.3,240c0,12.5-10.1,22.7-22.7,22.7c-12.5,0-22.7-10.1-22.7-22.7c0-12.5,10.1-22.7,22.7-22.7
		C236.1,217.3,246.3,227.5,246.3,240"/>
</g>
</svg>
