<svg xmlns="http://www.w3.org/2000/svg" width="226.2" height="68.3" viewBox="0 0 226.2 68.3">
  <g transform="translate(10368 -6294)">
    <path d="M200.4,68.3H187.8L163.2,19H178l16.4,34.5L211.3,19h14.9Zm-65.3,0H122.5L97.9,19h14.8l16.4,34.5L146,19h14.9Zm-79.8-22v22H42.4V3.1H55.3v26a20.678,20.678,0,0,1,7.4-8.6,22.024,22.024,0,0,1,12.1-3.2,27.842,27.842,0,0,1,6.6.7,17.825,17.825,0,0,1,5.5,2.3,18.36,18.36,0,0,1,7.5,8.3A29.823,29.823,0,0,1,97,41.4V68.3H83.6V45.6a34.829,34.829,0,0,0-.3-4.7,24.681,24.681,0,0,0-.9-4.1,11.517,11.517,0,0,0-4.1-5.9,12.9,12.9,0,0,0-7.8-2.1c-5.2,0-9,1.5-11.5,4.4s-3.7,7.3-3.7,13.1" transform="translate(-10368 6294)" fill="#fa1e41"/>
    <path d="M0,0V11.7l16.4,7.4L0,26.1V37.8L29.5,23.1V15.5Z" transform="translate(-10368 6294)" fill="#00ff00"/>
  </g>
</svg>
