<?xml version="1.0" encoding="utf-8"?>
<!-- Generator: Adobe Illustrator 19.2.1, SVG Export Plug-In . SVG Version: 6.00 Build 0)  -->
<svg version="1.1" id="layer" xmlns="http://www.w3.org/2000/svg" xmlns:xlink="http://www.w3.org/1999/xlink" x="0px" y="0px"
	 viewBox="0 176 652 300" width="652" height="300" xml:space="preserve">
<style type="text/css">
	.st0{fill-rule:evenodd;clip-rule:evenodd;fill:#0087CE;}
</style>
<path class="st0" d="M138,224.1c4.2,0,7.2,5,7.2,11.7c0,0.4-0.2,8.7-7.3,12.8c-6.9-4.2-7.1-12.4-7.1-12.8
	C130.8,229,133.8,224.1,138,224.1z M228.2,310.2c-0.5,0-9.9,0.1-17.1,6.8l-14.3-35c9.9-0.2,16.7-6.9,17.1-7.3
	c8.7-8.8,10.1-20.2,3.1-27.2c-6.9-7-18.3-5.6-27.1,3.2c-0.4,0.4-6.9,7.1-7.3,16.9L148,253.1c6.9-7.2,6.9-16.7,6.9-17.3
	c0-12.5-7.1-21.5-16.9-21.5c-9.8,0-16.9,9.1-16.9,21.5c0,0.5,0.1,9.9,6.8,17.1l-34.8,14.3c-0.2-9.9-6.9-16.7-7.3-17.1
	C77,241.3,65.6,240,58.7,247c-6.9,7-5.6,18.4,3.2,27.2c0.4,0.4,7.1,7,16.8,7.3l-14.5,34.9c-7.2-6.9-16.7-6.9-17.2-6.9
	c-12.4,0-21.4,7.2-21.4,17s9,17,21.4,17c0.5,0,9.9-0.1,17-6.8l14.3,35c-9.9,0.2-16.7,6.9-17.1,7.3c-8.7,8.8-10.1,20.2-3.1,27.2
	c6.9,7,18.3,5.6,27.1-3.2c0.4-0.4,6.9-7.1,7.3-16.9l34.7,14.6c-6.8,7.2-6.9,16.7-6.9,17.3c0,12.5,7.1,21.5,16.9,21.5
	c9.8,0,16.9-9,16.9-21.5c0-0.5-0.1-9.9-6.8-17.1l34.8-14.4c0.2,10,6.9,16.8,7.3,17.1c8.8,8.8,20.2,10.2,27.1,3.2
	c6.9-7,5.6-18.4-3.2-27.3c-0.4-0.4-7.1-6.9-16.8-7.3l14.5-34.9c7.1,6.9,16.7,7,17.2,7c12.4,0,21.4-7.2,21.4-17
	C249.6,317.4,240.6,310.2,228.2,310.2z M65.6,253.9c3-2.9,8.6-1.6,13.4,3.2c0.3,0.3,6,6.3,3.9,14.2c-7.8,1.9-13.7-3.7-14.1-4.1
	C64,262.5,62.6,256.8,65.6,253.9z M196.8,257.6c4.8-4.8,10.4-6.1,13.3-3.2c3,3,1.6,8.6-3.2,13.4c-0.3,0.3-6.3,6.1-14.2,3.9
	C190.9,263.9,196.5,258,196.8,257.6z M563.5,243.1c0-5.3,4.2-9.5,9.4-9.5c5.3,0,9.4,4.2,9.4,9.5v60.1h34.8c4.8,0,8.5,3.8,8.5,8.6
	c0,4.8-3.8,8.6-8.5,8.6h-44.2c-5.2,0-9.4-4.2-9.4-9.5V243.1z M401.7,243.1c0-5.3,4.1-9.5,9.4-9.5c5.3,0,9.4,4.2,9.4,9.5v25.3h34.7
	v-25.3c0-5.3,4.1-9.5,9.4-9.5c5.3,0,9.4,4.2,9.4,9.5v68.5c0,5.3-4.2,9.5-9.4,9.5c-5.3,0-9.4-4.2-9.4-9.5v-25.8h-34.7v25.8
	c0,5.3-4.2,9.5-9.4,9.5c-5.3,0-9.4-4.2-9.4-9.5V243.1z M488.8,311.2c-2.1-1.5-3.6-4.2-3.6-7.1c0-4.9,3.9-8.7,8.8-8.7
	c2.4,0,4.2,0.9,5.4,1.7c6.5,4.8,13.6,7.7,21.9,7.7c7.7,0,12.3-3.1,12.3-8.1v-0.2c0-4.8-2.9-7.2-17.2-10.9
	c-17.2-4.4-28.3-9.2-28.3-26.3V259c0-15.6,12.5-25.9,29.9-25.9c10.4,0,19.4,2.7,27.1,7.6c2.1,1.2,4.2,3.8,4.2,7.5
	c0,4.9-3.9,8.7-8.8,8.7c-1.8,0-3.3-0.5-4.8-1.4c-6.2-3.7-12.1-5.8-17.9-5.8c-7.2,0-11,3.3-11,7.5v0.2c0,5.7,3.7,7.5,18.4,11.3
	c17.3,4.5,27.1,10.8,27.1,25.8v0.2c0,17.1-12.9,26.6-31.4,26.6C509.7,321.5,498.3,318.1,488.8,311.2z M47,333.7
	c-6.8,0-11.6-3-11.6-7.2c0-4.2,4.9-7.2,11.7-7.2c0.4,0,8.7,0.2,12.8,7.3C55.6,333.4,47.5,333.7,47,333.7z M228.1,334.5
	c-0.4,0-8.7-0.2-12.8-7.3c4.2-6.9,12.3-7.1,12.8-7.2c6.8,0,11.7,3.1,11.7,7.2C239.8,331.4,234.9,334.5,228.1,334.5z M521.7,377.9
	c12.8,0,22-6.6,22-17.7V360c0-10.6-8-16.9-21.8-16.9h-26.4v34.9H521.7z M184.9,374.8l-47.5,19.6L90,374.4l-19.5-47.8L90.3,279
	l47.5-19.6l47.3,19.9l19.5,47.8L184.9,374.8z M78.4,396.1c-4.8,4.8-10.4,6.1-13.3,3.2c-2.9-3-1.6-8.6,3.2-13.4
	c0.3-0.3,6.3-6.1,14.2-3.9C84.3,389.8,78.7,395.8,78.4,396.1z M209.6,399.9c-2.9,2.9-8.6,1.6-13.3-3.2c-0.3-0.3-6-6.3-3.9-14.2
	c7.8-1.9,13.7,3.7,14.1,4C211.2,391.3,212.6,396.9,209.6,399.9z M403.5,338.4c0-2.7,2.2-4.9,4.8-4.9c2.7,0,4.9,2.2,4.9,4.9v33.9
	h49.3v-33.9c0-2.7,2.2-4.9,4.9-4.9c2.6,0,4.8,2.2,4.8,4.9v77.4c0,2.7-2.2,4.9-4.8,4.9c-2.7,0-4.9-2.2-4.9-4.9v-34.4h-49.3v34.4
	c0,2.7-2.2,4.9-4.9,4.9c-2.6,0-4.8-2.2-4.8-4.9V338.4z M485.8,339c0-2.7,2.2-4.9,4.8-4.9h32c10.5,0,18.9,3.2,24.3,8.6
	c4.2,4.2,6.6,10.2,6.6,16.9v0.3c0,14.1-9.5,22.3-22.8,24.9l21.2,27.5c1,1.1,1.6,2.2,1.6,3.6c0,2.6-2.4,4.8-4.9,4.8
	c-2,0-3.4-1.1-4.5-2.6L520,386.6h-24.5v29.1c0,2.7-2.2,4.9-4.9,4.9c-2.6,0-4.8-2.2-4.8-4.9V339z M586.6,343h-24.8
	c-2.5,0-4.5-2-4.5-4.4c0-2.4,2.1-4.5,4.5-4.5h59.3c2.4,0,4.5,2.1,4.5,4.5c0,2.5-2.1,4.4-4.5,4.4h-24.8v72.7c0,2.7-2.2,4.9-4.9,4.9
	c-2.7,0-4.9-2.2-4.9-4.9V343z M137.2,429.7c-4.2,0-7.2-4.9-7.2-11.7c0-0.4,0.2-8.7,7.3-12.8c6.9,4.2,7.1,12.4,7.1,12.9
	C144.4,424.8,141.4,429.7,137.2,429.7z M310.1,219.2c0-2.7-2.2-4.9-4.9-4.9c-2.6,0-4.8,2.2-4.8,4.9v215.4c0,2.7,2.2,4.9,4.8,4.9
	c2.7,0,4.9-2.2,4.9-4.9V219.2z M329.4,219.2c0-2.7-2.2-4.9-4.9-4.9c-2.6,0-4.8,2.2-4.8,4.9v215.4c0,2.7,2.2,4.9,4.8,4.9
	c2.7,0,4.9-2.2,4.9-4.9V219.2z"/>
</svg>
