<?xml version="1.0" encoding="UTF-8" standalone="no"?>
<!-- Created with Inkscape (http://www.inkscape.org/) -->
<svg xmlns:svg="http://www.w3.org/2000/svg" xmlns="http://www.w3.org/2000/svg" version="1.0" width="483.57999" height="339.88" id="svg2">
  <defs id="defs4">
    <clipPath id="clipPath2518">
      <path d="M 0,19.49762 L 0,0 L 88.08539,0 L 88.08539,19.49762 L 0,19.49762 z" id="path2520"/>
    </clipPath>
    <clipPath id="clipPath2488">
      <path d="M 22.67717,-147.40158 L 22.67717,-127.90398 L 110.76266,-127.90398 L 110.76266,-147.40158 L 22.67717,-147.40158 z" id="path2490"/>
    </clipPath>
    <clipPath id="clipPath2474">
      <path d="M 4.56,61.67999 L 4.56,231.60001 L 360.72,231.60001 L 360.72,61.67999 L 4.56,61.67999 z" id="path2476"/>
    </clipPath>
    <clipPath id="clipPath2466">
      <path d="M -34.01575,-99.2126 L -34.01575,147.40158 L 487.55905,147.40158 L 487.55905,-99.2126 L -34.01575,-99.2126 z" id="path2468"/>
    </clipPath>
    <clipPath id="clipPath2458">
      <path d="M 0,0 L 527.24409,0 L 527.24409,357.16536 L 0,357.16536 L 0,0 z" id="path2460"/>
    </clipPath>
  </defs>
  <g transform="translate(19.3414, -8.40956)" id="layer1">
    <g transform="matrix(14.4167, 0, 0, 14.4167, -3787.8, -4695.59)" id="g2790">
      <path d="M 292.2366,339.06197 L 291.73355,337.12594 C 291.53957,336.38013 291.79343,335.65011 292.43305,335.59029 C 292.94205,335.54268 293.35231,336.07983 293.35231,336.55466 C 293.35231,337.51046 292.80045,338.28442 292.58571,338.59444 C 292.53192,338.6726 292.40131,338.84473 292.2366,339.06197 z M 292.09732,347.51049 C 292.11696,347.58125 292.11696,347.66678 292.11696,347.69349 C 292.11696,348.02076 291.87031,348.27214 291.49917,348.27214 C 291.13418,348.27214 290.93047,347.93778 290.93047,347.69349 C 290.93047,347.36642 291.17946,347.08077 291.53217,347.0905 L 291.56757,347.0905 L 291.2307,346.57052 L 291.13418,346.41549 L 290.18581,344.92753 L 289.9892,344.61991 L 289.37156,343.65178 C 289.37156,343.65178 289.26407,343.47729 289.21168,343.31364 L 289.20795,343.30277 C 289.19822,343.28202 289.1933,343.25627 289.18842,343.23312 C 289.18595,343.21603 289.18232,343.20268 289.17743,343.19165 C 289.17018,343.14527 289.16645,343.09639 289.16645,343.05127 C 289.16645,342.59964 289.53147,342.23954 289.97821,342.23954 C 290.12722,342.23954 290.2676,342.27853 290.38956,342.34941 L 290.28957,342.12476 L 287.93595,337.00876 L 289.11396,336.13351 L 292.09732,347.51049 z M 286.53957,347.08817 L 286.4418,347.22729 L 286.10245,347.70703 C 286.10245,347.70703 285.84853,348.04264 285.74356,348.13066 C 285.6337,348.23316 285.48968,348.29412 285.3347,348.29412 C 285.00991,348.29412 284.74758,348.028 284.74758,347.70214 C 284.74758,347.37614 285.00991,347.1125 285.3347,347.1125 C 285.54958,347.1125 285.71433,347.18938 285.81683,347.31763 L 285.85835,347.37862 L 286.0537,346.82202 L 286.07566,346.75854 C 286.59568,345.27776 287.87006,341.65353 287.92995,341.50464 C 287.99831,341.32028 288.16921,341.01139 288.54755,340.93323 C 288.78932,340.88201 288.91998,340.92728 288.98456,340.96502 L 289.37282,341.80367 C 288.80272,341.80367 288.33271,342.27616 288.33271,342.98413 C 288.33271,343.28438 288.49872,343.63713 288.72707,344.00212 L 286.53957,347.08817 z M 286.81167,336.94893 L 286.20995,337.39453 L 285.22968,338.12329 C 285.12843,338.19165 285.00267,338.23555 284.85371,338.23555 C 284.80495,338.23555 284.75608,338.22823 284.70843,338.21484 C 284.43503,338.13546 284.19208,337.85596 284.18595,337.61059 C 284.17621,337.27121 284.3837,336.94162 284.83055,336.94893 L 284.83906,336.95142 C 285.01483,336.95625 285.17718,337.02341 285.29807,337.13452 L 285.89981,336.69014 L 286.1562,336.49972 L 288.69045,334.62716 L 288.5012,333.82272 L 287.1841,334.81759 C 287.03995,334.17062 287.05707,333.30148 287.51243,332.42989 C 287.69795,332.09421 288.18503,331.33858 289.08706,330.87472 C 289.25193,330.79174 289.41058,330.72457 289.55345,330.67455 C 289.82681,330.68429 290.11371,330.69039 290.35182,330.68554 C 291.04881,330.66964 291.30142,330.24483 291.36982,329.97143 C 291.41495,329.79805 291.47846,329.38549 291.50295,328.83371 C 291.5102,328.64576 291.51146,328.39913 291.5102,328.15011 C 292.43431,328.43942 293.28018,329.39282 293.36318,330.45236 C 293.46206,331.75122 292.75531,332.53243 292.23892,332.91695 L 286.81167,336.94893 z M 271.20013,333.83981 L 271.43085,336.17746 C 271.3015,336.18478 271.17698,336.21407 271.06098,336.25562 L 269.93553,335.40719 L 272.35618,330.20822 L 272.57835,332.87423 L 277.9287,332.87423 L 278.4108,332.87423 L 283.75633,332.87423 L 283.97972,330.20822 L 286.40033,335.40719 L 285.2737,336.25562 C 285.15896,336.21407 285.03318,336.18478 284.9062,336.17746 L 285.13442,333.83981 L 271.20013,333.83981 z M 284.01393,336.35816 C 283.63907,336.61451 283.39256,337.04171 283.39256,337.53003 C 283.39256,337.93286 283.56095,338.30148 283.8332,338.55542 L 283.78196,339.1853 L 283.66718,340.59639 L 283.4341,343.41504 C 283.4047,343.84591 283.3242,344.26339 283.1961,344.65764 L 272.7578,334.62232 L 284.1592,334.62232 L 284.01393,336.35816 z M 273.45482,345.42302 C 273.36692,345.20826 273.28147,344.97624 273.2058,344.71989 L 282.00946,344.71989 L 282.73945,345.42302 L 273.45482,345.42302 z M 281.76658,346.91728 L 274.43138,346.91728 C 274.2263,346.71452 274.0371,346.47774 273.86375,346.21415 L 282.37933,346.21415 C 282.2158,346.43014 282.02422,346.66703 281.76658,346.91728 z M 278.21071,348.49675 C 277.31956,348.49675 276.36131,348.31853 275.37372,347.70939 L 280.91693,347.70939 C 280.22972,348.1794 279.10545,348.49675 278.21071,348.49675 z M 272.88471,343.22576 L 280.45791,343.22576 L 281.1892,343.92777 L 273.01048,343.92777 C 272.96161,343.70427 272.92258,343.46502 272.88471,343.22576 z M 272.70408,341.73291 L 278.90643,341.73291 L 279.6352,342.43352 L 272.77611,342.43352 C 272.74921,342.20292 272.7224,341.97091 272.70408,341.73291 z M 272.593,340.24239 L 277.35745,340.24239 L 278.08372,340.94189 L 272.64427,340.94189 C 272.62836,340.70752 272.61131,340.47441 272.593,340.24239 z M 272.4868,338.74581 L 275.80218,338.74581 L 276.53343,339.44893 L 272.53681,339.44893 C 272.52097,339.21091 272.50385,338.97042 272.4868,338.74581 z M 272.94578,337.25171 L 274.25193,337.25171 L 274.98196,337.95236 L 272.92133,337.95236 C 272.96043,337.82784 272.98725,337.70089 272.98725,337.56173 C 272.98725,337.4543 272.9702,337.35058 272.94578,337.25171 z M 272.31956,336.39841 C 272.22678,335.75757 272.16941,335.11544 272.16941,335.11544 L 273.42796,336.45943 L 272.39525,336.45943 C 272.37083,336.44112 272.34638,336.41427 272.31956,336.39841 z M 271.62861,338.21484 C 271.57982,338.22823 271.53098,338.23555 271.48338,338.23555 C 271.33197,338.23555 271.20628,338.19165 271.10492,338.12329 L 270.12715,337.39453 L 269.52415,336.94893 L 264.09812,332.91695 C 263.58295,332.53243 262.8725,331.75122 262.97386,330.45236 C 263.05687,329.39282 263.90281,328.43942 264.82441,328.15011 C 264.82441,328.39913 264.82441,328.64576 264.83298,328.83371 C 264.85618,329.38549 264.92455,329.79805 264.96723,329.97143 C 265.03441,330.24483 265.28831,330.66964 265.98411,330.68554 C 266.22333,330.69039 266.51023,330.68429 266.78363,330.67455 C 266.92406,330.72457 267.08518,330.79174 267.24998,330.87472 C 268.15086,331.33858 268.63666,332.09421 268.82343,332.42989 C 269.28001,333.30148 269.29585,334.17062 269.15062,334.81759 L 267.83466,333.82272 L 267.64423,334.62716 L 270.18088,336.49972 L 270.43842,336.69014 L 271.03901,337.13452 C 271.15741,337.02341 271.31981,336.95625 271.49677,336.95142 L 271.50531,336.94893 C 271.95213,336.94162 272.16327,337.27121 272.15228,337.61059 C 272.14496,337.85596 271.90086,338.13546 271.62861,338.21484 z M 266.04637,342.12476 L 265.9475,342.34941 C 266.06835,342.27853 266.2075,342.23954 266.35642,342.23954 C 266.80687,342.23954 267.16937,342.59964 267.16937,343.05127 C 267.16937,343.09639 267.16697,343.14527 267.15843,343.19165 C 267.15477,343.20268 267.14985,343.21603 267.14745,343.23312 C 267.14252,343.25627 267.13767,343.28202 267.12913,343.30277 L 267.1267,343.31364 C 267.07295,343.47729 266.96433,343.65178 266.96433,343.65178 L 266.34785,344.61991 L 266.15008,344.92753 L 265.20042,346.41549 L 265.10398,346.57052 L 264.76947,347.0905 L 264.8037,347.0905 C 265.15526,347.08077 265.4055,347.36642 265.4055,347.69349 C 265.4055,347.93778 265.20042,348.27214 264.83787,348.27214 C 264.46678,348.27214 264.22016,348.02076 264.22016,347.69349 C 264.22016,347.66678 264.21776,347.58125 264.23728,347.51049 L 267.22308,336.13351 L 268.39862,337.00876 L 266.04637,342.12476 z M 267.78831,340.93323 C 268.16791,341.01139 268.33637,341.32028 268.40843,341.50464 C 268.4658,341.65353 269.73896,345.27776 270.26023,346.75854 L 270.28221,346.82202 L 270.47996,347.37862 L 270.51781,347.31763 C 270.62152,347.18938 270.78632,347.1125 271.0012,347.1125 C 271.32465,347.1125 271.58832,347.37614 271.58832,347.70214 C 271.58832,348.028 271.32465,348.29412 271.0012,348.29412 C 270.84617,348.29412 270.7021,348.23316 270.59105,348.13066 C 270.48728,348.04264 270.23582,347.70703 270.23582,347.70703 L 269.89277,347.22729 L 269.79515,347.08817 L 267.61008,344.00212 C 267.83713,343.63713 268.00678,343.28438 268.00678,342.98413 C 268.00678,342.27616 267.53318,341.80367 266.96308,341.80367 L 267.35252,340.96502 C 267.416,340.92728 267.54902,340.88201 267.78831,340.93323 z M 270.83392,330.17892 C 270.65696,330.07149 270.53856,329.87862 270.53856,329.65768 C 270.53856,329.35128 270.82295,329.05099 271.13422,329.05099 C 271.46381,329.05099 271.73241,329.32198 271.73241,329.65768 C 271.73241,329.76388 271.70551,329.86157 271.66282,329.94947 L 269.89642,333.79102 C 269.88303,333.68848 269.85862,333.53585 269.82078,333.3088 C 269.7829,333.0793 269.706,332.82541 269.60346,332.56787 L 270.83392,330.17892 z M 273.4853,327.95479 L 273.52923,328.92159 L 274.0847,328.92159 L 274.03953,327.95479 L 274.60593,327.95479 L 274.67545,329.45382 L 273.00682,329.45382 L 272.91282,327.95479 L 273.4853,327.95479 z M 274.73407,330.7771 L 273.09345,330.7771 L 273.04343,329.99825 L 274.6962,329.99825 L 274.73407,330.7771 z M 275.6667,327.95479 L 275.69972,328.92159 L 276.24897,328.92159 L 276.2172,327.95479 L 276.75433,327.95479 L 276.78482,329.45382 L 275.22735,329.45382 L 275.17845,327.95479 L 275.6667,327.95479 z M 276.8142,330.7771 L 275.2737,330.7771 L 275.24681,329.99825 L 276.79706,329.99825 L 276.8142,330.7771 z M 277.87006,327.95479 L 277.87368,328.92159 L 278.46821,328.92159 L 278.46821,327.95479 L 278.9846,327.95479 L 278.96507,329.45382 L 278.26682,329.45382 L 278.07143,329.45382 L 277.3708,329.45382 L 277.35133,327.95479 L 277.87006,327.95479 z M 279.5388,329.99825 L 281.08906,329.99825 L 281.06346,330.7771 L 279.52041,330.7771 L 279.5388,329.99825 z M 279.5816,327.95479 L 280.11856,327.95479 L 280.08571,328.92159 L 280.63621,328.92159 L 280.66921,327.95479 L 281.15871,327.95479 L 281.10745,329.45382 L 279.54982,329.45382 L 279.5816,327.95479 z M 277.37571,329.99825 L 278.07143,329.99825 L 278.26682,329.99825 L 278.96018,329.99825 L 278.9492,330.7771 L 278.26682,330.7771 L 278.07143,330.7771 L 277.38796,330.7771 L 277.37571,329.99825 z M 278.07143,331.32393 L 278.26682,331.32393 L 283.20946,331.32393 L 283.14956,332.28341 L 278.4108,332.28341 L 277.9287,332.28341 L 273.18626,332.28341 L 273.12641,331.32393 L 278.07143,331.32393 z M 281.6396,329.99825 L 283.29242,329.99825 L 283.24482,330.7771 L 281.60182,330.7771 L 281.6396,329.99825 z M 281.72996,327.95479 L 282.2963,327.95479 L 282.25242,328.92159 L 282.80658,328.92159 L 282.85293,327.95479 L 283.42307,327.95479 L 283.32905,329.45382 L 281.66031,329.45382 L 281.72996,327.95479 z M 285.20157,329.05099 C 285.51407,329.05099 285.79731,329.35128 285.79731,329.65768 C 285.79731,329.87862 285.68133,330.07149 285.50193,330.17892 L 286.73358,332.56787 C 286.62982,332.82541 286.55422,333.0793 286.51397,333.3088 C 286.47735,333.53585 286.45278,333.68848 286.43696,333.79102 L 284.67307,329.94947 C 284.63031,329.86157 284.60342,329.76388 284.60342,329.65768 C 284.60342,329.32198 284.87208,329.05099 285.20157,329.05099 z M 264.60227,337.12594 L 264.09931,339.06197 C 263.93577,338.84473 263.80393,338.6726 263.75022,338.59444 C 263.53656,338.28442 262.98602,337.51046 262.98602,336.55466 C 262.98602,336.07983 263.39378,335.54268 263.90403,335.59029 C 264.54368,335.65011 264.79511,336.38013 264.60227,337.12594 z M 293.13743,341.47527 C 293.05808,341.47778 292.97996,341.49239 292.90795,341.51189 L 292.51972,340.11299 L 292.71747,339.85917 C 293.30707,339.09009 293.66107,338.64572 293.92597,338.13546 C 294.33495,337.35543 294.2812,336.57907 294.14932,336.08956 C 293.85395,334.98853 292.98607,334.72969 292.46845,334.75656 C 291.6933,334.79318 291.21971,335.2229 291.02196,335.71603 C 290.80958,336.24581 290.84732,336.79268 290.94383,337.18579 L 291.62368,339.8909 C 291.41495,340.16191 291.23432,340.4475 291.11107,340.60254 L 289.82445,335.59396 L 292.69557,333.47726 C 294.34345,332.26758 294.32883,330.32174 293.7917,329.27072 C 293.27907,328.26489 292.55146,327.75704 291.92157,327.52633 C 291.73355,327.4543 291.60903,327.41768 291.49192,327.39083 C 291.48708,327.30542 291.48456,327.24317 291.4822,327.21627 C 291.47121,327.08569 291.31732,327.0271 291.18557,327.00021 C 290.89382,326.93673 290.80958,327.0588 290.80958,327.10274 L 290.80093,327.27731 C 290.09906,327.20041 288.60133,327.20894 288.60133,327.20894 L 288.60371,327.62036 L 288.60371,328.64693 L 289.19822,328.71652 C 289.25556,328.71899 289.33132,328.77759 289.33132,328.88379 C 289.3301,328.99606 289.24457,329.05831 289.16282,329.07907 C 289.09083,329.09986 289.05655,329.10469 289.02732,329.10226 L 289.02118,329.10226 L 287.1841,328.89841 L 287.40867,329.5979 C 288.12282,329.67847 288.68561,329.72726 289.09935,329.75046 C 289.1188,329.75171 289.13597,329.75171 289.15542,329.75171 C 289.6352,329.75171 290.02093,329.36353 290.02093,328.88379 C 290.02093,328.42111 289.65717,328.04268 289.19822,328.01827 L 289.19822,327.84859 C 289.44606,327.85473 289.74995,327.8669 290.07957,327.89621 C 290.11131,328.02072 290.17482,328.17208 290.30906,328.30884 C 290.45071,328.46017 290.60207,328.57736 290.73635,328.66281 L 290.73017,328.87764 C 290.73017,328.87764 290.74845,329.23287 290.71556,329.52706 C 290.68382,329.82496 290.50807,330.04708 289.86232,330.07028 C 289.24705,330.09103 288.49147,329.97143 288.49147,329.97143 L 288.53295,330.42554 C 288.28392,330.56469 288.03607,330.76729 287.7187,331.05049 C 287.50996,331.23971 287.3037,331.50219 287.12185,331.79757 L 286.35032,330.30587 C 286.51142,330.08371 286.6103,329.81514 286.6103,329.52341 C 286.6103,328.78732 285.93406,328.18917 285.22606,328.18917 C 284.7512,328.18917 284.35081,328.40279 284.1042,328.73117 L 284.22146,327.32979 L 278.27785,327.32979 L 278.05683,327.32979 L 272.11567,327.32979 L 272.23167,328.73117 C 271.98631,328.40279 271.58592,328.18917 271.10985,328.18917 C 270.40062,328.18917 269.72557,328.78732 269.72557,329.52341 C 269.72557,329.81514 269.82318,330.08371 269.98798,330.30587 L 269.2141,331.79757 C 269.03098,331.50219 268.82591,331.23971 268.61595,331.05049 C 268.29857,330.76729 268.05198,330.56469 267.8017,330.42554 L 267.84446,329.97143 C 267.84446,329.97143 267.08758,330.09103 266.47361,330.07028 C 265.82782,330.04708 265.65086,329.82496 265.61908,329.52706 C 265.58738,329.23287 265.6081,328.87764 265.6081,328.87764 L 265.59837,328.66281 C 265.73261,328.57736 265.88523,328.46017 266.02923,328.30884 C 266.16107,328.17208 266.22581,328.02072 266.2563,327.89621 C 266.58836,327.8669 266.88866,327.85473 267.13767,327.84859 L 267.13767,328.01827 C 266.6787,328.04268 266.3137,328.42111 266.3137,328.88379 C 266.3137,329.36353 266.70188,329.75171 267.18162,329.75171 C 267.19993,329.75171 267.21825,329.75171 267.23533,329.75046 C 267.65037,329.72726 268.21312,329.67847 268.92718,329.5979 L 269.15062,328.89841 L 267.3159,329.10226 L 267.30857,329.10226 C 267.27928,329.10469 267.24388,329.09986 267.17303,329.07907 C 267.09007,329.05831 267.00585,328.99606 267.00462,328.88379 C 267.00336,328.77759 267.08027,328.71899 267.13767,328.71652 L 267.73338,328.64693 L 267.73338,327.62036 L 267.73826,327.20894 C 267.73826,327.20894 266.23798,327.20041 265.53367,327.27731 L 265.52513,327.10274 C 265.52513,327.0588 265.4433,326.93673 265.14915,327.00021 C 265.0185,327.0271 264.86468,327.08569 264.85252,327.21627 C 264.85005,327.24317 264.84886,327.30542 264.84397,327.39083 C 264.72678,327.41768 264.60227,327.4543 264.41425,327.52633 C 263.78318,327.75704 263.05808,328.26489 262.54657,329.27072 C 262.00825,330.32174 261.9936,332.26758 263.64036,333.47726 L 266.51146,335.59396 L 265.22606,340.60254 C 265.10155,340.4475 264.92455,340.16191 264.71455,339.8909 L 265.39203,337.18579 C 265.48725,336.79268 265.52513,336.24581 265.31395,335.71603 C 265.11497,335.2229 264.64622,334.79318 263.86741,334.75656 C 263.34983,334.72969 262.48191,334.98853 262.18528,336.08956 C 262.05467,336.57907 261.99973,337.35543 262.40867,338.13546 C 262.67601,338.64572 263.02757,339.09009 263.61838,339.85917 L 263.81492,340.11299 L 263.4304,341.51189 C 263.35716,341.49239 263.279,341.47778 263.19843,341.47527 C 262.71751,341.46062 262.37937,341.84152 262.37937,342.25652 C 262.37937,342.71313 262.74681,343.07564 263.19843,343.07564 C 263.4914,343.07564 263.74775,342.92549 263.89057,342.69353 C 264.01633,342.50802 264.13108,342.02702 264.26536,341.56327 L 264.44602,340.93827 L 264.97821,341.62663 C 264.64745,342.86451 263.44013,347.40063 263.42182,347.47014 C 263.21433,348.354 264.00531,349.11328 264.82201,349.10965 C 265.55198,349.09974 266.25145,348.51388 266.22215,347.69349 C 266.2075,347.3079 266.05613,347.02466 265.81317,346.83789 L 267.14745,344.72603 L 269.65965,348.2795 C 269.85741,348.56278 270.00996,348.68962 270.03685,348.71163 C 270.28953,348.96802 270.6411,349.12663 271.03168,349.12663 C 271.72996,349.12663 272.44892,348.50167 272.44892,347.72527 C 272.44892,346.95138 271.83735,346.29589 271.02928,346.44112 C 271.00852,346.44601 270.989,346.44853 270.96942,346.45452 L 269.1909,341.37154 C 269.04803,340.98702 268.85272,340.69039 268.6721,340.52076 C 268.41453,340.27665 268.03973,340.27902 267.89085,340.28638 C 267.82367,340.28874 267.73338,340.30713 267.64671,340.32792 L 268.97972,337.4482 L 270.64963,338.70674 C 270.89252,338.90332 271.20013,339.01803 271.53465,339.01803 C 271.59325,339.01803 271.65183,339.01684 271.70551,339.00827 L 272.16693,343.73849 C 272.3159,345.32541 273.08612,346.717 274.22263,347.69853 L 274.22263,347.70939 L 274.23602,347.70939 C 275.2932,348.61402 276.66156,349.17066 278.16795,349.17066 C 281.30633,349.17066 283.88446,346.80127 284.16896,343.73849 L 284.63031,339.00827 C 284.68647,339.01684 284.7427,339.01803 284.79881,339.01803 C 285.13695,339.01803 285.4446,338.90332 285.68622,338.70674 L 287.35496,337.4482 L 288.68793,340.32792 C 288.60371,340.30713 288.51218,340.28874 288.44505,340.28638 C 288.29608,340.27902 287.9213,340.27665 287.66383,340.52076 C 287.48306,340.69039 287.28782,340.98702 287.14618,341.37154 L 285.36643,346.45452 C 285.34695,346.44853 285.32856,346.44601 285.30655,346.44112 C 284.49845,346.29589 283.88695,346.95138 283.88695,347.72527 C 283.88695,348.50167 284.6072,349.12663 285.30547,349.12663 C 285.69481,349.12663 286.0463,348.96802 286.30031,348.71163 C 286.32468,348.68962 286.47842,348.56278 286.67743,348.2795 L 289.19205,344.72603 L 290.52268,346.83789 C 290.27858,347.02466 290.12722,347.3079 290.11371,347.69349 C 290.08446,348.51388 290.78506,349.09974 291.51393,349.10965 C 292.3317,349.11328 293.12518,348.354 292.91282,347.47014 C 292.89932,347.40063 291.68968,342.86451 291.35883,341.62663 L 291.8887,340.93827 L 292.07057,341.56327 C 292.20607,342.02702 292.32082,342.50802 292.44533,342.69353 C 292.59056,342.92549 292.84695,343.07564 293.13743,343.07564 C 293.59157,343.07564 293.95656,342.71313 293.95656,342.25652 C 293.95656,341.84152 293.61721,341.46062 293.13743,341.47527 z" id="path2524" style="fill: rgb(35, 31, 32); fill-opacity: 1; fill-rule: nonzero; stroke: none;"/>
    </g>
  </g>
</svg>