<?xml version="1.0" encoding="UTF-8"?>
<svg width="250" height="60" version="1.1" viewBox="0 0 250.1 59.299999" xml:space="preserve"
     xmlns="http://www.w3.org/2000/svg" xmlns:cc="http://creativecommons.org/ns#"
     xmlns:dc="http://purl.org/dc/elements/1.1/" xmlns:photoshop="http://ns.adobe.com/photoshop/1.0/"
     xmlns:rdf="http://www.w3.org/1999/02/22-rdf-syntax-ns#"
     xmlns:stEvt="http://ns.adobe.com/xap/1.0/sType/ResourceEvent#" xmlns:x="adobe:ns:meta/"
     xmlns:xmp="http://ns.adobe.com/xap/1.0/" xmlns:xmpMM="http://ns.adobe.com/xap/1.0/mm/">
<title>Logo Stadt Zürich</title>
    <style type="text/css">
	.st1{fill:#ddd;}
</style>
    <g id="Bildmarke">
		<path class="st1"
              d="m83 39c-0.3 0-0.6 0.1-0.9 0.2-0.4-1.4-0.8-2.8-1.1-4.2l1.6-2.2c0.2-0.3 2.9-3.7 2.9-6.9 0-4.7-4-4.8-4.4-4.8-1 0-2.5 0.4-3.4 1.6-0.9 1.1-1.1 2.6-0.7 4.4 0.1 0.3 1 3.9 2 7.5l-1.6 2.1-3.5-13.4 8-5.9c2.2-1.7 3.5-4.4 3.5-7.2 0-4.3-3-8-7.1-8.9v-0.9l-1.6-0.4v1l-4.6-0.3h-1.5v3.7h1.5c0.4 0 0.8 0.4 0.8 0.8s-0.4 0.8-0.8 0.8l-5-0.5 0.4 1.6 4.5 0.4h0.1c1.3 0 2.3-1 2.3-2.3s-1-2.3-2.3-2.3v-0.6l4.5 0.3v4.3c0 0.5-0.2 0.9-0.5 1.2s-0.8 0.5-1.3 0.4l-5.1-0.3 0.4 1.5c-1.4 0.9-2.6 2.1-3.5 3.4l-2-4.3c0.3-0.5 0.4-1.1 0.4-1.6 0-2-1.6-3.6-3.6-3.6-1.3 0-2.4 0.6-3 1.6l0.4-4.2h-32.1l0.3 4.3c-0.6-1-1.8-1.6-3-1.6-2 0-3.6 1.6-3.6 3.6 0 0.6 0.1 1.1 0.4 1.6l-2 4.3c-0.9-1.4-2.1-2.5-3.5-3.4l0.4-1.5-5.1 0.3c-0.5 0-0.9-0.1-1.3-0.4-0.3-0.5-0.4-0.9-0.4-1.4v-4.3l4.5-0.3v0.6c-1.3 0-2.3 1.1-2.3 2.3 0 1.3 1 2.3 2.3 2.3h0.1l4.5-0.3 0.4-1.6-5 0.5c-0.4 0-0.8-0.4-0.8-0.8s0.4-0.8 0.8-0.8h1.5v-3.6h-1.5l-4.5 0.2v-1l-1.6 0.4v0.8c-4.2 0.9-7.1 4.6-7.1 8.9 0 2.8 1.3 5.5 3.5 7.2l8 5.9-3.5 13.5-1.6-2.1c1-3.5 1.9-7.1 2-7.5 0.4-1.8 0.2-3.3-0.7-4.4-0.9-1.2-2.4-1.6-3.4-1.6-0.5 0-4.5 0.2-4.5 4.9 0 3.1 2.7 6.5 2.9 6.9l1.6 2.1c-0.4 1.4-0.8 2.8-1.1 4.2-0.2-0.1-0.5-0.2-0.8-0.2-1.2 0-2.2 1-2.2 2.2s1 2.2 2.2 2.2c1 0 1.9-0.7 2.1-1.6 0.1-0.5 0.7-2.5 1.3-4.8l1.6 2.1-4.2 15.8c-0.1 0.3-0.1 0.5-0.1 0.8 0 2 1.6 3.6 3.6 3.6s3.6-1.6 3.6-3.6c0-0.9-0.3-1.7-0.9-2.4l3.7-6 7.4 10.4c0.7 1 1.8 1.5 3 1.5 2 0 3.6-1.6 3.6-3.6s-1.6-3.6-3.6-3.6h-0.2l-5-14.2c-0.5-1.3-1.6-2.2-3-2.4h-0.6l3.4-7.4 4.5 3.3c0.6 0.5 1.4 0.8 2.2 0.8 0.2 0 0.4 0 0.7-0.1l1.3 13.1c0.4 3.6 2.3 7.1 5.3 9.8 3.1 2.8 6.8 4.3 10.6 4.3s7.6-1.5 10.6-4.3c3-2.7 4.9-6.3 5.3-9.8l1.2-13c0.2 0 0.4 0.1 0.7 0.1 0.8 0 1.6-0.3 2.2-0.8l4.5-3.3 3.4 7.4h-0.6c-1.4 0.2-2.5 1.1-3 2.4l-5 14.2h-0.2c-2 0-3.6 1.6-3.6 3.6s1.6 3.6 3.6 3.6c1.2 0 2.3-0.6 3-1.5l7.4-10.4 3.7 6c-0.8 0.6-1.1 1.4-1.1 2.3 0 2 1.6 3.6 3.6 3.6s3.6-1.6 3.6-3.6c0-0.3 0-0.5-0.1-0.8l-4.1-15.8 1.6-2.1c0.6 2.3 1.2 4.3 1.3 4.8 0.2 0.9 1.1 1.6 2.1 1.6 1.2 0 2.2-1 2.2-2.2s-1-2.2-2.2-2.2zm-77.8-6.3-0.7-1c-0.7-0.9-2.5-3.6-2.5-5.7 0-2.6 1.8-2.9 2.5-2.9 0.6 0 1.4 0.2 2 0.9 0.5 0.6 0.6 1.6 0.4 2.8-0.2 0.2-0.9 2.7-1.7 5.9zm56.4-27.2c1 0 1.7 0.8 1.7 1.7 0 0.4-0.1 0.7-0.3 1l-0.3 0.4 3.1 6.5c-0.4 1.1-0.7 2.2-0.7 3.4l-5-10.8c-0.1-0.2-0.1-0.4-0.1-0.6-0.2-0.8 0.6-1.6 1.6-1.6zm-10.7 4.8h-4.4v-2.1h4.5zm-5.9 0h-4.4v-2.1h4.4zm-5.9 0h-4.4l-0.1-2.1h4.4zm-6 0h-4.1l-0.2-2.1h4.3zm23.4 1.6-0.2 2.5h-27l-0.2-2.5zm0.1-1.6h-4.2l0.1-2.1h4.3zm-2.4-7.7-0.1 2.7h1.5l0.1-2.7h1.5l-0.3 4.1h-4.4l0.1-4.1h1.6zm-6.1 0-0.1 2.7h1.5l0.1-2.7h1.5l-0.1 4.1h-4.5l0.1-4.1zm-6.1 0v2.7h1.5v-2.7h1.5v4.1h-4.5l-0.1-4.1h1.6zm-6.1 0 0.1 2.7h1.5l-0.1-2.7h1.6v4.1h-4.5l-0.1-4.1zm-6.1 0 0.2 2.7h1.5l-0.1-2.7h1.5l0.1 4.1h-4.4l-0.3-4.1h1.5zm-2.5 6.1 0.6 7.2h29.8l0.6-7.2 6.5 14-3.3 2.4c-0.2-0.1-0.5-0.1-0.8-0.1l0.6-6.5h-37l0.6 6.5c-0.3 0-0.6 0-0.9 0.1l-3.3-2.4zm1.1 18.7h3.9l2.5 2.4h-6.4c0.1-0.4 0.2-0.8 0.2-1.2s-0.1-0.8-0.2-1.2zm-1-1.5c-0.1-0.1-0.3-0.3-0.5-0.4l-0.3-3.6 4.1 3.9h-3.3v0.1zm-4.5-17.2-0.3-0.4c-0.2-0.3-0.3-0.7-0.3-1 0-1 0.8-1.7 1.7-1.7 1 0 1.7 0.8 1.7 1.7 0 0.2 0 0.4-0.1 0.6l-5 10.8c-0.1-1.2-0.3-2.3-0.7-3.4zm-7.7 28.7c0.4 0.1 1.2 0.3 1.5 1.2l5.6 15.8 0.9-0.3c0.2-0.1 0.4-0.1 0.5-0.1 1 0 1.7 0.8 1.7 1.7s-0.8 1.7-1.7 1.7c-0.6 0-1.1-0.3-1.4-0.7l-7.8-11.1 0.5-0.9c0.3-0.6 0.5-1.2 0.5-1.8 0-1.6-1.1-3-2.6-3.4l0.8-1.8c0.3-0.2 0.9-0.4 1.5-0.3zm-4.5 2.4 1.1 1.5h0.3c0.9 0 1.6 0.7 1.6 1.6 0 0.3-0.1 0.6-0.2 0.8l-6.3 10 0.8 0.5c0.5 0.3 0.8 0.9 0.8 1.4 0 1-0.8 1.7-1.7 1.7s-1.7-0.8-1.7-1.7v-0.4l8.1-30.9 3.4 2.5zm14.3-9.5c-0.4 0-0.8-0.1-1.1-0.4l-19-14.1c-1.8-1.4-2.8-3.5-2.8-5.7 0-3.3 2.2-6.1 5.2-7v3.6c0 0.9 0.4 1.7 1 2.3 0.6 0.7 1.4 1 2.2 1h0.2l1.4-0.1c0.3 0.1 0.6 0.2 0.7 0.2 3.8 1.5 6.3 5.2 6.3 9.3 0 0.6-0.1 1.3-0.2 1.9l-4-2.9-0.5 2 9.3 6.9 0.5-0.2c0.4-0.2 0.9-0.2 1.4 0 0.6 0.3 1.1 0.9 1.1 1.6 0 0.6-0.3 1.1-0.8 1.4-0.3 0.1-0.6 0.2-0.9 0.2zm2.4 1h8.9l2.5 2.4h-11.1zm0.4 3.9h12.6l2.5 2.4h-14.8zm0.4 3.9h16.3l2.5 2.4h-18.6zm0.6 6-0.2-2h20l2.5 2.4h-22.3v-0.4zm0.3 1.9h23.5l2.5 2.4h-25c-0.4-0.8-0.7-1.6-1-2.4zm13.7 10.5c-2.8 0-5.6-1-7.9-2.6h15.8c-2.3 1.6-5.1 2.6-7.9 2.6zm9.7-4.2h-19.5c-0.8-0.7-1.4-1.5-2-2.4h23.6c-0.6 0.9-1.3 1.7-2.1 2.4zm4.3-8.2c-0.1 0.9-0.3 1.8-0.6 2.7l-28.5-27.4h31.5l-0.5 5.1c-1 0.7-1.7 1.8-1.7 3.1 0 1 0.4 2 1.1 2.6zm4.9-15.2c-0.3 0.3-0.7 0.4-1.1 0.4-0.3 0-0.7-0.1-1-0.3-0.5-0.3-0.8-0.9-0.8-1.4 0-0.7 0.4-1.3 1.1-1.6 0.4-0.2 0.9-0.2 1.4 0l0.5 0.2 9.3-6.9-0.5-2-4 2.9c-0.1-0.6-0.2-1.2-0.2-1.9 0-4.1 2.5-7.7 6.3-9.3 0.1 0 0.4-0.1 0.7-0.2l1.4 0.1h0.2c0.8 0 1.6-0.3 2.2-0.9s1-1.4 1-2.3v-3.6c3.1 0.9 5.2 3.7 5.2 7 0 2.2-1 4.3-2.8 5.7zm1.6 26.8c-0.3 0.5-0.9 0.7-1.4 0.7-1 0-1.7-0.8-1.7-1.7s0.8-1.7 1.7-1.7c0.2 0 0.4 0 0.5 0.1l0.9 0.3 5.6-15.8c0.3-0.9 1.1-1.1 1.5-1.2 0.6-0.1 1.2 0.1 1.4 0.3l0.8 1.8c-1.5 0.4-2.6 1.8-2.6 3.5 0 0.6 0.2 1.3 0.5 1.8l0.5 0.9zm17-1.3v0.4c0 1-0.8 1.7-1.7 1.7s-1.7-0.8-1.7-1.7c0-0.6 0.3-1.1 0.8-1.4l0.8-0.5-6.3-10c-0.2-0.3-0.2-0.5-0.2-0.8 0-0.9 0.7-1.6 1.6-1.6h0.3l1.1-1.5-6-12.9 3.4-2.5zm-1.5-28.7c-0.3-1.3-0.2-2.2 0.4-2.8 0.5-0.6 1.4-0.9 2-0.9 0.8 0 2.5 0.3 2.5 2.9 0 2.5-2.5 5.6-2.5 5.7l-0.8 1c-0.8-3.1-1.5-5.6-1.6-5.9z"/>
	</g>
    <g id="Stadt_Zürich" transform="translate(0,18.15)">
				<path class="st1"
                      d="m112.2 2.2c2.2 0 3.9 0.5 5.2 1.5s1.9 2.4 1.9 4.2h-3.8c0-0.9-0.4-1.6-0.9-2-0.6-0.4-1.4-0.7-2.6-0.7-0.8 0-1.5 0.2-2 0.5s-0.8 0.9-0.8 1.5c0 0.5 0.2 0.9 0.5 1.1s0.7 0.4 1.3 0.6 1.6 0.4 3 0.8c1.5 0.4 2.6 0.8 3.4 1.2s1.4 1 1.8 1.7 0.6 1.5 0.6 2.5c0 1.1-0.3 2.1-0.9 3s-1.5 1.6-2.6 2-2.4 0.7-3.9 0.7c-2.2 0-4-0.6-5.5-1.7-1.4-1.1-2.1-2.6-2.1-4.6v-0.1h3.8c0 1 0.4 1.9 1.1 2.4 0.7 0.6 1.7 0.9 2.8 0.9 1 0 1.9-0.2 2.5-0.6s1-0.9 1-1.7c0-0.5-0.2-0.9-0.5-1.2s-0.8-0.6-1.4-0.8-1.6-0.5-2.9-0.8c-1.6-0.4-2.8-0.8-3.5-1.3s-1.3-1-1.7-1.6-0.6-1.4-0.6-2.3c0-1.1 0.3-2.1 1-2.9 0.6-0.8 1.5-1.4 2.5-1.8 1.1-0.3 2.2-0.5 3.3-0.5z"/>
        <path class="st1"
              d="m126.4 3.7v3.9h2.6v2.4h-2.6v6.4c0 0.6 0.1 1 0.3 1.2s0.6 0.3 1.2 0.3c0.4 0 0.8 0 1.1-0.1v2.8c-0.5 0.1-1.2 0.1-2.1 0.1-1.4 0-2.4-0.2-3-0.7-0.7-0.5-1-1.3-1-2.4v-7.7h-2.1v-2.4h2.1v-3.8z"/>
        <path class="st1"
              d="m137.1 7.2c3.8 0 5.6 1.2 5.6 3.7v6.8c0 1.3 0.1 2.2 0.5 2.7h-3.6c-0.1-0.4-0.2-0.8-0.2-1.2-1 1.1-2.5 1.6-4.3 1.6-1.3 0-2.4-0.3-3.2-1s-1.2-1.6-1.2-2.8 0.4-2.1 1.1-2.7c0.8-0.7 2.2-1.1 4.2-1.3 1.4-0.1 2.3-0.3 2.7-0.6 0.4-0.2 0.6-0.6 0.6-1 0-0.6-0.2-1-0.5-1.3-0.4-0.3-0.9-0.4-1.8-0.4-0.7 0-1.3 0.2-1.7 0.5s-0.6 0.8-0.7 1.5h-3.6c0.1-1.4 0.7-2.5 1.8-3.2 1-0.9 2.5-1.3 4.3-1.3zm-3 9.6c0 1.1 0.7 1.6 2.2 1.6 1.9 0 2.9-1 2.9-2.9v-1.4c-0.3 0.3-1 0.5-2.1 0.6-1 0.1-1.7 0.3-2.2 0.6-0.5 0.4-0.8 0.8-0.8 1.5z"/>
        <path class="st1"
              d="m158 2.6v17.8h-3.4v-1.6c-0.8 1.3-2.1 2-3.9 2s-3.2-0.6-4.2-1.9-1.6-3-1.6-5 0.5-3.6 1.6-4.8 2.4-1.9 4.1-1.9c0.8 0 1.5 0.2 2.2 0.5s1.2 0.8 1.6 1.4h0.1v-6.5zm-9.6 11.4c0 1.2 0.3 2.2 0.8 3 0.6 0.8 1.3 1.2 2.3 1.2s1.8-0.4 2.3-1.1 0.8-1.8 0.8-3.1-0.3-2.3-0.8-3-1.3-1.1-2.3-1.1-1.8 0.4-2.3 1.1-0.8 1.7-0.8 3z"/>
        <path class="st1"
              d="m165.5 3.7v3.9h2.6v2.4h-2.6v6.4c0 0.6 0.1 1 0.3 1.2s0.6 0.3 1.2 0.3c0.4 0 0.8 0 1.1-0.1v2.8c-0.5 0.1-1.2 0.1-2.1 0.1-1.4 0-2.4-0.2-3-0.7-0.7-0.5-1-1.3-1-2.4v-7.7h-2.1v-2.4h2.1v-3.8z"/>
        <path class="st1" d="m190 2.6v3.1l-9.6 11.4h9.8v3.3h-15v-3.1l9.6-11.4h-8.8v-3.3z"/>
        <path class="st1"
              d="m195.6 7.5v7.3c0 1 0.2 1.8 0.5 2.3s0.9 0.8 1.8 0.8c1 0 1.7-0.3 2.1-0.9s0.6-1.5 0.6-2.8v-6.7h3.5v12.9h-3.4v-1.8h-0.1c-0.9 1.4-2.2 2.1-4 2.1-1.7 0-2.9-0.4-3.6-1.3s-1.1-2.2-1.1-4v-8zm1.7-4.9v2.9h-3.4v-2.9zm5.1 0v2.9h-3.4v-2.9z"/>
        <path class="st1"
              d="m214.7 7.2c0.3 0 0.6 0 0.8 0.1v3.3c-0.4-0.1-0.8-0.1-1.3-0.1-2.3 0-3.5 1.4-3.5 4.1v5.8h-3.5v-12.9h3.4v2.4c0.3-0.8 0.9-1.5 1.7-2 0.7-0.5 1.5-0.7 2.4-0.7z"/>
        <path class="st1" d="m220.9 2.6v2.9h-3.5v-2.9zm0 4.9v12.9h-3.5v-12.9z"/>
        <path class="st1"
              d="m229.7 7.2c1.8 0 3.2 0.4 4.3 1.3s1.7 2.1 1.8 3.6h-3.5c-0.2-1.5-1.1-2.2-2.6-2.2-0.9 0-1.7 0.4-2.2 1.1-0.5 0.8-0.8 1.8-0.8 3s0.3 2.2 0.8 2.9 1.2 1.1 2.2 1.1c1.6 0 2.6-0.9 2.8-2.6h3.4c-0.2 1.7-0.9 3-2 3.9s-2.5 1.4-4.2 1.4c-1.9 0-3.5-0.6-4.7-1.8s-1.8-2.8-1.8-4.8c0-2.1 0.6-3.8 1.8-5.1 1.1-1.2 2.7-1.8 4.7-1.8z"/>
        <path class="st1"
              d="m241.5 2.6v6.7h0.1c0.4-0.7 0.9-1.2 1.6-1.6s1.4-0.6 2.2-0.6c1.6 0 2.8 0.4 3.6 1.2 0.7 0.8 1.1 2.1 1.1 3.9v8.1h-3.5v-7.3c0-1-0.2-1.8-0.5-2.3s-0.9-0.8-1.8-0.8c-1 0-1.6 0.3-2.1 0.9-0.4 0.6-0.7 1.5-0.7 2.8v6.8h-3.5v-17.8h3.5z"/>
			
		
	</g>

</svg>
