<?xml version="1.0" encoding="UTF-8" standalone="no"?>
<svg
   xmlns:dc="http://purl.org/dc/elements/1.1/"
   xmlns:cc="http://creativecommons.org/ns#"
   xmlns:rdf="http://www.w3.org/1999/02/22-rdf-syntax-ns#"
   xmlns:svg="http://www.w3.org/2000/svg"
   xmlns="http://www.w3.org/2000/svg"
   viewBox="0 0 552.99548 462.37091"
   height="462.37091"
   width="552.99548"
   xml:space="preserve"
   version="1.1"
   id="svg2"><metadata
     id="metadata8"><rdf:RDF><cc:Work
         rdf:about=""><dc:format>image/svg+xml</dc:format><dc:type
           rdf:resource="http://purl.org/dc/dcmitype/StillImage" /><dc:title></dc:title></cc:Work></rdf:RDF></metadata><defs
     id="defs6"><clipPath
       id="clipPath16"
       clipPathUnits="userSpaceOnUse"><path
         style="clip-rule:evenodd"
         id="path18"
         d="m 100.474,581.1021 640.9409,0 0,-566.9292 -640.9409,0 0,566.9292 z" /></clipPath><linearGradient
       id="linearGradient22"
       spreadMethod="pad"
       gradientTransform="matrix(-622.43808,622.43808,-622.43788,-622.43788,1043.3832,297.6375)"
       gradientUnits="userSpaceOnUse"
       y2="0"
       x2="0.99000001"
       y1="0"
       x1="0.0099999998"><stop
         id="stop24"
         offset="0"
         style="stop-opacity:1;stop-color:#e9e9e9" /><stop
         id="stop26"
         offset="1"
         style="stop-opacity:1;stop-color:#ffffff" /></linearGradient></defs><g
     transform="matrix(1.25,0,0,-1.25,-249.68262,602.11137)"
     id="g10"><path
       id="path30"
       style="fill:#bf2329;fill-opacity:1;fill-rule:evenodd;stroke:none"
       d="m 251.0005,184.3534 17.5907,0 0,-2.73 -30.3866,-68.989 -7.7677,0 -30.6908,68.989 0,2.73 17.5907,0 16.7842,-40.1136 0.5148,0 16.3647,40.1136 z m 54.5284,-15.8011 8.3937,0 0,15.8011 -34.8892,0 0,-15.8011 8.3869,0 0,-39.2057 -9.1015,0 0,-15.9024 36.3152,0 0,15.9024 -9.1051,0 0,39.2057 z m 41.9819,-30.1927 0,6.234 0,4.5788 0,3.6938 0,3.5629 0,4.1819 0,5.5457 0,7.6595 0,10.5372 -9.2457,0 -9.1772,0 0,-70.9092 22.1363,0 22.2647,0 0,5.5681 0,5.1687 0,5.5752 -25.9781,0 0,8.6034 z m 84.0232,11.2947 -36.2135,35.0039 -0.1082,0 0,0.1868 -16.2009,0 0,-15.5322 9.6557,0 0,-55.8686 9.4226,0 9.5085,0 0,34.8466 36.1117,-34.8466 6.5486,0 0,70.9092 -18.7245,0 0,-34.6991 z m 60.8051,18.898 8.3906,0 0,15.8011 -34.8866,0 0,-15.8011 8.3906,0 0,-39.2057 -9.1146,0 0,-15.9024 36.3283,0 0,15.9024 -9.1083,0 0,39.2057 z m 62.2338,15.8011 0,-46.9998 c -0.0164,-1.4584 -0.3212,-2.7108 -0.934,-3.7789 -0.6131,-1.0882 -1.4488,-1.9865 -2.4976,-2.6909 -1.042,-0.7276 -2.1991,-1.2487 -3.4742,-1.6058 -1.2812,-0.3739 -2.5922,-0.5377 -3.9427,-0.5377 -1.3439,0 -2.6549,0.1638 -3.9529,0.5377 -1.2977,0.3571 -2.4514,0.8782 -3.5132,1.6058 -1.0523,0.7044 -1.8913,1.6027 -2.5203,2.6909 -0.6166,1.0681 -0.9377,2.3205 -0.951,3.7789 l 0,46.9998 -8.7574,0 -8.7412,0 0,-47.3076 c 0.0165,-3.1207 0.5309,-5.9817 1.5469,-8.5448 1.0261,-2.5792 2.4383,-4.8572 4.2511,-6.857 1.8059,-1.9922 3.9265,-3.6836 6.3091,-5.0437 2.3992,-1.37 4.9756,-2.3992 7.7581,-3.1073 2.7825,-0.7112 5.6242,-1.0684 8.5708,-1.0684 2.9628,0 5.834,0.3572 8.6069,1.0684 2.7691,0.7081 5.3589,1.7373 7.7318,3.1073 2.3856,1.3601 4.4801,3.0515 6.2795,5.0437 1.7862,1.9998 3.1794,4.2778 4.1888,6.857 1.0029,2.5631 1.5174,5.4241 1.5307,8.5448 l 0,47.3076 -8.7083,0 -8.7809,0 z m 86.0224,-41.2639 c -1.0258,2.3925 -2.4414,4.3591 -4.2638,5.8601 -1.8125,1.5174 -3.8971,2.7039 -6.2768,3.5592 -2.3698,0.8651 -4.936,1.5241 -7.6564,1.9732 -2.7303,0.4424 -5.5261,0.8129 -8.3871,1.1043 -1.6192,0.1707 -3.1397,0.3935 -4.5525,0.6752 -1.4159,0.2722 -2.645,0.6557 -3.7068,1.1637 -1.0522,0.5244 -1.8618,1.1962 -2.4024,2.0551 -0.5573,0.8685 -0.7835,1.9633 -0.695,3.3004 0.1014,1.1965 0.5312,2.2484 1.2914,3.1203 0.7538,0.8981 1.7238,1.6061 2.9172,2.16 1.1797,0.557 2.4746,0.9307 3.8511,1.1339 1.3995,0.2001 2.7825,0.2166 4.1686,0.0689 1.3734,-0.1704 2.6388,-0.521 3.7922,-1.0488 1.1472,-0.5409 2.0651,-1.2816 2.7698,-2.2354 0.678,-0.9241 1.0355,-2.0518 1.0519,-3.4053 l 5.8501,0 5.5559,0 5.9879,0 c 0.0199,3.3953 -0.5799,6.4174 -1.7895,9.0658 -1.2092,2.6314 -2.8808,4.9096 -5.0113,6.804 -2.1272,1.8779 -4.5655,3.399 -7.3188,4.5294 -2.7431,1.1277 -5.6441,1.8913 -8.6888,2.2618 -3.0546,0.3867 -6.1061,0.3867 -9.1573,0 -3.0515,-0.3705 -5.9391,-1.1341 -8.6791,-2.2618 -2.7496,-1.1304 -5.1653,-2.6515 -7.2924,-4.5294 -2.1206,-1.8944 -3.7792,-4.1726 -4.9723,-6.804 -1.1894,-2.6484 -1.7498,-5.6705 -1.7141,-9.0658 0.0624,-3.8316 0.7081,-7.0798 1.9537,-9.7475 1.2455,-2.6677 3.0055,-4.8277 5.29,-6.4928 2.2615,-1.6681 4.9751,-2.9531 8.1476,-3.8344 3.1533,-0.8753 6.6895,-1.4326 10.59,-1.7047 1.7991,-0.0981 3.4939,-0.2492 5.0635,-0.4916 1.5834,-0.2194 2.9633,-0.5802 4.1723,-1.0423 1.203,-0.4586 2.1373,-1.0978 2.8156,-1.8878 0.6852,-0.8161 1.0228,-1.8289 1.0423,-3.0612 -0.0195,-1.1831 -0.4291,-2.196 -1.2455,-3.0418 -0.7962,-0.8456 -1.8584,-1.514 -3.1856,-2.0058 -1.3308,-0.4913 -2.8023,-0.8093 -4.3855,-0.9635 -1.5896,-0.1409 -3.1889,-0.1015 -4.7786,0.0952 -1.5797,0.2197 -3.0515,0.5964 -4.3625,1.1668 -1.3272,0.5802 -2.399,1.3209 -3.1986,2.2354 -0.8034,0.9209 -1.2391,2.0386 -1.2459,3.3233 l -6.0009,0 -5.7716,0 -5.9261,0 c -0.0162,-3.4611 0.61,-6.5356 1.8782,-9.2361 1.2781,-2.6841 3.0251,-4.9788 5.2605,-6.8927 2.2352,-1.9239 4.8113,-3.4481 7.6921,-4.5916 2.8746,-1.1506 5.9327,-1.9208 9.1446,-2.3173 3.2187,-0.3836 6.4208,-0.3836 9.6457,-0.0298 3.2253,0.3705 6.2768,1.1208 9.1741,2.2125 2.8973,1.1177 5.493,2.6056 7.7544,4.4574 2.2748,1.8454 4.0414,4.0709 5.3521,6.6535 1.298,2.5861 1.9633,5.529 1.9996,8.8362 -0.0196,3.52 -0.5508,6.4831 -1.5472,8.8758" /><path
       id="path32"
       style="fill:#bf2329;fill-opacity:1;fill-rule:evenodd;stroke:none"
       d="m 466.7757,457.2218 -13.8387,3.1456 -0.8819,21.301 -28.9009,0.0187 0,0.002 -1.8133,-10e-4 -1.8142,10e-4 0,-0.002 -28.9001,-0.0187 -0.8821,-21.301 -13.8387,-3.1456 -4.5613,21.1383 -44.9277,-15.1592 -23.9374,-185.885 73.3229,-43.9086 43.7244,-0.1021 0,-0.009 1.8142,0.004 1.8133,-0.004 0,0.009 43.7255,0.1021 73.3224,43.9086 -23.9369,185.885 -44.9277,15.1592 -4.5618,-21.1383 z m -45.4348,1.9511 13.5289,-0.0289 0.1171,-19.5749 43.0976,-9.4788 4.3614,19.6072 10.9942,-3.2499 18.4626,-152.8514 -52.5501,-31.5873 -36.1984,0.1629 0,0.0162 -1.8133,-0.008 -1.8142,0.008 0,-0.0162 -36.1973,-0.1629 -52.5503,31.5873 18.4629,152.8514 10.9941,3.2499 4.3611,-19.6072 43.0977,9.4788 0.1171,19.5749 13.5289,0.0289 z" /></g></svg>