<?xml version="1.0" encoding="utf-8"?>
<!-- Generator: Adobe Illustrator 16.0.0, SVG Export Plug-In . SVG Version: 6.00 Build 0)  -->
<!DOCTYPE svg PUBLIC "-//W3C//DTD SVG 1.1//EN" "http://www.w3.org/Graphics/SVG/1.1/DTD/svg11.dtd">
<svg version="1.1"
	 id="Laag_1" xmlns:dc="http://purl.org/dc/elements/1.1/" xmlns:cc="http://creativecommons.org/ns#" xmlns:rdf="http://www.w3.org/1999/02/22-rdf-syntax-ns#" xmlns:svg="http://www.w3.org/2000/svg" xmlns:sodipodi="http://sodipodi.sourceforge.net/DTD/sodipodi-0.dtd" xmlns:inkscape="http://www.inkscape.org/namespaces/inkscape" sodipodi:docname="AJAX.svg" inkscape:version="0.48.1 "
	 xmlns="http://www.w3.org/2000/svg" xmlns:xlink="http://www.w3.org/1999/xlink" x="0px" y="0px" width="483.756px"
	 height="188.949px" viewBox="0 0 483.756 188.949" enable-background="new 0 0 483.756 188.949" xml:space="preserve">
<path id="path24" inkscape:connector-curvature="0" fill="#000066" d="M206.094,37.374c4.283,0,7.479,2.142,10.69,5.321
	l54.455,54.439c10.688,10.675,22.418,16.025,38.443,16.025h101.449l-37.375,37.375h-95.058c-5.337,0-8.517-1.07-11.728-4.281
	l-54.474-54.44c-10.672-10.705-22.401-16.026-38.428-16.026H72.623l37.375-38.413H206.094L206.094,37.374z M243.483,16.027
	C232.81,5.32,219.978,0,206.093,0H95.041L0,93.923l95.041,95.026h53.4L72.622,113.16h101.45c4.267,0,8.533,1.072,11.746,4.283
	l54.454,55.51c10.672,10.674,23.489,15.996,37.375,15.996h112.123l93.985-95.026L389.771,0.001h-54.457l75.819,75.787h-101.45
	c-4.281,0-7.461-2.142-10.675-4.25"/>
</svg>
