<?xml version="1.0" encoding="UTF-8" standalone="no"?>
<svg
   xmlns:svg="http://www.w3.org/2000/svg"
   xmlns="http://www.w3.org/2000/svg"
   version="1.0"
   width="708.66144"
   height="724.05518"
   id="svg2553">
  <defs
     id="defs2555" />
  <rect
     width="708.66101"
     height="724.05499"
     x="0"
     y="9.8662109e-05"
     id="back"
     style="fill:#f0d723" />
  <path
     d="m 188.68978,558.13972 c 0,21.97404 -3.10506,41.95362 -32.00558,41.95362 l -17.91356,0 0,-83.88335 13.9726,0 c 32.84148,0 35.94654,17.9853 35.94654,41.92973 z m -3.10506,-114.80213 c 0,16.97007 -0.95543,37.9409 -34.87177,37.9409 l -11.94231,0 0,-74.86676 14.92793,0 c 27.9452,0 31.88615,9.97183 31.88615,36.92586 z m 54.93506,112.83165 c 0,-26.96588 -12.89784,-56.90544 -50.87457,-58.91175 34.87177,-7.01018 43.94798,-31.9579 43.94798,-59.90309 0,-34.93149 -9.07621,-66.85347 -71.89317,-66.85347 l -51.94943,0 c -11.9424,0 -20.89918,8.96872 -20.89918,19.91996 l 0,227.60998 c 0,13.99648 8.95678,17.97327 20.89918,17.97327 l 47.88894,0 c 67.95222,0 82.88025,-37.90517 82.88025,-79.8349 z M 431.23973,402.42291 c 4.89639,-20.9589 -7.04601,-33.92829 -23.0488,-33.92829 -12.89783,0 -21.97404,7.97755 -24.84014,22.92937 l -29.02005,149.73372 c -2.98562,14.00842 -5.01582,30.94266 -5.97115,41.95361 -0.95543,-11.01095 -2.98563,-27.94519 -5.97125,-41.95361 L 310.38276,391.42399 c -3.94096,-16.93433 -13.9726,-22.92937 -25.915,-22.92937 -18.98842,0 -27.94519,16.94628 -23.0488,36.92585 l 48.9638,202.65042 c 5.01582,19.96764 15.04736,30.93082 37.97683,30.93082 19.94375,0 31.88615,-10.96318 36.90197,-32.93713 l 45.97817,-203.64167 z m 188.57034,180.68841 0,-78.86753 c 0,-15.979 -4.89639,-22.9653 -19.94375,-22.9653 l -43.82865,0 c -14.09202,0 -21.01861,6.9863 -21.01861,19.96774 0,11.97823 8.00145,18.95258 21.01861,18.95258 l 14.92803,0 0,76.86122 c -2.98563,1.03894 -8.00145,2.0302 -16.95822,2.0302 -34.99121,0 -51.94933,-16.98211 -51.94933,-90.85771 0,-78.85558 20.06317,-96.8408 49.91913,-96.8408 22.92938,0 33.91644,7.98941 44.90342,7.98941 10.98697,0 21.01861,-8.98067 21.01861,-20.93501 0,-8.02523 -4.06039,-13.00522 -7.04602,-16.00279 -14.92802,-11.9424 -44.90341,-14.98774 -57.80115,-14.98774 -61.98106,0 -101.86866,40.95051 -101.86866,136.7882 0,90.82188 18.03308,134.75792 96.85284,134.75792 48.84438,0 71.77375,-16.98211 71.77375,-55.89039"
     id="BVG" />
</svg>
