<?xml version="1.0" encoding="UTF-8" standalone="no"?>
<svg
   xmlns:dc="http://purl.org/dc/elements/1.1/"
   xmlns:cc="http://creativecommons.org/ns#"
   xmlns:rdf="http://www.w3.org/1999/02/22-rdf-syntax-ns#"
   xmlns:svg="http://www.w3.org/2000/svg"
   xmlns="http://www.w3.org/2000/svg"
   xmlns:sodipodi="http://sodipodi.sourceforge.net/DTD/sodipodi-0.dtd"
   xmlns:inkscape="http://www.inkscape.org/namespaces/inkscape"
   version="1.1"
   x="0px"
   y="0px"
   viewBox="0 0 300.00001 272.25659"
   xml:space="preserve"
   id="svg16"
   sodipodi:docname="BVG Logo 07.2021.svg"
   width="300"
   height="272.25659"
   inkscape:version="1.0.2-2 (e86c870879, 2021-01-15)"><metadata
   id="metadata22"><rdf:RDF><cc:Work
       rdf:about=""><dc:format>image/svg+xml</dc:format><dc:type
         rdf:resource="http://purl.org/dc/dcmitype/StillImage" /><dc:title></dc:title></cc:Work></rdf:RDF></metadata><defs
   id="defs20" /><sodipodi:namedview
   pagecolor="#ffffff"
   bordercolor="#666666"
   borderopacity="1"
   objecttolerance="10"
   gridtolerance="10"
   guidetolerance="10"
   inkscape:pageopacity="0"
   inkscape:pageshadow="2"
   inkscape:window-width="1600"
   inkscape:window-height="837"
   id="namedview18"
   showgrid="false"
   fit-margin-top="0"
   fit-margin-left="0"
   fit-margin-right="0"
   fit-margin-bottom="0"
   inkscape:zoom="1.6591289"
   inkscape:cx="85.160678"
   inkscape:cy="143.33248"
   inkscape:window-x="-8"
   inkscape:window-y="-8"
   inkscape:window-maximized="1"
   inkscape:current-layer="svg16" />
<style
   type="text/css"
   id="style2">
	.st0{fill:none;}
	.st1{fill:#FFFFFF;}
	.st2{fill:#F0D722;}
	.st3{fill:#252424;}
</style>

<path
   class="st1"
   d="M 149.9999,37.843668 C 169.19399,17.696679 186.21003,0 215.61374,0 c 45.60298,0 80.99634,36.074 84.12729,80.587955 1.9058,27.634045 -6.67029,50.231345 -26.9534,70.922845 -33.89595,34.44046 -94.60917,95.97045 -115.16455,116.79808 -0.95289,0.9529 -4.21997,3.94772 -7.48705,3.94772 -3.40321,0 -6.67029,-2.99482 -7.48706,-3.94772 C 122.0936,247.48125 61.244247,185.81513 27.484428,151.5108 6.9290539,130.8193 -1.6470291,108.222 0.25876709,80.587955 3.3897181,36.074 38.783077,0 84.386058,0 113.78977,0 130.66968,17.696679 149.9999,37.843668 Z"
   id="path7"
   style="stroke-width:1.36128" /><path
   class="st2"
   d="M 149.9999,37.843668 C 169.19399,17.696679 186.21003,0 215.61374,0 c 45.60298,0 80.99634,36.074 84.12729,80.587955 1.9058,27.634045 -6.67029,50.231345 -26.9534,70.922845 -33.89595,34.44046 -94.60917,95.97045 -115.16455,116.79808 -0.95289,0.9529 -4.21997,3.94772 -7.48705,3.94772 -3.40321,0 -6.67029,-2.99482 -7.48706,-3.94772 C 122.0936,247.48125 61.244247,185.81513 27.484428,151.5108 6.9290539,130.8193 -1.6470291,108.222 0.25876709,80.587955 3.3897181,36.074 38.783077,0 84.386058,0 113.78977,0 130.66968,17.696679 149.9999,37.843668 Z"
   id="path9"
   style="stroke-width:1.36128" /><path
   class="st3"
   d="M 100.58533,150.14952 H 88.197651 c -3.130951,0 -5.445132,-1.08903 -5.445132,-4.62836 V 86.5776 c 0,-2.858694 2.314181,-5.172875 5.445132,-5.172875 h 13.476699 c 16.19927,0 18.64958,8.303826 18.64958,17.288294 0,7.214801 -2.31418,13.612831 -11.29865,15.518631 9.80124,0.54451 13.20445,8.30382 13.20445,15.24637 -0.13613,10.89026 -4.08385,20.6915 -21.6444,20.6915 z M 99.632428,90.797578 H 95.820836 V 110.1278 h 3.130951 c 8.712213,0 8.984463,-5.44514 8.984463,-9.80124 0,-6.942545 -1.08902,-9.528982 -8.303822,-9.528982 z m -0.272257,28.314682 h -3.675464 v 21.6444 h 4.628363 c 7.48706,0 8.30383,-5.17287 8.30383,-10.89026 0,-6.12577 -0.68065,-10.75414 -9.256729,-10.75414 z m 60.168709,23.27794 c -1.22515,5.71739 -4.35611,8.57609 -9.52898,8.57609 -5.98965,0 -8.57608,-2.8587 -9.80124,-8.03157 L 127.53873,90.525321 c -1.22516,-5.172876 1.08903,-9.528981 5.98964,-9.528981 3.13096,0 5.85352,1.497411 6.67029,5.989645 l 8.30383,38.660435 c 0.81677,3.67547 1.36128,8.03157 1.49741,10.89027 0.27226,-2.8587 0.9529,-7.2148 1.49741,-10.89027 l 7.48706,-38.660435 c 0.81677,-3.811592 3.13095,-5.989645 6.39803,-5.989645 4.08385,0 7.07867,3.403207 5.98964,8.712211 z m 42.06365,8.43996 c -20.41925,0 -25.04761,-11.29865 -25.04761,-34.84885 0,-24.775348 10.34575,-35.393355 26.27276,-35.393355 3.40321,0 11.16252,0.81677 14.97411,3.811592 0.81677,0.81677 1.76967,2.041925 1.76967,4.083849 0,3.130951 -2.58644,5.445133 -5.44513,5.445133 -2.8587,0 -5.71739,-2.041925 -11.57091,-2.041925 -7.75931,0 -12.93219,4.628362 -12.93219,25.047606 0,19.05796 4.35611,23.41407 13.47671,23.41407 2.31418,0 3.67546,-0.27226 4.3561,-0.54451 v -19.60248 h -3.81159 c -3.40321,0 -5.44513,-1.76967 -5.44513,-4.90062 0,-3.40321 1.76967,-5.17287 5.44513,-5.17287 h 11.29865 c 3.81159,0 5.17287,1.76966 5.17287,5.98964 v 20.41925 c 0,9.93736 -5.85351,14.29347 -18.51344,14.29347 z"
   id="path11"
   style="stroke-width:1.36128" />
</svg>
