<?xml version="1.0" encoding="UTF-8" standalone="no"?>
<!-- Created with Inkscape (http://www.inkscape.org/) -->

<svg
   xmlns:dc="http://purl.org/dc/elements/1.1/"
   xmlns:cc="http://creativecommons.org/ns#"
   xmlns:rdf="http://www.w3.org/1999/02/22-rdf-syntax-ns#"
   xmlns:svg="http://www.w3.org/2000/svg"
   xmlns="http://www.w3.org/2000/svg"
   version="1.0"
   width="761.5448"
   height="905.11023"
   id="svg2">
  <metadata
     id="metadata7">
    <rdf:RDF>
      <cc:Work
         rdf:about="">
        <dc:format>image/svg+xml</dc:format>
        <dc:type
           rdf:resource="http://purl.org/dc/dcmitype/StillImage" />
        <dc:title></dc:title>
      </cc:Work>
    </rdf:RDF>
  </metadata>
  <defs
     id="defs5" />
  <g
     transform="matrix(-0.47202,0.08720737,0.08720737,0.47202,668.15311,-558.95938)"
     id="g2338"
     style="fill:#fefeff;fill-opacity:1;stroke-width:7.08661318;stroke-miterlimit:4;stroke-dasharray:none">
    <g
       transform="matrix(0,1,-1,0,1576.291,-225.7147)"
       id="g2346"
       style="fill:#fefeff;fill-opacity:1;stroke-width:7.08661318;stroke-miterlimit:4;stroke-dasharray:none" />
  </g>
  <g
     transform="matrix(1.0316851,0,0,1.0316851,-7.2540359,-7.7698784)"
     id="g3275">
    <path
       d="m 9.7122653,10.197199 732.7994347,0 0,585.153901 C 738.65825,837.44451 504.72644,794.30721 374.41255,881.60987 243.7239,791.38375 18.209175,851.22184 9.7122653,589.3511 z"
       id="rect2517"
       style="fill:#ffffff;fill-opacity:1;fill-rule:nonzero;stroke:#000000;stroke-width:5.35153294;stroke-linecap:round;stroke-linejoin:miter;stroke-miterlimit:4;stroke-opacity:1;stroke-dasharray:none;stroke-dashoffset:0" />
    <g
       transform="matrix(1.006881,0,0,1.006881,770.58488,0.93137636)"
       id="g2423">
      <g
         transform="translate(-81.69237,215.6679)"
         id="g2674">
        <path
           d="m -305.3333,639.82647 c 63.85082,-36.66509 133.22594,-48.64577 199.12445,-69.45805 C -2.6099407,534.33407 39.915652,472.5176 40.84619,379.21705 l 0,-161.75089 -343.47412,1.63385 z"
           id="path2672"
           style="fill:#F63D37;fill-opacity:1;fill-rule:evenodd;stroke:#000000;stroke-width:5.31496048;stroke-linecap:butt;stroke-linejoin:miter;stroke-miterlimit:4;stroke-opacity:1;stroke-dasharray:none" />
        <g
           transform="translate(11.43693,-217.3017)"
           id="g2635">
          <path
             d="m 648.02171,551.0722 a 104.43541,106.00194 0 1 1 -208.87082,0 104.43541,106.00194 0 1 1 208.87082,0 z"
             transform="matrix(1.034589,0,0,1.019477,-715.9086,-16.47696)"
             id="path2576"
             style="fill:#FDCF00;fill-opacity:1;fill-rule:nonzero;stroke:#000000;stroke-width:3.45013547;stroke-linecap:round;stroke-linejoin:round;stroke-miterlimit:4;stroke-opacity:1;stroke-dasharray:none;stroke-dashoffset:0" />
          <g
             transform="translate(-697.6618,2)"
             id="g2600">
            <path
               d="m 568.42404,508.74883 c -2.37859,-6.08756 -2.30659,-11.56247 -0.74062,-16.66389 2.83904,-3.83035 5.67807,-3.29337 8.51711,-3.33278 19.16343,10.97042 26.12321,22.30288 28.88408,46.2886 -14.22083,-7.43021 -28.24161,-14.9938 -36.66057,-26.29193 z"
               id="path2594"
               style="fill:#fcffe8;fill-opacity:1;fill-rule:evenodd;stroke:#000000;stroke-width:3.54330707;stroke-linecap:butt;stroke-linejoin:miter;stroke-miterlimit:4;stroke-opacity:1;stroke-dasharray:none" />
            <g
               id="g2315">
              <g
                 id="g2310">
                <path
                   d="m 509.60656,593.09481 0.62147,39.1527 c -20.71592,6.83576 -48.62077,14.20899 -54.68948,27.96621 46.61035,27.75907 149.77461,18.22981 175.25494,1.24294 4.1127,-8.32467 -36.21439,-22.39749 -54.68949,-33.55945 l 0,-34.8024 -66.49744,0 z"
                   id="path2304"
                   style="fill:#fff6ec;fill-opacity:1;fill-rule:evenodd;stroke:#000000;stroke-width:3.18897629;stroke-linecap:butt;stroke-linejoin:miter;stroke-miterlimit:4;stroke-opacity:1;stroke-dasharray:none" />
                <path
                   d="m 510.8495,630.38309 c 0.74455,4.72561 3.24267,10.29439 5.59324,11.80796"
                   id="path2306"
                   style="fill:none;stroke:#000000;stroke-width:3.54330707;stroke-linecap:butt;stroke-linejoin:miter;stroke-miterlimit:4;stroke-opacity:1;stroke-dasharray:none" />
                <path
                   d="m 576.104,627.89721 c -0.6292,6.51385 -1.66077,13.35636 -5.59324,14.91531"
                   id="path2308"
                   style="fill:none;stroke:#000000;stroke-width:3.54330707;stroke-linecap:butt;stroke-linejoin:miter;stroke-miterlimit:4;stroke-opacity:1;stroke-dasharray:none" />
              </g>
              <g
                 id="g2295">
                <path
                   d="m 543.95162,764.68034 c 17.0089,1.18871 22.60529,-22.64069 8.15542,-27.20367 -2.97955,-4.7357 2.10213,-5.67546 1.95334,-5.47564 3.9636,3.48158 3.84101,9.63982 16.8362,4.08981 -0.34047,-7.4522 -0.58631,-13.76151 -11.70703,-14.62578 0.6955,-0.79782 -0.1191,-3.23589 0.81969,-3.99053 7.8376,-4.07931 20.80467,-4.54726 28.9386,0.12737 0.67213,0.58041 -1.7219,1.69465 -1.07624,2.40734 -8.02204,11.44921 0.14888,21.81589 10.95598,21.53467 8.88571,0.27268 19.2897,-17.33753 3.33877,-24.21493 5.7059,-9.0684 20.86344,-13.10085 28.72831,-11.19092 -0.0444,0.9667 0.19155,4.6182 -2.57377,4.77947 -6.73092,0.39254 -11.6729,9.77721 -6.21806,15.95789 9.05185,7.03229 15.70486,-3.37599 14.88433,-9.53495 1.90355,-2.90142 4.27694,-2.3284 6.18049,-0.24641 -9.73618,15.06553 5.28493,22.09286 12.60401,21.67704 l -24.12239,-77.7277 c -25.92315,19.62845 -148.70343,19.97868 -175.25299,0 l -24.12239,77.7277 c 7.31908,0.41582 22.34019,-6.61151 12.60401,-21.67704 1.90355,-2.08199 4.27694,-2.65501 6.18049,0.24641 -0.82053,6.15896 5.83248,16.56724 14.88433,9.53495 5.45484,-6.18068 0.51286,-15.56535 -6.21806,-15.95789 -2.76532,-0.16127 -2.52935,-3.81277 -2.57377,-4.77947 7.86487,-1.90993 23.02241,2.12252 28.72831,11.19092 -15.95093,6.8774 -5.54694,24.48761 3.33877,24.21493 10.8071,0.28122 18.97802,-10.08546 10.95598,-21.53467 0.64566,-0.71269 -1.74837,-1.82693 -1.07624,-2.40734 8.13393,-4.67463 21.101,-4.20668 28.9386,-0.12737 0.93879,0.75464 0.12419,3.19271 0.81969,3.99053 -11.12072,0.86427 -11.36656,7.17358 -11.70703,14.62578 12.99519,5.55001 12.8726,-0.60823 16.8362,-4.08981 -0.14879,-0.19982 4.93289,0.73994 1.95334,5.47564 -14.44987,4.56298 -8.85348,28.39238 8.01311,27.20367 z"
                   id="path2271"
                   style="fill:#FDCF00;fill-opacity:1;fill-rule:evenodd;stroke:#000000;stroke-width:3.54330707;stroke-linecap:butt;stroke-linejoin:miter;stroke-miterlimit:4;stroke-opacity:1;stroke-dasharray:none" />
                <path
                   d="m 554.88974,692.92896 a 10.336642,10.336642 0 1 1 -20.67328,0 10.336642,10.336642 0 1 1 20.67328,0 z"
                   transform="translate(-0.469847,-1.409542)"
                   id="path2278"
                   style="fill:#ffffff;fill-opacity:1;fill-rule:nonzero;stroke:#000000;stroke-width:2.5;stroke-linecap:round;stroke-linejoin:round;stroke-miterlimit:4;stroke-opacity:1;stroke-dasharray:none;stroke-dashoffset:0" />
                <path
                   d="m 554.88974,692.92896 a 10.336642,10.336642 0 1 1 -20.67328,0 10.336642,10.336642 0 1 1 20.67328,0 z"
                   transform="translate(46.51489,-4.228626)"
                   id="path2280"
                   style="fill:#ffffff;fill-opacity:1;fill-rule:nonzero;stroke:#000000;stroke-width:2.5;stroke-linecap:round;stroke-linejoin:round;stroke-miterlimit:4;stroke-opacity:1;stroke-dasharray:none;stroke-dashoffset:0" />
                <path
                   d="m 454.20167,668.34831 c 5.43386,1.7406 8.43126,7.56335 6.69066,12.9972 -1.74061,5.43386 -7.56335,8.43128 -12.9972,6.69067 l 6.30654,-19.68787 z"
                   id="path2282"
                   style="fill:#ffffff;fill-opacity:1;fill-rule:nonzero;stroke:#000000;stroke-width:2.5;stroke-linecap:round;stroke-linejoin:round;stroke-miterlimit:4;stroke-opacity:1;stroke-dashoffset:0" />
                <path
                   d="m 632.51078,667.4161 c -5.43386,1.7406 -8.43126,7.56335 -6.69066,12.9972 1.74061,5.43386 7.56335,8.43128 12.9972,6.69067 l -6.30654,-19.68787 z"
                   id="path2289"
                   style="fill:#ffffff;fill-opacity:1;fill-rule:nonzero;stroke:#000000;stroke-width:2.5;stroke-linecap:round;stroke-linejoin:round;stroke-miterlimit:4;stroke-opacity:1;stroke-dashoffset:0" />
                <path
                   d="m 554.88974,692.92896 a 10.336642,10.336642 0 1 1 -20.67328,0 10.336642,10.336642 0 1 1 20.67328,0 z"
                   transform="translate(-47.63803,-4.228626)"
                   id="path2291"
                   style="fill:#ffffff;fill-opacity:1;fill-rule:nonzero;stroke:#000000;stroke-width:2.5;stroke-linecap:round;stroke-linejoin:round;stroke-miterlimit:4;stroke-opacity:1;stroke-dasharray:none;stroke-dashoffset:0" />
                <path
                   d="m 446.21648,693.15171 c 62.43664,18.63432 127.11325,20.09555 194.52055,0.62147"
                   id="path2293"
                   style="fill:none;stroke:#000000;stroke-width:3.54330707;stroke-linecap:butt;stroke-linejoin:miter;stroke-miterlimit:4;stroke-opacity:1;stroke-dasharray:none" />
              </g>
            </g>
            <path
               d="m 545.8352,482.0866 1.11093,16.66389 -15.18266,18.51544 -30.73564,11.84989 c 2.83436,-18.12336 7.02422,-43.24268 36.67205,-49.18843 3.09734,-2.39844 5.30854,0.53713 8.13532,2.15921 z"
               id="path2598"
               style="fill:#fffdff;fill-opacity:1;fill-rule:evenodd;stroke:#000000;stroke-width:3.54330707;stroke-linecap:butt;stroke-linejoin:miter;stroke-miterlimit:4;stroke-opacity:1;stroke-dasharray:none" />
            <path
               d="m 536.57748,509.85976 c 12.62159,-7.02032 8.11919,-18.34409 9.99834,-30.73563 9.60824,-2.28404 20.98235,2.66732 23.32946,9.99834 l 1.85154,20.73729 -13.70143,17.40451 -21.47791,-17.40451 z"
               id="path2596"
               style="fill:#fffdff;fill-opacity:1;fill-rule:evenodd;stroke:#000000;stroke-width:3.54330707;stroke-linecap:butt;stroke-linejoin:miter;stroke-miterlimit:4;stroke-opacity:1;stroke-dasharray:none" />
            <g
               id="g2564">
              <path
                 d="m 544.09204,616.13877 c -31.96297,-0.61407 -50.64206,-50.04513 -45.11487,-86.83763 9.28901,-12.16835 27.42346,-7.14161 38.66989,-19.67416 5.81742,6.20303 12.75306,11.06422 23.06624,11.87234 -0.60085,-8.96802 2.77761,-13.95673 13.90759,-11.19392 l 13.22917,11.87234 c 15.1437,41.48056 -14.9523,95.11262 -43.75802,93.96103 z"
                 id="path2552"
                 style="fill:#fffdff;fill-opacity:1;fill-rule:evenodd;stroke:#000000;stroke-width:3.89763784;stroke-linecap:butt;stroke-linejoin:miter;stroke-miterlimit:4;stroke-opacity:1;stroke-dasharray:none" />
              <path
                 d="m 534.37506,565.44196 c -6.05968,9.16083 28.60964,7.20743 21.46921,0.18461"
                 id="path2556"
                 style="fill:none;stroke:#000000;stroke-width:3.18897629;stroke-linecap:butt;stroke-linejoin:miter;stroke-miterlimit:4;stroke-opacity:1;stroke-dasharray:none" />
              <path
                 d="m 505.08294,538.799 c 11.64217,-4.57513 23.41996,-7.3871 35.95621,-0.33921 -0.81847,10.65726 0.52707,22.03586 -2.71368,31.88569 1.80912,7.02302 11.08085,6.81049 13.56839,1e-5 -2.58488,-9.6188 -2.08689,-20.77904 -3.05289,-31.20728 12.87928,-8.99218 23.00204,-3.86254 33.92095,-3.39209"
                 id="path2554"
                 style="fill:#fff6ec;fill-opacity:1;fill-rule:evenodd;stroke:#000000;stroke-width:3.18897629;stroke-linecap:butt;stroke-linejoin:miter;stroke-miterlimit:4;stroke-opacity:1;stroke-dasharray:none" />
              <path
                 d="m 510.42506,546.96704 c 9.6894,6.94996 11.6068,7.66098 21.40567,0 -6.61167,-7.2291 -13.96739,-4.1845 -21.40567,0 z"
                 id="path2558"
                 style="fill:none;stroke:#000000;stroke-width:2.20843458;stroke-linecap:butt;stroke-linejoin:miter;stroke-miterlimit:4;stroke-opacity:1;stroke-dasharray:none" />
              <path
                 d="m 578.26266,546.96695 c -10.02316,6.95099 -12.0066,7.66211 -22.14303,0 6.83944,-7.23016 14.44853,-4.1851 22.14303,0 z"
                 id="path2560"
                 style="fill:none;stroke:#000000;stroke-width:2.24631476;stroke-linecap:butt;stroke-linejoin:miter;stroke-miterlimit:4;stroke-opacity:1;stroke-dasharray:none" />
              <path
                 d="m 526.45314,585.94912 c 11.42005,-0.17772 14.02066,-7.68974 18.99573,-5.42735 6.79591,-0.62395 6.56,6.77447 16.28206,5.42735 -7.91489,8.4576 -26.00606,7.54685 -33.92095,0 11.08084,1.47139 22.16169,1.5815 33.24253,0.33921"
                 id="path2562"
                 style="fill:none;stroke:#000000;stroke-width:2.48031497;stroke-linecap:butt;stroke-linejoin:miter;stroke-miterlimit:4;stroke-opacity:1;stroke-dasharray:none" />
            </g>
            <path
               d="m 523.94439,547.24878 a 2.1231008,1.8461746 0 1 1 -4.2462,0 2.1231008,1.8461746 0 1 1 4.2462,0 z"
               id="path2572"
               style="fill:#fff6ec;fill-opacity:1;fill-rule:nonzero;stroke:#000000;stroke-width:2.48031497;stroke-linecap:round;stroke-linejoin:round;stroke-miterlimit:4;stroke-opacity:1;stroke-dasharray:none;stroke-dashoffset:0" />
            <path
               d="m 523.94439,547.24878 a 2.1231008,1.8461746 0 1 1 -4.2462,0 2.1231008,1.8461746 0 1 1 4.2462,0 z"
               transform="translate(44.30819,0)"
               id="path2574"
               style="fill:#fff6ec;fill-opacity:1;fill-rule:nonzero;stroke:#000000;stroke-width:2.48031497;stroke-linecap:round;stroke-linejoin:round;stroke-miterlimit:4;stroke-opacity:1;stroke-dasharray:none;stroke-dashoffset:0" />
            <path
               d="m 480.47324,569.47948 c 5.30511,-8.65381 10.41739,-18.27174 16.6639,-22.21853 l 5.92494,-27.40285 c -9.58059,8.40312 -22.50804,11.78593 -28.51378,25.55131 -3.86442,5.6906 -5.64397,20.68784 5.92494,24.07007 z"
               id="path2588"
               style="fill:#fffbff;fill-opacity:1;fill-rule:evenodd;stroke:#000000;stroke-width:3.54330707;stroke-linecap:butt;stroke-linejoin:miter;stroke-miterlimit:4;stroke-opacity:1;stroke-dasharray:none" />
            <path
               d="m 499.7293,563.18423 c -2.69852,13.54253 -8.43141,26.07361 -19.99667,36.66057 -9.36576,-6.57569 -14.36709,-14.43504 -7.03587,-25.92161 13.09332,-6.53759 15.9377,-23.38397 23.69976,-27.40286 l 3.33278,16.6639 z"
               id="path2590"
               style="fill:#f5eee6;fill-opacity:1;fill-rule:evenodd;stroke:#000000;stroke-width:3.54330707;stroke-linecap:butt;stroke-linejoin:miter;stroke-miterlimit:4;stroke-opacity:1;stroke-dasharray:none" />
            <path
               d="m 508.24641,584.66214 -3.70309,49.62138 c -15.19339,7.92137 -35.15301,-9.06351 -30.36533,-28.14347 8.95924,-13.86138 23.34298,-26.98397 24.8107,-43.32613 l 9.25772,21.84822 z"
               id="path2592"
               style="fill:#ecebf9;fill-opacity:1;fill-rule:evenodd;stroke:#000000;stroke-width:3.54330707;stroke-linecap:butt;stroke-linejoin:miter;stroke-miterlimit:4;stroke-opacity:1;stroke-dasharray:none" />
            <path
               d="m 511.76679,633.1726 c -13.57651,3.1459 -17.80112,-4.61876 -19.62637,-15.18266 1.98888,-11.13542 11.12882,-15.9098 15.55297,-31.84656 l 2.96247,6.29525 1.11093,40.73397 z"
               id="path2578"
               style="fill:#fff6ec;fill-opacity:1;fill-rule:evenodd;stroke:#000000;stroke-width:3.54330707;stroke-linecap:butt;stroke-linejoin:miter;stroke-miterlimit:4;stroke-opacity:1;stroke-dasharray:none" />
            <path
               d="m 607.67678,569.47948 c -5.30511,-8.65381 -10.41739,-18.27174 -16.6639,-22.21853 l -5.92494,-27.40285 c 9.58059,8.40312 22.50804,11.78593 28.51378,25.55131 3.86442,5.6906 5.64397,20.68784 -5.92494,24.07007 z"
               id="path2586"
               style="fill:#fffbff;fill-opacity:1;fill-rule:evenodd;stroke:#000000;stroke-width:3.54330707;stroke-linecap:butt;stroke-linejoin:miter;stroke-miterlimit:4;stroke-opacity:1;stroke-dasharray:none" />
            <path
               d="m 588.42072,563.18423 c 2.69852,13.54253 8.43141,26.07361 19.99667,36.66057 9.36576,-6.57569 14.36709,-14.43504 7.03587,-25.92161 -13.09332,-6.53759 -15.9377,-23.38397 -23.69976,-27.40286 l -3.33278,16.6639 z"
               id="path2584"
               style="fill:#f5eee6;fill-opacity:1;fill-rule:evenodd;stroke:#000000;stroke-width:3.54330707;stroke-linecap:butt;stroke-linejoin:miter;stroke-miterlimit:4;stroke-opacity:1;stroke-dasharray:none" />
            <path
               d="m 579.90361,584.66214 3.70309,49.62138 c 15.19339,7.92137 35.15301,-9.06351 30.36533,-28.14347 -8.95924,-13.86138 -23.34298,-26.98397 -24.8107,-43.32613 l -9.25772,21.84822 z"
               id="path2582"
               style="fill:#ecebf9;fill-opacity:1;fill-rule:evenodd;stroke:#000000;stroke-width:3.54330707;stroke-linecap:butt;stroke-linejoin:miter;stroke-miterlimit:4;stroke-opacity:1;stroke-dasharray:none" />
            <path
               d="m 575.83021,633.1726 c 13.57651,3.1459 17.80112,-4.61876 19.62637,-15.18266 -1.98888,-11.13542 -11.12882,-15.9098 -15.55297,-31.84656 l -2.96247,6.29525 -1.11093,40.73397 z"
               id="path2580"
               style="fill:#ffffef;fill-opacity:1;fill-rule:evenodd;stroke:#000000;stroke-width:3.54330707;stroke-linecap:butt;stroke-linejoin:miter;stroke-miterlimit:4;stroke-opacity:1;stroke-dasharray:none" />
          </g>
        </g>
      </g>
      <g
         id="g2717">
        <path
           d="M -399.61107,853.71433 C -471.32339,814.69243 -533.01363,808.42829 -598.53299,787.94659 -701.69457,757.85342 -739.72962,685.98921 -744.76672,595.1526 l 0,-161.75089 344.49796,-1.43768 z"
           id="path2713"
           style="fill:#FDCF00;fill-opacity:1;fill-rule:evenodd;stroke:#000000;stroke-width:5.31496048;stroke-linecap:butt;stroke-linejoin:miter;stroke-miterlimit:4;stroke-opacity:1;stroke-dasharray:none" />
        <path
           d="m -595.26823,760.0402 -14.19039,-0.70952 -99.33272,-283.80776 -17.73798,-1.41904 0,-14.19039 73.79002,0 0,14.19039 -9.93328,0.70952 -3.54759,5.67616 71.66146,202.21302 4.96663,0 23.41414,-68.11386 -46.82828,-132.68013 -7.80471,-6.38567 -11.35231,-0.70952 1.41904,-15.60943 75.91857,0.70952 -0.70952,14.89991 -12.06183,1.41904 -4.96663,5.67615 28.38077,77.33762 31.21886,-80.88521 -15.60943,-1.41904 0,-17.02847 63.14723,0 -0.70952,16.31895 -21.9951,0.70952 -6.38568,4.25711 -39.73309,108.55647 32.6379,94.36608 7.09519,-0.70952 68.82338,-200.79398 -1.44381,-5.18073 -9.9085,-0.49543 0,-17.02847 47.5378,-0.70952 0,19.15703 -11.35231,1.41904 -6.38567,4.25711 -92.23752,276.71256 -14.19039,-0.70952 -38.31405,-106.4279 -7.80471,2.83808 -35.47597,103.58983 z"
           id="path2715"
           style="fill:#000207;fill-opacity:1;fill-rule:evenodd;stroke:none" />
      </g>
      <rect
         width="344.26019"
         height="395.99869"
         x="-384.3811"
         y="22.534336"
         id="rect2721"
         style="fill:#FDCF00;fill-opacity:1;fill-rule:nonzero;stroke:#000000;stroke-width:5.2702527;stroke-linecap:round;stroke-linejoin:round;stroke-miterlimit:4;stroke-opacity:1;stroke-dasharray:none;stroke-dashoffset:0" />
      <g
         id="g2326">
        <rect
           width="344.26019"
           height="395.99869"
           x="-744.56079"
           y="22.534336"
           id="rect2723"
           style="fill:#F63D37;fill-opacity:1;fill-rule:nonzero;stroke:#000000;stroke-width:5.2702527;stroke-linecap:round;stroke-linejoin:round;stroke-miterlimit:4;stroke-opacity:1;stroke-dasharray:none;stroke-dashoffset:0" />
        <g
           transform="matrix(1,0,0,0.986592,-765.8735,11.5977)"
           id="g2301">
          <path
             d="m 156.94528,76.255232 52.3151,-23.508682 0.33111,-35.428576 c -3.38156,6.734863 -7.6747,12.786037 -14.56876,16.886517 -3.60343,14.007224 9.84198,3.057974 6.95327,10.595464 -7.40356,0.662216 -14.90384,2.317756 -22.51536,4.635513 -5.16092,-4.915545 6.92091,-1.880902 3.31109,-11.257678 -5.66415,-5.621585 -14.86201,-0.620845 -18.54207,-7.615489 3.27108,11.901099 -8.65045,12.466538 -3.64219,19.866492 2.23775,6.320942 11.07086,-1.628624 10.26436,3.64219 -4.39216,3.067729 -9.42178,7.435122 -15.56209,12.251004 -4.81829,-1.809029 2.7712,-6.017126 -0.66221,-13.244329 -7.63801,-4.383238 -11.48249,6.828642 -23.83979,-1.986649 l 26.15754,25.164223 z"
             id="path2285"
             style="fill:#FDCF00;fill-opacity:1;fill-rule:evenodd;stroke:#000000;stroke-width:2.48031497;stroke-linecap:butt;stroke-linejoin:miter;stroke-miterlimit:4;stroke-opacity:1;stroke-dasharray:none" />
          <path
             d="m 352.66097,162.32433 1.65346,13.93636 c 4.75564,-8.67588 8.84449,-5.34969 12.99153,-3.07072 -1.83555,-11.01958 -8.58303,-10.11019 -14.64499,-10.86564 z"
             id="path1384"
             style="fill:#fff6fc;fill-opacity:1;fill-rule:evenodd;stroke:#000000;stroke-width:3.54330707;stroke-linecap:butt;stroke-linejoin:miter;stroke-miterlimit:4;stroke-opacity:1;stroke-dasharray:none" />
          <path
             d="m 119.48164,398.21768 c 3.94835,0.41644 7.27689,5.78106 6.568,13.27574 -0.85299,-2.2099 -6.36926,-10.72926 -12.71677,-3.21413 l 6.14877,-10.06161 z"
             id="path1379"
             style="fill:#fff6ff;fill-opacity:1;fill-rule:evenodd;stroke:#000000;stroke-width:3.54330707;stroke-linecap:butt;stroke-linejoin:miter;stroke-miterlimit:4;stroke-opacity:1;stroke-dasharray:none" />
          <path
             d="m 345.33847,196.81093 c 6.59383,2.49301 8.1222,10.03239 5.90523,16.29846 -1.64946,-1.55783 -4.93562,-7.48527 -13.22773,-5.43282 l 7.3225,-10.86564 z"
             id="path1382"
             style="fill:#fffffd;fill-opacity:1;fill-rule:evenodd;stroke:#000000;stroke-width:3.54330707;stroke-linecap:butt;stroke-linejoin:miter;stroke-miterlimit:4;stroke-opacity:1;stroke-dasharray:none" />
          <path
             d="m 326.91412,136.81369 11.33806,9.9208 c -0.39524,-8.35565 5.08494,-10.24836 10.86564,-11.81048 -8.48397,-3.70103 -16.22927,-4.44744 -22.2037,1.88968 z"
             id="path1386"
             style="fill:#fff6fc;fill-opacity:1;fill-rule:evenodd;stroke:#000000;stroke-width:3.54330707;stroke-linecap:butt;stroke-linejoin:miter;stroke-miterlimit:4;stroke-opacity:1;stroke-dasharray:none" />
          <path
             d="m 235.16536,119.96119 c 22.92261,-6.68266 58.08639,-29.682527 61.01219,-35.559247 4.49996,-2.434379 3.11815,-11.624159 0,-14.2237 -17.57062,-11.476789 -1.03675,-21.010121 6.36323,-19.838318 8.19504,-0.294496 15.74022,5.806551 8.23478,16.843855 -6.06313,3.244002 -3.01543,6.488003 -3.74308,9.732005 3.61831,-3.163509 7.23662,-5.07555 10.85493,-11.977853 -1.37958,-23.429518 8.71355,-17.183306 13.8494,-12.726468 9.85347,8.697259 7.43161,14.742841 -0.74862,18.715395 -5.49125,-0.886001 -10.08885,6.270918 -14.59801,14.2237 6.488,-0.12237 12.97601,-4.620556 19.46401,-12.726468 6.09632,-3.644507 10.84757,-3.522832 11.97785,6.737542 0.90831,8.16239 -1.85464,10.817896 -4.866,13.100776 -7.36139,-0.487521 -14.72278,-2.993052 -22.08417,1.122924 2.86816,7.301697 8.50008,9.766807 15.34663,10.106317 3.62112,5.8994 4.85612,10.32161 1.49723,17.21816 -11.40908,-0.57246 -18.25815,-0.68319 -15.72093,-5.24031 -7.73284,-6.89851 -12.09264,-7.42571 -10.85493,2.62016 -14.01137,12.20077 -29.44122,26.79176 -47.91141,41.17387 l -28.0731,-39.30234 z"
             id="path2272"
             style="fill:#fdf2f0;fill-opacity:1;fill-rule:evenodd;stroke:#000000;stroke-width:3.54330707;stroke-linecap:butt;stroke-linejoin:miter;stroke-miterlimit:4;stroke-opacity:1;stroke-dasharray:none" />
          <path
             d="m 184.98467,92.659673 c 0.68415,7.975877 49.03996,14.731097 59.98141,-11.089 10.88873,25.082567 -36.19206,33.558507 -59.98141,33.266997 -16.21741,-0.15497 -13.67154,-24.140256 0,-22.177997 z"
             id="path2269"
             style="fill:#fff6ff;fill-opacity:1;fill-rule:evenodd;stroke:#000000;stroke-width:3.54330707;stroke-linecap:butt;stroke-linejoin:miter;stroke-miterlimit:4;stroke-opacity:1;stroke-dasharray:none" />
          <path
             d="m 233.16924,388.582 c -19.25169,-15.13911 -43.57536,-44.37431 -48.42023,-73.80559 l 11.75249,4.701 c -2.86843,-11.39125 -1.70432,-26.81504 -2.3505,-40.42854 -4.4979,-30.74738 -22.4733,-30.86406 -40.42854,-31.02655 l -15.51327,61.1129 c -5.01438,14.41637 -2.50721,25.07197 7.52159,31.96675 l 3.76079,-16.45347 c 0.36674,7.44936 2.92637,9.78197 7.05149,8.46179 -10.55391,8.1131 -3.77946,19.11426 0,29.61625 l 3.76079,-14.10298 7.52159,0.9402 c 7.11623,18.82837 22.29786,30.93557 36.19765,42.77903 -0.12854,-1.61273 5.41482,6.33004 6.58139,10.34219 6.89479,-1.10671 13.78958,5.00651 20.68437,9.87208 l 58.76241,1.4103 c 13.16879,-10.79675 5.7768,-31.19241 -11.28239,-29.61626 -22.40806,11.64754 -26.01216,23.12367 -45.59963,4.2309 z"
             id="path2290"
             style="fill:#fcfffd;fill-opacity:1;fill-rule:evenodd;stroke:#000000;stroke-width:3.54330707;stroke-linecap:butt;stroke-linejoin:miter;stroke-miterlimit:4;stroke-opacity:1;stroke-dasharray:none" />
          <path
             d="m 157.97914,73.884032 c 6.81987,-8.875257 28.86162,-22.317627 47.14561,-20.953603 11.50104,-1.746265 5.84005,5.503327 13.85279,6.116159 4.55627,1.817813 9.27689,6.235756 10.40928,10.150454 0.1838,9.373981 -4.04368,16.909926 -12.68245,22.607836 -12.19099,-0.199539 -24.07662,-4.063378 -36.94451,3.859874 -3.4354,7.762068 -4.39203,14.697868 7.44405,17.369438 14.06097,2.96218 28.12194,-2.63292 42.18291,-4.9627 1.17281,4.99769 -0.99044,8.32735 -7.16834,9.64969 l 13.23386,1.92993 c 13.4228,9.79365 31.72556,23.16596 26.46771,47.42132 14.24477,0.89665 28.48955,6.99863 42.73432,1.37852 6.45712,-2.89403 10.81638,-7.58622 12.13103,-14.88808 -1.08506,-7.55474 3.8e-4,-13.66248 5.51411,-16.81803 2.53063,-2.63816 22.85473,6.27563 14.33668,17.36944 -5.46283,4.51458 -12.40005,8.70152 -11.57963,14.61238 9.94827,0.8496 15.22454,-11.73541 19.02367,-11.85533 9.05853,1.19293 8.74301,4.38613 11.85533,16.26661 -4.11069,12.34721 -16.42887,11.26398 -28.39765,10.75251 14.61274,1.0971 17.65997,4.25677 17.92314,13.04096 -0.16252,3.69299 -7.18159,14.23579 -14.14149,12.5609 -9.30009,-5.51411 -8.59823,-9.61095 -10.94999,-15.12506 -6.81003,1.96504 -10.54276,7.52026 -12.95815,14.61239 -27.68528,4.48501 -54.30441,10.67586 -71.13196,32.53323 -4.98295,-1.98727 -3.80546,-8.90287 -5.51411,-13.50957 -6.88219,3.7623 -10.38326,9.9397 -12.13104,17.36943 1.04037,-17.96502 -12.34725,-22.42135 -21.78072,-14.06096 -8.93335,0.95429 -17.71235,2.3716 -25.9163,5.5141 -7.80134,3.46306 -15.8366,6.54601 -17.92084,19.29937 -0.0132,12.97269 2.30963,26.98365 -3.85988,37.22022 -1.20126,18.63506 -30.49316,24.76562 -45.49137,39.15015 0.78732,-6.58123 0.86056,-11.97234 -0.55141,-14.88808 -8.551189,5.08486 -17.554,13.33107 -27.570535,28.67335 -5.654615,17.38402 -6.526688,33.33327 2.481348,46.31849 4.969659,-1.42865 10.06967,-2.07518 14.336676,-7.71975 4.788956,-6.72962 16.921401,-7.4679 21.229311,-3.03275 10.23544,7.34525 4.54678,24.61755 -1.92994,27.29482 l -58.691193,-0.10211 c -4.997887,-4.79703 -8.387582,-11.02357 -19.64996,-10.25216 -1.213909,-8.85987 0.458319,-13.7513 5.126077,-14.52388 8.711052,-10.47141 7.425242,-26.39565 8.543461,-41.00861 -3.083494,-3.20359 -7.473348,-3.79446 -12.760731,-2.59027 -0.690916,-7.44011 8.021354,-11.40236 13.615077,-15.351 1.729503,-8.11497 -9.024373,-3.74657 -14.483038,-4.67337 2.143264,-11.01117 9.56209,-15.69166 19.023666,-17.92085 17.14039,-5.74296 22.122172,-26.88683 28.673353,-46.04279 -20.767051,-0.52112 -9.25169,-29.46702 -17.369435,-30.60328 -9.697788,-0.3739 -11.097134,1.10141 -11.357591,-6.35428 0.130217,-7.08985 2.828187,-5.67151 13.287528,-5.77676 -17.001606,-14.638 -21.372613,-59.90792 2.257847,-88.97451 10.406804,-13.92886 21.101269,-24.65467 28.954011,-39.55533 8.156668,-13.666899 9.149558,-28.686469 5.197618,-39.078396 -4.402926,-5.912643 -13.663577,-7.39897 -16.362874,-1.925045 2.024521,7.175779 14.434574,8.171105 12.127778,19.827955 -3.313619,2.781388 -5.119156,0.03314 -6.930159,-2.695062 7.226794,13.452744 -2.038457,16.422974 -3.08007,26.373106 -2.439775,-24.481107 -6.677189,-21.777867 -8.27769,-29.260671 -7.126696,-18.933634 1.170277,-23.983634 8.470194,-26.950619 5.035037,-0.889708 10.25312,-0.123206 15.015341,2.502557 8.23593,6.186242 13.03763,16.034849 10.78025,31.955733 -2.62365,20.087386 -18.047861,34.904192 -30.608201,51.206172 -14.986393,16.83533 -23.064822,35.39766 -23.678044,55.82628 0.05713,15.98139 5.413611,29.3131 13.667814,41.19595 C 82.438942,204.4836 85.229864,189.16313 85.85697,172.03948 87.552265,137.74248 63.386044,119.43859 49.003625,100.6029 22.808005,75.538217 24.993326,49.295564 40.836354,35.26473 48.277645,29.355687 58.408821,30.326933 63.160227,36.3537 77.418425,54.326214 56.937158,69.433043 56.626411,85.357324 53.411443,75.997401 48.377799,66.031252 57.71538,60.855512 l -11.434179,2.722424 c -0.06301,-6.499027 1.56357,-11.984296 8.711755,-14.156603 5.249674,-5.16197 1.174725,-8.855865 -3.266908,-9.25624 -13.89467,3.294959 -15.886518,22.534276 -10.505735,33.886039 l 39.363425,51.053578 c 23.065522,30.66573 14.963074,59.72457 3.683407,88.95925 11.840018,-0.6831 12.532729,-0.0537 12.568703,5.6108 0.924559,9.06245 -5.004042,5.6061 -13.785659,6.38848 -8.482127,-0.75254 -5.87396,20.43605 -1.51306,20.67849 3.959281,2.96512 6.295244,2.4107 9.414596,-0.84059 14.469885,-27.59052 31.978105,-52.90229 57.160045,-72.45877 -7.81177,1.18648 -12.5392,-1.868 -16.81178,-5.54789 13.54544,-7.15584 22.85065,-18.87807 30.59744,-32.27861 -4.72952,8.86958 -15.38864,15.16143 -25.21767,11.26389 17.13026,-13.42927 12.31283,-38.19425 5.37977,-38.16274 0.0873,-3.28129 1.01281,-5.81742 4.16627,-6.37319 -3.34412,-8.832049 -9.53533,-16.850644 -15.14894,-25.034269 10.65219,-1.555021 21.68497,-4.904252 30.04112,4.364949 l -6.54743,-4.236568 3.40859,-3.55391 z"
             id="path1612"
             style="fill:#fff6ff;fill-opacity:1;fill-rule:evenodd;stroke:#000000;stroke-width:3.54330707;stroke-linecap:butt;stroke-linejoin:miter;stroke-miterlimit:4;stroke-opacity:1;stroke-dasharray:none" />
          <path
             d="m 82.036686,397.10632 c 12.938835,-0.55509 16.309242,-8.50578 22.540694,-9.24625 10.15972,0.7987 8.77547,17.46942 0,19.60826"
             id="path1377"
             style="fill:none;stroke:#000000;stroke-width:3.54330707;stroke-linecap:butt;stroke-linejoin:miter;stroke-miterlimit:4;stroke-opacity:1;stroke-dasharray:none" />
          <path
             d="m 176.59822,73.471866 c 10.96723,-9.837547 28.92415,-12.499701 41.24916,-14.831328"
             id="path1388"
             style="fill:none;stroke:#000000;stroke-width:3.54330707;stroke-linecap:butt;stroke-linejoin:miter;stroke-miterlimit:4;stroke-opacity:1;stroke-dasharray:none" />
          <path
             d="m 190.93553,65.944292 c 0.2085,10.790542 19.14133,11.351257 21.36597,-5.520895"
             id="path1390"
             style="fill:none;stroke:#000000;stroke-width:3.54330707;stroke-linecap:butt;stroke-linejoin:miter;stroke-miterlimit:4;stroke-opacity:1;stroke-dasharray:none" />
          <path
             d="m 211.82441,59.676329 c 1.68305,16.606536 -9.18172,21.239156 -12.87345,30.390149"
             id="path1411"
             style="fill:none;stroke:#000000;stroke-width:3.54330707;stroke-linecap:butt;stroke-linejoin:miter;stroke-miterlimit:4;stroke-opacity:1;stroke-dasharray:none" />
          <path
             d="m 148.0618,173.33373 c 16.63483,-4.31901 21.14424,-18.74254 29.4425,-30.0087 -4.35822,13.58284 -12.00801,23.08351 -24.34668,30.858 -13.23425,15.4318 2.22455,20.3962 4.52961,30.2918 1.77849,-29.22424 29.75514,-20.18616 39.06793,-51.80747 0.42849,33.53518 -44.23439,30.81025 -28.02699,56.90329 l 7.92682,9.34233 c -0.68992,-31.23077 43.17315,-25.33729 39.91724,-62.84841 6.34117,43.95603 -51.42709,47.96071 -17.55226,72.19074 9.66564,-34.18616 37.6357,-28.42287 34.82142,-71.90764 8.77266,27.07083 -29.47472,52.40984 3.39721,64.83012 3.10157,-21.62571 11.44615,-36.69766 17.26915,-54.92158 1.44663,-6.89917 -3.23575,-11.75533 -5.94512,-17.26916 4.20938,6.56754 5.87424,14.83142 14.15505,18.68466"
             id="path1392"
             style="fill:none;stroke:#000000;stroke-width:3.54330707;stroke-linecap:butt;stroke-linejoin:miter;stroke-miterlimit:4;stroke-opacity:1;stroke-dasharray:none" />
          <path
             d="m 137.85643,77.286287 c 12.69507,6.461236 19.78826,16.105357 24.19418,22.682044 l 2.01618,-4.284386 C 157.07987,88.031354 152.42467,77.989334 137.85643,77.286287 z"
             id="path2267"
             style="fill:#0a000e;fill-opacity:1;fill-rule:evenodd;stroke:#000000;stroke-width:1px;stroke-linecap:butt;stroke-linejoin:miter;stroke-opacity:1" />
          <path
             d="m 326.02218,47.719769 11.60355,11.603545 c -3.78114,-6.883455 0.56432,-9.252134 5.61462,-11.229237 -8.00974,-4.665469 -13.18394,-3.659857 -17.21817,-0.374308 z"
             id="path2276"
             style="fill:#f1f4fd;fill-opacity:1;fill-rule:evenodd;stroke:#000000;stroke-width:2.48031497;stroke-linecap:butt;stroke-linejoin:miter;stroke-miterlimit:4;stroke-opacity:1;stroke-dasharray:none" />
          <path
             d="m 294.58032,51.08854 15.72093,0.748616 c -5.7476,-2.831699 -7.60059,-6.776144 -6.36323,-11.603545 -6.63552,2.915052 -7.46913,6.990486 -9.3577,10.854929 z"
             id="path2279"
             style="fill:#f1f4fd;fill-opacity:1;fill-rule:evenodd;stroke:#000000;stroke-width:2.48031497;stroke-linecap:butt;stroke-linejoin:miter;stroke-miterlimit:4;stroke-opacity:1;stroke-dasharray:none" />
          <path
             d="m 344.73758,70.926859 2.99446,14.598008 c 2.58841,-5.367311 6.17164,-6.755333 9.73201,-8.234774 -3.62624,-5.816606 -8.11562,-6.454287 -12.72647,-6.363234 z"
             id="path2281"
             style="fill:#f1f4fd;fill-opacity:1;fill-rule:evenodd;stroke:#000000;stroke-width:2.48031497;stroke-linecap:butt;stroke-linejoin:miter;stroke-miterlimit:4;stroke-opacity:1;stroke-dasharray:none" />
          <path
             d="m 336.1285,102.74303 3.36877,13.47509 c 1.28478,-6.66338 4.33203,-9.8018 8.60908,-10.48063 -4.49169,-3.99261 -8.48431,-4.99078 -11.97785,-2.99446 z"
             id="path2283"
             style="fill:#f1f4fd;fill-opacity:1;fill-rule:evenodd;stroke:#000000;stroke-width:2.48031497;stroke-linecap:butt;stroke-linejoin:miter;stroke-miterlimit:4;stroke-opacity:1;stroke-dasharray:none" />
          <path
             d="m 67.726676,127.81781 9.030223,-11.58879 2.859571,2.70907 -8.87972,12.1908 -3.010074,-3.31108 z"
             id="path2287"
             style="fill:#fff6ff;fill-opacity:1;fill-rule:evenodd;stroke:none" />
          <path
             d="m 262.55481,401.80731 c 12.93883,-0.55509 16.30924,-8.50578 22.54069,-9.24625 10.15972,0.7987 8.77547,17.46942 0,19.60826"
             id="path2297"
             style="fill:none;stroke:#000000;stroke-width:3.54330707;stroke-linecap:butt;stroke-linejoin:miter;stroke-miterlimit:4;stroke-opacity:1;stroke-dasharray:none" />
          <path
             d="m 297.17917,402.44857 c 3.94835,0.41644 7.27689,5.78106 6.568,13.27574 -0.85299,-2.2099 -6.36926,-10.72926 -12.71677,-3.21413 l 6.14877,-10.06161 z"
             id="path2299"
             style="fill:#fff6ff;fill-opacity:1;fill-rule:evenodd;stroke:#000000;stroke-width:3.54330707;stroke-linecap:butt;stroke-linejoin:miter;stroke-miterlimit:4;stroke-opacity:1;stroke-dasharray:none" />
        </g>
        <path
           d="m -577.77538,107.79754 c -4.0207,3.36185 -6.78862,6.56709 4.03661,8.0732 34.79425,1.6058 47.95495,-8.38875 50.89441,-15.70147"
           id="path2324"
           style="fill:none;stroke:#6e0000;stroke-width:1.61526334;stroke-linecap:round;stroke-linejoin:miter;stroke-miterlimit:4;stroke-opacity:1;stroke-dasharray:none" />
      </g>
      <g
         transform="translate(-765.6319,0)"
         id="g2416">
        <path
           d="m 535.50243,62.547344 -17.00008,2.051733 c -14.05252,15.998804 -21.83058,8.139084 -23.15527,2.344838 l -9.96556,-5.56899 c 12.35901,-1.766091 17.20384,9.225573 29.01737,-0.293105 8.18518,-3.213107 15.4122,-1.635354 22.86217,-1.172419 l -1.75863,2.637943 z"
           id="path2359"
           style="fill:#fbfbfb;fill-opacity:1;fill-rule:evenodd;stroke:#000000;stroke-width:1.77165353;stroke-linecap:butt;stroke-linejoin:miter;stroke-miterlimit:4;stroke-opacity:1;stroke-dasharray:none" />
        <path
           d="m 553.03176,413.33474 c 13.88743,-4.71187 14.65468,-16.9337 19.1739,-27.42386 7.46537,13.92061 25.68553,14.69646 47.12282,11.54028 15.61886,-3.86348 20.11449,2.54065 25.96564,7.69352 3.21792,-10.53042 -4.47308,-24.08264 -20.1955,-26.92732 -16.50773,1.64192 -29.40443,0.57558 -36.54422,-4.80845 3.64433,-3.42803 16.98223,-5.09551 28.8507,-8.65521 -16.17838,-20.71118 -24.37702,-11.37559 -36.3335,-13.08819 -9.23197,-7.5568 -12.24528,-14.36476 -15.38704,-21.15718 3.8272,-2.21721 19.27911,2.83101 35.37181,8.27973 -5.69431,-18.27614 -13.83752,-16.88902 -23.08057,-24.04225 -12.62259,-4.52121 -11.13881,-11.39349 -15.38704,-17.31043 8.50721,4.803 14.72992,10.62133 29.8124,12.50198 -23.33408,-24.07787 -26.59833,-37.1497 -25.96564,-48.08451 15.37633,-4.25879 32.54938,48.01356 38.46761,63.47155 4.70235,-4.78079 8.68132,-10.46582 16.34873,-11.54028 9.20734,10.16299 20.19937,17.94638 31.73578,25.00394 -7.87324,5.93521 -17.89601,-7.67064 -25.96564,-0.96169 -9.16338,11.69757 -4.69088,20.18669 -0.96169,28.85071 -0.32513,-8.14529 4.40177,-9.34403 10.27017,-8.97322 6.24354,1.37118 10.65671,-1.37597 13.77592,-7.03452 3.32185,-3.67774 6.64371,-3.66706 9.96556,-3.51726 -0.23624,10.63072 2.01575,24.10513 -3.22415,29.01738 -5.12443,16.64468 8.97092,10.3852 4.10347,27.25874 6.05567,-3.54273 11.39502,-4.8037 16.70697,-18.7587 -0.68506,-10.22227 -3.24425,-11.26638 -6.1552,-14.06903 l -0.58621,-19.34492 c 6.86112,4.17036 13.1233,9.17923 16.12076,18.75871 3.36614,16.40508 17.91567,0.0949 22.56907,17.00007 5.59008,-16.98884 -0.0224,-32.83815 -10.84488,-33.70705 -12.58687,2.12826 -21.08861,-7.02443 -21.39665,-13.48282 10.48809,-1.213 22.63837,4.29137 31.06911,-8.20693 2.03366,-1.73236 4.00701,-3.54012 9.08625,-1.46552 -6.13984,-10.28939 -12.00071,-14.1022 -21.10355,-15.53456 -14.48704,-3.66598 -11.95926,16.25399 -26.96563,19.93113 l -10.55178,-2.63794 -30.776,-25.20702 12.0173,-4.10346 c -19.30915,-14.63034 -24.11957,-37.16908 -35.75879,-55.98302 6.10976,-7.43101 16.39238,35.64061 36.05189,43.96572 1.4656,-9.28168 -12.99431,-21.10354 -23.44838,-52.75886 7.71306,-3.61071 16.90238,39.47144 51.29334,58.32785 7.40486,3.72324 13.6965,1.93763 18.7587,-0.58621 -20.53737,-23.12658 -35.81919,-47.52108 -47.77608,-75.32793 0.72818,-2.57612 1.49264,-5.06155 5.27589,0 10.9267,28.32376 29.99405,46.03459 58.62096,61.84511 -20.73275,-20.40962 -37.08217,-43.01092 -51.58645,-66.53478 -0.36529,-6.70241 1.83174,-7.85312 6.1552,-4.39657 8.38992,14.35817 17.23706,28.46234 32.53463,38.98293 9.58398,3.40299 17.86814,2.25659 24.3277,-5.27588 -22.46648,-12.89218 -31.95459,-37.58286 -46.75021,-57.44854 -1.3781,-7.29589 1.94375,-6.75854 5.12933,-6.44831 6.43698,17.33991 22.97984,30.34873 40.15536,43.08641 l 5.27588,-0.87932 c -16.65567,-16.73262 -29.34856,-35.44664 -43.0864,-53.63818 0.85862,-2.22242 -1.11735,-5.79784 4.10347,-2.93104 6.11218,6.63004 11.44762,13.16116 20.51733,19.05181 6.79193,3.15838 12.64929,2.1112 17.87939,-1.75863 -15.05164,-12.76792 -25.88419,-26.80156 -33.12084,-41.91398 l 2.05174,-5.27589 c 6.30926,10.80261 15.57631,19.38688 28.13806,25.50012 l -28.43117,-40.15536 c -0.39214,-4.20384 1.63595,-3.56722 3.51726,-3.22415 4.88168,6.63776 10.62672,14.56869 25.79322,9.67246 -24.91072,-17.07535 -19.93113,-61.552004 -34.29326,-79.431396 -13.33121,-14.301488 -32.09236,-7.58945 -39.56914,-0.58621 -9.2566,13.178263 -9.09743,30.296469 3.22415,34.000155 7.54097,7.478604 5.60821,15.483526 -0.87932,23.741491 -12.56396,17.38273 -25.947,31.89867 -41.62087,38.39672 -18.75772,2.81495 -23.78495,-3.10767 -25.50012,-11.13798 11.48196,0.49997 19.09666,-3.92204 21.98286,-14.36213 -18.35364,2.09121 -27.27249,-0.72367 -26.08633,-8.79315 13.91606,1.89312 17.67164,-2.42295 17.58629,-9.08625 -6.98754,6.74892 -9.22637,0.65818 -13.18972,-4.689672 -2.16716,-3.589243 -0.73625,-19.716542 2.63795,-24.913906 2.21925,-5.862096 4.09261,-11.724191 -0.58621,-17.586287 -2.19682,-2.931048 -3.12488,-5.862095 0.87931,-8.793143 7.20389,0.986816 9.32928,-5.644108 12.0173,-11.431087 -12.11251,4.189962 -26.65118,4.49585 -37.51742,-0.586209 -12.00993,-5.140972 -27.35585,-5.977915 -32.82773,3.810362 -13.39933,2.173711 -19.32553,8.340365 -17.29318,17.000077 l 3.51725,7.034514 c 0.80498,-12.556773 30.28694,-2.916673 27.84496,1.758629 l -16.12076,1.465524 c 9.74029,5.208057 23.42334,9.697497 21.98286,22.862173 -2.18084,18.090935 -17.69833,14.472515 -28.72427,14.362135 -1.19865,5.8798 1.41724,11.21466 11.13798,15.53455 -6.25406,2.75747 -11.10762,8.66605 -20.22423,4.98278 -1.10532,7.37039 8.00464,11.72649 19.05181,14.65524 -9.03123,7.89581 -19.20964,10.05575 -30.93771,2.98906 -15.24937,-5.85383 -17.93104,-17.51607 -30.495,-34.8988 -3.63383,-7.54454 -4.85317,-15.549462 -0.87932,-23.74149 12.32158,-3.703686 12.48075,-20.821892 3.22415,-34.000155 -7.47678,-7.00324 -26.23793,-13.715278 -39.56914,0.58621 -14.36213,17.879392 -9.38254,62.356045 -34.29326,79.431395 15.1665,4.89623 20.91154,-3.0347 25.79322,-9.67246 1.88131,-0.34307 3.9094,-0.97969 3.51726,3.22415 l -28.43117,40.15536 c 12.56175,-6.11324 21.8288,-14.69751 28.13806,-25.50012 l 2.05174,5.27589 c -7.23665,15.11242 -18.0692,29.14606 -33.12084,41.91398 5.2301,3.86983 11.08746,4.91701 17.87939,1.75863 9.06971,-5.89065 14.40515,-12.42177 20.51733,-19.05181 5.22082,-2.8668 3.24485,0.70862 4.10347,2.93104 -13.73784,18.19154 -26.43073,36.90556 -43.0864,53.63818 l 5.27588,0.87932 c 17.17552,-12.73768 33.71838,-25.7465 40.15536,-43.08641 3.18558,-0.31023 6.50743,-0.84758 5.12933,6.44831 -14.79562,19.86568 -24.28373,44.55636 -46.75021,57.44854 6.45956,7.53247 14.74372,8.67887 24.3277,5.27588 15.29757,-10.52059 24.14471,-24.62476 32.53463,-38.98293 4.32346,-3.45655 6.52049,-2.30584 6.1552,4.39657 -14.50428,23.52386 -30.8537,46.12516 -51.58645,66.53478 28.62691,-15.81052 47.69426,-33.52135 58.62096,-61.84511 3.78325,-5.06155 4.54771,-2.57612 5.27589,0 -11.95689,27.80685 -27.23871,52.20135 -47.77608,75.32793 5.0622,2.52384 11.35384,4.30945 18.7587,0.58621 34.39096,-18.85641 43.58028,-61.93856 51.29334,-58.32785 -10.45407,31.65532 -24.91398,43.47718 -23.44838,52.75886 19.65951,-8.32511 29.94213,-51.39673 36.05189,-43.96572 -11.63922,18.81394 -16.44964,41.35268 -35.75879,55.98302 l 12.0173,4.10346 -30.776,25.20702 -10.55178,2.63794 c -15.00637,-3.67714 -12.47859,-23.59711 -26.96563,-19.93113 -9.10284,1.43236 -14.96371,5.24517 -21.10355,15.53456 5.07924,-2.0746 7.05259,-0.26684 9.08625,1.46552 8.43074,12.4983 20.58102,6.99393 31.06911,8.20693 -0.30804,6.45839 -8.80978,15.61108 -21.39665,13.48282 -10.82246,0.8689 -16.43496,16.71821 -10.84488,33.70705 4.6534,-16.90516 19.20293,-0.59499 22.56907,-17.00007 2.99746,-9.57948 9.25964,-14.58835 16.12076,-18.75871 l -0.58621,19.34492 c -2.91095,2.80265 -5.47014,3.84676 -6.1552,14.06903 5.31195,13.955 10.6513,15.21597 16.70697,18.7587 -4.86745,-16.87354 9.2279,-10.61406 4.10347,-27.25874 -5.2399,-4.91225 -2.98791,-18.38666 -3.22415,-29.01738 3.32185,-0.1498 6.64371,-0.16048 9.96556,3.51726 3.11921,5.65855 7.53238,8.4057 13.77592,7.03452 5.8684,-0.37081 10.5953,0.82793 10.27017,8.97322 3.72919,-8.66402 8.20169,-17.15314 -0.96169,-28.85071 -8.06963,-6.70895 -18.0924,6.8969 -25.96564,0.96169 11.53641,-7.05756 22.52844,-14.84095 31.73578,-25.00394 7.66741,1.07446 11.64638,6.75949 16.34873,11.54028 5.91823,-15.45799 23.09128,-67.73034 38.46761,-63.47155 0.63269,10.93481 -2.63156,24.00664 -25.96564,48.08451 15.08248,-1.88065 21.30519,-7.69898 29.8124,-12.50198 -4.24823,5.91694 -2.76445,12.78922 -15.38704,17.31043 -9.24305,7.15323 -17.38626,5.76611 -23.08057,24.04225 16.0927,-5.44872 31.54461,-10.49694 35.37181,-8.27973 -3.14176,6.79242 -6.15507,13.60038 -15.38704,21.15718 -11.95648,1.7126 -20.15512,-7.62299 -36.3335,13.08819 11.86847,3.5597 25.20637,5.22718 28.8507,8.65521 -7.13979,5.38403 -20.03649,6.45037 -36.54422,4.80845 -15.72242,2.84468 -23.41342,16.3969 -20.1955,26.92732 5.85115,-5.15287 10.34678,-11.557 25.96564,-7.69352 21.43729,3.15618 39.65745,2.38033 47.12282,-11.54028 4.51922,10.49016 5.28647,22.71199 19.2338,28.85071 z"
           id="path2352"
           style="fill:#060606;fill-opacity:1;fill-rule:evenodd;stroke:#000000;stroke-width:1px;stroke-linecap:butt;stroke-linejoin:miter;stroke-opacity:1" />
        <path
           d="m 532.57138,42.030009 c 2.55537,26.441051 18.19508,16.707763 33.70705,7.32762 -0.36761,-11.581977 -22.47137,-4.88508 -33.70705,-7.32762 z"
           id="path2361"
           style="fill:#ffffff;fill-opacity:1;fill-rule:evenodd;stroke:#000000;stroke-width:1px;stroke-linecap:butt;stroke-linejoin:miter;stroke-opacity:1" />
        <path
           d="m 551.03699,47.598999 a 5.1293335,4.3965716 0 1 1 -10.25867,0 5.1293335,4.3965716 0 1 1 10.25867,0 z"
           transform="translate(0.293105,1.172419)"
           id="path2365"
           style="fill:#0a0a0a;fill-opacity:1;fill-rule:nonzero;stroke:#000000;stroke-width:3.375;stroke-linecap:round;stroke-linejoin:round;stroke-miterlimit:4;stroke-opacity:1;stroke-dasharray:none;stroke-dashoffset:0" />
        <path
           d="m 451.375,113.875 c 5.40045,49.30438 49.15322,88.21875 102.25,88.21875 51.2814,-1e-5 93.86651,-36.30124 101.8125,-83.78125 -15.78356,36.0969 -53.32728,61.75279 -97.53125,63.09375 l 0,-13.625 12.125,0 0,-12.09375 -12.125,0 0,-10.09375 -10.71875,0 0,10.09375 -12.125,0 0,12.09375 12.125,0 0,13.46875 c -44.34649,-2.62284 -81.49629,-29.7595 -95.8125,-67.375 z"
           id="rect2376"
           style="fill:#fffdff;fill-opacity:1;fill-rule:nonzero;stroke:#ffffff;stroke-width:0.70866144;stroke-linecap:round;stroke-linejoin:miter;stroke-miterlimit:4;stroke-opacity:1;stroke-dasharray:none;stroke-dashoffset:0" />
      </g>
      <g
         transform="translate(-133.692,-3.603043)"
         id="g2251">
        <g
           transform="translate(-628.0498,0)"
           id="g2190">
          <path
             d="m 548.23071,399.63153 a 170.14056,170.6657 0 1 1 -340.28113,0 170.14056,170.6657 0 1 1 340.28113,0 z"
             transform="matrix(1.07316,0,0,1.079016,-33.91229,-33.72792)"
             id="path2188"
             style="fill:#fbfbfb;fill-opacity:1;fill-rule:nonzero;stroke:#000000;stroke-width:4.25196838;stroke-linecap:round;stroke-linejoin:round;stroke-miterlimit:4;stroke-opacity:1;stroke-dasharray:none;stroke-dashoffset:0" />
          <path
             d="m 399.6875,246.9375 c -2.36841,0.057 -4.78027,0.6485 -7.28125,2.03125 -4.82485,1.2851 -9.53776,7.15181 -15.5625,2.4375 -7.19123,-1.19372 -12.22111,-5.52497 -24.875,1.5625 -2.48628,5.32958 -8.79357,4.87565 -14.5625,5.28125 -12.0817,1.88378 -19.28117,8.30049 -25.875,15.25 -3.05885,4.76337 -2.62972,10.84951 -11.90625,13.28125 -6.26489,3.16846 -11.81043,7.94084 -15.9375,15.8125 -1.75669,6.06443 -2.88617,12.76147 -9.59375,13.875 -11.85852,9.95413 -13.89149,19.92087 -13.875,29.875 3.74401,3.00634 11.17388,2.32578 9.5625,10.6875 -1.40304,8.93353 0.21968,21.54917 -6.625,23.875 -5.34536,2.95094 -3.25916,11.44723 -3.96875,17.875 3.00889,9.63741 -3.16677,10.11095 -5.96875,13.9375 -5.42916,10.39283 -8.73091,20.10747 0.65625,25.84375 5.82047,1.65767 14.4618,-0.11464 10.59375,13.25 l -6.625,11.28125 c -6.63757,13.86946 -1.41536,28.83038 9.94433,38.41479 2.16016,-7.0054 3.26028,-14.6452 9.27442,-15.22729 -2.82297,9.84087 -8.16832,19.72757 7.96875,29.15625 4.7713,5.38068 11.55511,7.82878 19.21875,11.28125 3.67415,-2.7061 6.17761,-6.17398 7.28125,-10.59375 4.10361,-1.27087 6.13779,1.06718 8.625,2.625 -8.10431,5.38283 -6.96113,10.26256 15.25,13.9375 12.2667,3.59483 18.56918,-5.15904 24.53125,-14.59375 1.85037,4.66513 -4.40282,10.38597 -7.26537,15.90796 14.53065,2.9695 33.4973,-3.00171 41.07787,-16.56421 1.53914,-4.70524 2.1078,-9.69026 0.65625,-15.25 3.51451,-0.3642 4.16316,4.53548 5.96363,10.59887 8.42148,-5.71941 17.113,-15.13136 22.53637,-23.84887 5.35835,-7.23434 5.65169,-20.19768 25.84375,-10.59375 8.72746,5.50578 18.54677,6.513 29.84375,1.3125 9.02662,-9.03085 17.44747,-18.47119 17.21875,-33.8125 -0.63726,-8.64247 -0.0811,-15.62413 3.96875,-17.875 5.74292,-9.0463 3.75147,-20.99488 2.9375,-32.5 -1.85509,-4.8385 -1.74578,-9.00011 -0.28125,-12.59375 4.56551,-11.49331 2.37973,-21.1182 -0.65625,-30.5 -9.03948,-5.33139 -9.99592,-14.5036 -9.28125,-24.5 -0.64686,-16.45137 -5.01023,-17.16936 -9.9375,-20.5625 -9.47122,-4.29188 -10.16203,-7.79245 -10.625,-14.59375 -1.11668,-6.70975 -8.24159,-12.84717 -12.59375,-14.5625 -4.01135,0.074 -8.38263,-1.32089 -8.5625,-6.78125 -3.72021,-10.30553 -10.74068,-10.81096 -18.59375,-12.4375 -5.84514,0.21421 -10.95697,-0.49099 -15.90625,-6.625 -5.45156,-2.50448 -10.87799,-5.51252 -16.59375,-5.375 z m -56.53125,39.28125 c 6.78848,12.79821 20.35597,10.36895 35.46875,4.4375 -7.93801,14.36966 12.6166,15.57427 34.90625,8.40625 9.81578,11.91988 22.4613,22.00193 21,41.21875 -2.34797,14.62633 19.38046,23.63994 17.0625,40.4375 l -10.21533,-11.03808 c -6.91282,16.1376 -14.75265,41.85545 -4.50342,52.50683 0.71139,2.30287 0.21544,5.16957 1.09375,8.15625 -9.00725,-1.05487 -8.00033,-11.35042 -11.83692,-15.63696 -9.23945,26.92119 -40.05859,50.02756 -52.50683,46.10571 1.28048,-16.0197 -0.91101,-27.93019 -6.15625,-34.34375 -4.739,-5.79454 -7.78363,-11.43497 -8.03125,-22.90625 l -38.83692,-1.83692 c -15.13885,6.72608 -21.65139,29.51261 -26.53808,27.30567 -6.85602,0.87586 -3.17821,-14.58568 -4.71875,-29.65625 -7.2717,-13.74037 4.36719,-36.51345 7.34375,-42.8125 l 1.59375,-8.90625 c 5.97404,-28.82962 19.32344,-50.787 44.875,-61.4375 z"
             id="path1308"
             style="fill:#060606;fill-opacity:1;fill-rule:evenodd;stroke:none" />
          <path
             d="m 548.23071,399.63153 a 170.14056,170.6657 0 1 1 -340.28113,0 170.14056,170.6657 0 1 1 340.28113,0 z"
             transform="translate(-6.251252,-2.150751)"
             id="path2186"
             style="fill:none;stroke:#000000;stroke-width:4.25196838;stroke-linecap:round;stroke-linejoin:round;stroke-miterlimit:4;stroke-opacity:1;stroke-dasharray:none;stroke-dashoffset:0" />
        </g>
        <g
           transform="translate(-629.804,0)"
           id="g2211">
          <path
             d="m 299.86114,349.8074 c 8.83717,-0.0511 21.49039,-9.97844 27.91742,-9.84139 0.96749,-0.32924 13.26561,-1.36412 15.86673,12.45238 -8.07018,6.93495 -13.57227,20.58942 -24.30221,20.28531 -12.11188,1.53829 -13.24753,-14.76361 -19.48194,-22.8963 z"
             id="path2195"
             style="fill:none;stroke:#000000;stroke-width:3.54330707;stroke-linecap:butt;stroke-linejoin:miter;stroke-miterlimit:4;stroke-opacity:1;stroke-dasharray:none" />
          <path
             d="m 343.04276,352.61923 c 2.11418,-6.28702 2.60611,-12.59634 1.49876,-15.14954 -8.46093,-6.99807 -29.45186,-8.94312 -37.55997,-9.12111 -2.44084,-0.31633 -2.97857,0.81347 -2.90267,1.17351 5.70933,6.77799 40.44243,5.53643 38.96388,23.09714 z"
             id="path2197"
             style="fill:#040404;fill-opacity:1;fill-rule:evenodd;stroke:#000000;stroke-width:1px;stroke-linecap:butt;stroke-linejoin:miter;stroke-opacity:1" />
          <path
             d="m 345.5,387.36219 c 1.41743,-13.95554 11.80723,-25.735 15.07968,-46.49602 8.07677,-1.45127 14.21535,-0.70594 16.92332,3.92743 6.93122,4.14147 16.85411,5.62368 26.95118,6.95106 16.27018,5.98977 6.39334,15.13815 16.04582,22.11753 l -3.5,1.5 c -4.47827,-14.46025 -13.21062,-22.86164 -29.5,-20.5 l -23.5,5.5 c -8.06006,9.20444 -15.15814,18.4595 -16.48845,28.01814 -1.38784,0.45345 -1.99433,-0.13994 -2.01155,-1.01814 z"
             id="path2203"
             style="fill:#080808;fill-opacity:1;fill-rule:evenodd;stroke:#000000;stroke-width:1px;stroke-linecap:butt;stroke-linejoin:miter;stroke-opacity:1" />
          <path
             d="m 361.68089,359.0454 c 0.6466,18.01235 8.75646,32.78468 21.7191,37.49594 6.16695,-1.13008 14.7731,-6.05833 27.34172,-15.81791 -8.97432,-7.16096 -27.17899,-33.25985 -47.53955,-21.29772"
             id="path2205"
             style="fill:none;stroke:#000000;stroke-width:3.89763784;stroke-linecap:butt;stroke-linejoin:miter;stroke-miterlimit:4;stroke-opacity:1;stroke-dasharray:none" />
          <path
             d="m 363.96279,367.79267 c 28.01664,14.83234 28.27018,20.54342 39.5529,17.11424 l -13.69139,8.74728 c 6.89259,-6.51511 -11.45515,-11.60173 -26.62214,-22.05835 l 0.76063,-3.80317 z"
             id="path2207"
             style="fill:#000000;fill-opacity:1;fill-rule:evenodd;stroke:#000000;stroke-width:1px;stroke-linecap:butt;stroke-linejoin:miter;stroke-opacity:1" />
          <path
             d="m 304.63343,358.66508 c 7.28513,0.37519 28.7764,2.73723 36.89069,-3.42285 l -5.70474,6.8457 -28.90405,0.38031 -2.2819,-3.80316 z"
             id="path2209"
             style="fill:#000000;fill-opacity:1;fill-rule:evenodd;stroke:#000000;stroke-width:1px;stroke-linecap:butt;stroke-linejoin:miter;stroke-opacity:1" />
        </g>
        <path
           d="m -273.8256,387.82887 c -7.37196,11.85762 -25.26843,-8.14689 -36.13327,-1.46668 -9.84684,6.59435 -4.01992,16.97788 6,18 3.95746,1.68968 8.30217,2.41124 13.5,1 4.55646,1.55917 9.05592,2.89033 13,1.99999 3.98551,-0.78053 7.29668,-3.39477 6.93337,-9.76665 -2.91104,-2.53115 -3.29297,-4.6842 -3.3001,-9.76666 z"
           id="path2221"
           style="fill:#fbfbfb;fill-opacity:1;fill-rule:evenodd;stroke:none" />
        <path
           d="m -299.74716,375.67174 c 1.81626,8.64623 -4.30553,9.09025 -4.20015,18.43398 -2.57809,16.66756 18.72183,1.57846 15.40054,11.43373 -5.65843,0.13757 -11.05609,1.9702 -17.50433,-3.026 -1.17217,-6.03156 -1.14195,-12.50036 0.004,-19.37478 2.90662,-2.00505 4.35416,-4.88554 6.30022,-7.46693 z"
           id="path2219"
           style="fill:#4f4f4f;fill-opacity:1;fill-rule:evenodd;stroke:#4f4f4f;stroke-width:1px;stroke-linecap:butt;stroke-linejoin:miter;stroke-opacity:1" />
        <path
           d="m -286.45887,352.86219 c -7.44835,11.23553 -11.63516,26.81979 -22.5,33.5 -9.84684,6.59435 -4.01992,16.97788 6,18 3.95746,1.68968 8.30217,2.41124 13.5,1 4.55646,1.55917 9.05592,2.89033 13,1.99999 3.98551,-0.78053 7.29668,-3.39477 6.93337,-9.76665 -1.44303,-3.75449 -3.48077,-5.99882 -3.3001,-9.76666"
           id="path2201"
           style="fill:none;stroke:#000000;stroke-width:3.54375005;stroke-linecap:round;stroke-linejoin:miter;stroke-miterlimit:4;stroke-opacity:1;stroke-dasharray:none" />
        <g
           transform="translate(-624.7934,0)"
           id="g2245">
          <path
             d="m 302.03285,443.85482 c -1.12198,21.79234 19.40765,37.95778 43.42956,14.31201 6.07268,-17.84355 -30.88804,-31.01827 -43.42956,-14.31201 z"
             id="path2241"
             style="fill:#fbfbfb;fill-opacity:1;fill-rule:evenodd;stroke:#000000;stroke-width:4.25196838;stroke-linecap:butt;stroke-linejoin:miter;stroke-miterlimit:4;stroke-opacity:1;stroke-dasharray:none" />
          <path
             d="m 302.52637,453.72517 c 19.22338,-5.35781 27.70783,0.73398 36.52031,8.3898 -2.66542,3.09229 -3.6254,5.42242 -8.88332,5.92221 16.94411,-5.63227 -25.82742,-24.30098 -20.23422,-3.94814 l -7.40277,-10.36387 z"
             id="path2243"
             style="fill:#0d0d0d;fill-opacity:1;fill-rule:evenodd;stroke:none" />
        </g>
        <path
           d="m -322.0737,435.52254 c 5.67041,-11.29582 10.09519,-23.22264 23.61366,-20.2297 0.58438,-3.52768 1.54802,-6.29722 5.68616,-6.19179 4.36352,0.11117 4.33615,2.17659 4.04056,8.63879 22.38145,5.04279 6.13071,18.03729 15.55768,24.84047 -1.16141,4.69932 -4.27845,6.46519 -9.46657,5.12444 -7.62847,-7.98374 -17.6919,-23.33238 -30.59212,-9.72966 0.92096,-12.46528 14.31837,-12.52921 27.65916,-2.98851 0.0672,-6.5244 1.04614,-6.53441 -11.83549,-6.81323 0.87735,-5.67967 -2.21418,-2.54665 -10.43716,-2.96343 -2.72759,2.6925 -6.60285,6.51513 -11.34104,12.34299 -1.76973,0.4452 -1.56541,-0.22404 -2.88484,-2.03037 z"
           id="path2249"
           style="fill:#ffffff;fill-opacity:1;fill-rule:evenodd;stroke:#000000;stroke-width:1px;stroke-linecap:butt;stroke-linejoin:miter;stroke-opacity:1" />
      </g>
    </g>
    <path
       d="m -694.66597,63.186741 a 2.5326364,2.1708312 0 1 1 -5.06527,0 2.5326364,2.1708312 0 1 1 5.06527,0 z"
       transform="matrix(0.69815618,0,0,0.59205811,687.45799,41.631017)"
       id="path1409"
       style="fill:none;stroke:#000000;stroke-width:5.31496048;stroke-linecap:round;stroke-linejoin:miter;stroke-miterlimit:4;stroke-opacity:1;stroke-dasharray:none;stroke-dashoffset:0" />
  </g>
</svg>
