<?xml version="1.0" encoding="UTF-8" standalone="no"?>
<svg
   xmlns:dc="http://purl.org/dc/elements/1.1/"
   xmlns:cc="http://creativecommons.org/ns#"
   xmlns:rdf="http://www.w3.org/1999/02/22-rdf-syntax-ns#"
   xmlns:svg="http://www.w3.org/2000/svg"
   xmlns="http://www.w3.org/2000/svg"
   xmlns:sodipodi="http://sodipodi.sourceforge.net/DTD/sodipodi-0.dtd"
   xmlns:inkscape="http://www.inkscape.org/namespaces/inkscape"
   viewBox="0 0 599.99998 527.40564"
   version="1.1"
   id="svg6"
   sodipodi:docname="Paris logo 2019.svg"
   width="600"
   height="527.40564"
   inkscape:version="0.91 r13725">
  <metadata
     id="metadata12">
    <rdf:RDF>
      <cc:Work
         rdf:about="">
        <dc:format>image/svg+xml</dc:format>
        <dc:type
           rdf:resource="http://purl.org/dc/dcmitype/StillImage" />
        <dc:title>logo-paris</dc:title>
      </cc:Work>
    </rdf:RDF>
  </metadata>
  <defs
     id="defs10" />
  <sodipodi:namedview
     pagecolor="#ffffff"
     bordercolor="#666666"
     borderopacity="1"
     objecttolerance="10"
     gridtolerance="10"
     guidetolerance="10"
     inkscape:pageopacity="0"
     inkscape:pageshadow="2"
     inkscape:window-width="1366"
     inkscape:window-height="705"
     id="namedview8"
     showgrid="false"
     fit-margin-top="0"
     fit-margin-left="0"
     fit-margin-right="0"
     fit-margin-bottom="0"
     inkscape:zoom="0.47990354"
     inkscape:cx="368.21696"
     inkscape:cy="526.61287"
     inkscape:current-layer="svg6"
     inkscape:window-x="-8"
     inkscape:window-y="-8"
     inkscape:window-maximized="1" />
  <title
     id="title2">logo-paris</title>
  <path
     d="m 56.406169,375.33987 -56.406169,0 0,149.09701 34.140576,0 0,-46.84021 22.430518,0 c 29.357594,0 52.117986,-22.76039 52.117986,-51.12839 0,-28.36802 -22.776897,-51.12841 -52.282911,-51.12841 z m 0,70.26032 -22.430519,0 0,-38.26383 22.430519,0 c 10.555537,0 18.142334,8.24652 18.142334,19.13192 0,10.88539 -7.586797,19.13191 -18.142334,19.13191 z m 364.166101,-70.26032 34.1406,0 0,149.09701 -34.1406,0 z m -35.95479,51.12841 c 0.0916,-28.2753 -22.85308,-51.22005 -51.12839,-51.12841 l -59.55634,0 0,149.09701 34.14057,0 0,-46.84021 17.31769,0 26.88363,46.84021 36.61454,0 -31.33676,-53.9322 c 16.50952,-7.75173 27.06506,-25.72914 27.06506,-44.0364 z m -50.96347,21.44093 -25.5642,0 0,-40.57285 25.5642,0 c 9.40102,0 16.98782,8.74131 16.98782,20.28642 0,11.54513 -7.5868,20.28643 -16.98782,20.28643 z m -174.82611,-72.56934 -50.63362,149.09701 37.27424,0 8.24652,-26.22391 c 17.54099,4.39813 35.89644,4.39813 53.43743,0 l 8.41147,26.22391 37.27422,0 -50.6336,-149.09701 z m 21.60585,96.3193 c -5.95036,0.0493 -11.8821,-0.67131 -17.64754,-2.14409 l 17.64754,-55.25165 17.63105,55.25165 c -5.77491,1.39087 -11.6911,2.11034 -17.63105,2.14409 z M 557.7943,437.18875 c -23.09024,-6.92708 -32.49126,-10.88541 -32.49126,-20.28643 0,-7.092 6.76215,-11.21526 15.99824,-11.21526 14.84374,0 20.94615,7.91665 26.059,15.33852 l 28.368,-15.00867 c -4.78296,-9.40102 -18.63711,-33.64578 -54.427,-33.64578 -25.23433,0 -49.97387,15.99824 -49.97387,45.35584 0,35.13015 33.48085,41.72737 43.87146,45.35583 10.39059,3.62847 30.84197,6.26736 30.84197,18.96699 0,8.90624 -9.23609,12.20485 -21.27602,12.20485 -13.35936,0 -24.07982,-7.42187 -30.67704,-18.80206 l -29.04421,15.17357 c 2.1441,6.26736 19.13191,36.77947 59.53984,36.77947 31.83153,0 55.41657,-16.82289 55.41657,-45.85063 0.0171,-22.9253 -12.5182,-35.62493 -42.20566,-44.36624 z"
     id="path4"
     inkscape:connector-curvature="0"
     style="fill:#002542;stroke-width:1.80601799"
     sodipodi:nodetypes="sccccssssccsssccccccccccccccccsccssscccccccccccccccssccsssssccscc" />
  <path
     d="m 483.70254,203.85055 c -1.4107,0 -2.35119,1.1756 -3.997,4.46725 C 445.8485,282.61515 383.30706,318.118 317.23887,318.58822 185.33755,319.52871 154.30194,211.1392 153.59659,208.08267 l 67.2438,12.46126 c 0.23511,0.70535 26.09812,59.95514 94.04729,59.95514 71.94617,0 121.79122,-71.71105 121.79122,-145.77328 0,-66.77357 -28.2142,-104.86272 -68.88965,-134.72274035 L 184.63219,84.64561 c -1.67897,0.75828 -1.34876,3.2349 0.47025,3.52678 101.33593,23.51182 118.73469,96.39845 113.7972,137.77927 -0.70535,6.11306 3.29165,5.17258 7.28866,-6.34819 13.87198,-41.14569 3.99702,-100.86571 -51.02065,-134.48762 0,0 101.80616,-51.02064 101.80616,-50.78553 12.22617,9.40473 52.19626,36.44331 52.19626,100.63058 0,64.18728 -37.14869,122.49659 -94.28239,122.49659 -56.66349,0 -76.41342,-57.83907 -76.88366,-58.77953 L 116.91814,172.3447 c -1.91528,-0.45508 -3.71565,1.09489 -3.55027,3.05654 10.5803,92.40144 84.40743,167.8744 191.62135,167.8744 88.87464,0 149.30002,-48.90459 174.92792,-117.79422 5.90148,-15.98803 5.66635,-21.63087 3.7854,-21.63087 z"
     id="path4-0"
     inkscape:connector-curvature="0"
     style="fill:#002542;stroke-width:1.80601799"
     sodipodi:nodetypes="accccsscccccccsscccsca" />
</svg>
