<?xml version="1.0" encoding="UTF-8"?>
<svg id="Calque_1" data-name="Calque 1" xmlns="http://www.w3.org/2000/svg" viewBox="0 0 899.29 200">
  <defs>
    <style>
      .cls-1 {
        fill: #fff;
      }
    </style>
  </defs>
  <polygon class="cls-1" points="251.16 192.78 274.28 192.78 274.28 198.51 244.23 198.51 244.23 156.69 251.16 156.69 251.16 192.78"/>
  <g>
    <path class="cls-1" d="m311.74,197.98c-1.2.78-3.47,1.13-4.9,1.13-4.96,0-8.48-3.58-8.48-7.59v-.84c-2.33,5.44-6.57,8.42-11.17,8.42-5.68,0-9.44-3.29-9.44-8.24s3.76-8.72,9.62-8.72c3.52,0,7.53,1.31,10.99,4.36v-8.01c0-4.66-2.57-7.23-6.87-7.23-4.66,0-7.59,3.17-8.24,8.6l-5.5-2.57c1.02-6.39,6.09-10.81,13.98-10.81s13.32,4.42,13.32,11.95v12.25c0,2.03,1.02,3.23,2.75,3.23,1.19,0,2.45-.72,3.11-1.49l.84,5.56Zm-13.38-9.38v-.72c-2.75-1.85-5.68-2.69-8.12-2.69-3.7,0-5.74,2.03-5.74,4.72s2.21,4.42,5.5,4.42c3.11,0,6.33-2.09,8.36-5.74"/>
    <path class="cls-1" d="m343.58,177.9v20.61h-6.75v-20.01c0-4.06-2.03-6.51-5.56-6.51-3.82,0-7.05,2.87-8.78,7.59v18.94h-6.75v-31.42h4.42l2.03,10.33c1.25-6.45,5.2-10.93,11.35-10.93,5.44,0,10.04,3.82,10.04,11.41"/>
    <path class="cls-1" d="m373.63,156.69h6.69v41.82h-4.36l-2.09-8.18c-1.85,5.68-5.74,8.78-10.99,8.78-7.53,0-12.55-5.97-12.55-16.25s5.02-16.31,12.55-16.31c5.02,0,8.78,2.87,10.75,8.07v-17.92Zm0,31.36v-10.51c-1.97-3.7-5.02-5.8-8.54-5.8-5.08,0-8.01,4-8.01,11.11s2.93,11.05,8.01,11.05c3.52,0,6.57-2.09,8.54-5.85"/>
    <path class="cls-1" d="m402.3,182.86c0-9.86,6.21-16.37,15.53-16.37s15.41,6.51,15.41,16.37-6.21,16.25-15.41,16.25-15.53-6.51-15.53-16.25m24.2,0c0-6.75-3.35-11.17-8.66-11.17s-8.78,4.24-8.78,11.17,3.4,11.05,8.78,11.05,8.66-4.24,8.66-11.05"/>
    <path class="cls-1" d="m460.19,167.09v4.9h-10.04v26.53h-6.75v-26.53h-8.96v-4.9h9.62c-2.39-2.15-3.82-4.78-3.82-7.23,0-4.36,3.35-7.47,8.9-7.47,2.81,0,6.39,1.19,8.9,3.11l.6,5.62c-2.15-2.45-4.66-3.64-7.11-3.64-2.69,0-4.42,1.61-4.42,4.18,0,1.43.54,3.29,2.27,5.44h10.81Z"/>
    <polygon class="cls-1" points="498.78 167.09 506.01 167.09 495.43 198.51 485.94 198.51 475.48 167.09 482.71 167.09 490.77 193.97 498.78 167.09"/>
    <path class="cls-1" d="m542.33,197.98c-1.19.78-3.47,1.13-4.9,1.13-4.96,0-8.48-3.58-8.48-7.59v-.84c-2.33,5.44-6.57,8.42-11.17,8.42-5.68,0-9.44-3.29-9.44-8.24s3.76-8.72,9.62-8.72c3.52,0,7.53,1.31,10.99,4.36v-8.01c0-4.66-2.57-7.23-6.87-7.23-4.66,0-7.59,3.17-8.24,8.6l-5.5-2.57c1.02-6.39,6.09-10.81,13.98-10.81s13.32,4.42,13.32,11.95v12.25c0,2.03,1.02,3.23,2.75,3.23,1.19,0,2.45-.72,3.11-1.49l.84,5.56Zm-13.38-9.38v-.72c-2.75-1.85-5.68-2.69-8.13-2.69-3.7,0-5.74,2.03-5.74,4.72s2.21,4.42,5.5,4.42c3.11,0,6.33-2.09,8.36-5.74"/>
    <rect class="cls-1" x="546.33" y="156.69" width="6.75" height="41.82"/>
    <path class="cls-1" d="m582.59,167.09h6.75v31.42h-4.42l-2.09-9.68c-1.49,6.15-5.38,10.28-11.29,10.28-5.5,0-10.04-3.82-10.04-11.35v-20.67h6.69v20.07c0,4.18,2.09,6.51,5.62,6.51,3.82,0,7.05-2.81,8.78-7.71v-18.88Z"/>
    <path class="cls-1" d="m625.55,189.79c-1.55,5.91-6.69,9.32-13.86,9.32-9.62,0-15.29-6.27-15.29-16.25,0-10.51,5.97-16.37,14.76-16.37,10.69,0,14.28,7.17,14.28,17.98h-22.4c.42,6.39,3.41,9.86,8.72,9.86,4.54,0,6.87-2.27,7.83-6.27l5.97,1.73Zm-22.58-7.05v.3l15.95-2.63c-.3-5.38-2.21-9.14-7.53-9.14s-8.42,3.34-8.42,11.47"/>
    <path class="cls-1" d="m629.91,188.6l5.2-3.05c1.25,5.74,5.2,8.96,10.39,8.96,3.46,0,5.44-1.55,5.44-3.76,0-6.51-19.71-2.87-19.71-14.99,0-5.62,4.66-9.26,11.59-9.26s12.72,3.76,14.16,10.57l-5.14,2.69c-.48-5.32-3.94-8.72-9.2-8.72-3.29,0-5.44,1.37-5.44,3.82,0,7.59,19.77,4.06,19.77,15.11,0,5.56-4.72,9.14-12.01,9.14s-13.2-3.46-15.05-10.51"/>
    <polygon class="cls-1" points="89.59 22.74 25.56 22.74 25.56 57.78 84.71 57.78 84.71 78.34 25.56 78.34 25.56 120.12 .8 120.12 .8 2.18 89.59 2.18 89.59 22.74"/>
    <path class="cls-1" d="m212.39,120.12h-28.82c-4.38-32.01-7.92-39.26-25.94-39.26h-24.94v39.26h-24.76V2.18h63.68c25.95,0,41.28,13.99,41.28,37.4,0,20.39-12.81,34.2-34.87,38.41,22.58,2.19,28.14,11.12,34.37,42.12m-79.7-59.98h31.51c14.15,0,23.75-7.75,23.75-19.21s-7.58-18.2-21.57-18.2h-33.7v37.4Z"/>
    <path class="cls-1" d="m400.17,61.82c0-36.73,24.26-61.32,60.32-61.32s60.32,24.6,60.32,61.32-24.26,59.98-60.32,59.98-60.32-23.93-60.32-59.98m96.04,0c0-25.27-13.48-40.77-35.72-40.77s-35.72,15.5-35.72,40.77,13.48,39.43,35.72,39.43,35.72-14.99,35.72-39.43"/>
    <path class="cls-1" d="m539.15,75.3V2.18h24.77v72.28c0,18.7,9.1,26.79,26.62,26.79s26.62-8.09,26.62-26.79V2.18h24.77v73.12c0,30.83-18.87,46.51-51.39,46.51s-51.39-15.67-51.39-46.51"/>
    <path class="cls-1" d="m764.72,120.12h-28.81c-4.38-32.01-7.92-39.26-25.95-39.26h-24.93v39.26h-24.77V2.18h63.69c25.95,0,41.28,13.99,41.28,37.4,0,20.39-12.8,34.2-34.88,38.41,22.58,2.19,28.14,11.12,34.37,42.12m-79.69-59.98h31.51c14.15,0,23.76-7.75,23.76-19.21s-7.58-18.2-21.57-18.2h-33.7v37.4Z"/>
    <path class="cls-1" d="m822.57,59.81h75.14v60.32h-15.84l-5.9-35.55c-4.55,22.75-21.73,37.24-44.14,37.24-30.66,0-53.58-24.94-53.58-59.14,0-37.91,23.75-62.17,60.32-62.17,28.47,0,50.21,14.15,57.45,38.75l-24.26,12.81c-3.88-21.4-16.85-31-33.36-31-21.73,0-35.55,15.84-35.55,40.44s13.98,39.76,36.06,39.76c17.52,0,30.49-8.76,33.86-22.58h-50.21v-18.87Z"/>
    <rect class="cls-1" x="231.23" y="2.29" width="24.82" height="117.83"/>
    <path class="cls-1" d="m350.16,61.18l-.35-.03.35-.03c26.19-4.3,31.68-17.82,31.68-28.4,0-9.03-3.4-17.25-9.56-23.15-6.68-6.39-15.96-9.51-26.83-9.03-6.48.29-16.3,1.92-25.72,11.19l-50.02,49.42,50.02,49.42c9.42,9.27,19.23,10.9,25.72,11.19,10.87.48,20.15-2.64,26.83-9.03,6.17-5.9,9.56-14.12,9.56-23.15,0-10.58-5.5-24.1-31.68-28.4"/>
  </g>
</svg>