<?xml version="1.0" encoding="UTF-8"?><svg id="Layer_1" xmlns="http://www.w3.org/2000/svg" viewBox="0 0 720 1440.2"><defs><style>.cls-1{fill:#fff;}.cls-2{fill:#ffc837;}.cls-3{fill:#e62314;}</style></defs><g id="pionowy"><g><path class="cls-3" d="M360,1260.2c18.6-52.4,68.6-90,127.4-90h142.6c49.6,0,90-40.2,90-90V360.2H0v720c0,49.8,40.2,90,90,90H232.6c58.8,0,108.8,37.6,127.4,90h0Z"/><g><path class="cls-2" d="M517.6,90.2c-15,0-29.2,4-41.2,11.2-12.2-7-26.2-11.2-41.2-11.2-16.6,0-32.2,5-45,13.4-.8-15.8-13.8-28.4-30-28.4s-29.2,12.6-30,28.4c-13-8.4-28.4-13.4-45-13.4-15,0-29.2,4-41.2,11.2-12.2-7-26.2-11.2-41.2-11.2-45.6,0-82.4,37-82.4,82.4s37,82.4,82.4,82.4l18,45H499.4l18.4-45c45.6,0,82.4-37,82.4-82.4s-37.2-82.4-82.6-82.4m-91.8,11.2c27,0,48.8,21.8,48.8,48.8s-21.8,48.8-48.8,48.8-48.8-21.8-48.8-48.8c.2-27,22-48.8,48.8-48.8m-131.6,0c27,0,48.8,21.8,48.8,48.8s-21.8,48.8-48.8,48.8-48.8-21.8-48.8-48.8,21.8-48.8,48.8-48.8m-131.4,48.8c0-27,21.8-48.8,48.8-48.8,8.4,0,16.4,2.2,23.2,5.8-19.6,15-32.4,38.8-32.4,65.4,0,9,1.6,17.8,4.2,26-24.4-2.4-43.8-23.2-43.8-48.4m350.4,48.6c2.8-8.2,4.2-17,4.2-26,0-26.6-12.8-50.4-32.4-65.4,6.8-3.8,14.8-5.8,23.2-5.8,27,0,48.8,21.8,48.8,48.8,.2,25-19.2,45.8-43.8,48.4"/><path class="cls-2" d="M352.2,43.8l-9.6,16.4h34.6l-9.4-16.4c2.4-1.4,4.4-3.4,5.8-5.8l16.4,9.4V12.8l-16.4,9.4c-1.4-2.4-3.4-4.4-5.8-5.8L377.2,0h-34.6l9.4,16.4c-2.4,1.4-4.4,3.4-5.8,5.8l-16.4-9.4V47.4l16.4-9.4c1.6,2.4,3.6,4.4,6,5.8"/></g><g><path class="cls-1" d="M393.6,649c.4-1,1-2,1.4-3,5.6-10.8,13-20.4,21.6-28.8-11.4-4.8-57.8-24.2-63.8-26.8-14.2-6.2-4.2-36.2-2.8-46.2-31.6-4.6-32-55-48.6-61.6h0c-7.4,4-9.6,9.8-11,19.4-.6,4.4,1,5.2-2.6,9.6-1.8,2.2-9,6.6-9.2,8.6-.6,3.6,5.8,5.2,7,5.4,0,1.6-1.6,4-1.6,7s1.6,4.2,1.4,6c-.4,3.2-3,6.6-1,9.2,1,1.4,3.6,2.6,6.8,3.4,9.2,2,19.8,0,28.8-1.8,.2,0,.4,0,.6,.4-1.6,2.4-4.6,4-7,5.6-1.8,1-3.6,1.8-5.4,2.6,1,7.8-2,25.2-5.2,24.8-35-4.4-49.4-20.2-101.6-36.6,2.6-25.8,14.2-72.8,18-87.2-3.2-1-6.4-2.2-9-4h.2c4,1,9.2,.2,11.6,0,4.4-.6,12.4-2.4,14.2-4,.8-.6,2.8-5.6,4.4-11.4l12.2-.2v4.8l2.4,19.2h13.8v-20.8c3.6-.2,42-1.8,91-1.8,118,0,164.8,32.4,193,62.2v-7.4c-18.8-39.4-76-75.2-193-75.2h-80.4c-4,6.8-8.4,16.4-10.8,21.4v-42.2h-13.8l-2.4,18.4v5.6l-10-.2c.2-2.4,.2-4.2,.2-4.8-3-1.2-6.6,1.8-7.4,4.4-.6,1.8-5.2,16.2-5.2,16.2h-12.2c.6-.4,1-1,1.2-1.8l.4-1.4c.2,.2,.4,.4,.6,.4,1.8,.6,3.8-.4,4.4-2.2,0,0,2.4-7.2,3-9,.6-2,2-2,3.2-2h4.4c0-3-5.2-8.6-5.2-8.6-1.8-1.8-4.6-1.8-6.2,0-.2,.2-.4,.4-.4,.8-1-1.2-2-2.2-2-2.2-1.8-1.8-4.6-1.8-6.4,0-.4,.4-.8,1-1,1.4-.8-1-2-1.8-3.4-1.8-2.4,0-4.4,2-4.4,4.4v.2c-.6-.4-1.4-.6-2.2-.6-2.2,.2-4,2-3.8,4.4l.2,1.6-20.6-.4v18.4l14.8-.2c-.4,2.2-.6,5.2-.4,6.6,.4,2.4,1.6,3.6,2.2,5,.4,16.4-35,91.2-28,108.8,7.8,19.4,92.2,43,85.4,60-6,15.2-17,26.6-15,34.4,1.8,7.6,6,13.8,11.8,16.8h0c3,1.8,6.2,3,9.2,3.8,.4,.2,.4-.2,.6,.6,0,.6-.2,.4-1,.8-3,.6-6,.8-9,.4v46.4h-.2c-19.8,19.8-36,41.2-48,65,38.8,38,98.6,50,150.6,26.2-1-27.4-7-46.2-17.2-71.4,0,0,41-85.8,46-91,3.6-4.6,8.2-4.8,11.8-4m-98,31.4l1.2-.8c5,7,13,11.6,22.2,11.6,13,0,23.8-9.2,26.6-21.4,.6,0,1.6,.2,1.6,.2,5.4,32.8-33.6,49.4-51.6,10.4"/><path class="cls-2" d="M383.2,520c3.8,4.2,11.4,5,21,2.6h0c-5.2,8.2-12.8,13.6-21,17.2-12.2,4.2-23.4,5-33.4,4.2-31.6-4.6-32-55-48.6-61.6-4.2-4,4.4-9.4,10.2-11.4,13.4-4.8,30.2-2,44.8,6.6,18.4,11,22,25,56.4,23-.2,13.4-22,20.8-29.4,19.4"/><path class="cls-2" d="M419.2,614.6c-9.8,8.8-18,19.4-24,31.4-8.2,15.4-12.6,33.2-12.6,51.8,0,62.2,50.4,112.6,112.4,112.6s112.6-50.4,112.6-112.6-50.4-112.4-112.6-112.4c-29.2-.2-55.8,11-75.8,29.2"/><path class="cls-2" d="M459.4,897c-25.8-16.2-60-8-76.6,18.4,35.2,0,63.8,28.6,63.8,63.8s-28.6,63.8-63.8,63.8-63.8-28.6-63.8-63.8c0-57.8,34-104.2,34-156.6,0-2.8-.2-5.4-.2-7.8-52,23.8-111.8,11.8-150.6-26.2-14.4,28.6-22.4,60.6-22.4,96.8h0c0,138.6,80.8,225,180.2,225h0c74.6,0,139-55.2,139-138,0-70.2,11.2-95.6,29.2-113.4-30-8.6-60.8,8.6-68.8,38"/></g></g><g><path d="M137.8,1340.8c1.8,0,2.4,1.2,1.8,3l-34,94.2c-.4,1-1.4,1.8-2.8,1.8h-3.8c-1.4,0-2.4-.6-2.8-1.8l-26.2-66.6-26.2,66.6c-.4,1.2-1.6,1.8-2.8,1.8h-3.8c-1.4,0-2.4-.8-2.8-1.8L.4,1343.8c-.6-1.8,0-3,1.8-3H15.8c1.4,0,2.4,.6,2.8,1.8l21.6,65,25.4-65c.4-1,1.4-1.8,2.8-1.8h3.2c1.4,0,2.4,.8,2.8,1.8l25.4,65,21.6-65c.4-1.4,1.4-1.8,2.8-1.8h13.6Z"/><path d="M145.6,1403.2c0-22.2,17-37,35.4-37,11,0,19,4.8,23.8,12.6v-8.6c0-1.4,1-2.4,2.4-2.4h10.4c1.4,0,2.4,1,2.4,2.4v66c0,1.4-1,2.4-2.4,2.4h-10.4c-1.4,0-2.4-1-2.4-2.4v-8.8c-5,8-12.8,12.6-23.8,12.6-18.4,.2-35.4-14.6-35.4-36.8Zm16.8,0c0,14.4,10,22.8,21.2,22.8,12.2,0,21.2-9.2,21.2-22.8s-9-22.8-21.2-22.8c-11.2,.2-21.2,8.6-21.2,22.8h0Z"/><path d="M280.6,1366.4c2,0,2.6,.6,2.6,2.4v13.8c0,1.4-.6,2.6-2.8,2-9.2-2.2-22,4.8-22,22.8v28.8c0,1.4-1,2.4-2.4,2.4h-11.2c-1.4,0-2.4-1-2.4-2.4v-66c0-1.4,1-2.4,2.4-2.4h10.4c1.4,0,2.4,1,2.4,2.4v14.8c6.8-13.6,16.8-18.6,23-18.6h0Z"/><path d="M351.2,1418.2c0,14.4-14.2,22-31.4,22-10.4,0-19.2-2.6-27.6-7.8-1.2-.8-1.8-1.8-1.2-3.4l3.8-8.2c.6-1.4,1.8-2.2,3.4-1.2,6.4,3.6,12.6,7.4,22,7.4,8.6,0,14.2-2.2,14.2-6.8,0-14-40.6-4.2-40.6-31.4,0-13.8,11.2-22.4,30.2-22.4,9.6,0,16.6,2.2,23.4,5.8,1.2,.6,1.8,1.8,1.2,3.4l-3.8,8.2c-.6,1.2-1.4,2-3,1-4.4-2.6-10.2-5.2-17.4-5.2-9.8,0-14.4,3-14.4,7.8-.2,14.2,41.2,3.8,41.2,30.8Z"/><path d="M361,1436.2v-.8c0-1.2,.4-1.8,1-2.6l39.8-51h-35.6c-1.4,0-2.4-1-2.4-2.4v-9.2c0-1.4,1-2.4,2.4-2.4h59.8c1.4,0,2.4,1.2,2.4,2.4v.8c0,.8-.2,1.4-1,2.2l-39.8,51.2h38.4c1.4,0,2.4,1,2.4,2.4v9.2c0,1.4-1,2.4-2.4,2.4h-62.4c-1.6,.4-2.6-.6-2.6-2.2Z"/><path d="M438.6,1403.2c0-22.2,17-37,35.4-37,11,0,19,4.8,23.8,12.6v-8.6c0-1.4,1-2.4,2.4-2.4h10.4c1.4,0,2.4,1,2.4,2.4v66c0,1.4-1,2.4-2.4,2.4h-10.4c-1.4,0-2.4-1-2.4-2.4v-8.8c-5,8-12.8,12.6-23.8,12.6-18.2,.2-35.4-14.6-35.4-36.8Zm17,0c0,14.4,10,22.8,21.2,22.8,12.2,0,21.2-9.2,21.2-22.8s-9-22.8-21.2-22.8c-11.2,.2-21.2,8.6-21.2,22.8h0Z"/><path d="M583.6,1367.8c.8,0,1.4,.4,1.8,1.6l20,41.4,15.4-40.2c.8-2,1.4-2.8,4.2-2.8h10.8c2.2,0,3,1.4,2.2,3.6l-26.8,66.8c-.6,1.6-1.4,2-2.2,2h-2.4c-.8,0-1.6-.6-2.2-1.8l-22.2-45.6-22.4,45.4c-.6,1.4-1.4,1.8-2.2,1.8h-2.4c-.8,0-1.6-.4-2.2-2l-26.8-66.8c-.8-2.2,0-3.6,2.2-3.6h10.8c2.8,0,3.4,.6,4.2,2.8l15.4,40.2,20-41.4c.6-1.2,1-1.6,1.8-1.6h3v.2Z"/><path d="M645.2,1403.2c0-22.2,17-37,35.4-37,11,0,19,4.8,23.8,12.6v-8.6c0-1.4,1-2.4,2.4-2.4h10.4c1.4,0,2.4,1,2.4,2.4v66c0,1.4-1,2.4-2.4,2.4h-10.4c-1.4,0-2.4-1-2.4-2.4v-8.8c-5,8-12.8,12.6-23.8,12.6-18.4,.2-35.4-14.6-35.4-36.8Zm16.8,0c0,14.4,10,22.8,21.2,22.8,12.2,0,21.2-9.2,21.2-22.8s-9-22.8-21.2-22.8c-11.2,.2-21.2,8.6-21.2,22.8h0Z"/></g></g></svg>