<svg xmlns="http://www.w3.org/2000/svg" viewBox="0 0 182.667 84">
<g>
	<path fill="#FFF" d="M54.743,50.502l-5.401-5.301v5.301c0,2.881-1.608,5.532-5.172,5.532c-3.561,0-5.169-2.651-5.169-5.532
		V38.863h21.143V28.492H39V17.429L17.513,38.863h10.227v11.178c0,9.564,6.895,16.248,16.431,16.248
		c9.538,0,15.974-6.684,15.974-16.248v-4.84L54.743,50.502z M42.218,9.593c-18.156,0-32.864,14.75-32.864,32.958
		c0,18.091,14.708,32.958,32.864,32.958c18.155,0,32.863-14.866,32.863-32.958C75.081,24.343,60.373,9.593,42.218,9.593z
		 M42.218,82.769C20.041,82.769,2,64.676,2,42.551C2,20.31,20.041,2.333,42.218,2.333c22.176,0,40.217,17.977,40.217,40.218
		C82.436,64.676,64.395,82.769,42.218,82.769z"/>
	<path fill="#FFF" d="M156.441,57.07h-2.367l2.852,9.58c-0.376,1.436-0.753,1.776-1.507,1.776c-0.232,0-0.467-0.019-0.753-0.091
		l-0.144,1.776c0.358,0.108,0.808,0.161,1.201,0.161c1.794,0,2.781-0.824,3.589-3.497l2.941-9.706h-2.296
		c-1.418,5.795-1.65,6.781-1.759,7.427h-0.035C158.057,63.852,157.877,62.901,156.441,57.07 M148.054,58.649
		c0-0.467-0.036-1.185-0.072-1.579h-2.117c0.073,0.969,0.09,1.884,0.09,2.78v6.441h2.225v-4.574c0-1.741,0.557-3.122,1.65-3.122
		c1.059,0,1.221,1.129,1.221,2.762v4.935h2.224v-5.67c0-2.422-0.771-3.785-2.709-3.785c-1.147,0-2.009,0.682-2.476,1.813H148.054z
		 M144.408,59.008V57.07h-6.046v1.723h3.785c-0.305,0.376-1.31,1.65-3.982,5.597v1.902h6.368v-1.759h-4.053
		C140.856,64.066,141.951,62.614,144.408,59.008z M137.016,57.07c-0.448-0.126-0.951-0.162-1.472-0.162
		c-2.815,0-4.502,1.956-4.502,4.772c0,2.853,1.704,4.754,4.449,4.754c0.628,0,1.112-0.072,1.579-0.197l-0.145-1.722
		c-0.341,0.106-0.7,0.144-1.04,0.144c-1.615,0-2.512-1.256-2.512-3.015c0-1.704,0.896-2.978,2.422-2.978
		c0.395,0,0.718,0.035,1.059,0.144L137.016,57.07z M127.165,55.581h2.368v-2.099h-2.368V55.581z M127.236,66.292h2.226v-9.221
		h-2.226V66.292z M122.903,66.292h2.242V52.729h-2.242V66.292z M117.217,58.487c1.13,0,1.703,1.274,1.703,3.104
		c0,1.813-0.591,3.193-1.703,3.193c-1.185,0-1.776-1.417-1.776-3.14C115.44,59.924,116.051,58.487,117.217,58.487z M115.512,58.309
		c0.036-0.521,0.055-1.382,0.055-2.207v-3.372h-2.242v10.8c0,0.968-0.019,1.99-0.091,2.763h2.153c0.035-0.36,0.054-0.88,0.072-1.292
		h0.035c0.467,1.005,1.22,1.524,2.403,1.524c2.081,0,3.319-2.081,3.319-4.951c0-2.78-1.238-4.736-3.301-4.736
		c-1.077,0-1.865,0.521-2.368,1.472H115.512z M109.137,64.713c0,0.466,0.036,1.201,0.071,1.579h2.1
		c-0.072-0.951-0.09-1.956-0.09-2.854V57.07h-2.225v4.7c0,1.902-0.771,2.906-1.704,2.906c-0.95,0-1.166-1.059-1.166-2.673V57.07
		h-2.225v5.67c0,2.492,0.771,3.784,2.709,3.784c1.184,0,1.991-0.664,2.494-1.812H109.137z M97.236,55.563h0.467
		c1.471,0,2.528,0.521,2.528,2.026c0,1.688-1.166,2.154-2.583,2.154h-0.412V55.563z M94.993,53.77v12.522h2.314v-4.773h0.521
		c2.996,0,4.735-1.434,4.735-3.91c0-3.104-2.081-3.839-5.238-3.839H94.993z"/>
	<path fill="#FFF" d="M161.35,35.232l-2.188,0.753v2.063h-1.453v1.614h1.453v4.646c0,2.045,0.699,3.086,2.763,3.086
		c0.503,0,1.022-0.071,1.417-0.198L163.27,45.6c-0.252,0.091-0.502,0.126-0.771,0.126c-0.915,0-1.148-0.61-1.148-1.739v-4.324h1.884
		v-1.614h-1.884V35.232z M154.265,39.789c0-0.503-0.053-1.382-0.089-1.74h-2.099c0.071,0.789,0.089,1.758,0.089,2.654v6.567h2.226
		v-4.055c0-2.261,0.609-3.355,2.063-3.355c0.197,0,0.359,0,0.556,0.054v-2.045c-0.161-0.054-0.322-0.054-0.448-0.054
		c-1.04,0-1.883,0.789-2.261,1.974H154.265z M146.524,39.519c1.148,0,1.724,1.255,1.724,3.157s-0.558,3.085-1.688,3.085
		c-1.184,0-1.739-1.22-1.739-3.085C144.821,40.757,145.412,39.519,146.524,39.519z M146.561,37.815
		c-2.565,0-4.072,1.956-4.072,4.843c0,2.871,1.49,4.844,4.036,4.844c2.566,0,4.037-1.956,4.037-4.844
		C150.562,39.789,149.108,37.815,146.561,37.815z M137.249,39.537c1.111,0,1.687,1.31,1.687,3.121c0,1.758-0.61,3.157-1.687,3.157
		c-1.148,0-1.794-1.382-1.794-3.103C135.455,40.954,136.118,39.537,137.249,39.537z M135.437,39.412
		c-0.018-0.413-0.035-0.951-0.09-1.363h-2.098c0.071,0.663,0.088,1.847,0.088,2.69v10.333h2.262v-2.835
		c0-0.682-0.019-1.687-0.054-2.171h0.035c0.432,0.916,1.184,1.436,2.332,1.436c2.081,0,3.338-2.117,3.338-4.898
		c0-2.815-1.31-4.789-3.409-4.789c-1.148,0-1.938,0.591-2.368,1.597H135.437z M125.95,47.07c0.808,0.307,1.688,0.432,2.549,0.432
		c1.973,0,3.336-1.04,3.336-2.978c0-1.382-0.718-2.099-2.206-2.745c-1.148-0.484-1.544-0.754-1.544-1.363
		c0-0.683,0.557-0.987,1.257-0.987c0.663,0,1.381,0.161,2.008,0.43l0.145-1.687c-0.574-0.215-1.363-0.358-2.225-0.358
		c-1.866,0-3.301,0.932-3.301,2.781c0,1.237,0.574,1.938,2.099,2.637c1.31,0.592,1.668,0.879,1.668,1.507
		c0,0.682-0.538,1.04-1.381,1.04c-0.771,0-1.579-0.215-2.26-0.591L125.95,47.07z M119.113,39.626c0-0.466-0.037-1.184-0.073-1.578
		h-2.116c0.072,0.968,0.09,1.883,0.09,2.78v6.441h2.225v-4.575c0-1.74,0.556-3.121,1.65-3.121c1.058,0,1.22,1.129,1.22,2.762v4.934
		h2.225V41.6c0-2.422-0.771-3.785-2.709-3.785c-1.148,0-2.009,0.682-2.476,1.812H119.113z M113.055,42.892
		c0,0.717-0.071,1.309-0.251,1.757c-0.27,0.718-0.915,1.256-1.74,1.256c-0.843,0-1.346-0.592-1.346-1.381
		c0-1.112,0.897-1.669,2.602-1.669C112.643,42.855,112.893,42.874,113.055,42.892z M108.642,40.182
		c0.736-0.484,1.668-0.734,2.493-0.734c1.273,0,1.902,0.699,1.902,2.026v0.072c-0.378-0.037-0.844-0.054-1.148-0.054
		c-2.655,0-4.198,1.076-4.198,3.085c0,1.704,1.041,2.853,2.835,2.853c1.31,0,2.188-0.593,2.673-1.598h0.035
		c-0.018,0.252-0.018,0.521-0.018,0.718c0,0.27,0.018,0.574,0.036,0.719h1.884c-0.054-0.701-0.091-1.776-0.091-2.854
		c0-0.538,0.037-1.938,0.037-2.833c0-2.279-0.933-3.768-3.588-3.768c-0.969,0-2.1,0.197-2.942,0.61L108.642,40.182z M104.415,39.789
		c0-0.503-0.054-1.382-0.09-1.74h-2.099c0.071,0.789,0.09,1.758,0.09,2.654v6.567h2.225v-4.055c0-2.261,0.609-3.355,2.063-3.355
		c0.198,0,0.359,0,0.557,0.054v-2.045c-0.162-0.054-0.323-0.054-0.448-0.054c-1.041,0-1.884,0.789-2.261,1.974H104.415z
		 M94.043,34.747v1.848l2.816-0.037V47.27h2.331V36.559l2.8,0.037v-1.848H94.043z"/>
	<path fill="#FFF" d="M176.811,17.044v2.099 M176.811,19.144h2.368v-2.099h-2.368V19.144z M176.884,29.853h2.224v-9.22h-2.224
		V29.853z M173.124,29.853h2.618l-3.408-5.112l3.192-4.108h-2.601l-1.005,1.417c-0.591,0.843-1.166,1.705-1.687,2.565h-0.035v-8.323
		h-2.225v13.562h2.225v-4.7h0.035c0.359,0.664,0.844,1.488,1.221,2.081L173.124,29.853z M160.559,29.656
		c0.807,0.304,1.687,0.43,2.547,0.43c1.974,0,3.338-1.041,3.338-2.978c0-1.381-0.718-2.099-2.207-2.745
		c-1.148-0.484-1.543-0.752-1.543-1.363c0-0.682,0.557-0.987,1.256-0.987c0.664,0,1.382,0.161,2.01,0.431l0.143-1.687
		c-0.574-0.215-1.363-0.359-2.224-0.359c-1.866,0-3.301,0.933-3.301,2.781c0,1.238,0.573,1.937,2.098,2.637
		c1.311,0.592,1.669,0.879,1.669,1.507c0,0.682-0.538,1.041-1.381,1.041c-0.771,0-1.578-0.215-2.261-0.592L160.559,29.656z
		 M146.556,20.632l2.403,9.22h2.638c1.291-5.758,1.471-6.781,1.543-7.373h0.035c0.054,0.592,0.234,1.615,1.544,7.373h2.69
		l2.422-9.22h-2.189c-1.291,5.865-1.452,6.78-1.507,7.355h-0.036c-0.071-0.575-0.215-1.49-1.56-7.355h-2.638
		c-1.328,5.865-1.453,6.709-1.543,7.355h-0.035c-0.072-0.646-0.197-1.49-1.507-7.355H146.556z M143.671,25.476
		c0,0.718-0.071,1.309-0.251,1.758c-0.269,0.717-0.915,1.255-1.74,1.255c-0.843,0-1.345-0.592-1.345-1.381
		c0-1.112,0.896-1.668,2.602-1.668C143.259,25.44,143.51,25.457,143.671,25.476z M139.258,22.767
		c0.736-0.484,1.668-0.735,2.493-0.735c1.274,0,1.902,0.699,1.902,2.027v0.071c-0.377-0.036-0.843-0.053-1.148-0.053
		c-2.655,0-4.198,1.076-4.198,3.085c0,1.704,1.041,2.852,2.835,2.852c1.31,0,2.188-0.592,2.673-1.596h0.036
		c-0.018,0.251-0.018,0.52-0.018,0.718c0,0.269,0.018,0.573,0.035,0.717h1.885c-0.055-0.7-0.091-1.776-0.091-2.852
		c0-0.539,0.036-1.938,0.036-2.834c0-2.279-0.933-3.768-3.588-3.768c-0.969,0-2.099,0.197-2.941,0.61L139.258,22.767z
		 M137.035,22.569v-1.937h-6.046v1.722h3.785c-0.305,0.376-1.31,1.65-3.981,5.597v1.901h6.368v-1.758h-4.054
		C133.483,27.627,134.578,26.175,137.035,22.569z M123.778,29.656c0.808,0.304,1.686,0.43,2.548,0.43
		c1.974,0,3.337-1.041,3.337-2.978c0-1.381-0.718-2.099-2.207-2.745c-1.148-0.484-1.543-0.752-1.543-1.363
		c0-0.682,0.557-0.987,1.256-0.987c0.663,0,1.381,0.161,2.009,0.431l0.144-1.687c-0.573-0.215-1.363-0.359-2.225-0.359
		c-1.865,0-3.301,0.933-3.301,2.781c0,1.238,0.575,1.937,2.1,2.637c1.309,0.592,1.668,0.879,1.668,1.507
		c0,0.682-0.538,1.041-1.381,1.041c-0.772,0-1.579-0.215-2.261-0.592L123.778,29.656z M120.085,22.372
		c0-0.503-0.054-1.381-0.089-1.74h-2.1c0.071,0.789,0.089,1.757,0.089,2.654v6.566h2.226v-4.055c0-2.26,0.609-3.354,2.062-3.354
		c0.199,0,0.36,0,0.557,0.054v-2.044c-0.161-0.055-0.322-0.055-0.448-0.055c-1.04,0-1.883,0.79-2.26,1.974H120.085z M114.027,25.476
		c0,0.718-0.072,1.309-0.252,1.758c-0.27,0.717-0.915,1.255-1.74,1.255c-0.843,0-1.345-0.592-1.345-1.381
		c0-1.112,0.896-1.668,2.602-1.668C113.614,25.44,113.866,25.457,114.027,25.476z M109.614,22.767
		c0.735-0.484,1.668-0.735,2.493-0.735c1.274,0,1.901,0.699,1.901,2.027v0.071c-0.376-0.036-0.843-0.053-1.148-0.053
		c-2.654,0-4.197,1.076-4.197,3.085c0,1.704,1.041,2.852,2.835,2.852c1.31,0,2.188-0.592,2.672-1.596h0.037
		c-0.019,0.251-0.019,0.52-0.019,0.718c0,0.269,0.019,0.573,0.036,0.717h1.884c-0.054-0.7-0.09-1.776-0.09-2.852
		c0-0.539,0.036-1.938,0.036-2.834c0-2.279-0.934-3.768-3.588-3.768c-0.969,0-2.1,0.197-2.942,0.61L109.614,22.767z M103.138,29.853
		h2.799l2.709-12.522h-2.171c-1.525,7.804-1.776,9.563-1.866,10.477h-0.035c-0.091-0.914-0.323-2.672-1.758-10.477h-2.942
		c-1.418,7.822-1.633,9.563-1.723,10.477h-0.036c-0.089-0.914-0.322-2.654-1.865-10.477h-2.351l2.728,12.522h2.834
		c1.525-8.45,1.704-9.849,1.776-10.673h0.036C101.362,20.004,101.559,21.403,103.138,29.853z"/>
</g>
</svg>
