<svg xmlns="http://www.w3.org/2000/svg" viewBox="0 0 360.336 142.016"><g transform="matrix(1,0,0,-1,0,142.016)"><path fill="red" d="M55.2723 88.3866v38.293h-41.101c0 -13.314 1.012 -26.232 2.866 -38.293z"/><path fill="red" d="M55.2723 76.3256h-36.039c6.906 -32.709 20.248 -57.066 36.039 -62.152z"/><path fill="red" d="M67.3338 88.3866v38.293h41.101c0 -13.314 -1.012 -26.232 -2.866 -38.293z"/><path fill="red" d="M67.3338 76.3256h36.039c-6.906 -32.709 -20.248 -57.066 -36.039 -62.152z"/><path fill="#292929" d="M163.719 76.7992c-4.763 0 -8.974 1.071 -12.632 3.214c-3.659 2.143 -6.505 5.131 -8.54 8.962c-2.036 3.832 -3.052 8.281 -3.052 13.346c0 3.853 0.617 7.348 1.851 10.488c1.234 3.138 2.965 5.822 5.196 8.053c2.228 2.229 4.848 3.95 7.857 5.163c3.009 1.211 6.268 1.818 9.775 1.818c2.813 0 5.4 -0.369 7.759 -1.104c2.36 -0.737 4.406 -1.689 6.138 -2.857l-1.364 -8.313h-0.389c-1.387 1.082 -3.01 1.948 -4.871 2.598c-1.862 0.649 -3.941 0.974 -6.234 0.974c-3.075 0 -5.813 -0.661 -8.215 -1.981c-2.404 -1.321 -4.299 -3.226 -5.683 -5.715c-1.387 -2.49 -2.078 -5.531 -2.078 -9.124c0 -3.464 0.659 -6.462 1.98 -8.995c1.32 -2.532 3.192 -4.47 5.618 -5.812c2.424 -1.342 5.26 -2.013 8.508 -2.013c2.293 0 4.513 0.325 6.656 0.974c2.143 0.649 3.971 1.45 5.487 2.403h0.39l-1.428 -8.962c-3.68 -2.078 -7.924 -3.117 -12.729 -3.117"/><path fill="#292929" d="m185.523 110.634h9.091v-32.666h-9.091zm4.545 5.26c-1.732 0 -3.139 0.53 -4.221 1.591c-1.082 1.06 -1.624 2.392 -1.624 3.994c0 1.645 0.542 2.987 1.624 4.026c1.082 1.039 2.489 1.559 4.221 1.559c1.775 0 3.193 -0.52 4.255 -1.559c1.06 -1.039 1.591 -2.381 1.591 -4.026c0 -1.602 -0.531 -2.934 -1.591 -3.994c-1.062 -1.061 -2.48 -1.591 -4.255 -1.591"/><path fill="#292929" d="M220.8357 77.9677h-10.001c-1.56 2.165 -2.74 4.644 -3.54 7.436c-0.801 2.793 -1.201 5.963 -1.201 9.514v8.118h-5.715v7.598h5.715v9.676h8.963v-9.676h7.662l-1.3 -7.598h-6.362v-7.403c0 -3.681 0.507 -6.885 1.524 -9.612c1.018 -2.727 2.436 -5.261 4.255 -7.598z"/><path fill="#292929" d="M229.9764 61.7323v0.454l8.572 15.781c-1.776 2.858 -3.474 6.083 -5.097 9.677c-1.624 3.593 -3.064 7.371 -4.319 11.332c-1.257 3.962 -2.252 7.847 -2.988 11.657h9.353c0.605 -3.724 1.58 -7.718 2.921 -11.982c1.341 -4.265 2.923 -8.41 4.741 -12.436h0.455c1.861 4.113 3.474 8.171 4.838 12.177c1.364 4.004 2.371 8.085 3.02 12.241h8.198c-1.04 -5.629 -1.823 -11.072 -3.88 -16.333c-2.056 -5.26 -4.578 -10.705 -7.565 -16.333l-8.637 -16.235z"/><path fill="#292929" d="M294.9813 85.1117c2.425 0 4.405 0.812 5.942 2.435c1.537 1.624 2.306 3.885 2.306 6.786c0 2.901 -0.769 5.174 -2.306 6.82c-1.537 1.644 -3.517 2.467 -5.942 2.467c-2.382 0 -4.35 -0.823 -5.909 -2.467c-1.558 -1.646 -2.338 -3.919 -2.338 -6.82c0 -2.901 0.78 -5.162 2.338 -6.786c1.559 -1.623 3.527 -2.435 5.909 -2.435m0 -7.923c-3.334 0 -6.321 0.693 -8.961 2.078c-2.642 1.385 -4.72 3.366 -6.234 5.942c-1.517 2.575 -2.275 5.618 -2.275 9.124c0 3.507 0.758 6.548 2.275 9.125c1.514 2.575 3.592 4.567 6.234 5.974c2.64 1.407 5.627 2.111 8.961 2.111c3.334 0 6.321 -0.704 8.962 -2.111c2.641 -1.407 4.719 -3.399 6.235 -5.974c1.515 -2.577 2.273 -5.618 2.273 -9.125c0 -3.506 -0.758 -6.549 -2.273 -9.124c-1.516 -2.576 -3.594 -4.557 -6.235 -5.942c-2.641 -1.385 -5.628 -2.078 -8.962 -2.078"/><path fill="#292929" d="M322.3074 77.9677v25.068h-6.235v7.598h6.235v2.922c0 4.502 1.179 7.923 3.539 10.261c2.359 2.338 5.357 3.507 8.994 3.507c1.429 0 2.695 -0.13 3.799 -0.39c1.105 -0.259 1.303 -0.563 2.126 -0.909l-1.233 -7.403h-0.39c-1.04 0.562 -1.424 0.844 -2.679 0.844c-1.557 0 -2.792 -0.52 -3.7 -1.559c-0.911 -1.039 -1.364 -2.597 -1.364 -4.676v-2.597h8.377l-1.3 -7.598h-7.077v-25.068z"/><path fill="#292929" d="M165.4725 15.9042h-10.456c-1.646 3.203 -3.28 6.764 -4.904 10.683c-1.623 3.918 -3.161 8.02 -4.611 12.306c-1.45 4.286 -2.771 8.615 -3.961 12.989c-1.192 4.372 -2.175 8.615 -2.955 12.728h9.936c1.256 -6.884 2.891 -13.682 4.904 -20.393c2.013 -6.71 4.275 -13.118 6.787 -19.221h0.389c2.51 6.103 4.774 12.511 6.787 19.221c2.013 6.711 3.625 13.509 4.837 20.393h9.678c-0.781 -4.113 -1.765 -8.356 -2.956 -12.728c-1.191 -4.374 -2.512 -8.703 -3.961 -12.989c-1.451 -4.286 -2.987 -8.388 -4.611 -12.306c-1.623 -3.919 -3.259 -7.48 -4.903 -10.683"/><path fill="#292929" d="m186.853 48.569h9.092v-32.665h-9.092zm4.545 5.261c-1.731 0 -3.138 0.529 -4.219 1.591c-1.084 1.06 -1.625 2.391 -1.625 3.994c0 1.644 0.541 2.987 1.625 4.026c1.081 1.039 2.488 1.559 4.219 1.559c1.776 0 3.194 -0.52 4.254 -1.559c1.062 -1.039 1.591 -2.382 1.591 -4.026c0 -1.603 -0.529 -2.934 -1.591 -3.994c-1.06 -1.062 -2.478 -1.591 -4.254 -1.591"/><path fill="#292929" d="M217.6658 42.0751c-2.035 0 -3.714 -0.617 -5.033 -1.851c-1.322 -1.233 -2.134 -3.085 -2.436 -5.551l13.898 1.558c-0.303 2.033 -1.018 3.516 -2.143 4.448c-1.127 0.93 -2.555 1.396 -4.286 1.396m0.52 -26.95c-3.552 0 -6.614 0.692 -9.19 2.078c-2.577 1.385 -4.557 3.354 -5.942 5.909c-1.386 2.555 -2.078 5.541 -2.078 8.962c0 3.594 0.723 6.678 2.175 9.254c1.451 2.576 3.452 4.557 6.006 5.942c2.555 1.386 5.456 2.079 8.703 2.079c4.807 0 8.55 -1.473 11.235 -4.417c2.684 -2.944 4.026 -7.012 4.026 -12.209v-2.012l-22.47 -2.533c0.606 -1.992 1.69 -3.399 3.247 -4.221c1.56 -0.823 3.463 -1.235 5.715 -1.235c2.121 0 4.242 0.282 6.365 0.845c2.121 0.562 3.723 1.19 4.806 1.883h0.454l-1.299 -7.793c-1.212 -0.649 -2.9 -1.234 -5.065 -1.753c-2.166 -0.519 -4.395 -0.779 -6.688 -0.779"/><path fill="#292929" d="M238.657 15.9042v32.665h8.248v-5.519h0.389c0.822 1.904 2.176 3.43 4.059 4.578c1.883 1.146 4.079 1.721 6.591 1.721c3.81 0 6.808 -1.267 8.995 -3.799c2.185 -2.534 3.279 -6.051 3.279 -10.553v-19.093h-9.092v17.924c0 5.107 -2.1 7.663 -6.299 7.663c-2.122 0 -3.832 -0.758 -5.13 -2.274c-1.299 -1.515 -1.949 -3.529 -1.949 -6.039v-17.274z"/><path fill="#292929" d="M277.701 15.9042v32.665h8.248v-5.519h0.39c0.822 1.904 2.175 3.43 4.058 4.578c1.883 1.146 4.081 1.721 6.593 1.721c3.808 0 6.808 -1.267 8.993 -3.799c2.187 -2.534 3.28 -6.051 3.28 -10.553v-19.093h-9.091v17.924c0 5.107 -2.102 7.663 -6.299 7.663c-2.122 0 -3.832 -0.758 -5.132 -2.274c-1.299 -1.515 -1.947 -3.529 -1.947 -6.039v-17.274z"/><path fill="#292929" d="M323.6287 25.6454c0 -0.953 0.313 -1.754 0.942 -2.403c0.626 -0.65 1.657 -0.974 3.084 -0.974c2.252 0 4.125 0.659 5.619 1.981c1.494 1.32 2.24 3.062 2.24 5.227v0.779l-6.884 -0.779c-1.732 -0.173 -2.998 -0.552 -3.8 -1.137c-0.801 -0.584 -1.201 -1.483 -1.201 -2.694m1.104 -10.261c-3.16 0 -5.671 0.844 -7.532 2.532c-1.862 1.689 -2.794 4.048 -2.794 7.08c0 3.073 1.082 5.497 3.247 7.273c2.165 1.774 5.087 2.835 8.769 3.182l9.091 0.909v0.065c0 1.775 -0.487 3.117 -1.461 4.027c-0.975 0.909 -2.76 1.363 -5.358 1.363c-1.949 0 -3.928 -0.228 -5.942 -0.682c-2.013 -0.454 -3.627 -0.985 -4.839 -1.591h-0.389l1.299 7.728c1.385 0.562 3.095 1.05 5.13 1.462c2.034 0.411 4.177 0.617 6.429 0.617c4.893 0 8.485 -1.148 10.781 -3.443c2.294 -2.295 3.442 -5.628 3.442 -10.001v-10.39c0 -1.688 0.119 -3.356 0.358 -5.001c0.237 -1.645 0.637 -3.03 1.201 -4.156v-0.454h-8.507c-0.261 0.648 -0.499 1.461 -0.715 2.434c-0.218 0.975 -0.347 1.872 -0.389 2.696h-0.39c-0.824 -1.602 -2.252 -2.946 -4.287 -4.027c-2.035 -1.082 -4.416 -1.623 -7.144 -1.623"/></g></svg>