<?xml version="1.0" encoding="UTF-8"?>
<svg width="143.8px" height="84.58px" enable-background="new 0 0 143.811 84.576" version="1.1" viewBox="0 0 143.8 84.58" xml:space="preserve" xmlns="http://www.w3.org/2000/svg">
<title>Wiener Linien logo</title>
<path d="m110.3 38.63h-21.52c-4.756-0.166-7.284-0.671-8.745-1.631-1.789-1.187-2.32-2.558-2.651-3.443-2.354-6.481-5.402-27.17-5.548-28.18-0.158 1.011-3.195 21.7-5.56 28.18-0.339 0.885-0.867 2.256-2.648 3.443-1.447 0.96-3.988 1.466-8.744 1.631h-54.93l52.26-38.63h55.26l-22.29 16.43h55.24l-30.12 22.2" fill="#EC1C24"/>
<path d="m33.46 45.94h21.52c4.759 0.169 7.289 0.677 8.749 1.639 1.789 1.185 2.308 2.559 2.642 3.439 2.363 6.487 5.41 27.17 5.558 28.17 0.146-1.001 3.202-21.69 5.559-28.17 0.339-0.881 0.859-2.255 2.641-3.439 1.455-0.962 3.997-1.47 8.753-1.639h54.93l-52.26 38.64h-55.25l22.29-16.44h-55.24l30.11-22.2" fill="#003B6A"/>
</svg>
