<?xml version="1.0" encoding="UTF-8" standalone="no"?>
<!-- Created with Inkscape (http://www.inkscape.org/) -->

<svg
   version="1.1"
   id="svg2"
   width="136.63626"
   height="79.54583"
   viewBox="0 0 136.63626 79.545831"
   sodipodi:docname="city_of_utrecht.svg"
   inkscape:version="1.2.2 (b0a84865, 2022-12-01)"
   xmlns:inkscape="http://www.inkscape.org/namespaces/inkscape"
   xmlns:sodipodi="http://sodipodi.sourceforge.net/DTD/sodipodi-0.dtd"
   xmlns="http://www.w3.org/2000/svg"
   xmlns:svg="http://www.w3.org/2000/svg">
  <defs
     id="defs6">
    <clipPath
       clipPathUnits="userSpaceOnUse"
       id="clipPath16">
      <path
         d="M 0,83.696 H 154 V 0 H 0 Z"
         id="path14" />
    </clipPath>
    <clipPath
       clipPathUnits="userSpaceOnUse"
       id="clipPath24">
      <path
         d="M 0,83.6957 H 154 V 0 H 0 Z"
         id="path22" />
    </clipPath>
    <clipPath
       clipPathUnits="userSpaceOnUse"
       id="clipPath38">
      <path
         d="M 0,83.696 H 154 V 0 H 0 Z"
         id="path36" />
    </clipPath>
  </defs>
  <sodipodi:namedview
     id="namedview4"
     pagecolor="#ffffff"
     bordercolor="#000000"
     borderopacity="0.25"
     inkscape:showpageshadow="2"
     inkscape:pageopacity="0.0"
     inkscape:pagecheckerboard="0"
     inkscape:deskcolor="#d1d1d1"
     showgrid="false"
     inkscape:zoom="2.1148039"
     inkscape:cx="84.877844"
     inkscape:cy="38.77428"
     inkscape:window-width="1920"
     inkscape:window-height="1054"
     inkscape:window-x="0"
     inkscape:window-y="25"
     inkscape:window-maximized="1"
     inkscape:current-layer="g8" />
  <g
     id="g8"
     inkscape:groupmode="layer"
     inkscape:label="ENGELS_Gemeente_Utrecht-Logo_-pantoneUncoated AI"
     transform="matrix(1.3333333,0,0,-1.3333333,-17.852,94.366664)">
    <g
       id="g10" />
    <g
       id="g32">
      <g
         id="g34"
         clip-path="url(#clipPath38)">
        <g
           id="g40"
           transform="translate(85.5163,35.3087)">
          <path
             d="m 0,0 c 0.958,0.467 1.839,1.035 2.607,1.702 0.169,0.244 0.365,0.42 0.575,0.54 1.493,1.52 2.425,3.486 2.425,5.896 v 2.148 C 5.548,10.27 5.486,10.26 5.421,10.26 c -0.066,0 -0.136,0.01 -0.208,0.03 L 5.055,9.38 c -1.483,0.275 -1.321,1.745 -0.316,2.248 0.575,0.287 0.747,0.504 0.584,0.723 -0.049,0.065 -0.111,0.093 -0.185,0.093 -0.213,0 -0.515,-0.231 -0.818,-0.448 C 4.186,11.9 4.017,11.848 3.84,11.848 c -0.386,0 -0.809,0.249 -0.985,0.835 L 2.319,12.384 c -0.091,1.111 0.596,1.655 1.3,1.655 0.334,0 0.672,-0.122 0.933,-0.363 0.097,-0.089 0.2,-0.126 0.296,-0.126 0.315,0 0.539,0.402 0.113,0.634 -0.406,0.221 -0.798,0.895 -0.425,1.331 l -0.623,0.583 c 0.276,0.165 0.575,0.253 0.863,0.253 0.302,0 0.592,-0.097 0.831,-0.302 v 7.837 C 5.415,23.921 5.2,24.116 5.2,24.382 c 0,0.301 0.179,0.478 0.407,0.566 v 0.653 C 5.139,25.498 4.791,25.213 4.647,24.813 l -0.66,-0.008 c -0.026,0.501 0.214,0.947 0.718,1.118 v 0.651 C 4.277,26.48 3.994,26.27 3.82,26.086 3.77,26.034 3.725,25.977 3.683,25.919 L 3.181,25.913 c -0.025,0.479 0.217,0.909 0.673,1.057 v 0.296 H 2.026 v 0 h -20.793 v 0 h -1.827 V 26.97 c 0.455,-0.147 0.697,-0.578 0.672,-1.057 l -0.502,0.006 c -0.042,0.058 -0.087,0.115 -0.136,0.167 -0.175,0.184 -0.458,0.394 -0.885,0.488 v -0.651 c 0.504,-0.171 0.743,-0.617 0.717,-1.118 l -0.66,0.008 c -0.143,0.399 -0.49,0.683 -0.956,0.787 v -0.653 c 0.227,-0.089 0.403,-0.266 0.403,-0.565 0,-0.265 -0.212,-0.458 -0.403,-0.495 v -7.83 c 0.237,0.199 0.523,0.294 0.82,0.294 0.288,0 0.588,-0.088 0.864,-0.253 l -0.624,-0.584 c 0.374,-0.435 -0.018,-1.109 -0.425,-1.33 -0.426,-0.232 -0.202,-0.634 0.114,-0.634 0.095,0 0.199,0.037 0.295,0.126 0.262,0.241 0.599,0.363 0.933,0.363 0.705,0 1.392,-0.544 1.3,-1.655 l -0.535,0.299 c -0.176,-0.587 -0.6,-0.835 -0.986,-0.835 -0.177,0 -0.346,0.052 -0.479,0.148 -0.303,0.217 -0.606,0.447 -0.819,0.447 -0.073,0 -0.136,-0.027 -0.184,-0.092 -0.164,-0.219 0.009,-0.436 0.583,-0.723 1.005,-0.503 1.167,-1.973 -0.315,-2.248 l -0.159,0.91 c -0.072,-0.02 -0.141,-0.03 -0.208,-0.03 -0.061,0 -0.119,0.009 -0.175,0.023 V 8.138 c 0,-2.417 0.938,-4.387 2.437,-5.909 0.194,-0.114 0.374,-0.28 0.533,-0.501 C -18.6,1.05 -17.708,0.473 -16.737,0 Z"
             style="fill:#ffffff;fill-opacity:1;fill-rule:nonzero;stroke:none"
             id="path42" />
        </g>
        <g
           id="g44"
           transform="translate(90.7295,45.5988)">
          <path
             d="M 0,0 -0.159,-0.91 C -0.18,-0.906 -0.2,-0.901 -0.22,-0.897 v -1.255 c 0,-1.695 -0.495,-3.228 -1.472,-4.556 -0.238,-0.323 -0.503,-0.632 -0.793,-0.927 l -23.788,23.788 c -0.113,0.053 -0.24,0.099 -0.386,0.131 v -0.652 c 0.504,-0.17 0.744,-0.616 0.718,-1.117 l -0.66,0.008 c -0.143,0.398 -0.49,0.683 -0.956,0.787 v -0.653 c 0.226,-0.089 0.403,-0.266 0.403,-0.565 0,-0.265 -0.212,-0.459 -0.403,-0.496 V 5.812 c 0.237,0.199 0.533,0.27 0.83,0.27 0.288,0 0.577,-0.109 0.854,-0.275 l -0.624,-0.583 c 0.374,-0.435 -0.019,-1.109 -0.425,-1.33 -0.426,-0.233 -0.202,-0.634 0.114,-0.634 0.095,0 0.199,0.037 0.295,0.126 0.261,0.241 0.599,0.363 0.933,0.363 0.705,0 1.391,-0.544 1.3,-1.655 l -0.535,0.299 c -0.176,-0.587 -0.6,-0.835 -0.986,-0.835 -0.177,0 -0.346,0.052 -0.48,0.148 -0.303,0.217 -0.605,0.447 -0.818,0.447 -0.073,0 -0.136,-0.027 -0.185,-0.092 -0.163,-0.219 0.009,-0.436 0.584,-0.724 0.957,-0.478 1.153,-1.862 -0.109,-2.228 L -27.015,-0.91 -27.174,0 c -0.072,-0.021 -0.141,-0.03 -0.208,-0.03 -0.061,0 -0.12,0.009 -0.175,0.023 v -2.145 c 0,-2.128 0.727,-3.91 1.925,-5.345 0.008,-0.009 0.016,-0.019 0.024,-0.029 0.043,-0.051 0.087,-0.102 0.131,-0.152 0.01,-0.011 0.019,-0.021 0.028,-0.032 0.05,-0.055 0.1,-0.11 0.15,-0.165 0.003,-0.002 0.005,-0.005 0.007,-0.007 0.053,-0.056 0.105,-0.112 0.159,-0.167 l 10e-4,10e-4 c 0.004,-0.004 0.008,-0.009 0.012,-0.013 0.066,-0.039 0.13,-0.086 0.192,-0.137 0.122,-0.099 0.236,-0.218 0.341,-0.364 0.774,-0.678 1.666,-1.255 2.637,-1.728 h 0.003 c 0.11,-0.058 0.222,-0.115 0.339,-0.173 1.598,-0.796 3.935,-1.667 8.026,-1.667 4.091,0 6.429,0.871 8.026,1.667 0.117,0.058 0.229,0.115 0.339,0.173 h 0.004 c 0.958,0.467 1.839,1.035 2.607,1.702 0.02,0.029 0.041,0.058 0.063,0.086 0.01,0.013 0.019,0.024 0.029,0.036 0.012,0.015 0.024,0.03 0.036,0.044 0.014,0.017 0.029,0.033 0.044,0.049 0.008,0.008 0.015,0.016 0.022,0.024 0.018,0.019 0.037,0.037 0.055,0.055 0.005,0.004 0.009,0.008 0.013,0.012 0.021,0.02 0.042,0.039 0.063,0.057 0.002,0.002 0.004,0.004 0.006,0.005 0.023,0.02 0.046,0.038 0.07,0.056 0,0 10e-4,10e-4 10e-4,10e-4 0.048,0.036 0.098,0.069 0.148,0.099 0.008,0.005 0.017,0.011 0.025,0.015 1.492,1.521 2.425,3.487 2.425,5.897 v 2.148 C 0.335,-0.02 0.273,-0.03 0.208,-0.03 0.141,-0.03 0.072,-0.02 0,0 M -0.22,13.278 V 6.044 C 0.002,6.007 0.213,5.914 0.394,5.759 v 7.39 z m -2.84,3.697 h -0.127 -20.793 -0.09 l -0.291,-0.614 h 21.458 z"
             style="fill:#ed1c24;fill-opacity:1;fill-rule:nonzero;stroke:none"
             id="path46" />
        </g>
        <g
           id="g48"
           transform="translate(60.0358,64.2318)">
          <path
             d="m 0,0 c 0.085,0.475 -0.153,0.834 -0.62,0.937 -0.021,0.004 -0.042,0.009 -0.062,0.013 0.107,-0.408 0.063,-0.863 -0.213,-1.298 -0.2,-0.314 -0.508,-0.546 -0.899,-0.685 0.133,-0.015 0.261,-0.023 0.381,-0.023 0.835,0 1.284,0.336 1.413,1.056 m -0.348,-4.72 c 0.353,-0.461 0.637,-0.976 0.86,-1.516 l 1.13,1.075 v 0 c -0.119,0.31 -0.162,0.667 -0.116,1.04 0.002,0.022 0.005,0.044 0.009,0.066 l 0.602,-0.292 c -0.015,-0.445 0.145,-0.924 0.559,-1.141 0.129,-0.067 0.244,-0.103 0.389,-0.103 0.002,0 0.005,0 0.007,0 l -0.02,0.547 c 0.204,0 0.468,0.208 0.468,0.503 0,0.327 -0.211,0.509 -0.468,0.589 v 0.645 C 3.571,-3.398 3.943,-3.693 4.093,-4.11 l 0.66,-0.008 c 0.025,0.501 -0.214,0.947 -0.718,1.117 v 0.652 C 4.463,-2.443 4.746,-2.653 4.92,-2.837 4.97,-2.889 5.015,-2.946 5.057,-3.004 L 5.559,-3.01 c 0.024,0.479 -0.217,0.909 -0.673,1.057 v 0.646 c 0.276,-0.055 0.525,-0.175 0.731,-0.349 l 0.47,-0.001 C 6.079,-1.343 5.898,-1.044 5.65,-0.862 v 0 C 5.438,-0.707 5.17,-0.621 4.902,-0.585 4.798,-0.571 4.694,-0.563 4.594,-0.563 H 4.592 C 4.486,-0.563 4.38,-0.573 4.276,-0.59 4.002,-0.634 3.738,-0.735 3.508,-0.892 3.108,-1.163 2.728,-1.472 2.358,-1.781 1.756,-2.284 1.174,-2.808 0.547,-3.279 0.348,-3.428 -0.261,-3.887 -0.747,-4.255 c 0.139,-0.146 0.273,-0.3 0.399,-0.465 m 24.136,8.284 h 0.685 C 24.658,2.985 24.945,2.494 25.3,2.135 h 1.375 c -0.352,0.204 -0.667,0.532 -0.924,0.971 -0.383,0.65 -0.598,1.478 -0.611,2.34 H 23.087 C 23.075,4.583 22.859,3.754 22.477,3.102 22.22,2.666 21.907,2.339 21.558,2.135 h 1.404 c 0.354,0.359 0.642,0.85 0.826,1.429 M -8.277,-34.311 c 0.191,0.122 0.392,0.243 0.607,0.361 -0.047,0.017 -0.094,0.036 -0.141,0.054 -0.096,0.037 -0.191,0.078 -0.284,0.124 -0.662,0.256 -1.176,0.41 -1.607,0.482 0.004,-0.035 0.011,-0.069 0.014,-0.105 l 0.107,-1.042 -0.968,0.398 -0.036,0.015 c -0.069,-0.13 -0.151,-0.244 -0.245,-0.342 -0.248,-0.26 -0.576,-0.4 -0.948,-0.405 0.117,-0.179 0.2,-0.375 0.247,-0.586 0.146,-0.658 -0.096,-1.375 -0.682,-2.019 l -0.416,-0.456 -0.462,0.409 -0.427,0.376 c -0.061,-0.009 -0.122,-0.014 -0.184,-0.014 -0.611,0 -1.15,0.485 -1.318,0.954 -0.022,0.06 -0.039,0.121 -0.052,0.181 -0.065,-0.054 -0.131,-0.098 -0.193,-0.139 l -0.066,-0.679 -0.069,-0.726 -0.707,0.178 c -0.533,0.134 -1.281,0.396 -1.619,1.117 -0.158,0.337 -0.202,0.719 -0.132,1.151 -1.553,0.182 -2.767,0.588 -2.767,0.588 0.89,-2.666 3.422,-4.174 5.868,-4.174 1.427,0 2.826,0.514 3.851,1.609 0.247,0.264 0.475,0.506 0.686,0.728 0.342,0.696 0.993,1.353 1.943,1.962 M 16.779,3.564 h 0.685 c 0.185,-0.579 0.472,-1.07 0.826,-1.429 h 1.49 C 19.431,2.339 19.118,2.666 18.862,3.102 18.479,3.754 18.264,4.583 18.251,5.446 H 16.09 C 16.077,4.584 15.861,3.756 15.479,3.106 15.222,2.667 14.907,2.339 14.555,2.135 h 1.397 c 0.355,0.359 0.642,0.85 0.827,1.429 M 5.83,2.135 H 5.977 C 5.626,2.339 5.311,2.667 5.053,3.106 4.671,3.756 4.455,4.584 4.443,5.446 H 2.89 C 2.882,5.354 2.877,5.262 2.877,5.169 2.877,3.525 4.23,2.135 5.83,2.135 m 4.046,1.429 h 0.685 c 0.185,-0.579 0.472,-1.07 0.827,-1.429 h 1.401 c -0.352,0.204 -0.667,0.532 -0.924,0.971 -0.382,0.65 -0.598,1.478 -0.611,2.34 H 9.278 C 9.266,4.584 9.05,3.756 8.668,3.106 8.41,2.667 8.095,2.339 7.744,2.135 h 1.305 c 0.355,0.359 0.642,0.85 0.827,1.429 M -9.035,-8.204 c -0.327,0.671 -0.636,1.355 -0.904,2.054 -0.269,0.7 -0.495,1.416 -0.666,2.141 -0.172,0.726 -0.289,1.461 -0.365,2.196 0.159,-0.722 0.357,-1.434 0.605,-2.125 0.248,-0.69 0.546,-1.359 0.883,-2.006 0.621,-1.192 1.362,-2.319 2.127,-3.433 -0.331,-0.19 -0.628,-0.316 -0.877,-0.399 -0.275,0.519 -0.545,1.042 -0.803,1.572 m 1.538,3.271 c 0.232,-0.45 0.47,-0.894 0.735,-1.313 0.265,-0.419 0.56,-0.809 0.879,-1.195 0.283,-0.343 0.576,-0.685 0.868,-1.03 -0.327,-0.023 -0.664,-0.089 -1.007,-0.208 -0.16,0.268 -0.321,0.537 -0.479,0.811 -0.259,0.444 -0.504,0.912 -0.706,1.391 -0.201,0.479 -0.366,0.963 -0.522,1.448 -0.155,0.485 -0.299,0.972 -0.443,1.458 0.222,-0.456 0.444,-0.913 0.675,-1.362 m 2.026,8.575 c 0,-0.572 -0.205,-1.167 -1.132,-1.125 0,0 -0.236,0.417 -0.932,1.111 0,0 1.152,-0.231 2.064,0.014 m -11.457,-37.848 c -0.044,-0.09 -0.081,-0.177 -0.116,-0.261 -0.093,-0.228 -0.155,-0.433 -0.188,-0.616 -0.196,-1.087 0.583,-1.427 1.278,-1.601 l 0.094,0.979 c 0.008,0.045 0.198,0.13 0.236,0.154 0.063,0.04 0.125,0.082 0.18,0.132 0.122,0.111 0.163,0.242 0.179,0.384 0.009,0.079 0.01,0.161 0.013,0.246 0.005,0.15 0.029,0.297 0.115,0.408 0.037,0.047 0.083,0.087 0.146,0.118 0.06,0.029 0.121,0.042 0.181,0.042 0.067,0 0.132,-0.018 0.191,-0.048 0.134,-0.068 0.238,-0.202 0.262,-0.361 0.01,-0.062 0.003,-0.138 -0.011,-0.222 -0.049,-0.292 -0.189,-0.692 -0.062,-1.044 0.081,-0.226 0.389,-0.539 0.728,-0.539 0.106,0 0.215,0.031 0.321,0.104 l 0.705,-0.623 c 0.925,1.017 0.637,1.998 -0.375,2.422 -0.078,0.032 -0.15,0.07 -0.213,0.111 -0.194,0.128 -0.299,0.296 -0.193,0.482 0.079,0.135 0.17,0.189 0.291,0.189 0.175,0 0.413,-0.113 0.757,-0.249 0.022,-0.009 0.043,-0.018 0.066,-0.026 0.19,-0.074 0.374,-0.12 0.544,-0.12 0.36,0 0.654,0.207 0.795,0.791 0.013,0.053 0.025,0.107 0.035,0.165 l 0.238,-0.098 0.42,-0.172 c -0.008,0.075 -0.018,0.147 -0.03,0.216 -0.044,0.239 -0.116,0.441 -0.209,0.614 -0.309,0.573 -0.857,0.797 -1.421,0.797 -0.719,0 -1.462,-0.36 -1.767,-0.818 l -1.321,-0.182 c -0.275,0.341 -0.282,1.345 -0.241,2.118 0.031,0.567 0.454,1.035 1.015,1.118 0.965,0.145 2.401,0.352 2.91,0.386 0.973,0.066 1.983,0.237 2.706,0.95 1.001,0.986 1.221,2.016 1.221,3.452 0,0.466 -0.024,0.941 -0.062,1.417 -0.032,0.408 -0.075,0.817 -0.125,1.222 -0.033,0.273 -0.069,0.544 -0.106,0.812 -0.035,0.252 -0.043,0.515 -0.02,0.783 0.008,0.097 0.02,0.194 0.035,0.291 0.047,0.287 0.128,0.575 0.245,0.856 0.123,0.296 0.287,0.583 0.493,0.854 0.317,0.417 0.735,0.793 1.265,1.091 0.194,0.109 0.418,0.24 0.66,0.389 0.242,0.148 0.502,0.314 0.775,0.498 0.659,0.445 1.386,0.992 2.071,1.623 -0.051,0.03 -0.101,0.06 -0.152,0.091 -0.252,0.151 -0.945,0.663 -1.586,1.196 -0.159,0.131 -0.3,0.253 -0.429,0.366 l 0.621,0.332 c 0.718,-0.615 1.522,-1.205 1.735,-1.331 0.101,-0.062 0.201,-0.122 0.3,-0.18 0.194,-0.115 0.381,-0.221 0.56,-0.323 1.052,-0.596 1.805,-1.006 1.78,-1.711 -1.302,-1.397 -0.586,-2.228 0.133,-2.482 l 0.24,0.771 v 0 c 0.759,0.128 0.748,0.691 0.781,1.123 0.017,0.229 0.205,0.36 0.381,0.36 0.155,0 0.301,-0.101 0.315,-0.328 0.015,-0.254 -0.001,-0.508 0.07,-0.918 0.049,-0.277 0.354,-0.657 0.78,-0.657 0.066,0 0.136,0.009 0.208,0.03 l 0.158,-0.91 c 1.483,0.275 1.321,1.745 0.316,2.247 -0.575,0.288 -0.747,0.505 -0.584,0.724 0.049,0.065 0.111,0.092 0.185,0.092 0.213,0 0.515,-0.23 0.818,-0.447 0.134,-0.096 0.303,-0.148 0.48,-0.148 0.386,0 0.809,0.248 0.985,0.835 l 0.536,-0.299 c 0.091,1.111 -0.596,1.655 -1.301,1.655 -0.333,0 -0.671,-0.122 -0.932,-0.363 -0.097,-0.089 -0.2,-0.126 -0.296,-0.126 -0.315,0 -0.539,0.402 -0.113,0.634 0.406,0.221 0.798,0.895 0.425,1.33 l 0.623,0.583 c -0.276,0.166 -0.575,0.254 -0.863,0.254 -0.618,0 -1.186,-0.405 -1.368,-1.312 -0.042,-0.206 -0.13,-0.293 -0.249,-0.293 v 0 0 c -0.342,0 -0.938,0.727 -1.392,1.452 -0.108,0.173 -0.211,0.347 -0.314,0.519 -0.135,0.226 -0.27,0.45 -0.415,0.667 -0.188,0.278 -0.393,0.546 -0.639,0.79 -0.422,0.417 -1.146,1.154 -1.994,1.636 -0.199,0.113 -0.406,0.217 -0.621,0.306 -0.253,0.33 -0.496,0.667 -0.723,1.015 -0.588,0.895 -1.077,1.86 -1.364,2.874 0.464,-0.946 1.097,-1.778 1.806,-2.525 0.329,-0.346 0.675,-0.674 1.032,-0.991 0.97,-0.502 1.784,-1.309 2.259,-1.781 l 0.068,-0.067 c 0.139,-0.138 0.265,-0.281 0.382,-0.427 0.163,0.975 0.119,2.185 -0.192,3.343 -0.061,0.224 -0.131,0.446 -0.212,0.664 -0.285,0.769 -0.701,1.487 -1.269,2.064 -0.149,0.152 -0.308,0.293 -0.477,0.423 -0.74,0.567 -1.684,0.919 -2.862,0.919 -0.167,0 -0.339,-0.007 -0.515,-0.021 l -1.605,0.726 c 0.573,-0.015 1.034,-0.026 1.403,-0.026 1.6,0 1.47,0.218 1.264,1.341 0,0 -1.346,-0.375 -2.375,-0.375 -0.1,0 -0.197,0.004 -0.29,0.012 -0.497,0.041 -0.723,0.258 -0.802,0.528 -0.103,0.355 -0.132,0.917 0.15,1.619 0.184,0.459 0.625,0.857 1.251,0.856 0.476,0 1.059,-0.229 1.719,-0.834 l 0.555,-0.564 c 0.289,0.337 0.518,0.729 0.697,1.11 0.115,0.519 -0.439,0.854 -0.439,0.854 0.568,-0.069 0.849,0.523 0.944,0.786 -0.612,0.333 -1.475,0.832 -2.403,1.081 l -0.268,0.915 c -0.346,0.18 -3.765,0.967 -4.672,0.967 -0.046,0 -0.085,-0.002 -0.118,-0.006 -0.073,-0.009 -0.137,-0.04 -0.194,-0.083 0.187,-0.214 0.359,-0.454 0.506,-0.708 L -10.39,4.68 c -0.344,0.552 -0.812,1.005 -1.226,1.15 -0.545,-0.485 -1.212,-1.913 0.235,-3.413 V 1.55 l -0.253,0.237 c -0.35,0.326 -0.604,0.65 -0.79,0.961 -2.769,-5.997 1.778,-10.92 1.751,-13.039 0,0 0.95,0.026 1.6,0.29 0,0 0.289,-2.067 -0.347,-3.766 -0.741,-1.979 -1.912,-3.736 -2.848,-5.619 -0.316,-0.636 -0.602,-1.29 -0.83,-1.963 -0.007,-0.021 -0.014,-0.042 -0.021,-0.063 -0.193,-0.414 -0.515,-0.773 -0.875,-0.967 -0.014,-0.007 -0.029,-0.014 -0.044,-0.022 -0.475,-0.236 -1.024,-0.213 -1.481,0.067 -0.445,0.273 -0.693,0.725 -0.681,1.241 0.026,1.136 0.702,1.976 1.416,2.865 0.385,0.478 0.782,0.972 1.09,1.529 0.969,1.749 1.208,3.73 0.691,5.727 -0.237,0.918 -0.777,1.732 -1.298,2.52 -0.118,0.178 -0.235,0.353 -0.346,0.528 -0.046,0.071 -0.09,0.141 -0.134,0.212 0.247,0.226 0.297,0.508 0.221,0.876 -0.07,0.338 -0.245,0.75 -0.474,1.262 -0.251,0.561 -0.535,1.197 -0.679,1.872 -0.23,1.08 -0.234,1.949 -0.09,2.809 -0.208,-0.343 -0.392,-0.7 -0.54,-1.074 -0.169,-0.421 -0.293,-0.863 -0.353,-1.32 -0.061,-0.456 -0.06,-0.927 0.011,-1.395 -0.162,0.444 -0.261,0.919 -0.293,1.404 -0.033,0.486 0.003,0.98 0.092,1.464 0.08,0.442 0.204,0.876 0.358,1.298 -0.694,-1.005 -1.044,-2.237 -1.062,-3.717 -0.023,-1.86 0.622,-3.417 1.233,-3.794 0.076,-0.047 0.146,-0.081 0.217,-0.098 0.262,-0.059 0.659,0.118 0.659,0.118 0.182,-0.304 0.358,-0.567 0.553,-0.861 0.51,-0.769 0.992,-1.496 1.198,-2.292 0.474,-1.834 0.265,-3.574 -0.622,-5.175 -0.277,-0.5 -0.653,-0.968 -1.018,-1.422 -0.762,-0.947 -1.549,-1.928 -1.582,-3.318 -0.018,-0.779 0.371,-1.49 1.04,-1.9 0.365,-0.224 0.78,-0.337 1.196,-0.337 0.193,0 0.387,0.026 0.576,0.075 0.173,0.045 0.342,0.11 0.503,0.197 0.05,0.027 0.099,0.058 0.148,0.089 -0.027,-0.242 -0.037,-0.485 -0.028,-0.728 0.002,-0.064 0.005,-0.128 0.01,-0.191 0.031,-0.415 0.088,-0.827 0.124,-1.242 0.047,-0.532 0.142,-0.592 -0.019,-1.108 -0.185,-0.595 -1.002,-0.963 -1.837,-1.148 -0.53,-0.117 -1.254,-0.227 -1.814,-0.303 -0.496,-0.068 -0.874,-0.478 -0.902,-0.978 -0.068,-1.233 -0.171,-3.409 -0.081,-4.016 0.099,-0.667 0.495,-1.238 1.108,-1.541 m 15.721,2.083 c -0.367,0.201 -1.014,0.481 -1.769,0.481 -0.255,0 -0.523,-0.032 -0.796,-0.11 -0.915,-0.262 -1.803,-0.614 -2.784,-0.614 -0.762,0 -1.581,0.213 -2.513,0.847 0,0 0.047,-1.072 1.212,-1.673 0.164,-0.085 0.351,-0.159 0.562,-0.221 0.374,-0.109 0.826,-0.177 1.374,-0.177 0.218,0 0.451,0.011 0.7,0.033 0,0 -1.404,-0.449 -2.67,-1.25 -0.768,-0.486 -1.484,-1.102 -1.805,-1.825 -0.208,-0.47 -0.25,-0.985 -0.029,-1.539 0,0 1.074,2.377 3.715,2.58 0.867,0.066 1.823,0.187 2.516,0.763 0.296,0.246 0.487,0.605 0.788,1.011 0.092,0.186 0.2,0.373 0.324,0.562 0.31,0.468 0.704,0.845 1.175,1.132 m 43.311,-2.684 c -1.265,0.801 -2.67,1.25 -2.67,1.25 0.249,-0.022 0.482,-0.033 0.7,-0.033 0.549,0 1.001,0.068 1.375,0.177 0.21,0.062 0.397,0.136 0.561,0.221 1.165,0.601 1.212,1.673 1.212,1.673 -0.932,-0.634 -1.75,-0.847 -2.513,-0.847 -0.98,0 -1.868,0.352 -2.784,0.614 -0.273,0.078 -0.54,0.11 -0.796,0.11 -0.754,0 -1.402,-0.28 -1.769,-0.481 0.472,-0.287 0.866,-0.664 1.175,-1.132 0.125,-0.189 0.232,-0.376 0.324,-0.562 0.302,-0.406 0.493,-0.765 0.789,-1.011 0.693,-0.576 1.649,-0.697 2.515,-0.763 2.642,-0.203 3.715,-2.58 3.715,-2.58 0.222,0.554 0.18,1.069 -0.029,1.539 -0.32,0.723 -1.036,1.339 -1.805,1.825 m 9.968,-0.217 c 0.07,-0.432 0.026,-0.814 -0.132,-1.151 -0.338,-0.721 -1.086,-0.983 -1.619,-1.117 l -0.707,-0.178 -0.07,0.726 -0.065,0.679 c -0.063,0.041 -0.128,0.085 -0.193,0.139 -0.013,-0.06 -0.031,-0.121 -0.052,-0.181 -0.169,-0.469 -0.708,-0.954 -1.319,-0.954 -0.062,0 -0.123,0.005 -0.184,0.014 l -0.426,-0.376 -0.463,-0.409 -0.415,0.456 c -0.586,0.644 -0.828,1.361 -0.682,2.019 0.046,0.211 0.13,0.407 0.247,0.586 -0.373,0.005 -0.7,0.145 -0.949,0.405 -0.094,0.098 -0.175,0.212 -0.244,0.342 l -0.036,-0.015 -0.969,-0.398 0.107,1.042 c 0.004,0.036 0.01,0.07 0.015,0.105 -0.431,-0.072 -0.945,-0.226 -1.607,-0.482 -0.094,-0.046 -0.189,-0.087 -0.285,-0.124 -0.047,-0.018 -0.094,-0.037 -0.141,-0.054 0.215,-0.118 0.417,-0.239 0.608,-0.361 0.949,-0.609 1.601,-1.266 1.942,-1.962 0.211,-0.222 0.439,-0.464 0.686,-0.728 1.026,-1.095 2.424,-1.609 3.851,-1.609 2.447,0 4.979,1.508 5.868,4.174 0,0 -1.214,-0.406 -2.766,-0.588 m -24.012,3.113 c -0.34,0.232 -0.58,0.364 -0.58,0.364 0,0 0.167,0.016 0.434,0.062 0.14,0.024 0.307,0.057 0.491,0.101 0.035,0.008 0.072,0.018 0.108,0.027 -0.093,0.431 -0.064,0.846 0.09,1.217 0.064,0.155 0.149,0.298 0.251,0.428 -0.952,-0.259 -2.119,-0.461 -3.452,-0.461 -0.51,0 -1.045,0.108 -1.6,0.175 -0.195,0.023 -0.401,0.034 -0.614,0.034 -0.065,0 -0.132,-0.003 -0.199,-0.005 -0.665,-0.209 -1.425,-0.395 -2.304,-0.534 0.972,-0.329 2.039,-0.944 3.008,-1.927 0.025,-0.026 0.049,-0.052 0.074,-0.078 2.058,-1.573 3.042,-0.538 4.881,-1.741 1.152,-0.754 0.612,-3.145 0.612,-3.145 0,0 2.433,1.836 0.227,4.27 -0.464,0.512 -1.018,0.934 -1.427,1.213 m -23.861,-0.534 -0.333,0.204 c -0.135,-0.05 -0.279,-0.076 -0.429,-0.076 -0.576,0 -1.096,0.383 -1.313,0.762 -0.05,0.086 -0.089,0.174 -0.119,0.262 -0.004,-0.005 -0.008,-0.01 -0.012,-0.015 -0.077,-0.1 -0.16,-0.181 -0.239,-0.254 l 0.061,-0.762 0.059,-0.727 -0.728,0.052 c -0.478,0.034 -1.122,0.131 -1.605,0.542 l -0.284,-0.144 c -0.111,-0.056 -0.213,-0.113 -0.311,-0.17 -0.278,-0.196 -0.563,-0.463 -0.805,-0.83 -0.125,-0.189 -0.227,-0.371 -0.31,-0.546 -0.999,-2.109 0.881,-3.183 0.881,-3.183 -0.028,0.568 -0.053,1.171 0.114,1.722 0.285,0.946 1.153,1.475 2.068,1.687 1.367,0.317 2.165,0.423 3.234,1.414 0.022,0.02 0.046,0.041 0.071,0.062 m 6.321,0.015 c 0.971,0.984 2.038,1.599 3.012,1.928 -0.876,0.139 -1.633,0.324 -2.296,0.533 -0.071,0.002 -0.142,0.005 -0.21,0.005 -0.214,0 -0.42,-0.011 -0.614,-0.034 -0.556,-0.067 -1.09,-0.175 -1.6,-0.175 -1.333,0 -2.5,0.202 -3.452,0.461 0.102,-0.13 0.186,-0.273 0.25,-0.428 0.155,-0.371 0.183,-0.786 0.091,-1.217 0.035,-0.009 0.073,-0.019 0.107,-0.027 0.185,-0.044 0.352,-0.077 0.492,-0.101 0.266,-0.046 0.433,-0.062 0.433,-0.062 0,0 -0.239,-0.132 -0.58,-0.364 -0.408,-0.279 -0.963,-0.701 -1.427,-1.213 -2.206,-2.434 0.228,-4.27 0.228,-4.27 0,0 -0.541,2.391 0.612,3.145 1.838,1.203 2.823,0.168 4.881,1.741 0.024,0.026 0.048,0.052 0.073,0.078 m 12.727,-0.44 c -0.593,0.601 -1.223,1.108 -1.848,1.413 -0.523,0.255 -1.042,0.423 -1.535,0.535 -0.321,0.072 -0.631,0.121 -0.922,0.153 -0.171,0.018 -0.335,0.03 -0.491,0.039 -0.425,-0.021 -0.87,-0.033 -1.339,-0.033 -0.471,0 -0.918,0.012 -1.344,0.033 -0.159,-0.008 -0.324,-0.021 -0.496,-0.039 -0.292,-0.032 -0.602,-0.081 -0.923,-0.153 -0.492,-0.112 -1.012,-0.28 -1.534,-0.535 -0.626,-0.305 -1.256,-0.812 -1.848,-1.413 -0.036,-0.036 -0.07,-0.072 -0.103,-0.108 -1.282,-1.387 -0.936,-2.751 -0.936,-2.751 0,0 1.642,2.184 4.091,2.184 1.169,0 2.179,-0.394 2.703,-0.645 l 0.385,-0.204 0.384,0.204 c 0.525,0.251 1.534,0.645 2.703,0.645 2.45,0 4.091,-2.184 4.091,-2.184 0,0 0.346,1.364 -0.936,2.751 -0.033,0.036 -0.067,0.072 -0.102,0.108 m 12.826,-0.731 c -0.243,0.367 -0.528,0.634 -0.805,0.83 -0.098,0.057 -0.201,0.114 -0.312,0.17 l -0.283,0.144 c -0.484,-0.411 -1.128,-0.508 -1.606,-0.542 l -0.727,-0.052 0.058,0.727 0.061,0.762 c -0.078,0.073 -0.162,0.154 -0.238,0.254 -0.004,0.005 -0.008,0.01 -0.012,0.015 -0.031,-0.088 -0.07,-0.176 -0.119,-0.262 -0.217,-0.379 -0.738,-0.762 -1.314,-0.762 -0.15,0 -0.293,0.026 -0.428,0.076 l -0.333,-0.204 c 0.024,-0.021 0.048,-0.042 0.07,-0.062 1.069,-0.991 1.867,-1.097 3.234,-1.414 0.916,-0.212 1.783,-0.741 2.069,-1.687 0.167,-0.551 0.141,-1.154 0.114,-1.722 0,0 1.879,1.074 0.881,3.183 -0.083,0.175 -0.185,0.357 -0.31,0.546 m -32.735,4.633 c 0.071,0.195 0.189,0.261 0.372,0.261 0.195,0 0.463,-0.074 0.831,-0.146 0.119,-0.023 0.232,-0.044 0.34,-0.06 0.093,-0.013 0.181,-0.022 0.263,-0.022 v 0 c 0.391,0 0.644,0.194 0.64,0.968 l 0.754,-0.164 c -0.34,1.187 -1.026,1.647 -1.748,1.647 -0.742,0 -1.521,-0.486 -1.999,-1.165 v 0 l -0.298,-0.102 -0.533,-0.181 -1.063,-0.36 c -1.025,0.869 -0.561,3.159 -0.561,3.159 0,0 2.012,1.129 1.344,3.643 0,0 -0.349,2.357 -4.645,2.357 -0.457,0 -0.958,-0.027 -1.508,-0.085 -0.33,-0.036 -0.63,-0.08 -0.904,-0.131 -0.002,-0.004 -0.004,-0.008 -0.005,-0.013 0.098,-0.232 0.127,-0.487 0.081,-0.739 -0.072,-0.39 -0.314,-0.717 -0.662,-0.898 -0.175,-0.091 -0.362,-0.137 -0.557,-0.137 -0.22,0 -0.435,0.062 -0.625,0.172 0.003,-0.106 0.011,-0.209 0.024,-0.307 0.078,-0.555 0.156,-1.162 0.213,-1.791 0.869,-0.436 4.896,-0.939 4.896,-0.939 -0.394,-1.902 -0.136,-3.704 0.164,-4.6 0.109,-0.326 0.297,-0.589 0.539,-0.799 0.191,-0.165 0.415,-0.296 0.661,-0.398 0.055,-0.665 0.103,-1.149 0.217,-1.539 0.033,-0.139 0.081,-0.26 0.143,-0.365 0.303,-0.51 0.922,-0.633 1.479,-0.672 l -0.086,1.063 c 0,0.049 0.187,0.176 0.223,0.209 0.06,0.055 0.118,0.111 0.168,0.175 0.011,0.015 0.019,0.031 0.029,0.046 0.131,0.207 0.09,0.427 0.056,0.662 v 0 c -0.032,0.23 -0.027,0.462 0.178,0.611 0.083,0.06 0.174,0.086 0.263,0.086 0.056,0 0.111,-0.011 0.163,-0.03 0.145,-0.052 0.268,-0.172 0.321,-0.327 0.028,-0.083 0.032,-0.193 0.03,-0.318 -0.003,-0.108 -0.009,-0.227 -0.01,-0.35 -10e-4,-0.215 0.018,-0.441 0.114,-0.641 0.009,-0.019 0.017,-0.038 0.028,-0.056 0.116,-0.203 0.441,-0.446 0.769,-0.446 0.15,0 0.301,0.051 0.433,0.18 l 0.866,-0.529 c 0.003,0.002 0.005,0.004 0.008,0.006 0.056,0.089 0.104,0.176 0.148,0.262 0.103,0.207 0.171,0.404 0.206,0.591 0.158,0.837 -0.337,1.455 -1.217,1.652 -0.361,0.081 -0.65,0.267 -0.545,0.556 0,0.002 0.001,0.003 0.002,0.004 m 20.871,27.84 -2.009,1.005 2.009,1.004 2.01,-1.004 z m -7.095,0.117 c -0.981,0 -1.776,0.397 -1.776,0.888 0,0.49 0.795,0.888 1.776,0.888 0.981,0 1.776,-0.398 1.776,-0.888 0,-0.491 -0.795,-0.888 -1.776,-0.888 m -7.095,-0.117 -2.009,1.005 2.009,1.004 2.01,-1.004 z M 29.346,1.505 H 4.902 V 0.046 C 5.229,0.012 5.654,-0.089 6.02,-0.357 6.441,-0.666 6.7,-1.146 6.713,-1.641 l 0.001,-0.017 h 20.793 v 0.017 c 0.013,0.494 0.27,0.972 0.689,1.281 l -0.003,0.003 c 0.38,0.278 0.823,0.376 1.153,0.407 z M 41.749,3.628 C 41.053,2.934 40.816,2.517 40.816,2.517 39.889,2.475 39.684,3.07 39.684,3.642 40.597,3.397 41.749,3.628 41.749,3.628 m 0.193,-8.657 c -0.156,-0.485 -0.32,-0.969 -0.521,-1.448 -0.202,-0.479 -0.448,-0.947 -0.706,-1.391 -0.159,-0.274 -0.319,-0.543 -0.48,-0.811 -0.343,0.119 -0.679,0.185 -1.007,0.208 0.292,0.345 0.585,0.687 0.868,1.03 0.319,0.386 0.614,0.776 0.88,1.195 0.264,0.419 0.503,0.863 0.734,1.313 0.232,0.449 0.454,0.906 0.676,1.362 -0.145,-0.486 -0.289,-0.973 -0.444,-1.458 m 2.636,1.091 c 0.249,0.691 0.447,1.403 0.606,2.125 -0.077,-0.735 -0.194,-1.47 -0.365,-2.196 -0.171,-0.725 -0.397,-1.441 -0.666,-2.141 -0.268,-0.699 -0.577,-1.383 -0.904,-2.054 -0.259,-0.53 -0.528,-1.053 -0.804,-1.572 -0.248,0.083 -0.545,0.209 -0.876,0.399 0.765,1.114 1.506,2.241 2.127,3.433 0.337,0.647 0.635,1.316 0.882,2.006 m -6.79,5.868 c 0,0 -0.555,-0.335 -0.439,-0.854 0.178,-0.381 0.408,-0.773 0.696,-1.11 l 0.556,0.564 c 0.659,0.605 1.242,0.834 1.718,0.834 0.627,10e-4 1.068,-0.397 1.252,-0.856 0.281,-0.702 0.252,-1.264 0.149,-1.619 -0.078,-0.27 -0.304,-0.487 -0.802,-0.528 -0.092,-0.008 -0.19,-0.012 -0.29,-0.012 -1.029,0 -2.375,0.375 -2.375,0.375 -0.205,-1.123 -0.336,-1.341 1.265,-1.341 0.369,0 0.83,0.011 1.403,0.026 l -1.605,-0.726 c -0.176,0.014 -0.348,0.021 -0.515,0.021 -1.179,0 -2.122,-0.352 -2.862,-0.919 -0.17,-0.13 -0.329,-0.271 -0.478,-0.423 -0.567,-0.577 -0.984,-1.295 -1.269,-2.064 -0.081,-0.218 -0.151,-0.44 -0.211,-0.664 -0.312,-1.158 -0.355,-2.368 -0.193,-3.343 0.118,0.146 0.244,0.289 0.383,0.427 l 0.067,0.067 c 0.476,0.472 1.29,1.279 2.26,1.781 0.357,0.317 0.702,0.645 1.031,0.991 0.709,0.747 1.343,1.579 1.806,2.525 C 39.048,-5.932 38.56,-6.897 37.972,-7.792 37.744,-8.14 37.501,-8.477 37.248,-8.807 37.033,-8.896 36.826,-9 36.627,-9.113 c -0.847,-0.482 -1.572,-1.219 -1.993,-1.636 -0.247,-0.244 -0.452,-0.512 -0.639,-0.79 -0.146,-0.217 -0.281,-0.441 -0.416,-0.667 -0.103,-0.172 -0.206,-0.346 -0.314,-0.519 -0.453,-0.725 -1.049,-1.452 -1.392,-1.452 l 10e-4,0.002 -10e-4,-0.002 c -0.119,0 -0.207,0.087 -0.248,0.293 -0.183,0.907 -0.75,1.312 -1.368,1.312 -0.288,0 -0.587,-0.088 -0.864,-0.253 l 0.624,-0.584 c -0.374,-0.435 0.018,-1.109 0.425,-1.33 0.426,-0.232 0.202,-0.634 -0.114,-0.634 -0.095,0 -0.199,0.037 -0.295,0.126 -0.261,0.241 -0.599,0.363 -0.933,0.363 -0.705,0 -1.392,-0.544 -1.3,-1.655 l 0.535,0.299 c 0.176,-0.587 0.6,-0.835 0.986,-0.835 0.177,0 0.346,0.052 0.479,0.148 0.303,0.217 0.606,0.447 0.819,0.447 0.073,0 0.136,-0.027 0.184,-0.092 0.164,-0.219 -0.009,-0.436 -0.583,-0.724 -1.006,-0.502 -1.167,-1.972 0.315,-2.247 l 0.159,0.91 c 0.072,-0.02 0.141,-0.03 0.208,-0.03 0.426,0 0.731,0.381 0.779,0.658 0.072,0.409 0.055,0.663 0.071,0.918 0.014,0.226 0.16,0.328 0.315,0.328 0.176,0 0.363,-0.132 0.381,-0.361 0.033,-0.431 0.021,-0.995 0.78,-1.123 v 0 0 l 0.24,-0.771 c 0.719,0.254 1.436,1.085 0.133,2.482 -0.024,0.705 0.729,1.115 1.781,1.711 0.178,0.102 0.366,0.208 0.56,0.323 0.098,0.058 0.198,0.118 0.3,0.18 0.213,0.126 1.016,0.716 1.734,1.331 l 0.621,-0.332 c -0.128,-0.113 -0.27,-0.235 -0.428,-0.366 -0.642,-0.533 -1.335,-1.045 -1.587,-1.196 -0.051,-0.031 -0.101,-0.061 -0.151,-0.091 0.684,-0.631 1.412,-1.178 2.07,-1.623 0.273,-0.184 0.534,-0.35 0.775,-0.498 0.243,-0.149 0.466,-0.28 0.66,-0.389 0.531,-0.298 0.949,-0.674 1.266,-1.091 0.206,-0.271 0.37,-0.558 0.493,-0.854 0.117,-0.281 0.197,-0.569 0.244,-0.856 0.016,-0.097 0.028,-0.194 0.036,-0.291 0.022,-0.268 0.015,-0.531 -0.02,-0.783 -0.038,-0.268 -0.074,-0.539 -0.107,-0.812 -0.049,-0.405 -0.092,-0.814 -0.125,-1.222 -0.038,-0.476 -0.061,-0.951 -0.061,-1.417 0,-1.436 0.219,-2.466 1.22,-3.452 0.723,-0.713 1.734,-0.884 2.707,-0.95 0.509,-0.034 1.944,-0.241 2.909,-0.386 0.562,-0.083 0.985,-0.551 1.015,-1.118 0.041,-0.773 0.034,-1.777 -0.24,-2.118 l -1.322,0.182 c -0.305,0.458 -1.048,0.818 -1.766,0.818 -0.565,0 -1.112,-0.224 -1.421,-0.797 -0.093,-0.173 -0.166,-0.375 -0.209,-0.614 -0.013,-0.069 -0.023,-0.141 -0.03,-0.216 l 0.419,0.172 0.238,0.098 c 0.01,-0.058 0.022,-0.112 0.035,-0.165 0.141,-0.584 0.435,-0.791 0.795,-0.791 0.17,0 0.354,0.046 0.544,0.12 0.023,0.008 0.044,0.017 0.066,0.026 0.345,0.136 0.582,0.249 0.758,0.249 0.12,0 0.212,-0.054 0.29,-0.189 0.107,-0.186 10e-4,-0.354 -0.192,-0.482 -0.063,-0.041 -0.136,-0.079 -0.213,-0.111 -1.013,-0.424 -1.301,-1.405 -0.375,-2.422 l 0.704,0.623 c 0.106,-0.073 0.215,-0.104 0.321,-0.104 0.34,0 0.648,0.313 0.729,0.539 0.126,0.352 -0.013,0.752 -0.062,1.044 -0.014,0.084 -0.021,0.16 -0.012,0.222 0.025,0.159 0.128,0.293 0.263,0.361 0.059,0.03 0.123,0.048 0.19,0.048 0.06,0 0.122,-0.013 0.182,-0.042 0.063,-0.031 0.109,-0.071 0.145,-0.118 0.086,-0.111 0.11,-0.258 0.115,-0.408 0.003,-0.085 0.005,-0.167 0.014,-0.246 0.016,-0.142 0.057,-0.273 0.178,-0.384 0.055,-0.05 0.118,-0.092 0.181,-0.132 0.038,-0.024 0.228,-0.109 0.236,-0.154 l 0.094,-0.979 c 0.695,0.174 1.474,0.514 1.277,1.601 -0.033,0.183 -0.094,0.388 -0.188,0.616 -0.034,0.084 -0.072,0.171 -0.115,0.261 0.612,0.303 1.008,0.874 1.107,1.541 0.09,0.607 -0.012,2.783 -0.081,4.016 -0.027,0.5 -0.406,0.91 -0.902,0.978 -0.559,0.076 -1.283,0.186 -1.814,0.303 -0.835,0.185 -1.652,0.553 -1.837,1.148 -0.161,0.516 -0.065,0.576 -0.019,1.108 0.036,0.415 0.093,0.827 0.125,1.242 0.004,0.063 0.008,0.127 0.01,0.191 0.008,0.243 -0.002,0.486 -0.029,0.728 0.049,-0.031 0.098,-0.062 0.149,-0.089 0.16,-0.087 0.329,-0.152 0.503,-0.197 0.188,-0.049 0.382,-0.075 0.576,-0.075 0.415,0 0.83,0.113 1.195,0.337 0.67,0.41 1.059,1.121 1.041,1.9 -0.033,1.39 -0.821,2.371 -1.583,3.318 -0.364,0.454 -0.741,0.922 -1.018,1.422 -0.886,1.601 -1.095,3.341 -0.621,5.175 0.206,0.796 0.688,1.523 1.198,2.292 0.194,0.294 0.37,0.557 0.553,0.861 0,0 0.397,-0.177 0.658,-0.118 0.071,0.017 0.141,0.051 0.217,0.098 0.611,0.377 1.257,1.934 1.234,3.794 -0.018,1.48 -0.369,2.712 -1.062,3.717 0.154,-0.422 0.278,-0.856 0.358,-1.298 0.088,-0.484 0.124,-0.978 0.091,-1.464 -0.031,-0.485 -0.131,-0.96 -0.293,-1.404 0.071,0.468 0.073,0.939 0.012,1.395 -0.061,0.457 -0.185,0.899 -0.353,1.32 -0.149,0.374 -0.333,0.731 -0.54,1.074 0.144,-0.86 0.14,-1.729 -0.09,-2.809 -0.144,-0.675 -0.428,-1.311 -0.679,-1.872 -0.229,-0.512 -0.405,-0.924 -0.475,-1.262 -0.076,-0.368 -0.025,-0.65 0.221,-0.876 -0.043,-0.071 -0.088,-0.141 -0.133,-0.212 -0.112,-0.175 -0.228,-0.35 -0.346,-0.528 -0.522,-0.788 -1.061,-1.602 -1.299,-2.52 -0.517,-1.997 -0.277,-3.978 0.692,-5.727 0.308,-0.557 0.705,-1.051 1.089,-1.529 0.715,-0.889 1.39,-1.729 1.417,-2.865 0.012,-0.516 -0.236,-0.968 -0.682,-1.241 -0.456,-0.28 -1.006,-0.303 -1.48,-0.067 -0.015,0.008 -0.03,0.015 -0.045,0.022 -0.36,0.194 -0.682,0.553 -0.874,0.967 -0.007,0.021 -0.014,0.042 -0.021,0.063 -0.228,0.673 -0.514,1.327 -0.831,1.963 -0.936,1.883 -2.107,3.64 -2.847,5.619 -0.636,1.699 -0.348,3.766 -0.348,3.766 0.65,-0.264 1.6,-0.29 1.6,-0.29 -0.026,2.119 4.52,7.042 1.751,13.039 -0.185,-0.311 -0.44,-0.635 -0.79,-0.961 L 45.594,1.55 v 0.867 c 1.448,1.5 0.781,2.928 0.235,3.413 C 45.415,5.685 44.948,5.232 44.604,4.68 l -0.611,0.202 c 0.147,0.254 0.319,0.494 0.505,0.708 -0.056,0.043 -0.12,0.074 -0.194,0.083 -0.032,0.004 -0.071,0.006 -0.117,0.006 -0.907,0 -4.327,-0.787 -4.673,-0.967 L 39.247,3.797 C 38.319,3.548 37.456,3.049 36.843,2.716 36.939,2.453 37.219,1.861 37.788,1.93 m 3.546,-23.201 c 0.014,0.098 0.022,0.201 0.025,0.307 -0.191,-0.11 -0.406,-0.172 -0.625,-0.172 -0.196,0 -0.383,0.046 -0.557,0.137 -0.349,0.181 -0.59,0.508 -0.662,0.898 -0.047,0.252 -0.017,0.507 0.081,0.739 -0.002,0.005 -0.004,0.009 -0.006,0.013 -0.273,0.051 -0.573,0.095 -0.904,0.131 -0.549,0.058 -1.051,0.085 -1.507,0.085 -4.297,0 -4.645,-2.357 -4.645,-2.357 -0.668,-2.514 1.343,-3.643 1.343,-3.643 0,0 0.464,-2.29 -0.561,-3.159 l -1.062,0.36 -0.533,0.181 -0.299,0.102 v 0 c -0.477,0.679 -1.257,1.165 -1.998,1.165 -0.722,0 -1.409,-0.46 -1.748,-1.647 l 0.753,0.164 c -0.003,-0.774 0.249,-0.968 0.641,-0.968 v 0 c 0.082,0 0.17,0.009 0.263,0.022 0.107,0.016 0.221,0.037 0.34,0.06 0.367,0.072 0.636,0.146 0.83,0.146 0.184,0 0.301,-0.066 0.373,-0.261 0,-0.001 10e-4,-0.002 0.002,-0.004 0.104,-0.289 -0.184,-0.475 -0.545,-0.556 -0.88,-0.197 -1.376,-0.815 -1.218,-1.652 0.035,-0.187 0.103,-0.384 0.207,-0.591 0.043,-0.086 0.092,-0.173 0.148,-0.262 0.002,-0.002 0.005,-0.004 0.007,-0.006 l 0.867,0.529 c 0.131,-0.129 0.282,-0.18 0.432,-0.18 0.328,0 0.654,0.243 0.77,0.446 0.01,0.018 0.019,0.037 0.028,0.056 0.096,0.2 0.115,0.426 0.113,0.641 0,0.123 -0.007,0.242 -0.009,0.35 -0.003,0.125 10e-4,0.235 0.029,0.318 0.054,0.155 0.177,0.275 0.322,0.327 0.052,0.019 0.107,0.03 0.162,0.03 0.09,0 0.18,-0.026 0.263,-0.086 0.205,-0.149 0.211,-0.381 0.178,-0.611 v 0 c -0.033,-0.235 -0.074,-0.455 0.056,-0.662 0.01,-0.015 0.018,-0.031 0.03,-0.046 0.049,-0.064 0.108,-0.12 0.167,-0.175 0.037,-0.033 0.223,-0.16 0.223,-0.209 l -0.085,-1.063 c 0.557,0.039 1.176,0.162 1.478,0.672 0.062,0.105 0.111,0.226 0.143,0.365 0.115,0.39 0.163,0.874 0.217,1.539 0.246,0.102 0.47,0.233 0.661,0.398 0.242,0.21 0.43,0.473 0.54,0.799 0.299,0.896 0.557,2.698 0.164,4.6 0,0 4.027,0.503 4.896,0.939 0.057,0.629 0.135,1.236 0.212,1.791 m -5.707,20.215 c 0.12,0 0.247,0.008 0.381,0.023 -0.392,0.139 -0.699,0.371 -0.899,0.685 C 34.832,0.087 34.788,0.542 34.895,0.95 34.875,0.946 34.855,0.941 34.834,0.937 34.366,0.834 34.128,0.475 34.213,0 c 0.129,-0.72 0.578,-1.056 1.414,-1.056 M -5.808,-18.797 c 0.123,0.233 0.306,0.518 0.63,0.905 -0.085,-0.049 -0.165,-0.095 -0.238,-0.136 -0.478,-0.269 -0.839,-0.602 -1.105,-0.962 -0.206,-0.279 -0.355,-0.575 -0.455,-0.87 -0.039,-0.114 -0.069,-0.227 -0.094,-0.339 0.124,-0.188 0.332,-0.31 0.55,-0.31 0.09,0 0.181,0.02 0.268,0.066 0.33,0.171 0.457,0.605 0.232,0.949 -0.02,0.03 -0.041,0.06 -0.066,0.088 0.088,0.183 0.151,0.368 0.278,0.609 z m 46.274,-1.646 c 0.087,-0.046 0.178,-0.066 0.268,-0.066 0.217,0 0.426,0.122 0.55,0.31 -0.025,0.112 -0.056,0.225 -0.094,0.339 -0.101,0.295 -0.249,0.591 -0.456,0.87 -0.266,0.36 -0.627,0.693 -1.105,0.962 -0.072,0.041 -0.153,0.087 -0.238,0.136 0.325,-0.387 0.508,-0.672 0.631,-0.905 v 0 c 0.127,-0.241 0.189,-0.426 0.278,-0.609 -0.025,-0.028 -0.047,-0.058 -0.067,-0.088 -0.224,-0.344 -0.097,-0.778 0.233,-0.949 M 29.973,-0.596 c -0.116,0.021 -0.233,0.033 -0.352,0.033 H 29.62 c -0.089,0 -0.181,-0.006 -0.274,-0.017 -0.277,-0.033 -0.557,-0.12 -0.778,-0.279 l 0.003,-0.003 c -0.248,-0.182 -0.429,-0.481 -0.438,-0.795 l 0.471,0.001 c 0.205,0.174 0.455,0.294 0.73,0.349 V -1.953 C 28.879,-2.101 28.637,-2.531 28.661,-3.01 l 0.503,0.006 c 0.042,0.058 0.086,0.115 0.136,0.167 0.175,0.184 0.457,0.394 0.885,0.488 v -0.652 c -0.504,-0.17 -0.743,-0.616 -0.718,-1.117 l 0.661,0.008 c 0.15,0.417 0.521,0.712 1.02,0.802 v -0.644 c -0.257,-0.08 -0.468,-0.262 -0.468,-0.589 0,-0.295 0.264,-0.503 0.468,-0.503 l -0.02,-0.547 c 0.003,0 0.005,0 0.008,0 0.144,0 0.26,0.036 0.389,0.103 0.413,0.217 0.574,0.696 0.559,1.141 l 0.601,0.292 c 0.004,-0.022 0.007,-0.044 0.009,-0.066 0.047,-0.375 0.003,-0.733 -0.117,-1.044 l 1.125,-1.071 c 0.222,0.54 0.506,1.055 0.859,1.516 0.127,0.165 0.26,0.319 0.399,0.465 -0.486,0.368 -1.095,0.827 -1.293,0.976 -0.628,0.471 -1.21,0.995 -1.811,1.498 -0.37,0.309 -0.751,0.618 -1.15,0.889 -0.221,0.15 -0.472,0.249 -0.733,0.296 m 1.532,5.725 c 0,0.106 -0.005,0.212 -0.017,0.317 H 29.976 C 29.963,4.584 29.747,3.756 29.365,3.106 29.107,2.667 28.792,2.339 28.441,2.135 h 0.111 c 1.629,0 2.953,1.344 2.953,2.994"
             style="fill:#ffffff;fill-opacity:1;fill-rule:nonzero;stroke:none"
             id="path50" />
        </g>
        <path
           d="M 20.085,70.304 H 13.389 V 13.391 h 6.696 z"
           style="fill:#fab20b;fill-opacity:1;fill-rule:nonzero;stroke:none"
           id="path52" />
        <g
           id="g54"
           transform="translate(77.15,63.2205)">
          <path
             d="M 0,0 C 0.981,0 1.776,0.398 1.776,0.888 1.776,1.379 0.981,1.776 0,1.776 -0.981,1.776 -1.776,1.379 -1.776,0.888 -1.776,0.398 -0.981,0 0,0"
             style="fill:#ed1c24;fill-opacity:1;fill-rule:nonzero;stroke:none"
             id="path56" />
        </g>
        <g
           id="g58"
           transform="translate(72.0646,64.1085)">
          <path
             d="M 0,0 -2.009,1.005 -4.019,0 l 2.01,-1.005 z"
             style="fill:#ed1c24;fill-opacity:1;fill-rule:nonzero;stroke:none"
             id="path60" />
        </g>
        <g
           id="g62"
           transform="translate(86.2543,64.1085)">
          <path
             d="M 0,0 -2.009,1.005 -4.019,0 l 2.01,-1.005 z"
             style="fill:#ed1c24;fill-opacity:1;fill-rule:nonzero;stroke:none"
             id="path64" />
        </g>
        <g
           id="g66"
           transform="translate(102.4812,54.456)">
          <path
             d="M 0,0 C 0.275,0.519 0.545,1.042 0.803,1.571 1.131,2.243 1.439,2.926 1.708,3.626 1.976,4.325 2.203,5.041 2.373,5.767 2.545,6.493 2.662,7.227 2.738,7.963 2.579,7.241 2.381,6.529 2.133,5.838 1.885,5.147 1.587,4.479 1.25,3.831 0.629,2.64 -0.112,1.513 -0.877,0.398 -0.546,0.209 -0.249,0.082 0,0 m -49.8,0.398 c -0.766,1.115 -1.507,2.242 -2.128,3.433 -0.337,0.648 -0.635,1.316 -0.882,2.007 -0.249,0.691 -0.447,1.403 -0.605,2.125 0.076,-0.736 0.193,-1.47 0.364,-2.196 0.171,-0.726 0.397,-1.442 0.666,-2.141 0.268,-0.7 0.577,-1.383 0.904,-2.055 0.259,-0.529 0.529,-1.052 0.804,-1.571 0.249,0.082 0.545,0.209 0.877,0.398 m 0.148,2.9 c 0.202,-0.478 0.447,-0.946 0.705,-1.39 0.159,-0.274 0.319,-0.543 0.48,-0.811 0.343,0.119 0.679,0.185 1.007,0.208 -0.292,0.344 -0.585,0.687 -0.868,1.03 -0.319,0.386 -0.614,0.776 -0.88,1.195 -0.264,0.419 -0.503,0.863 -0.734,1.312 -0.232,0.45 -0.453,0.907 -0.676,1.363 0.145,-0.487 0.289,-0.973 0.444,-1.458 0.156,-0.485 0.32,-0.97 0.522,-1.449 M -2.21,1.097 c 0.16,0.268 0.321,0.537 0.479,0.811 0.259,0.444 0.504,0.912 0.706,1.39 0.201,0.479 0.366,0.964 0.522,1.449 0.155,0.485 0.299,0.971 0.443,1.458 C -0.282,5.749 -0.504,5.292 -0.735,4.842 -0.967,4.393 -1.205,3.949 -1.47,3.53 -1.735,3.111 -2.03,2.721 -2.349,2.335 -2.632,1.992 -2.925,1.649 -3.217,1.305 -2.889,1.282 -2.553,1.216 -2.21,1.097 m -0.551,12.321 c 0,-0.573 0.205,-1.167 1.132,-1.125 0,0 0.236,0.416 0.932,1.11 0,0 -1.151,-0.23 -2.064,0.015 m -45.155,0 c -0.913,-0.245 -2.064,-0.015 -2.064,-0.015 0.696,-0.694 0.932,-1.11 0.932,-1.11 0.927,-0.042 1.132,0.552 1.132,1.125 M 6.525,-28.834 c -1.427,0 -2.826,0.513 -3.851,1.609 -0.247,0.264 -0.475,0.505 -0.686,0.727 -0.342,0.696 -0.993,1.354 -1.943,1.963 -0.191,0.122 -0.392,0.243 -0.607,0.361 0.047,0.017 0.094,0.035 0.141,0.054 0.096,0.037 0.191,0.078 0.284,0.124 0.662,0.256 1.176,0.41 1.608,0.482 -0.005,-0.035 -0.012,-0.069 -0.015,-0.105 l -0.107,-1.042 0.968,0.398 0.036,0.015 c 0.069,-0.13 0.151,-0.244 0.245,-0.343 0.248,-0.26 0.576,-0.399 0.948,-0.404 -0.117,-0.179 -0.2,-0.376 -0.247,-0.586 -0.146,-0.658 0.096,-1.375 0.682,-2.019 l 0.416,-0.457 0.462,0.409 0.427,0.377 c 0.061,-0.01 0.122,-0.014 0.184,-0.014 0.611,0 1.15,0.485 1.318,0.953 0.022,0.061 0.039,0.122 0.052,0.182 0.065,-0.054 0.131,-0.099 0.194,-0.139 l 0.065,-0.679 0.069,-0.726 0.707,0.178 c 0.533,0.134 1.281,0.396 1.619,1.116 0.159,0.338 0.203,0.72 0.132,1.152 1.553,0.182 2.767,0.588 2.767,0.588 -0.889,-2.666 -3.421,-4.174 -5.868,-4.174 m -5.032,0.439 c 0,0 -1.074,2.377 -3.715,2.579 -0.867,0.067 -1.823,0.188 -2.515,0.763 -0.297,0.247 -0.488,0.606 -0.789,1.012 -0.092,0.186 -0.2,0.373 -0.324,0.561 -0.31,0.468 -0.704,0.846 -1.175,1.133 0.367,0.201 1.014,0.48 1.769,0.48 0.255,0 0.523,-0.032 0.796,-0.11 0.915,-0.261 1.803,-0.613 2.784,-0.613 0.763,0 1.581,0.213 2.513,0.847 0,0 -0.047,-1.072 -1.212,-1.674 -0.164,-0.084 -0.351,-0.158 -0.562,-0.22 -0.374,-0.109 -0.826,-0.177 -1.374,-0.177 -0.218,0 -0.451,0.011 -0.7,0.033 0,0 1.404,-0.45 2.67,-1.251 0.768,-0.486 1.484,-1.101 1.805,-1.824 0.208,-0.47 0.25,-0.985 0.029,-1.539 m -8.437,0.84 c 0.028,0.568 0.053,1.172 -0.113,1.723 -0.286,0.945 -1.153,1.474 -2.069,1.687 -1.367,0.317 -2.165,0.423 -3.234,1.414 -0.022,0.02 -0.046,0.041 -0.071,0.062 l 0.333,0.203 c 0.135,-0.05 0.279,-0.075 0.429,-0.075 0.576,0 1.096,0.383 1.313,0.761 0.05,0.087 0.089,0.175 0.119,0.263 0.004,-0.005 0.008,-0.01 0.012,-0.015 0.077,-0.101 0.16,-0.181 0.239,-0.254 l -0.061,-0.762 -0.059,-0.727 0.728,0.052 c 0.478,0.033 1.122,0.13 1.605,0.541 l 0.284,-0.143 c 0.111,-0.056 0.213,-0.113 0.312,-0.17 0.277,-0.196 0.562,-0.464 0.804,-0.83 0.125,-0.189 0.227,-0.371 0.31,-0.546 0.999,-2.109 -0.881,-3.184 -0.881,-3.184 m -6.242,-0.063 c 0,0 0.541,2.391 -0.612,3.145 -1.838,1.203 -2.823,0.168 -4.881,1.741 -0.024,0.026 -0.048,0.052 -0.073,0.078 -0.969,0.982 -2.036,1.598 -3.008,1.927 -0.672,-0.107 -1.413,-0.186 -2.235,-0.227 0.157,-0.009 0.32,-0.021 0.491,-0.04 0.292,-0.031 0.602,-0.08 0.923,-0.152 0.492,-0.112 1.012,-0.28 1.534,-0.535 0.626,-0.305 1.256,-0.812 1.848,-1.413 0.036,-0.036 0.07,-0.072 0.103,-0.109 1.282,-1.386 0.936,-2.751 0.936,-2.751 0,0 -1.642,2.185 -4.091,2.185 -1.169,0 -2.178,-0.394 -2.703,-0.646 l -0.385,-0.203 -0.384,0.203 c -0.525,0.252 -1.534,0.646 -2.703,0.646 -2.45,0 -4.091,-2.185 -4.091,-2.185 0,0 -0.346,1.365 0.936,2.751 0.033,0.037 0.067,0.073 0.102,0.109 0.593,0.601 1.223,1.108 1.848,1.413 0.523,0.255 1.042,0.423 1.535,0.535 0.321,0.072 0.631,0.121 0.922,0.152 0.173,0.019 0.338,0.031 0.496,0.04 -0.822,0.042 -1.564,0.121 -2.236,0.228 -0.973,-0.329 -2.041,-0.944 -3.011,-1.928 -0.025,-0.026 -0.049,-0.052 -0.074,-0.078 -2.057,-1.573 -3.042,-0.538 -4.88,-1.741 -1.153,-0.754 -0.613,-3.145 -0.613,-3.145 0,0 -2.433,1.836 -0.227,4.269 0.464,0.513 1.018,0.935 1.427,1.213 0.34,0.233 0.58,0.365 0.58,0.365 0,0 -0.167,0.015 -0.434,0.062 -0.139,0.024 -0.306,0.057 -0.491,0.101 -0.035,0.008 -0.072,0.018 -0.108,0.027 0.093,0.431 0.064,0.846 -0.09,1.217 -0.064,0.155 -0.149,0.297 -0.25,0.428 0.951,-0.259 2.118,-0.461 3.451,-0.461 0.51,0 1.045,0.108 1.601,0.175 0.194,0.023 0.4,0.034 0.613,0.034 0.069,0 0.14,-0.003 0.21,-0.005 -0.52,0.163 -0.983,0.341 -1.4,0.523 -0.342,-0.051 -0.684,-0.1 -1.024,-0.1 -1.05,0 -1.99,0.131 -2.796,0.315 0.147,0.148 0.24,0.324 0.299,0.507 v 0 l 0.09,-0.019 1.023,-0.223 -0.287,1.007 c -0.542,1.896 -1.824,2.101 -2.35,2.101 -0.854,0 -1.769,-0.489 -2.384,-1.26 v 0 l -1.304,-0.443 c -0.292,0.533 -0.274,1.468 -0.193,2.059 0.227,0.169 0.561,0.46 0.862,0.887 0.457,0.65 0.917,1.743 0.52,3.264 -0.042,0.203 -0.246,0.968 -1.07,1.653 l 0.152,0.488 0.135,0.433 c 0.205,0.084 0.362,0.197 0.484,0.326 v 0 c 0.175,-0.37 0.526,-0.706 0.971,-0.824 l 0.067,-0.382 0.114,-0.655 0.654,0.122 c 0.902,0.167 1.505,0.725 1.613,1.492 0.048,0.342 -0.012,0.69 -0.159,1.006 0.343,0.08 0.649,0.274 0.882,0.555 l 0.851,-0.475 0.084,1.019 c 0.073,0.892 -0.248,1.445 -0.531,1.752 -0.36,0.391 -0.879,0.615 -1.425,0.615 -0.056,0 -0.113,-0.002 -0.169,-0.007 0.015,0.05 0.027,0.101 0.036,0.152 0.032,0.173 0.032,0.344 0.002,0.506 l 0.287,0.269 0.638,0.595 -0.749,0.449 c -0.378,0.228 -0.794,0.348 -1.201,0.348 -0.677,0 -1.463,-0.351 -1.85,-1.293 v 0 0 c -0.164,0.189 -0.371,0.462 -0.601,0.831 -0.092,0.148 -0.184,0.301 -0.273,0.449 -0.103,0.174 -0.208,0.348 -0.318,0.523 0,0.002 10e-4,0.005 0.002,0.007 0.334,1.237 0.321,2.942 -0.173,4.517 l 1.23,1.171 v 0 c 0.123,-0.135 0.267,-0.248 0.431,-0.334 0.228,-0.12 0.444,-0.175 0.679,-0.175 h 0.013 l 0.653,0.005 v 0.799 c 0.024,0.019 0.046,0.04 0.069,0.061 0.175,0.17 0.288,0.384 0.329,0.616 l 0.597,-0.007 0.602,-0.008 0.031,0.602 c 0.009,0.179 -0.006,0.351 -0.042,0.516 l 0.215,-0.003 0.602,-0.007 0.031,0.602 c 0.014,0.269 -0.03,0.525 -0.122,0.758 h 0.023 l 0.644,-0.002 -0.016,0.645 c -0.013,0.495 -0.272,0.975 -0.693,1.284 -0.366,0.268 -0.792,0.369 -1.118,0.403 v 1.459 h 24.444 V 9.826 C -13.43,9.795 -13.872,9.697 -14.252,9.419 l 0.003,-0.003 c -0.419,-0.309 -0.677,-0.788 -0.689,-1.282 l -0.017,-0.644 0.644,0.002 h 0.023 C -14.38,7.259 -14.424,7.003 -14.41,6.734 l 0.031,-0.602 0.602,0.007 0.216,0.003 c -0.036,-0.165 -0.052,-0.337 -0.043,-0.516 l 0.031,-0.602 0.602,0.008 0.598,0.007 c 0.041,-0.232 0.153,-0.446 0.329,-0.616 0.023,-0.022 0.047,-0.044 0.072,-0.064 V 3.563 l 0.65,-0.005 h 0.012 c 0.235,0 0.451,0.055 0.68,0.175 0.162,0.085 0.305,0.197 0.427,0.33 l 1.227,-1.167 c -0.494,-1.575 -0.508,-3.28 -0.173,-4.517 0,-0.002 10e-4,-0.005 0.002,-0.007 -0.11,-0.175 -0.215,-0.349 -0.319,-0.523 -0.088,-0.148 -0.18,-0.301 -0.272,-0.449 -0.225,-0.36 -0.44,-0.646 -0.602,-0.835 l 10e-4,0.004 c -0.387,0.942 -1.173,1.293 -1.85,1.293 -0.407,0 -0.823,-0.12 -1.202,-0.347 l -0.748,-0.449 0.637,-0.596 0.288,-0.269 c -0.031,-0.162 -0.03,-0.333 0.001,-0.506 0.01,-0.051 0.022,-0.102 0.036,-0.152 -0.055,0.005 -0.112,0.007 -0.168,0.007 -0.546,0 -1.065,-0.224 -1.425,-0.614 -0.283,-0.308 -0.605,-0.861 -0.531,-1.753 l 0.084,-1.019 0.85,0.475 c 0.234,-0.281 0.539,-0.475 0.883,-0.555 -0.147,-0.316 -0.207,-0.664 -0.159,-1.005 0.108,-0.768 0.711,-1.326 1.613,-1.493 l 0.654,-0.122 0.114,0.656 0.066,0.381 c 0.446,0.118 0.796,0.454 0.972,0.824 0.122,-0.129 0.279,-0.242 0.484,-0.326 l 0.112,-0.358 0.023,-0.075 0.152,-0.488 c -0.824,-0.685 -1.029,-1.45 -1.07,-1.653 -0.397,-1.521 0.063,-2.614 0.52,-3.264 0.3,-0.427 0.634,-0.718 0.862,-0.887 0.081,-0.591 0.099,-1.526 -0.194,-2.059 l -1.304,0.443 v 0 c -0.615,0.771 -1.53,1.26 -2.383,1.26 -0.526,0 -1.808,-0.205 -2.35,-2.101 l -0.288,-1.007 1.024,0.223 0.09,0.019 v 0 c 0.059,-0.183 0.152,-0.359 0.299,-0.507 -0.806,-0.184 -1.747,-0.315 -2.796,-0.315 -0.337,0 -0.677,0.048 -1.016,0.098 -0.417,-0.18 -0.878,-0.358 -1.397,-0.521 0.066,0.002 0.133,0.005 0.198,0.005 0.214,0 0.42,-0.011 0.614,-0.034 0.556,-0.067 1.09,-0.175 1.601,-0.175 1.333,0 2.499,0.202 3.451,0.461 -0.101,-0.131 -0.186,-0.273 -0.25,-0.428 -0.155,-0.371 -0.183,-0.786 -0.091,-1.217 -0.035,-0.009 -0.073,-0.019 -0.107,-0.027 -0.185,-0.044 -0.352,-0.077 -0.491,-0.101 -0.267,-0.047 -0.434,-0.062 -0.434,-0.062 0,0 0.239,-0.132 0.58,-0.365 0.408,-0.278 0.963,-0.7 1.427,-1.213 2.206,-2.433 -0.228,-4.269 -0.228,-4.269 m -28.365,3.473 c -0.916,-0.213 -1.783,-0.742 -2.069,-1.687 -0.167,-0.551 -0.141,-1.155 -0.114,-1.723 0,0 -1.879,1.075 -0.881,3.184 0.083,0.175 0.185,0.357 0.31,0.546 0.243,0.366 0.528,0.634 0.805,0.83 0.099,0.057 0.201,0.114 0.312,0.17 l 0.283,0.143 c 0.484,-0.411 1.128,-0.508 1.606,-0.541 l 0.727,-0.052 -0.058,0.727 -0.061,0.762 c 0.078,0.073 0.162,0.153 0.238,0.254 0.004,0.005 0.008,0.01 0.012,0.015 0.031,-0.088 0.07,-0.176 0.119,-0.263 0.217,-0.378 0.738,-0.761 1.314,-0.761 0.15,0 0.293,0.025 0.428,0.075 l 0.334,-0.203 c -0.025,-0.021 -0.049,-0.042 -0.071,-0.062 -1.069,-0.991 -1.867,-1.097 -3.234,-1.414 m -4.389,-0.908 c -0.692,-0.575 -1.649,-0.696 -2.515,-0.763 -2.642,-0.202 -3.715,-2.579 -3.715,-2.579 -0.221,0.554 -0.18,1.069 0.029,1.539 0.32,0.723 1.037,1.338 1.805,1.824 1.265,0.801 2.67,1.251 2.67,1.251 -0.249,-0.022 -0.482,-0.033 -0.7,-0.033 -0.549,0 -1,0.068 -1.375,0.177 -0.21,0.062 -0.397,0.136 -0.561,0.22 -1.165,0.602 -1.212,1.674 -1.212,1.674 0.932,-0.634 1.75,-0.847 2.513,-0.847 0.98,0 1.868,0.352 2.784,0.613 0.273,0.078 0.54,0.11 0.796,0.11 0.754,0 1.402,-0.279 1.769,-0.48 -0.472,-0.287 -0.866,-0.665 -1.175,-1.133 -0.125,-0.188 -0.232,-0.375 -0.324,-0.561 -0.302,-0.406 -0.493,-0.765 -0.789,-1.012 m -7.411,-2.172 c -1.026,-1.096 -2.424,-1.609 -3.851,-1.609 -2.447,0 -4.979,1.508 -5.868,4.174 0,0 1.214,-0.406 2.766,-0.588 -0.07,-0.432 -0.026,-0.814 0.133,-1.152 0.338,-0.72 1.085,-0.982 1.618,-1.116 l 0.707,-0.178 0.07,0.726 0.065,0.679 c 0.063,0.04 0.128,0.085 0.193,0.139 0.014,-0.06 0.031,-0.121 0.053,-0.182 0.168,-0.468 0.707,-0.953 1.318,-0.953 0.062,0 0.123,0.004 0.184,0.014 l 0.426,-0.377 0.463,-0.409 0.416,0.457 c 0.585,0.644 0.827,1.361 0.681,2.019 -0.046,0.21 -0.13,0.407 -0.247,0.586 0.373,0.005 0.701,0.144 0.949,0.404 0.094,0.099 0.175,0.213 0.244,0.343 l 0.036,-0.015 0.969,-0.398 -0.107,1.042 c -0.004,0.036 -0.01,0.07 -0.015,0.105 0.431,-0.072 0.945,-0.226 1.607,-0.482 0.094,-0.046 0.189,-0.087 0.285,-0.124 0.047,-0.019 0.094,-0.037 0.141,-0.054 -0.215,-0.118 -0.417,-0.239 -0.608,-0.361 -0.949,-0.609 -1.601,-1.267 -1.942,-1.963 -0.211,-0.222 -0.439,-0.463 -0.686,-0.727 m 8.924,21.396 c 0.113,0.1 0.222,0.201 0.329,0.303 0.077,-0.045 0.153,-0.088 0.226,-0.129 0.591,-0.334 1.154,-0.653 1.327,-0.918 -0.429,-0.533 -0.805,-1.248 -0.621,-1.999 0.04,-0.164 0.107,-0.32 0.195,-0.464 -0.652,0.188 -1.454,0.305 -2.439,0.305 v 0 l -2.013,-0.143 c 0.171,0.237 0.415,0.528 0.778,0.907 l 1.376,1.438 0.014,0.014 v -0.004 c 0.276,0.216 0.554,0.446 0.828,0.69 m -4.038,-3.89 c 0.224,-0.343 0.097,-0.777 -0.233,-0.949 -0.087,-0.045 -0.178,-0.066 -0.267,-0.066 -0.218,0 -0.427,0.123 -0.55,0.311 0.024,0.112 0.055,0.225 0.094,0.338 0.1,0.296 0.249,0.592 0.455,0.871 0.266,0.36 0.627,0.693 1.105,0.962 0.072,0.04 0.153,0.087 0.238,0.136 -0.325,-0.387 -0.508,-0.672 -0.631,-0.905 v 0 c -0.126,-0.241 -0.189,-0.426 -0.278,-0.609 0.026,-0.029 0.047,-0.058 0.067,-0.089 M -52.14,-21.77 c 0.003,-0.066 0.039,-0.606 0.415,-1.19 -0.208,0.047 -0.4,0.079 -0.583,0.098 -0.338,0.899 -1.098,1.433 -2.109,1.433 -0.798,0 -1.615,-0.343 -2.097,-0.858 l -0.575,-0.08 c -0.038,0.249 -0.069,0.679 -0.03,1.395 0.014,0.269 0.217,0.493 0.482,0.533 1.472,0.22 2.487,0.355 2.859,0.38 1.041,0.071 2.223,0.26 3.104,1.128 0.551,0.544 0.925,1.137 1.142,1.812 0.183,0.571 0.265,1.214 0.265,2.086 0,0.351 -0.013,0.702 -0.034,1.051 0.15,-0.05 0.326,-0.1 0.534,-0.152 0.445,-0.11 1.041,-0.229 1.772,-0.352 0.672,-0.113 1.34,-0.21 1.81,-0.275 -0.242,-1.747 -0.007,-3.353 0.297,-4.263 0.202,-0.603 0.612,-1.08 1.201,-1.408 0,-0.639 0.199,-1.285 0.205,-1.298 -0.446,0.226 -1.139,0.49 -1.939,0.49 -0.331,0 -0.657,-0.045 -0.968,-0.134 -0.195,-0.056 -0.389,-0.116 -0.577,-0.173 -0.695,-0.214 -1.351,-0.417 -2.035,-0.417 -0.734,0 -1.42,0.235 -2.16,0.739 l -1.033,0.703 z m 10.592,3.253 1.062,0.361 0.533,0.181 0.299,0.102 v 0 c 0.478,0.679 1.257,1.165 1.999,1.165 0.721,0 1.408,-0.46 1.747,-1.647 l -0.753,0.164 c 0.003,-0.775 -0.249,-0.969 -0.641,-0.969 v 0 c -0.082,0 -0.17,0.009 -0.263,0.023 -0.107,0.015 -0.221,0.037 -0.34,0.06 -0.367,0.072 -0.636,0.146 -0.83,0.146 -0.184,0 -0.301,-0.066 -0.373,-0.261 0,-0.002 -0.001,-0.003 -0.002,-0.004 -0.104,-0.29 0.184,-0.475 0.545,-0.556 0.88,-0.197 1.376,-0.815 1.218,-1.652 -0.035,-0.187 -0.103,-0.385 -0.207,-0.591 -0.043,-0.086 -0.092,-0.174 -0.148,-0.263 -0.002,-0.001 -0.005,-0.003 -0.007,-0.005 l -0.867,0.529 c -0.131,-0.13 -0.282,-0.181 -0.432,-0.181 -0.328,0 -0.654,0.244 -0.77,0.447 -0.01,0.018 -0.019,0.037 -0.028,0.056 -0.096,0.199 -0.115,0.426 -0.113,0.641 0,0.123 0.007,0.242 0.009,0.349 0.003,0.126 -0.001,0.236 -0.029,0.319 -0.054,0.155 -0.177,0.274 -0.321,0.327 -0.053,0.019 -0.107,0.03 -0.163,0.03 -0.09,0 -0.18,-0.027 -0.263,-0.086 -0.205,-0.149 -0.211,-0.382 -0.178,-0.611 v 0 c 0.033,-0.236 0.074,-0.456 -0.056,-0.662 -0.01,-0.016 -0.018,-0.031 -0.03,-0.046 -0.049,-0.064 -0.108,-0.12 -0.167,-0.175 -0.037,-0.034 -0.223,-0.16 -0.223,-0.209 l 0.085,-1.063 c -0.557,0.039 -1.176,0.162 -1.478,0.672 -0.062,0.105 -0.111,0.225 -0.143,0.365 -0.115,0.389 -0.163,0.874 -0.217,1.539 -0.246,0.101 -0.47,0.233 -0.661,0.398 -0.242,0.21 -0.43,0.473 -0.54,0.799 -0.299,0.895 -0.557,2.698 -0.164,4.6 0,0 -4.027,0.503 -4.896,0.939 -0.057,0.628 -0.135,1.236 -0.212,1.791 -0.014,0.098 -0.022,0.201 -0.025,0.306 0.191,-0.109 0.406,-0.171 0.626,-0.171 0.195,0 0.382,0.046 0.556,0.136 0.349,0.182 0.59,0.509 0.662,0.899 0.047,0.252 0.018,0.507 -0.081,0.739 0.002,0.004 0.004,0.009 0.006,0.013 0.273,0.051 0.573,0.095 0.904,0.13 0.549,0.059 1.051,0.086 1.507,0.086 4.297,0 4.645,-2.357 4.645,-2.357 0.668,-2.515 -1.343,-3.643 -1.343,-3.643 0,0 -0.464,-2.29 0.561,-3.16 m -7.769,28.282 c 0.025,0.09 0.056,0.185 0.096,0.286 0.044,0.108 0.221,0.463 0.67,0.463 0.256,0 0.686,-0.115 1.283,-0.66 l 0.244,-0.247 c -0.531,0.166 -1.045,0.313 -1.528,0.313 -0.265,0 -0.521,-0.045 -0.765,-0.155 m 0.764,-0.429 c 0.357,0 0.734,-0.093 1.118,-0.228 0.422,0.257 0.514,0.594 0.67,0.612 0.124,0.015 0.173,-0.329 0.11,-0.65 0,0 -0.591,-0.126 -0.984,-0.187 -0.389,-0.071 -0.834,-0.131 -1.221,-0.131 -0.086,0 -0.166,0.003 -0.238,0.009 -0.193,0.016 -0.246,0.064 -0.248,0.065 0,0 -0.002,0.004 -0.004,0.013 -0.017,0.056 -0.037,0.149 -0.045,0.273 0.262,0.159 0.545,0.224 0.842,0.224 m -11.928,-32.225 c -0.09,0.607 0.012,2.782 0.081,4.016 0.028,0.499 0.406,0.91 0.902,0.977 0.559,0.077 1.284,0.187 1.814,0.304 0.835,0.185 1.652,0.552 1.837,1.147 0.161,0.517 0.065,0.577 0.019,1.109 -0.036,0.414 -0.093,0.827 -0.124,1.241 -0.005,0.064 -0.009,0.128 -0.011,0.191 -0.008,0.243 0.002,0.487 0.029,0.729 -0.049,-0.032 -0.098,-0.063 -0.149,-0.09 -0.16,-0.086 -0.329,-0.152 -0.503,-0.197 -0.188,-0.049 -0.382,-0.074 -0.576,-0.074 -0.415,0 -0.83,0.113 -1.195,0.336 -0.67,0.411 -1.059,1.121 -1.04,1.901 0.032,1.39 0.82,2.37 1.582,3.318 0.364,0.453 0.741,0.922 1.018,1.422 0.886,1.6 1.095,3.341 0.621,5.174 -0.206,0.796 -0.687,1.523 -1.197,2.293 -0.195,0.293 -0.371,0.557 -0.554,0.861 0,0 -0.397,-0.177 -0.658,-0.118 -0.071,0.016 -0.141,0.051 -0.217,0.098 -0.611,0.376 -1.256,1.934 -1.234,3.794 0.018,1.48 0.369,2.711 1.062,3.717 -0.153,-0.423 -0.278,-0.856 -0.357,-1.298 -0.089,-0.485 -0.125,-0.978 -0.092,-1.464 0.032,-0.485 0.131,-0.96 0.293,-1.404 -0.071,0.468 -0.073,0.939 -0.011,1.395 0.06,0.457 0.184,0.899 0.352,1.32 0.149,0.374 0.333,0.731 0.54,1.074 -0.144,-0.861 -0.14,-1.73 0.09,-2.81 0.144,-0.674 0.429,-1.31 0.679,-1.871 0.23,-0.513 0.405,-0.924 0.475,-1.262 0.076,-0.369 0.026,-0.65 -0.221,-0.876 0.043,-0.071 0.088,-0.141 0.133,-0.212 0.112,-0.175 0.228,-0.351 0.346,-0.529 0.522,-0.787 1.062,-1.601 1.299,-2.519 0.517,-1.998 0.278,-3.978 -0.691,-5.727 -0.309,-0.557 -0.706,-1.051 -1.09,-1.529 -0.715,-0.889 -1.39,-1.729 -1.417,-2.865 -0.012,-0.516 0.237,-0.968 0.682,-1.242 0.456,-0.279 1.006,-0.303 1.48,-0.066 0.015,0.007 0.03,0.014 0.045,0.022 0.36,0.194 0.682,0.553 0.874,0.967 0.007,0.021 0.014,0.042 0.021,0.063 0.228,0.673 0.514,1.326 0.831,1.962 0.936,1.883 2.107,3.641 2.847,5.619 0.636,1.7 0.348,3.767 0.348,3.767 -0.65,-0.264 -1.6,-0.29 -1.6,-0.29 0.026,2.119 -4.52,7.041 -1.751,13.039 0.185,-0.311 0.44,-0.635 0.79,-0.961 l 0.253,-0.237 v 0.867 c -1.447,1.5 -0.78,2.928 -0.235,3.413 0.414,-0.145 0.881,-0.598 1.226,-1.151 l 0.61,0.202 c -0.147,0.255 -0.319,0.495 -0.505,0.708 0.056,0.044 0.12,0.075 0.194,0.084 0.032,0.004 0.072,0.006 0.117,0.006 0.907,0 4.327,-0.787 4.673,-0.967 l 0.267,-0.916 c 0.928,-0.249 1.791,-0.748 2.404,-1.08 -0.096,-0.263 -0.376,-0.855 -0.945,-0.787 0,0 0.555,-0.335 0.44,-0.853 -0.179,-0.381 -0.409,-0.773 -0.697,-1.11 l -0.556,0.564 c -0.659,0.605 -1.242,0.834 -1.718,0.834 -0.627,0 -1.068,-0.397 -1.252,-0.856 -0.281,-0.703 -0.252,-1.265 -0.149,-1.62 0.078,-0.27 0.304,-0.486 0.802,-0.528 0.092,-0.007 0.19,-0.011 0.29,-0.011 1.029,0 2.375,0.375 2.375,0.375 0.206,-1.123 0.336,-1.342 -1.265,-1.342 -0.369,0 -0.83,0.012 -1.403,0.027 l 1.605,-0.727 c 0.177,0.015 0.348,0.022 0.515,0.022 1.179,0 2.122,-0.352 2.862,-0.919 0.17,-0.13 0.329,-0.272 0.478,-0.423 0.567,-0.577 0.984,-1.295 1.269,-2.064 0.081,-0.218 0.151,-0.44 0.211,-0.664 0.312,-1.158 0.355,-2.369 0.193,-3.344 -0.118,0.147 -0.244,0.29 -0.383,0.428 l -0.067,0.067 c -0.476,0.472 -1.289,1.279 -2.26,1.78 -0.357,0.318 -0.702,0.645 -1.031,0.992 -0.709,0.747 -1.343,1.579 -1.806,2.525 0.287,-1.014 0.775,-1.979 1.363,-2.874 0.228,-0.348 0.471,-0.686 0.724,-1.015 0.215,-0.089 0.422,-0.193 0.621,-0.306 0.848,-0.482 1.572,-1.219 1.993,-1.637 0.247,-0.244 0.452,-0.511 0.639,-0.79 0.146,-0.216 0.281,-0.44 0.416,-0.666 0.103,-0.172 0.206,-0.346 0.314,-0.519 0.453,-0.725 1.049,-1.452 1.392,-1.452 v 0 0 c 0.119,0 0.207,0.087 0.248,0.292 0.183,0.908 0.75,1.313 1.369,1.313 0.288,0 0.587,-0.088 0.863,-0.254 l -0.624,-0.583 c 0.374,-0.435 -0.018,-1.109 -0.424,-1.331 -0.427,-0.232 -0.203,-0.633 0.113,-0.633 0.095,0 0.199,0.036 0.295,0.126 0.262,0.241 0.599,0.363 0.933,0.363 0.705,0 1.392,-0.544 1.3,-1.655 l -0.535,0.299 c -0.176,-0.587 -0.6,-0.835 -0.986,-0.835 -0.177,0 -0.346,0.052 -0.479,0.147 -0.303,0.218 -0.606,0.448 -0.818,0.448 -0.074,0 -0.137,-0.027 -0.185,-0.092 -0.164,-0.219 0.009,-0.436 0.583,-0.724 1.006,-0.503 1.167,-1.973 -0.315,-2.248 l -0.159,0.911 c -0.072,-0.021 -0.141,-0.03 -0.208,-0.03 -0.426,0 -0.731,0.38 -0.779,0.657 -0.072,0.41 -0.055,0.663 -0.071,0.918 -0.014,0.226 -0.16,0.328 -0.315,0.328 -0.176,0 -0.363,-0.131 -0.381,-0.361 -0.032,-0.431 -0.021,-0.994 -0.78,-1.122 v 0 l -0.24,-0.771 c -0.719,0.254 -1.436,1.085 -0.133,2.481 0.024,0.706 -0.728,1.116 -1.781,1.712 -0.178,0.101 -0.366,0.208 -0.56,0.322 -0.098,0.059 -0.198,0.118 -0.3,0.181 -0.213,0.125 -1.016,0.716 -1.734,1.33 l -0.621,-0.332 c 0.128,-0.113 0.27,-0.234 0.428,-0.366 0.642,-0.532 1.335,-1.045 1.587,-1.195 0.051,-0.031 0.101,-0.061 0.151,-0.092 -0.684,-0.631 -1.412,-1.177 -2.07,-1.622 -0.273,-0.184 -0.534,-0.351 -0.775,-0.499 -0.243,-0.148 -0.466,-0.279 -0.66,-0.388 -0.531,-0.299 -0.949,-0.675 -1.266,-1.091 -0.206,-0.271 -0.37,-0.559 -0.492,-0.854 -0.118,-0.281 -0.198,-0.57 -0.245,-0.856 -0.016,-0.097 -0.028,-0.194 -0.036,-0.291 -0.022,-0.268 -0.015,-0.532 0.02,-0.784 0.038,-0.267 0.074,-0.538 0.107,-0.811 0.05,-0.405 0.092,-0.814 0.125,-1.222 0.038,-0.476 0.061,-0.951 0.061,-1.418 0,-1.435 -0.219,-2.465 -1.22,-3.452 -0.723,-0.713 -1.734,-0.883 -2.707,-0.949 -0.509,-0.034 -1.944,-0.242 -2.909,-0.386 -0.562,-0.084 -0.985,-0.552 -1.015,-1.119 -0.041,-0.773 -0.034,-1.777 0.24,-2.117 l 1.322,0.182 c 0.305,0.458 1.048,0.818 1.766,0.818 0.565,0 1.112,-0.224 1.421,-0.797 0.093,-0.173 0.166,-0.375 0.209,-0.615 0.013,-0.069 0.023,-0.14 0.031,-0.215 l -0.42,0.172 -0.238,0.098 c -0.01,-0.059 -0.022,-0.113 -0.035,-0.165 -0.141,-0.584 -0.435,-0.791 -0.795,-0.791 -0.17,0 -0.354,0.046 -0.544,0.119 -0.023,0.009 -0.044,0.018 -0.066,0.027 -0.345,0.136 -0.582,0.248 -0.757,0.248 -0.121,0 -0.213,-0.053 -0.291,-0.189 -0.107,-0.185 -10e-4,-0.353 0.192,-0.481 0.063,-0.042 0.136,-0.079 0.213,-0.112 1.013,-0.423 1.301,-1.404 0.375,-2.421 l -0.704,0.622 c -0.106,-0.073 -0.215,-0.103 -0.321,-0.103 -0.34,0 -0.648,0.313 -0.729,0.539 -0.126,0.352 0.014,0.752 0.062,1.044 0.015,0.084 0.022,0.16 0.012,0.222 -0.025,0.159 -0.128,0.293 -0.262,0.361 -0.06,0.029 -0.124,0.048 -0.191,0.048 -0.06,0 -0.121,-0.013 -0.182,-0.043 -0.062,-0.03 -0.109,-0.071 -0.145,-0.118 -0.086,-0.11 -0.11,-0.258 -0.115,-0.407 -0.003,-0.085 -0.005,-0.167 -0.014,-0.246 -0.016,-0.142 -0.057,-0.273 -0.178,-0.384 -0.055,-0.05 -0.118,-0.092 -0.18,-0.132 -0.039,-0.024 -0.229,-0.109 -0.237,-0.154 l -0.094,-0.98 c -0.695,0.175 -1.474,0.515 -1.277,1.602 0.033,0.183 0.094,0.388 0.188,0.616 0.034,0.084 0.072,0.171 0.115,0.261 -0.612,0.303 -1.008,0.874 -1.107,1.541 m 18.582,29.386 c 0.628,0.471 1.21,0.995 1.811,1.498 0.37,0.309 0.751,0.617 1.15,0.889 0.231,0.157 0.495,0.258 0.768,0.302 0.105,0.017 0.211,0.026 0.317,0.026 h 0.001 c 0.101,0 0.205,-0.007 0.309,-0.021 0.267,-0.037 0.536,-0.123 0.747,-0.278 v 0 c 0.248,-0.181 0.429,-0.481 0.437,-0.795 l -0.47,10e-4 c -0.206,0.175 -0.455,0.294 -0.73,0.35 V 7.823 c 0.455,-0.148 0.697,-0.578 0.673,-1.057 l -0.503,0.006 c -0.042,0.058 -0.086,0.115 -0.136,0.167 -0.175,0.184 -0.458,0.394 -0.885,0.488 V 6.775 c 0.504,-0.171 0.743,-0.616 0.717,-1.117 l -0.66,0.008 c -0.15,0.417 -0.521,0.712 -1.02,0.802 V 5.823 c 0.257,-0.079 0.467,-0.261 0.467,-0.588 0,-0.295 -0.263,-0.503 -0.467,-0.503 l 0.02,-0.548 c -0.003,0 -0.005,0 -0.008,0 -0.144,0 -0.26,0.037 -0.389,0.104 -0.413,0.216 -0.574,0.695 -0.559,1.14 l -0.601,0.293 c -0.004,-0.022 -0.008,-0.044 -0.009,-0.066 -0.047,-0.373 -0.004,-0.73 0.115,-1.04 v 0 l -1.13,-1.075 c -0.222,0.54 -0.506,1.054 -0.859,1.515 -0.126,0.165 -0.26,0.32 -0.399,0.465 0.486,0.369 1.095,0.828 1.293,0.977 m 2.331,8.448 c 0,0.093 0.004,0.185 0.013,0.277 h 1.552 c 0.013,-0.862 0.229,-1.69 0.611,-2.34 0.257,-0.439 0.573,-0.767 0.924,-0.971 h -0.147 c -1.601,0 -2.953,1.39 -2.953,3.034 m 5.79,-2.063 c 0.382,0.65 0.598,1.478 0.611,2.34 h 1.976 c 0.013,-0.862 0.228,-1.69 0.61,-2.34 0.258,-0.439 0.573,-0.767 0.925,-0.971 h -1.402 c -0.354,0.358 -0.642,0.85 -0.826,1.428 h -0.685 c -0.185,-0.578 -0.473,-1.07 -0.827,-1.428 h -1.306 c 0.352,0.204 0.667,0.532 0.924,0.971 m 6.812,0 c 0.382,0.65 0.598,1.478 0.611,2.34 h 2.161 c 0.012,-0.863 0.228,-1.693 0.611,-2.344 0.256,-0.436 0.569,-0.763 0.918,-0.967 h -1.49 c -0.354,0.358 -0.642,0.85 -0.826,1.428 h -0.686 c -0.184,-0.578 -0.472,-1.07 -0.826,-1.428 h -1.397 c 0.351,0.204 0.666,0.532 0.924,0.971 m 6.997,-0.004 c 0.383,0.651 0.599,1.481 0.611,2.344 h 2.053 c 0.012,-0.862 0.228,-1.69 0.61,-2.34 0.258,-0.439 0.573,-0.767 0.924,-0.971 h -1.375 c -0.354,0.358 -0.642,0.85 -0.826,1.428 h -0.685 c -0.185,-0.578 -0.472,-1.07 -0.827,-1.428 h -1.403 c 0.349,0.204 0.662,0.531 0.918,0.967 m 6.889,0.004 c 0.382,0.65 0.598,1.478 0.61,2.34 h 1.513 c 0.011,-0.105 0.017,-0.211 0.017,-0.317 0,-1.651 -1.325,-2.994 -2.953,-2.994 h -0.112 c 0.352,0.204 0.667,0.532 0.925,0.971 m 1.34,-3.998 c 0.4,-0.272 0.78,-0.58 1.15,-0.889 C -9.988,7.492 -9.406,6.968 -8.779,6.497 -8.58,6.348 -7.971,5.889 -7.485,5.52 -7.624,5.375 -7.758,5.22 -7.884,5.055 -8.237,4.594 -8.521,4.08 -8.743,3.54 l -1.126,1.07 c 0.12,0.312 0.165,0.67 0.118,1.045 -0.002,0.022 -0.006,0.044 -0.009,0.066 l -0.602,-0.293 c 0.015,-0.445 -0.145,-0.924 -0.559,-1.14 -0.129,-0.067 -0.244,-0.104 -0.389,-0.104 -0.002,0 -0.005,0 -0.007,0 l 0.02,0.548 c -0.204,0 -0.468,0.208 -0.468,0.502 0,0.328 0.211,0.51 0.468,0.589 v 0.645 c -0.5,-0.091 -0.871,-0.385 -1.021,-0.802 l -0.66,-0.008 c -0.026,0.5 0.214,0.946 0.718,1.117 V 7.427 C -12.688,7.333 -12.971,7.123 -13.145,6.939 -13.195,6.887 -13.24,6.83 -13.282,6.772 l -0.502,-0.006 c -0.025,0.479 0.217,0.909 0.673,1.057 v 0.645 c -0.276,-0.055 -0.525,-0.174 -0.731,-0.349 l -0.47,-10e-4 c 0.008,0.314 0.189,0.614 0.437,0.795 l -0.002,0.003 c 0.22,0.16 0.501,0.247 0.778,0.28 0.092,0.011 0.184,0.016 0.273,0.016 h 0.002 c 0.118,0 0.236,-0.012 0.352,-0.033 0.261,-0.047 0.512,-0.145 0.732,-0.295 m 9.316,-17.905 v 0 c -0.123,0.233 -0.306,0.518 -0.63,0.905 0.085,-0.049 0.166,-0.096 0.238,-0.136 0.478,-0.269 0.839,-0.602 1.105,-0.962 0.206,-0.279 0.355,-0.575 0.455,-0.871 0.039,-0.113 0.069,-0.226 0.094,-0.338 -0.124,-0.188 -0.332,-0.311 -0.55,-0.311 -0.089,0 -0.181,0.021 -0.268,0.066 -0.329,0.172 -0.457,0.606 -0.232,0.949 0.02,0.031 0.041,0.06 0.066,0.089 -0.088,0.183 -0.151,0.368 -0.278,0.609 m -5.708,2.448 c 0.173,0.265 0.736,0.584 1.326,0.918 0.073,0.041 0.149,0.084 0.227,0.129 0.107,-0.102 0.216,-0.203 0.329,-0.303 0.274,-0.244 0.552,-0.474 0.828,-0.69 v 0.004 l 0.014,-0.014 1.376,-1.438 c 0.363,-0.379 0.606,-0.67 0.778,-0.907 l -2.013,0.143 v 0 c -0.985,0 -1.787,-0.117 -2.44,-0.305 0.089,0.144 0.156,0.3 0.196,0.464 0.184,0.751 -0.192,1.466 -0.621,1.999 M -9.56,-21.326 c -0.06,0.055 -0.118,0.111 -0.168,0.175 -0.011,0.015 -0.019,0.03 -0.029,0.046 -0.131,0.206 -0.09,0.426 -0.056,0.662 v 0 c 0.032,0.229 0.027,0.462 -0.178,0.611 -0.083,0.059 -0.174,0.086 -0.263,0.086 -0.056,0 -0.111,-0.011 -0.163,-0.03 -0.144,-0.053 -0.268,-0.172 -0.321,-0.327 -0.028,-0.083 -0.032,-0.193 -0.03,-0.319 0.003,-0.107 0.009,-0.226 0.01,-0.349 10e-4,-0.215 -0.017,-0.442 -0.113,-0.641 -0.009,-0.019 -0.018,-0.038 -0.028,-0.056 -0.117,-0.203 -0.442,-0.447 -0.77,-0.447 -0.15,0 -0.301,0.051 -0.433,0.181 l -0.866,-0.529 c -0.003,0.002 -0.005,0.004 -0.008,0.005 -0.055,0.089 -0.104,0.177 -0.147,0.263 -0.104,0.206 -0.172,0.404 -0.207,0.591 -0.158,0.837 0.337,1.455 1.217,1.652 0.361,0.081 0.65,0.266 0.545,0.556 0,0.001 -0.001,0.002 -0.002,0.004 -0.071,0.195 -0.189,0.261 -0.372,0.261 -0.195,0 -0.463,-0.074 -0.831,-0.146 -0.119,-0.023 -0.232,-0.045 -0.34,-0.06 -0.092,-0.014 -0.181,-0.023 -0.263,-0.023 v 0 c -0.391,0 -0.644,0.194 -0.64,0.969 l -0.754,-0.164 c 0.34,1.187 1.026,1.647 1.748,1.647 0.742,0 1.521,-0.486 1.999,-1.165 v 0 l 0.298,-0.102 0.533,-0.181 1.063,-0.361 c 1.025,0.87 0.561,3.16 0.561,3.16 0,0 -2.012,1.128 -1.344,3.643 0,0 0.349,2.357 4.645,2.357 0.457,0 0.958,-0.027 1.508,-0.086 0.33,-0.035 0.63,-0.079 0.904,-0.13 0.002,-0.004 0.004,-0.009 0.005,-0.013 -0.098,-0.232 -0.127,-0.487 -0.081,-0.739 0.073,-0.39 0.314,-0.717 0.662,-0.899 0.175,-0.09 0.362,-0.136 0.557,-0.136 0.22,0 0.435,0.062 0.625,0.171 -0.003,-0.105 -0.011,-0.208 -0.024,-0.306 -0.078,-0.555 -0.155,-1.163 -0.213,-1.791 -0.869,-0.436 -4.896,-0.939 -4.896,-0.939 0.394,-1.902 0.136,-3.705 -0.164,-4.6 -0.109,-0.326 -0.297,-0.589 -0.539,-0.799 -0.191,-0.165 -0.415,-0.297 -0.661,-0.398 -0.055,-0.665 -0.103,-1.15 -0.217,-1.539 -0.033,-0.14 -0.081,-0.26 -0.143,-0.365 -0.303,-0.51 -0.922,-0.633 -1.479,-0.672 l 0.086,1.063 c 0,0.049 -0.187,0.175 -0.223,0.209 m 10.044,0.101 c -0.74,-0.504 -1.426,-0.739 -2.16,-0.739 -0.684,0 -1.34,0.203 -2.035,0.417 -0.188,0.057 -0.382,0.117 -0.577,0.173 -0.312,0.089 -0.637,0.134 -0.968,0.134 -0.801,0 -1.494,-0.264 -1.939,-0.49 0.051,0.167 0.205,0.808 0.205,1.299 0.59,0.327 0.998,0.804 1.201,1.407 0.304,0.91 0.538,2.516 0.297,4.263 0.47,0.065 1.137,0.162 1.809,0.275 0.732,0.123 1.328,0.242 1.772,0.352 0.209,0.052 0.385,0.102 0.535,0.152 -0.021,-0.349 -0.034,-0.7 -0.034,-1.051 0,-0.872 0.081,-1.515 0.265,-2.086 0.217,-0.675 0.59,-1.268 1.142,-1.812 0.88,-0.868 2.063,-1.057 3.104,-1.128 0.371,-0.025 1.387,-0.16 2.859,-0.38 0.265,-0.04 0.468,-0.264 0.482,-0.533 0.038,-0.716 0.008,-1.146 -0.03,-1.395 l -0.575,0.08 c -0.482,0.515 -1.299,0.858 -2.098,0.858 -1.011,0 -1.77,-0.534 -2.108,-1.433 -0.183,-0.019 -0.375,-0.051 -0.584,-0.098 0.377,0.584 0.413,1.124 0.416,1.19 l 0.054,1.248 z M -3.653,9.607 -3.41,9.854 c 0.597,0.545 1.027,0.66 1.284,0.66 0.449,0 0.626,-0.355 0.67,-0.463 0.04,-0.101 0.071,-0.196 0.096,-0.286 -0.244,0.11 -0.5,0.155 -0.765,0.155 -0.483,0 -0.998,-0.147 -1.528,-0.313 m 0.411,-0.499 c 0.384,0.135 0.761,0.228 1.117,0.228 0.298,0 0.581,-0.065 0.842,-0.224 C -1.29,8.988 -1.311,8.895 -1.327,8.839 -1.329,8.83 -1.332,8.826 -1.332,8.826 -1.333,8.825 -1.386,8.777 -1.58,8.761 -1.652,8.755 -1.732,8.752 -1.817,8.752 c -0.387,0 -0.833,0.06 -1.221,0.131 -0.394,0.061 -0.984,0.187 -0.984,0.187 -0.063,0.321 -0.014,0.665 0.11,0.65 0.156,-0.018 0.248,-0.355 0.67,-0.612 m -3.742,-3.97 c 0.149,0.151 0.308,0.293 0.477,0.423 0.74,0.567 1.684,0.919 2.862,0.919 0.167,0 0.339,-0.007 0.516,-0.022 l 1.604,0.727 C -2.098,7.17 -2.559,7.158 -2.927,7.158 c -1.601,0 -1.471,0.219 -1.265,1.342 0,0 1.346,-0.375 2.375,-0.375 0.1,0 0.197,0.004 0.29,0.011 0.497,0.042 0.723,0.258 0.802,0.528 0.103,0.355 0.132,0.917 -0.15,1.62 -0.184,0.459 -0.625,0.856 -1.251,0.856 -0.476,0 -1.059,-0.229 -1.718,-0.834 L -4.4,9.742 c -0.289,0.337 -0.518,0.729 -0.697,1.11 -0.115,0.518 0.439,0.853 0.439,0.853 -0.568,-0.068 -0.849,0.524 -0.944,0.787 0.612,0.332 1.476,0.831 2.403,1.08 l 0.268,0.916 c 0.346,0.18 3.765,0.967 4.673,0.967 0.045,0 0.084,-0.002 0.117,-0.006 C 1.932,15.44 1.996,15.409 2.053,15.365 1.866,15.152 1.694,14.912 1.547,14.657 l 0.611,-0.202 c 0.344,0.553 0.812,1.006 1.226,1.151 0.545,-0.485 1.212,-1.913 -0.235,-3.413 v -0.867 l 0.253,0.237 c 0.35,0.326 0.604,0.65 0.79,0.961 C 6.961,6.526 2.414,1.604 2.441,-0.515 c 0,0 -0.95,0.026 -1.6,0.29 0,0 -0.289,-2.067 0.347,-3.767 0.741,-1.978 1.912,-3.736 2.848,-5.619 0.316,-0.636 0.602,-1.289 0.83,-1.962 0.007,-0.021 0.014,-0.042 0.021,-0.063 0.193,-0.414 0.515,-0.773 0.875,-0.967 0.014,-0.008 0.029,-0.015 0.044,-0.022 0.475,-0.237 1.024,-0.213 1.481,0.066 0.445,0.274 0.694,0.726 0.682,1.242 -0.027,1.136 -0.702,1.976 -1.417,2.865 C 6.168,-7.974 5.77,-7.48 5.462,-6.923 4.493,-5.174 4.254,-3.194 4.771,-1.196 5.008,-0.278 5.548,0.536 6.07,1.323 6.187,1.501 6.304,1.677 6.416,1.852 6.461,1.923 6.505,1.993 6.549,2.064 6.302,2.29 6.252,2.571 6.328,2.94 6.398,3.278 6.573,3.689 6.802,4.202 7.053,4.763 7.337,5.399 7.481,6.073 7.711,7.153 7.715,8.022 7.572,8.883 7.779,8.54 7.963,8.183 8.111,7.809 8.28,7.388 8.404,6.946 8.464,6.489 8.526,6.033 8.524,5.562 8.453,5.094 8.615,5.538 8.714,6.013 8.746,6.498 8.779,6.984 8.743,7.477 8.654,7.962 8.574,8.404 8.45,8.837 8.297,9.26 8.99,8.254 9.34,7.023 9.358,5.543 9.381,3.683 8.736,2.125 8.125,1.749 8.049,1.702 7.979,1.667 7.908,1.651 7.646,1.592 7.249,1.769 7.249,1.769 7.067,1.465 6.891,1.201 6.696,0.908 6.186,0.138 5.704,-0.589 5.499,-1.385 5.024,-3.218 5.233,-4.959 6.12,-6.559 c 0.277,-0.5 0.654,-0.969 1.018,-1.422 0.762,-0.948 1.55,-1.928 1.582,-3.318 0.019,-0.78 -0.37,-1.49 -1.04,-1.901 -0.365,-0.223 -0.78,-0.336 -1.195,-0.336 -0.194,0 -0.388,0.025 -0.577,0.074 -0.173,0.045 -0.342,0.111 -0.503,0.197 -0.05,0.027 -0.099,0.058 -0.148,0.09 0.027,-0.242 0.037,-0.486 0.029,-0.729 -0.003,-0.063 -0.006,-0.127 -0.011,-0.191 -0.031,-0.414 -0.088,-0.827 -0.124,-1.241 -0.047,-0.532 -0.142,-0.592 0.019,-1.109 0.185,-0.595 1.002,-0.962 1.837,-1.147 0.53,-0.117 1.254,-0.227 1.814,-0.304 0.496,-0.067 0.874,-0.478 0.902,-0.977 0.068,-1.234 0.171,-3.409 0.081,-4.016 -0.099,-0.667 -0.495,-1.238 -1.108,-1.541 0.044,-0.09 0.081,-0.177 0.116,-0.261 0.093,-0.228 0.155,-0.433 0.188,-0.616 0.197,-1.087 -0.583,-1.427 -1.278,-1.602 l -0.093,0.98 c -0.008,0.045 -0.198,0.13 -0.237,0.154 -0.063,0.04 -0.125,0.082 -0.18,0.132 -0.121,0.111 -0.162,0.242 -0.179,0.384 -0.009,0.079 -0.01,0.161 -0.013,0.246 -0.005,0.149 -0.029,0.297 -0.115,0.407 -0.036,0.047 -0.083,0.088 -0.146,0.118 -0.06,0.03 -0.121,0.043 -0.181,0.043 -0.067,0 -0.132,-0.019 -0.191,-0.048 -0.134,-0.068 -0.237,-0.202 -0.262,-0.361 -0.01,-0.062 -0.003,-0.138 0.011,-0.222 0.049,-0.292 0.189,-0.692 0.062,-1.044 -0.081,-0.226 -0.389,-0.539 -0.728,-0.539 -0.106,0 -0.215,0.03 -0.321,0.103 l -0.704,-0.622 c -0.926,1.017 -0.638,1.998 0.374,2.421 0.078,0.033 0.15,0.07 0.214,0.112 0.193,0.128 0.299,0.296 0.192,0.481 -0.079,0.136 -0.17,0.189 -0.291,0.189 -0.175,0 -0.412,-0.112 -0.757,-0.248 -0.022,-0.009 -0.043,-0.018 -0.066,-0.027 -0.19,-0.073 -0.374,-0.119 -0.544,-0.119 -0.36,0 -0.654,0.207 -0.795,0.791 -0.013,0.052 -0.025,0.106 -0.035,0.165 l -0.238,-0.098 -0.42,-0.172 c 0.008,0.075 0.018,0.146 0.031,0.215 0.043,0.24 0.115,0.442 0.208,0.615 0.309,0.573 0.857,0.797 1.421,0.797 0.719,0 1.462,-0.36 1.767,-0.818 l 1.322,-0.182 c 0.274,0.34 0.281,1.344 0.24,2.117 -0.031,0.567 -0.454,1.035 -1.015,1.119 -0.965,0.144 -2.401,0.352 -2.91,0.386 -0.973,0.066 -1.983,0.236 -2.706,0.949 -1.001,0.987 -1.221,2.017 -1.221,3.452 0,0.467 0.024,0.942 0.062,1.418 0.032,0.408 0.075,0.817 0.125,1.222 0.033,0.273 0.069,0.544 0.106,0.811 0.035,0.252 0.043,0.516 0.02,0.784 -0.008,0.097 -0.02,0.194 -0.035,0.291 -0.047,0.286 -0.128,0.575 -0.245,0.856 -0.123,0.295 -0.286,0.583 -0.492,0.854 -0.318,0.416 -0.736,0.792 -1.266,1.091 -0.194,0.109 -0.418,0.24 -0.66,0.388 -0.242,0.148 -0.502,0.315 -0.775,0.499 -0.659,0.445 -1.386,0.991 -2.071,1.622 0.051,0.031 0.101,0.061 0.152,0.092 0.252,0.15 0.945,0.663 1.586,1.195 0.159,0.132 0.301,0.253 0.429,0.366 l -0.621,0.332 c -0.718,-0.614 -1.522,-1.205 -1.734,-1.33 -0.102,-0.063 -0.202,-0.122 -0.301,-0.181 -0.194,-0.114 -0.381,-0.221 -0.56,-0.322 -1.052,-0.596 -1.804,-1.006 -1.78,-1.712 1.302,-1.396 0.586,-2.227 -0.133,-2.481 l -0.24,0.771 v 0 0 c -0.759,0.128 -0.748,0.691 -0.781,1.122 -0.017,0.23 -0.205,0.361 -0.381,0.361 -0.155,0 -0.301,-0.101 -0.315,-0.328 -0.015,-0.255 0.001,-0.508 -0.07,-0.918 -0.048,-0.277 -0.353,-0.657 -0.78,-0.657 -0.066,0 -0.136,0.009 -0.208,0.03 l -0.158,-0.911 c -1.483,0.276 -1.321,1.746 -0.316,2.248 0.575,0.288 0.747,0.505 0.584,0.724 -0.048,0.065 -0.111,0.092 -0.185,0.092 -0.213,0 -0.515,-0.23 -0.818,-0.447 -0.134,-0.096 -0.303,-0.148 -0.479,-0.148 -0.386,0 -0.81,0.248 -0.986,0.835 l -0.535,-0.299 c -0.092,1.111 0.595,1.655 1.3,1.655 0.333,0 0.671,-0.122 0.932,-0.363 0.097,-0.09 0.2,-0.126 0.296,-0.126 0.315,0 0.54,0.401 0.113,0.633 -0.406,0.222 -0.798,0.896 -0.424,1.331 l -0.624,0.583 c 0.276,0.166 0.575,0.254 0.863,0.254 0.618,0 1.186,-0.405 1.368,-1.312 0.042,-0.206 0.13,-0.293 0.249,-0.293 v 0.002 -0.002 c 0.342,0 0.938,0.727 1.392,1.452 0.108,0.173 0.211,0.347 0.314,0.519 0.135,0.226 0.27,0.45 0.415,0.666 0.188,0.279 0.393,0.546 0.639,0.79 0.422,0.418 1.146,1.155 1.994,1.637 0.199,0.113 0.406,0.217 0.621,0.306 0.253,0.329 0.496,0.667 0.724,1.015 0.587,0.895 1.076,1.86 1.363,2.874 C -3.574,3.912 -4.207,3.08 -4.916,2.333 -5.245,1.986 -5.591,1.659 -5.948,1.341 -6.918,0.84 -7.732,0.033 -8.207,-0.439 l -0.068,-0.067 c -0.139,-0.138 -0.265,-0.281 -0.382,-0.428 -0.162,0.975 -0.119,2.186 0.192,3.344 0.061,0.224 0.131,0.446 0.212,0.664 0.285,0.769 0.701,1.487 1.269,2.064 m -36.357,4.29 c 0.277,0.435 0.321,0.89 0.214,1.297 0.02,-0.003 0.04,-0.008 0.061,-0.012 0.468,-0.103 0.706,-0.462 0.621,-0.937 -0.129,-0.72 -0.578,-1.056 -1.413,-1.056 -0.121,0 -0.248,0.008 -0.382,0.023 0.392,0.139 0.699,0.371 0.899,0.685 M -6.819,8.72 c -0.835,0 -1.284,0.336 -1.413,1.056 -0.085,0.475 0.153,0.834 0.621,0.937 0.02,0.004 0.041,0.009 0.061,0.012 -0.107,-0.407 -0.063,-0.862 0.213,-1.297 0.2,-0.314 0.508,-0.546 0.899,-0.685 C -6.571,8.728 -6.699,8.72 -6.819,8.72 m 19.013,-32.786 c -0.015,-0.005 -1.189,-0.393 -2.671,-0.564 0.483,0.412 0.802,0.987 0.901,1.649 0.074,0.504 0.049,1.898 -0.076,4.142 -0.044,0.798 -0.65,1.456 -1.442,1.564 -0.743,0.102 -1.353,0.204 -1.764,0.295 -0.853,0.189 -1.305,0.498 -1.374,0.722 -0.075,0.241 -0.071,0.274 -0.039,0.487 0.014,0.098 0.032,0.22 0.046,0.381 0.016,0.177 0.035,0.352 0.055,0.538 0.026,0.231 0.052,0.47 0.07,0.711 10e-4,0.013 10e-4,0.026 0.002,0.039 0.192,-0.039 0.387,-0.06 0.582,-0.06 0.53,0 1.059,0.143 1.523,0.428 0.863,0.529 1.363,1.444 1.34,2.449 -0.038,1.603 -0.932,2.715 -1.721,3.697 -0.364,0.452 -0.707,0.88 -0.958,1.333 -0.806,1.455 -0.995,3.041 -0.563,4.713 0.18,0.695 0.633,1.379 1.114,2.104 0.1,0.152 0.202,0.305 0.302,0.46 0.071,-0.011 0.14,-0.016 0.206,-0.016 0.302,0 0.547,0.099 0.727,0.21 1.145,0.706 1.547,3.033 1.531,4.334 -0.033,2.718 -1.097,4.676 -3.251,5.987 L 5.992,11.988 6.275,11.167 C 6.926,9.275 7.275,8.111 6.869,6.204 6.738,5.594 6.48,5.016 6.23,4.458 5.836,3.575 5.459,2.732 5.791,2.039 5.711,1.917 5.63,1.794 5.547,1.669 4.997,0.839 4.428,-0.02 4.164,-1.039 3.607,-3.195 3.866,-5.335 4.914,-7.227 c 0.334,-0.604 0.749,-1.119 1.149,-1.617 0.675,-0.84 1.257,-1.564 1.279,-2.488 0.009,-0.393 -0.236,-0.602 -0.383,-0.692 -0.278,-0.171 -0.615,-0.181 -0.9,-0.027 -0.23,0.124 -0.448,0.365 -0.585,0.64 -0.218,0.65 -0.504,1.328 -0.877,2.079 -0.339,0.681 -0.71,1.351 -1.069,1.998 -0.664,1.198 -1.291,2.329 -1.753,3.562 -0.353,0.945 -0.39,2.041 -0.367,2.742 0.503,-0.094 0.945,-0.109 1.016,-0.111 L 3.076,-1.159 3.067,-0.507 C 3.061,-0.015 3.446,0.835 3.891,1.819 5.1,4.494 6.927,8.537 4.577,13.167 4.561,13.199 4.544,13.234 4.526,13.27 4.622,13.591 4.652,13.881 4.649,14.123 4.638,15.015 4.203,15.716 3.8,16.074 L 3.524,16.319 3.176,16.197 C 2.95,16.118 2.722,15.981 2.502,15.803 2.349,15.942 2.163,16.042 1.939,16.07 1.88,16.078 1.815,16.082 1.742,16.082 c -0.971,0 -4.504,-0.8 -4.963,-1.038 L -3.458,14.92 -3.533,14.663 -3.705,14.075 c -0.78,-0.258 -1.489,-0.646 -2.024,-0.939 -0.073,-0.04 -0.143,-0.078 -0.21,-0.115 l -0.404,-0.218 0.087,-0.451 c 0.014,-0.074 0.36,-1.826 1.38,-3.018 L -4.831,9.281 C -5.06,9.241 -5.28,9.22 -5.485,9.22 c -0.607,0 -1.09,0.177 -1.323,0.544 -0.358,0.563 -0.095,1.157 0.324,1.47 -0.229,0.099 -0.454,0.156 -0.721,0.156 -0.162,0 -0.338,-0.021 -0.541,-0.065 -0.798,-0.175 -1.248,-0.85 -1.103,-1.66 0.174,-0.97 0.847,-1.571 2.03,-1.571 0.236,0 0.491,0.023 0.768,0.073 0.403,0.072 0.814,0.185 1.22,0.324 C -4.834,8.476 -4.837,8.46 -4.84,8.445 -4.944,7.888 -5.035,7.406 -4.722,7.011 -5.585,6.851 -6.358,6.495 -7.019,5.953 -7.561,6.365 -8.293,6.916 -8.403,6.998 -8.832,7.321 -9.236,7.665 -9.662,8.03 c -0.172,0.146 -0.349,0.297 -0.526,0.445 -0.369,0.309 -0.77,0.635 -1.199,0.927 -0.324,0.22 -0.694,0.36 -1.085,0.412 v 1.771 c 1.27,0.561 2.158,1.848 2.158,3.32 0,0.327 -0.044,0.643 -0.126,0.943 h -2.688 c 0.021,-0.176 0.032,-0.359 0.032,-0.545 0,-1.6 -0.802,-3.008 -1.792,-3.008 -0.989,0 -1.791,1.408 -1.791,3.008 0,0.186 0.011,0.369 0.032,0.545 h -3.37 c 0.021,-0.177 0.033,-0.361 0.033,-0.548 0,-1.601 -0.802,-3.008 -1.792,-3.008 -0.99,0 -1.792,1.407 -1.792,3.008 0,0.187 0.011,0.371 0.033,0.548 h -3.479 c 0.021,-0.176 0.033,-0.359 0.033,-0.545 0,-1.6 -0.803,-3.008 -1.792,-3.008 -0.99,0 -1.792,1.408 -1.792,3.008 0,0.186 0.011,0.369 0.032,0.545 h -3.292 c 0.021,-0.176 0.032,-0.359 0.032,-0.545 0,-1.6 -0.802,-3.008 -1.792,-3.008 -0.99,0 -1.792,1.408 -1.792,3.008 0,0.186 0.011,0.369 0.032,0.545 h -2.734 c -0.075,-0.288 -0.115,-0.591 -0.115,-0.903 0,-1.42 0.826,-2.688 2.024,-3.29 V 9.818 c -0.404,-0.049 -0.786,-0.189 -1.12,-0.416 -0.429,-0.292 -0.83,-0.618 -1.2,-0.927 -0.177,-0.148 -0.354,-0.299 -0.525,-0.445 -0.427,-0.365 -0.83,-0.709 -1.26,-1.032 -0.11,-0.082 -0.841,-0.633 -1.383,-1.045 -0.661,0.542 -1.434,0.898 -2.297,1.058 0.312,0.395 0.222,0.877 0.117,1.434 -0.003,0.015 -0.006,0.031 -0.008,0.046 0.406,-0.139 0.816,-0.252 1.22,-0.324 0.276,-0.05 0.532,-0.073 0.768,-0.073 1.183,0 1.856,0.601 2.029,1.571 0.146,0.81 -0.304,1.485 -1.103,1.66 -0.202,0.044 -0.379,0.065 -0.54,0.065 -0.267,0 -0.493,-0.057 -0.722,-0.156 0.42,-0.313 0.682,-0.907 0.324,-1.47 -0.233,-0.367 -0.715,-0.544 -1.322,-0.544 -0.206,0 -0.426,0.021 -0.654,0.061 l 0.045,0.053 c 1.02,1.192 1.366,2.944 1.38,3.018 l 0.086,0.451 -0.403,0.218 c -0.067,0.037 -0.137,0.075 -0.211,0.115 -0.535,0.293 -1.243,0.681 -2.024,0.939 l -0.172,0.588 -0.075,0.257 -0.237,0.124 c -0.458,0.238 -3.992,1.038 -4.962,1.038 -0.074,0 -0.138,-0.004 -0.197,-0.012 -0.224,-0.028 -0.411,-0.128 -0.563,-0.267 -0.22,0.178 -0.448,0.315 -0.675,0.394 l -0.348,0.122 -0.275,-0.245 c -0.404,-0.358 -0.838,-1.059 -0.849,-1.951 -0.003,-0.242 0.027,-0.532 0.123,-0.853 -0.018,-0.036 -0.035,-0.071 -0.052,-0.103 -2.35,-4.63 -0.522,-8.673 0.687,-11.348 0.445,-0.984 0.829,-1.834 0.823,-2.326 l -0.008,-0.652 0.652,0.018 c 0.071,0.002 0.513,0.017 1.015,0.111 0.024,-0.701 -0.013,-1.797 -0.367,-2.742 -0.461,-1.233 -1.088,-2.364 -1.753,-3.562 -0.359,-0.647 -0.73,-1.317 -1.068,-1.998 -0.374,-0.751 -0.66,-1.429 -0.877,-2.079 -0.137,-0.275 -0.355,-0.516 -0.585,-0.64 -0.286,-0.154 -0.622,-0.144 -0.901,0.027 -0.146,0.09 -0.392,0.299 -0.382,0.692 0.021,0.924 0.604,1.648 1.278,2.488 0.401,0.498 0.815,1.013 1.15,1.617 1.048,1.892 1.307,4.032 0.75,6.188 -0.264,1.019 -0.833,1.878 -1.384,2.708 -0.082,0.125 -0.163,0.248 -0.243,0.37 0.332,0.693 -0.045,1.536 -0.44,2.419 -0.249,0.558 -0.508,1.136 -0.638,1.746 -0.406,1.907 -0.057,3.071 0.594,4.963 l 0.282,0.821 -0.741,-0.451 c -2.155,-1.311 -3.218,-3.269 -3.251,-5.987 -0.016,-1.301 0.385,-3.628 1.531,-4.334 0.18,-0.111 0.425,-0.21 0.727,-0.21 0.066,0 0.135,0.005 0.206,0.016 0.1,-0.155 0.201,-0.308 0.302,-0.46 0.48,-0.725 0.934,-1.409 1.114,-2.104 0.432,-1.672 0.243,-3.258 -0.563,-4.713 -0.251,-0.453 -0.595,-0.881 -0.958,-1.333 -0.789,-0.982 -1.683,-2.094 -1.721,-3.697 -0.023,-1.005 0.477,-1.92 1.339,-2.449 0.465,-0.285 0.994,-0.428 1.523,-0.428 0.196,0 0.391,0.021 0.583,0.06 10e-4,-0.013 10e-4,-0.026 0.002,-0.039 0.018,-0.241 0.044,-0.48 0.07,-0.711 0.02,-0.186 0.039,-0.361 0.055,-0.538 0.014,-0.161 0.032,-0.283 0.046,-0.381 0.031,-0.213 0.036,-0.246 -0.039,-0.487 -0.07,-0.224 -0.522,-0.533 -1.375,-0.722 -0.411,-0.091 -1.021,-0.193 -1.763,-0.295 -0.792,-0.108 -1.398,-0.766 -1.443,-1.564 -0.124,-2.244 -0.15,-3.638 -0.075,-4.142 0.098,-0.662 0.417,-1.237 0.9,-1.649 -1.481,0.171 -2.656,0.559 -2.67,0.564 l -1.191,0.398 0.397,-1.19 c 0.466,-1.397 1.363,-2.575 2.594,-3.408 1.139,-0.77 2.513,-1.195 3.869,-1.195 1.661,0 3.169,0.624 4.256,1.755 0.007,-0.306 0.071,-0.614 0.194,-0.922 l 0.546,-1.369 0.607,1.344 c 0.037,0.081 0.968,2.042 3.192,2.213 0.947,0.072 2.028,0.208 2.868,0.905 0.001,0.002 0.003,0.004 0.005,0.005 -0.002,-0.228 0.022,-0.453 0.075,-0.674 0.296,-1.243 1.369,-1.869 1.414,-1.895 l 0.992,-0.567 -0.055,1.142 c -0.024,0.493 -0.051,1.052 0.088,1.511 0.25,0.827 1.116,1.143 1.61,1.257 0.123,0.029 0.241,0.055 0.355,0.081 0.811,0.184 1.471,0.334 2.151,0.725 -0.29,-0.569 -0.409,-1.151 -0.354,-1.741 0.139,-1.469 1.338,-2.389 1.389,-2.428 l 1.366,-1.03 -0.377,1.669 c -0.144,0.642 -0.248,2.095 0.344,2.483 0.726,0.475 1.28,0.539 1.922,0.613 0.53,0.061 1.102,0.127 1.772,0.418 -0.521,-1.149 -0.296,-2.089 -0.283,-2.142 l 0.323,-1.268 0.786,1.046 c 0.013,0.018 1.493,1.934 3.59,1.934 1.519,0 2.746,-0.747 2.758,-0.755 l 0.329,-0.204 0.33,0.204 c 0.012,0.008 1.239,0.755 2.758,0.755 2.097,0 3.576,-1.916 3.59,-1.934 l 0.786,-1.046 0.322,1.268 c 0.014,0.053 0.239,0.993 -0.282,2.142 0.67,-0.291 1.242,-0.357 1.771,-0.418 0.642,-0.074 1.197,-0.138 1.923,-0.613 0.592,-0.388 0.487,-1.841 0.344,-2.483 l -0.377,-1.669 1.366,1.03 c 0.051,0.039 1.25,0.959 1.388,2.428 0.056,0.59 -0.063,1.172 -0.354,1.741 0.681,-0.391 1.34,-0.541 2.152,-0.725 0.114,-0.026 0.232,-0.052 0.354,-0.081 0.494,-0.114 1.361,-0.43 1.611,-1.257 0.138,-0.459 0.111,-1.018 0.088,-1.511 l -0.056,-1.142 0.992,0.567 c 0.046,0.026 1.119,0.652 1.415,1.895 0.052,0.221 0.077,0.446 0.075,0.674 0.002,-10e-4 0.003,-0.003 0.005,-0.005 0.839,-0.697 1.92,-0.833 2.868,-0.905 2.224,-0.171 3.154,-2.132 3.192,-2.213 l 0.606,-1.344 0.547,1.369 c 0.122,0.308 0.187,0.616 0.193,0.922 1.088,-1.131 2.596,-1.755 4.257,-1.755 1.356,0 2.73,0.425 3.869,1.195 1.231,0.833 2.127,2.011 2.593,3.408 l 0.398,1.19 z"
             style="fill:#ed1c24;fill-opacity:1;fill-rule:nonzero;stroke:none"
             id="path68" />
        </g>
        <g
           id="g70"
           transform="translate(107.0096,19.2136)">
          <path
             d="m 0,0 c -0.802,0 -1.389,-0.291 -1.759,-0.874 v 2.996 h -1.226 v -7.944 h 1.226 v 3.041 c 0,0.553 0.132,0.963 0.397,1.232 0.265,0.268 0.613,0.403 1.044,0.403 0.394,0 0.704,-0.114 0.931,-0.341 0.227,-0.227 0.34,-0.552 0.34,-0.976 v -3.359 h 1.226 v 3.484 c 0,0.726 -0.2,1.298 -0.601,1.714 C 1.176,-0.208 0.651,0 0,0"
             style="fill:#ed1c24;fill-opacity:1;fill-rule:nonzero;stroke:none"
             id="path72" />
        </g>
        <g
           id="g74"
           transform="translate(113.4721,17.8857)">
          <path
             d="M 0,0 V 1.18 H -1.407 V 2.769 H -2.633 V 1.18 H -3.677 V 0 h 1.044 v -2.724 c 0,-0.741 0.204,-1.25 0.613,-1.526 0.408,-0.277 1.082,-0.358 2.02,-0.244 v 1.101 c -0.31,-0.016 -0.569,-0.018 -0.777,-0.006 -0.209,0.011 -0.366,0.068 -0.471,0.17 -0.107,0.102 -0.159,0.271 -0.159,0.505 V 0 Z"
             style="fill:#ed1c24;fill-opacity:1;fill-rule:nonzero;stroke:none"
             id="path76" />
        </g>
        <g
           id="g78"
           transform="translate(92.6528,16.7054)">
          <path
             d="m 0,0 c 0.083,0.431 0.276,0.772 0.579,1.021 0.302,0.25 0.681,0.375 1.135,0.375 0.401,0 0.751,-0.117 1.05,-0.352 C 3.062,0.81 3.253,0.461 3.337,0 Z m 1.725,2.508 c -0.878,0 -1.596,-0.285 -2.156,-0.857 -0.56,-0.571 -0.84,-1.28 -0.84,-2.128 0,-0.862 0.284,-1.576 0.851,-2.139 0.568,-0.564 1.313,-0.846 2.236,-0.846 0.984,0 1.751,0.335 2.303,1 l -0.828,0.828 c -0.325,-0.47 -0.813,-0.704 -1.464,-0.704 -0.469,0 -0.866,0.115 -1.191,0.346 -0.326,0.231 -0.534,0.562 -0.625,0.993 h 4.517 c 0.031,0.212 0.046,0.382 0.046,0.511 0,0.832 -0.267,1.54 -0.8,2.122 C 3.24,2.217 2.557,2.508 1.725,2.508"
             style="fill:#ed1c24;fill-opacity:1;fill-rule:nonzero;stroke:none"
             id="path80" />
        </g>
        <g
           id="g82"
           transform="translate(81.4382,16.1038)">
          <path
             d="m 0,0 c 0,-0.484 -0.142,-0.87 -0.426,-1.158 -0.283,-0.287 -0.709,-0.431 -1.276,-0.431 -0.568,0 -0.994,0.144 -1.277,0.431 C -3.263,-0.87 -3.405,-0.484 -3.405,0 V 5.232 H -4.71 v -5.311 c 0,-0.848 0.28,-1.523 0.84,-2.026 0.56,-0.504 1.282,-0.755 2.168,-0.755 0.885,0 1.607,0.251 2.167,0.755 0.56,0.503 0.84,1.178 0.84,2.026 V 5.232 H 0 Z"
             style="fill:#ed1c24;fill-opacity:1;fill-rule:nonzero;stroke:none"
             id="path84" />
        </g>
        <g
           id="g86"
           transform="translate(85.7937,20.655)">
          <path
             d="M 0,0 H -1.226 V -1.589 H -2.27 v -1.18 h 1.044 v -2.724 c 0,-0.742 0.205,-1.251 0.613,-1.527 0.409,-0.276 1.082,-0.357 2.02,-0.244 v 1.101 C 1.097,-6.178 0.838,-6.18 0.63,-6.169 0.422,-6.157 0.265,-6.1 0.159,-5.998 0.053,-5.896 0,-5.728 0,-5.493 v 2.724 h 1.407 v 1.18 H 0 Z"
             style="fill:#ed1c24;fill-opacity:1;fill-rule:nonzero;stroke:none"
             id="path88" />
        </g>
        <g
           id="g90"
           transform="translate(89.4321,18.1127)">
          <path
             d="M 0,0 V 0.953 H -1.226 V -4.721 H 0 v 2.86 c 0,0.582 0.174,1 0.522,1.254 0.348,0.253 0.757,0.365 1.226,0.335 V 1.055 C 0.893,1.055 0.31,0.704 0,0"
             style="fill:#ed1c24;fill-opacity:1;fill-rule:nonzero;stroke:none"
             id="path92" />
        </g>
        <g
           id="g94"
           transform="translate(102.4281,15.3662)">
          <path
             d="M 0,0 C -0.258,-0.539 -0.76,-0.903 -1.374,-0.989 -1.383,-0.99 -1.391,-0.991 -1.4,-0.993 -1.483,-1.003 -1.568,-1.01 -1.655,-1.01 v 0 0 0 c -0.998,0 -1.772,0.773 -1.772,1.872 0,1.099 0.774,1.873 1.772,1.873 v 0 0 0 c 0.086,0 0.17,-0.007 0.252,-0.017 0.008,-10e-4 0.017,-0.003 0.025,-0.004 0.607,-0.083 1.103,-0.437 1.366,-0.963 l 0.823,0.824 c -0.539,0.776 -1.439,1.272 -2.465,1.272 -1.662,0 -2.985,-1.3 -2.985,-2.985 0,-1.684 1.323,-2.985 2.985,-2.985 1.036,0 1.945,0.506 2.482,1.295 z"
             style="fill:#ed1c24;fill-opacity:1;fill-rule:nonzero;stroke:none"
             id="path96" />
        </g>
        <g
           id="g98"
           transform="translate(73.6163,20.3031)">
          <path
             d="M 0,0 C -0.893,0.083 -1.339,-0.291 -1.339,-1.124 V -1.237 H 0 v -1.18 h -1.339 v -4.495 h -1.226 v 4.495 h -0.863 v 1.18 h 0.863 v 0.113 c 0,0.78 0.217,1.372 0.653,1.777 C -1.477,1.057 -0.84,1.233 0,1.18 Z m -7.967,-5.357 c 0.34,-0.34 0.76,-0.511 1.259,-0.511 0.5,0 0.92,0.171 1.26,0.511 0.341,0.34 0.511,0.768 0.511,1.282 0,0.515 -0.17,0.942 -0.511,1.283 -0.34,0.34 -0.76,0.511 -1.26,0.511 -0.499,0 -0.919,-0.171 -1.259,-0.511 -0.341,-0.341 -0.511,-0.768 -0.511,-1.283 0,-0.514 0.17,-0.942 0.511,-1.282 m 1.259,-1.702 c -0.832,0 -1.539,0.287 -2.122,0.862 -0.583,0.575 -0.874,1.283 -0.874,2.122 0,0.84 0.291,1.548 0.874,2.123 0.583,0.575 1.29,0.862 2.122,0.862 0.84,0 1.55,-0.287 2.128,-0.862 0.579,-0.575 0.869,-1.283 0.869,-2.123 0,-0.839 -0.29,-1.547 -0.869,-2.122 -0.578,-0.575 -1.288,-0.862 -2.128,-0.862 m -6.752,5.822 h 1.305 l -2.179,-5.857 c -0.545,-1.467 -1.468,-2.163 -2.769,-2.088 v 1.146 c 0.386,-0.022 0.696,0.059 0.931,0.244 0.234,0.186 0.427,0.475 0.578,0.869 l 0.057,0.113 -2.406,5.573 h 1.339 l 1.692,-4.119 z m -4.88,-1.18 h -1.407 v -2.724 c 0,-0.235 0.053,-0.403 0.159,-0.505 0.105,-0.103 0.262,-0.159 0.471,-0.171 0.208,-0.011 0.467,-0.009 0.777,0.006 v -1.101 c -0.938,-0.113 -1.612,-0.032 -2.02,0.244 -0.409,0.276 -0.613,0.785 -0.613,1.527 v 2.724 h -1.044 v 1.18 h 1.044 v 1.589 h 1.226 v -1.589 h 1.407 z m -5.641,1.18 h 1.226 v -5.675 h -1.226 z m 1.164,1.084 c -0.155,-0.155 -0.339,-0.233 -0.551,-0.233 -0.212,0 -0.395,0.078 -0.55,0.233 -0.155,0.155 -0.233,0.338 -0.233,0.55 0,0.212 0.076,0.395 0.227,0.551 0.151,0.155 0.337,0.232 0.556,0.232 0.22,0 0.405,-0.077 0.556,-0.232 0.152,-0.156 0.227,-0.339 0.227,-0.551 0,-0.212 -0.077,-0.395 -0.232,-0.55"
             style="fill:#ed1c24;fill-opacity:1;fill-rule:nonzero;stroke:none"
             id="path100" />
        </g>
        <g
           id="g102"
           transform="translate(47.7028,15.6968)">
          <path
             d="m 0,0 c -0.09,-0.132 -0.193,-0.258 -0.308,-0.376 -0.526,-0.537 -1.213,-0.806 -2.06,-0.806 -0.848,0 -1.535,0.269 -2.06,0.806 -0.526,0.537 -0.789,1.218 -0.789,2.043 0,0.824 0.263,1.505 0.789,2.043 0.525,0.537 1.212,0.806 2.06,0.806 0.847,0 1.534,-0.269 2.06,-0.806 C -0.192,3.591 -0.09,3.465 0,3.333 L 0.887,4.289 C 0.799,4.396 0.706,4.5 0.605,4.601 c -0.787,0.79 -1.778,1.186 -2.973,1.186 -1.196,0 -2.187,-0.396 -2.974,-1.186 -0.787,-0.791 -1.18,-1.769 -1.18,-2.934 0,-1.165 0.393,-2.144 1.18,-2.934 0.787,-0.791 1.778,-1.186 2.974,-1.186 1.195,0 2.186,0.395 2.973,1.186 0.112,0.113 0.216,0.23 0.312,0.35 z"
             style="fill:#ed1c24;fill-opacity:1;fill-rule:nonzero;stroke:none"
             id="path104" />
        </g>
      </g>
    </g>
  </g>
</svg>
