<?xml version="1.0" encoding="UTF-8" standalone="no"?>
<svg
        xmlns="http://www.w3.org/2000/svg"
        viewBox="0 0 1068.922 475.34498"
        height="475.345"
        width="1068.922"
        xml:space="preserve"
        version="1.1"
        id="svg3336">
    <g transform="matrix(1.25,0,0,-1.25,-581.41613,523.09812)" fill="#f6842b"
       id="g3344">
        <g transform="matrix(8,0,0,8,-3255.9303,-267.4175)"
           id="g3501">
        <g id="g3392"
           transform="translate(544.998,60.8545)"><path
           d="m 0,0 c 0,6.58 -4.021,12.43 -12.932,12.43 -8.91,0 -12.931,-5.85 -12.931,-12.43 0,-0.01 0.002,-0.019 0.002,-0.028 l 14.62,-12.369 C -3.514,-11.693 0,-6.147 0,0 m -16.816,0 c 0,2.513 0.456,5.849 3.884,5.849 3.427,0 3.883,-3.336 3.883,-5.849 0,-2.515 -0.456,-5.895 -3.883,-5.895 -3.428,0 -3.884,3.38 -3.884,5.895"
           style="fill-opacity:1;fill-rule:nonzero;stroke:none"
           id="path3394" />
        </g>
            <g id="g3396"
               transform="translate(564.1641,48.9727)">
            <path d="m 0,0 7.861,23.716 -9.232,0 -3.747,-14.44 -0.092,0 -3.702,14.44 -9.552,0 L -10.694,0 0,0 Z"
                  style="fill-opacity:1;fill-rule:nonzero;stroke:none"
                  id="path3398"/>
            </g>
            <g id="g3400"
               transform="translate(497.8545,57.5117)">
                <path d="m 0,0 0,15.478 0,0.28 -5.344,-0.469 0,-14.891 c 0,-2.511 -1.479,-4.075 -3.865,-4.075 -2.379,0 -3.859,1.564 -3.859,4.075 l 0,15.36 -5.344,-0.469 0,-15.289 c 0,-5.232 3.871,-9.038 9.203,-9.038 C -3.869,-9.038 0,-5.232 0,0"
                      style="fill-opacity:1;fill-rule:nonzero;stroke:none"
                      id="path3402"/>
            </g>
            <g id="g3404"
               transform="translate(470.0439,61.959)">
                <path d="m 0,0 c 0,10.388 8.448,18.837 18.832,18.837 5.448,0 10.361,-2.329 13.804,-6.043 L 42.123,4.767 C 39.916,15.614 30.326,23.778 18.832,23.778 6.053,23.778 -4.367,13.69 -4.911,1.039 L 0.31,-3.379 C 0.11,-2.282 0,-1.155 0,0"
                      style="fill-opacity:1;fill-rule:nonzero;stroke:none"
                      id="path3406"/>
            </g>
            <g id="g3408"
               transform="translate(507.7031,61.9795)">
                <path d="m 0,0 c 0,-10.388 -8.448,-18.838 -18.83,-18.838 -4.672,0 -8.951,1.715 -12.245,4.545 l -0.002,-0.003 -10.995,9.305 c 2.293,-10.737 11.825,-18.786 23.242,-18.786 12.717,0 23.104,9.992 23.739,22.558 l -5.18,4.383 C -0.096,2.135 0,1.078 0,0"
                      style="fill-opacity:1;fill-rule:nonzero;stroke:none"
                      id="path3410"/>
            </g>
        </g>
    </g>
</svg>