<?xml version="1.0"?>
<svg xmlns="http://www.w3.org/2000/svg" height="324" width="419" xmlns:xlink="http://www.w3.org/1999/xlink">
<use xlink:href="#i" transform="rotate(180,96.985,60.417)"/>
<use xlink:href="#j" transform="rotate(90,96.985,60.417)"/>
<g id="j">
<g id="h">
<path stroke-width=".8" d="m69.848 42.354c-0.318 0.064-0.953 0.097-2.351-0.096-1.081-0.16-2.034-0.834-3.115-1.54-1.144-0.803-2.351-1.637-3.876-1.894-1.462-0.289-2.797 0-4.004 0.321-1.526 0.353-3.051 0.706-5.148 0.063-3.813-1.187-5.783-4.428-5.783-4.46l-0.382-0.674-0.318 0.706c-1.144 2.791-0.063 6.546 2.543 8.728 1.398 1.123 3.304 1.572 5.147 2.021 1.589 0.385 3.115 0.771 4.195 1.508 0.953 0.675 1.589 1.604 2.288 2.695 0.89 1.348 1.97 2.984 4.131 4.653l33.81 19.715"/>
<g id="i">
<path stroke-width=".8" d="m97 46.718-60.391 13.688 60.391 13.688"/>
<path d="m66.656 54.344-26.375 5.781 25.813-0.125m0 0.781-25.813-0.125 26.375 5.75" fill="#fddd04"/>
</g>
<path d="m70.875 43.969-0.594-0.907c-0.381 0.13-0.935 0.226-2.906-0.031-1.207-0.192-2.293-0.885-3.437-1.656-1.082-0.739-2.229-1.524-3.563-1.781-1.335-0.258-2.479-0.008-3.687 0.281-1.652 0.384-3.306 0.769-5.594 0.063-2.987-0.964-4.893-3.034-5.719-4.126-0.572 2.374 0.465 5.361 2.563 7.094 1.208 1.028 3.033 1.427 4.812 1.875 1.589 0.385 3.23 0.791 4.438 1.625 1.08 0.77 1.738 1.752 2.5 2.906 1.016 1.476 2.084 3.144 4.5 4.813l2.687-0.563" fill="#fddd04"/>
</g>
<use xlink:href="#h" transform="rotate(45,96.985,60.417)"/>
</g>
<use xlink:href="#h" transform="rotate(45,96.985,60.417)"/>
<use x="23.5" xlink:href="#f"/>
<use x="107" xlink:href="#g"/>
<circle r="30.5" cy="60.417" stroke="#000" cx="96.985" stroke-width=".8" fill="#fddd04"/>
<path d="m0.0015 189.6c0 25.86 10.108 50.18 28.346 68.47 18.304 18.29 42.644 28.36 68.511 28.36 25.861 0 50.211-10.07 68.511-28.36 18.24-18.29 28.34-42.61 28.34-68.47v-121.74l-193.71 0.003z"/>
<path d="m97.375 70.375v213.6c24.855-0.11 48.425-9.9 66.215-27.7 17.8-17.79 27.66-41.51 27.66-66.69v-119.22z" fill="#ed1c24"/>
<path d="m96.969 36.719c-5.558 0-5.834 3.775-4.563 5.187l-6.718-1.437-2.063 3.406h11.781c-2.924-1.443-1.392-3.687 1.532-3.687 2.986 0 4.482 2.244 1.562 3.687h11.69l-2.03-3.406-6.66 1.437c1.27-1.412 1.02-5.187-4.531-5.187zm-19.5 9.437 1.281 1.406v14.532l-1.281 1.406h6.156l-1.25-1.406v-14.532l1.25-1.406zm9.469 0 1.281 1.406v14.532l-1.281 1.406h6.156l-1.313-1.406v-5.5h6.657v5.5l-1.25 1.406h6.152l-1.28-1.406v-14.532l1.28-1.406h-6.152l1.25 1.406v5.407h-6.657v-5.407l1.313-1.406zm18.562 0.032 4.91 8.656-4.91 8.656h11.31l2.03-3.625h-7.06l2.94-5.031-2.94-4.969h5.66l-2.1-3.687zm115.62 22.124v22.907h3.44v-10.188h2.03c1.8 0 2.95 0.02 4 2.25l3.63 7.938h3.9l-4.5-9.125c-0.74-1.414-1.25-1.917-2.31-2.313v-0.031c2.76-0.462 4.91-2.433 4.91-5.219 0-5.478-4.54-6.219-9.25-6.219zm39.82 0v22.907h3.4v-9.157h3.35c4.3 0 8.43-1.794 8.43-6.874 0-5.218-4.05-6.876-8.93-6.876zm43.59 0v22.907h6.35c4.84 0 9.06-1.203 9.06-6.125 0-3.212-2.28-5.234-5.53-5.5v-0.063c3-0.721 4.93-2.29 4.93-5.437 0-4.229-3.43-5.782-8.37-5.782zm21 0v22.907h13.38v-2.907h-9.97v-20zm17.09 0v22.907h3.41v-22.907zm-34.68 2.688h3.59c1.97 0 4.38 0.684 4.38 3.406 0 3.383-2.8 3.688-6.1 3.688h-1.87zm-83.38 0.219h3.25c3.14 0 4.78 1.311 4.78 3.375 0 2.201-1.9 3.562-5.15 3.562h-2.88zm39.78 0h2.91c2.11 0 5.25 1.02 5.25 3.906 0 3.017-2.66 4.063-4.78 4.063h-3.38zm43.6 9.562h2.22c2.94 0 6.18 0.489 6.18 4.031 0 3.082-2.77 3.719-5.84 3.719h-2.56zm56.31 10.688 4.44 3.969h4.22l-5.53-4.813m-82.16 15.375c-7.27 0-12.6 4.69-12.6 11.75 0 7.27 5.03 11.91 12.57 11.91 1.4 0 3.61-0.1 5.43-0.82l-0.21-3.18c-1.2 0.69-3.49 1.12-5.19 1.12-4.95 0-8.97-3.56-8.97-8.94 0-5.15 3.63-8.96 9.13-8.96 1.74 0 3.43 0.43 4.93 1.28l0.28-3.19c-1.71-0.73-3.53-0.97-5.37-0.97zm18.72 0.38-10.16 22.9h3.6l2.4-5.78h11.69l2.41 5.78h3.71l-10.06-22.9zm1.68 3.09 4.76 11.34h-9.5zm-12.68 33.62c-7.26 0-12.6 4.67-12.6 11.72 0 7.28 5 11.94 12.54 11.94 3.72 0 5.98-0.57 7.28-1v-11.91h-8.44v2.69h5.03v6.94c-0.85 0.17-1.46 0.41-3.81 0.41-4.95 0-8.97-3.59-8.97-8.97 0-5.12 3.63-8.94 9.12-8.94 3.07 0 4.9 0.51 6.57 1.56l0.28-3.31c-1.99-0.66-3.52-1.13-7-1.13zm-71.82 0.38v22.91h7.04c7.84 0 12.68-3.98 12.68-11.66 0-7.05-5.62-11.25-12.68-11.25zm154.35 0 8.97 22.91h4.28l9.09-22.91h-3.59l-7.53 20h-0.07l-7.34-20zm-150.91 2.91h3.97c4.91 0 8.72 3.14 8.72 8.5 0 5.9-3.27 8.59-9.13 8.59h-3.56zm-201.37 162.34c-3.816 0-6.876 3.08-6.876 6.9 0 3.8 3.06 6.91 6.876 6.91s6.906-3.11 6.906-6.91c0-3.82-3.09-6.9-6.906-6.9zm108.34 0.31-5.56 12.91c-0.1 0.2-0.28 0.4-0.28 0.4h1.78s-0.18-0.23-0.13-0.4l1.28-2.97h5.88l1.25 2.97c0.06 0.17-0.13 0.4-0.13 0.4h1.76s-0.18-0.2-0.29-0.4zm-51.718 0.06v12.88c0 0.12-0.218 0.41-0.218 0.41h1.718s-0.218-0.29-0.218-0.41v-9.22l7.875 9.91v-12.78c0-0.14 0.219-0.41 0.219-0.41h-1.719s0.219 0.27 0.219 0.41v9.15zm-69.25 0.07c-0.7973 0-1.8556 0.13-2.4058 0.31-0.2128 0.07-0.423 0.06-0.5 0.06-0.136 0-0.3437-0.06-0.3437-0.06-0.1242-0.04-0.4063-0.19-0.4063-0.19v12.69c0 0.12-0.2187 0.41-0.2187 0.41h1.7187s-0.2187-0.29-0.2187-0.41v-4.78c0.6744 0.4 1.5003 0.62 2.3745 0.62 2.384 0 4.313-1.95 4.313-4.34 0-2.38-1.929-4.31-4.313-4.31zm96.468 0c-0.79 0-1.85 0.14-2.41 0.31-0.2 0.07-0.42 0.06-0.5 0.06-0.12 0-0.34-0.06-0.34-0.06-0.12-0.04-0.4-0.19-0.4-0.19v12.69c0 0.12-0.22 0.41-0.22 0.41h5.25c1.92 0 3.87-1.59 3.87-3.91 0-1.71-0.78-2.89-1.9-3.31 0.54-0.35 1-1.03 1-1.91 0-2.39-1.57-4.09-4.35-4.09zm11.72 0c-0.79 0-1.81 0.13-2.37 0.31-0.22 0.06-0.42 0.06-0.5 0.06-0.14 0-0.38-0.06-0.38-0.06-0.12-0.04-0.41-0.19-0.41-0.19v12.69c0 0.12-0.21 0.41-0.21 0.41h1.74s-0.24-0.29-0.24-0.41v-11.13c0.68-0.31 1.61-0.37 2.37-0.37 2.02 0 3.03 1.35 3.03 3 0 1.43-1.26 2.28-3.03 2.28h-0.59v1.19c3.61 0 4.5 3.62 4.5 5v0.4h1.78s-0.38-0.58-0.38-0.72c-0.17-1.52-0.79-3.94-3.03-5.12 1.23-0.5 2.03-1.48 2.03-3.03 0-2.38-1.42-4.31-4.31-4.31zm-79.938 0.18v1.5s0.24-0.18 0.376-0.22h3.281v11.35c0 0.12-0.219 0.41-0.219 0.41h1.719s-0.219-0.3-0.219-0.41v-11.35h3.344c0.142 0.04 0.375 0.22 0.375 0.22v-1.5zm18.594 0v1.5s0.239-0.18 0.375-0.22h3.281v11.35c0 0.12-0.218 0.41-0.218 0.41h1.718s-0.218-0.3-0.218-0.41v-11.35h3.375c0.136 0.04 0.375 0.22 0.375 0.22v-1.5zm109.9 0.1s0.22 0.27 0.22 0.4v8.35c0 2.46 2.01 4.47 4.47 4.47 2.47 0 4.47-2.01 4.47-4.47v-8.35c0-0.13 0.22-0.4 0.22-0.4h-1.72s0.22 0.27 0.22 0.4v8.35c0 1.75-1.43 3.19-3.19 3.19-1.75 0-3.19-1.44-3.19-3.19v-8.35c0-0.13 0.25-0.4 0.25-0.4zm11.78 0s0.25 0.28 0.32 0.4l3.34 5.6-3.87 6.5c-0.12 0.2-0.35 0.4-0.35 0.4h1.91s-0.22-0.24-0.13-0.4l3.19-5.38 3.16 5.38c0.09 0.16-0.13 0.4-0.13 0.4h1.91s-0.24-0.2-0.35-0.4l-3.84-6.5 3.28-5.6c0.09-0.12 0.38-0.4 0.38-0.4h-1.91s0.2 0.26 0.12 0.4l-2.62 4.47-2.66-4.47c-0.08-0.14 0.13-0.4 0.13-0.4zm-21.12 0.03s0.22 0.27 0.22 0.41v12.06c0 0.13-0.22 0.4-0.22 0.4h7.94v-1.5s-0.28 0.22-0.41 0.22h-6v-11.18c0-0.14 0.22-0.41 0.22-0.41zm-134.78 0.59c3.076 0 5.593 2.48 5.593 5.56s-2.517 5.57-5.593 5.57c-3.082 0-5.563-2.49-5.563-5.57s2.481-5.56 5.563-5.56zm-12.626 0.41c1.664 0 3 1.35 3 3 0 1.67-1.336 3.03-3 3.03-0.9274 0-1.7948-0.32-2.3745-0.91v-4.75c0.6862-0.31 1.6186-0.37 2.3745-0.37zm96.468 0c2.02 0 3.03 1.12 3.03 2.78 0 0.74-0.92 1.59-1.87 1.59-0.83 0-0.95 0.04-1.63 0.04v1.18l2 0.03c2.06 0 2.38 1.2 2.38 2.44 0 1.25-1.16 2.75-3.06 2.75h-3.22v-10.44c0.68-0.31 1.62-0.37 2.37-0.37zm24.5 1.72 2.44 5.62h-4.85z"/>
<path d="m56.75 85c-1.398 0-2.671 0.536-3.625 1.531-1.016 0.963-1.594 2.277-1.594 3.657 0 1.378 0.578 2.692 1.594 3.687 0.954 0.962 2.227 1.531 3.625 1.531h9.156c2.86 0 5.219-2.362 5.219-5.218 0-1.38-0.578-2.694-1.531-3.657-1.017-0.995-2.29-1.531-3.688-1.531-1.144 0-2.251 0.365-3.187 1.062-0.399 0.297-0.939 0.282-1.422 0.282-0.475 0-1.051-0.01-1.422-0.282-0.891-0.653-1.981-1.062-3.125-1.062zm0 2c1.875 0 3.125 1.543 3.125 3.094v3.094h-3.125c-0.826 0-1.584-0.33-2.156-0.907-0.572-0.578-0.875-1.385-0.875-2.187 0-1.701 1.315-3.094 3.031-3.094zm9.156 0c0.826 0 1.584 0.297 2.156 0.906 0.572 0.578 0.907 1.353 0.907 2.188 0 0.802-0.335 1.609-0.907 2.187-0.572 0.577-1.33 0.907-2.156 0.907h-3.125v-3.094c0-1.701 1.409-3.094 3.125-3.094zm-10.406 9v2.125h11.688v-2.094c-0.382 0.097-0.837 0.125-1.282 0.125h-9.156c-0.445 0-0.869-0.027-1.25-0.156zm-13.312 4.47c-0.318 0-0.684 0.18-0.876 0.5-0.38 0.47-0.441 1.2-0.187 2 0.572 1.54 2.15 4.23 2.531 4.97h0.375v-0.6c0-0.81 0.447-1.81 1.781-1.81h4.469c1.652 0 3.551 1.55 4.313 3.38 0.572-0.48 1.207-0.75 1.906-0.75 0.826 0 1.522 0.32 2.094 0.87 0.572 0.57 0.906 1.29 0.906 2.09 0 0.84-0.459 1.74-1.031 2.26-1.144 1-2.475 2.04-4.063 2.24 0.889 0.36 2.669 0.62 3.813-0.03 0.739-0.39 1.383-0.92 1.906-1.56 0.349-0.43 0.649-0.89 0.875-1.41 0.339-0.76 0.531-1.63 0.531-2.53 0-0.49-0.051-0.97-0.156-1.43s-0.272-0.9-0.469-1.32c-0.368-0.77-0.793-1.38-1.656-2.09-1.853-1.53-6.812-4.78-6.812-4.78zm-2.469 10.41c-0.128 1.12 0.146 2.04 0.781 2.81 1.271 1.57 3.669 2 4.75 2 2.351 0 4.194-1.08 5.656-1.91 0.254-0.17 0.526-0.32 0.782-0.44 2.732-1.51 4.113-1.26 4.812-1.03l0.062-0.19c-0.508-0.32-1.722-0.9-3.374-0.9-1.08 0-1.891 0.33-2.844 0.72-1.207 0.48-2.622 1.06-4.782 1.09-2.924 0.03-4.954-1.35-5.843-2.15zm24.187 95.74c-0.259 0.14-0.466 0.3-0.594 0.44-0.572 0.74-11.209 13.36-11.718 13.91l-0.188 0.28-0.312-0.22c-0.254-0.19-0.83-0.54-1.656-1.47-1.97-2.05-5.124-5.46-7.094-6.62-0.826-0.45-2.172-0.47-3.188 0.53-0.954 0.99-0.892 2.56 0.125 3.59 0.889 0.84 1.895 0.76 2.594 0.56l0.187-0.09 0.219 0.16 3.031 2.75 1.094 0.87-1.406-0.22c-2.415-0.28-11.436-0.21-11.5-0.21h-0.062c-0.826-0.1-2.18 0.43-2.626 1.9-0.126 0.64-0.035 1.33 0.282 1.91 0.382 0.58 0.863 1.03 1.562 1.19 0.636 0.2 1.334 0.1 1.906-0.26 0.572-0.32 1.029-0.86 1.219-1.53l0.063-0.31 0.312 0.03c4.067 0.29 6.125 1.15 6.188 1.19l0.812 0.34-0.812 0.38-7 2.87c-1.716 0.42-2.408 1.5-2.282 2.88 0.064 0.67 0.368 1.27 0.876 1.72s1.208 0.65 1.843 0.62c1.398-0.13 2.344-1.27 2.344-2.78v-0.28l0.25-0.09 0.281-0.13c1.716-0.74 5.713-2.43 9.844-2.75 2.451-0.24 4.913-0.31 7.375-0.31 0.636 0 1.058 0.15 1.375 0.44 0.255 0.25 0.406 0.64 0.406 1.09 0 0.67-0.187 2.28-0.187 2.34v0.13l-0.157 0.12c-0.508 0.45-0.812 1.07-0.812 1.75-0.064 0.67 0.18 1.34 0.625 1.82 0.064 0.06 1.723 1.59 3.313 0.4 1.334-0.96 1.156-2.18 1.093-3.4v-0.6c0.063-4.14-1.669-7.19-4.719-8.03l-0.562-0.15 0.375-0.44 10.563-13.25c0.023-0.08 0.117-0.28 0.187-0.57-1.263-0.68-2.438-1.51-3.469-2.5zm-24.875 4.85c-1.207-0.07-2.297 0.35-3.187 1.15-1.271 1.16-1.727 2.93-1.219 4.57l0.063-0.03c0.062-0.55 0.337-1.05 0.781-1.44 0.572-0.51 1.331-0.72 2.093-0.56 0 0 0.062 0.03 0.126 0.09 0-0.86 0.334-1.7 0.906-2.34 0.635-0.61 1.332-0.91 2.031-1l-0.969-0.38c-0.191-0.03-0.434-0.06-0.625-0.06zm-11.625 12.15c-0.579 1.64-0.207 3.41 1 4.6l0.063-0.06c-0.191-0.51-0.191-1.09 0-1.6 0.254-0.74 0.895-1.27 1.593-1.47h0.376c-0.446-0.77-0.567-1.67-0.313-2.5 0.191-0.71 0.898-1.61 1.406-1.9-1.868-0.05-3.571 1.37-4.125 2.93zm5.336 6c-1.16 0.57-2.237 2.61-1.93 4.44 0.287 1.71 1.536 3.04 3.126 3.53l0.062-0.09c-0.382-0.39-0.686-0.9-0.75-1.44-0.127-0.74 0.116-1.49 0.625-1.97-1.656-1-2.032-3.18-1.133-4.47zm23.774 6.01c-0.582 1.6-2.289 2.01-3.454 1.43l-0.124 0.1c1.27 1.41 3.19 2.02 5.031 1.53 1.42-0.38 2.586-1.42 3.129-2.66-1.35 1.28-3.419 0.81-4.582-0.4z" fill="#ed1c24"/>
<path id="g" d="m34.812 309.12c-0.604 0-3.051 0.38-3.051 2.91 0 1.85 1.321 2.68 2.333 3.16 1.005 0.48 3 1.11 3 3.25 0 2.15-1.802 2.84-2.938 2.84s-1.921-0.44-2.406-1v2.31s0.276-0.18 0.531-0.18c0.248 0 1.186 0.25 1.813 0.25 1.094 0 4.468-0.5 4.468-4.19 0-2.08-1.012-3.15-2.781-4.13-1.662-0.91-2.562-1.1-2.562-2.31 0-1.18 1.094-1.65 1.875-1.65 0.78 0 1.44 0.1 1.937 0.78v-1.97s-0.242 0.19-0.437 0.19c-0.201 0-1.178-0.26-1.782-0.26z"/>
<path id="f" d="m68.716 309.47s0.219 0.23 0.219 0.37v12.13c0 0.12-0.219 0.41-0.219 0.41h7.843v-1.54s-0.276 0.22-0.406 0.22h-5.656c-0.077-0.01-0.198-0.07-0.281-0.12v-4.41h4.281c0.13 0 0.406 0.25 0.406 0.25v-1.72s-0.299 0.19-0.406 0.19h-4.281v-4.5h5.969c0.13 0 0.406 0.22 0.406 0.22v-1.5z"/>
<path id="a" d="m248.53 143.47v22.91h13.35v-2.91h-9.94v-7.53h9.03v-2.88h-9.03v-6.68h9.94v-2.91z"/>
<use x="60.219" xlink:href="#a"/>
<use x="108.59" xlink:href="#a"/>
<use x="155.09" xlink:href="#a"/>
<use y="-75.156" x="154.91" xlink:href="#a"/>
<use y="-75.156" x="-6.1931" xlink:href="#a"/>
<use y="-37.091" x="-27.029" xlink:href="#a"/>
<path id="b" d="m322.72 106.38v22.9h3.42v-18.84l10.83 18.84h4.37v-22.9h-3.45v18.43l-10.55-18.43z"/>
<use x="75.229" xlink:href="#b"/>
<use y="37.088" x="7.1886" xlink:href="#b"/>
<path id="e" d="m280.12 68.312v13.407c0 6.424 3.4 9.875 9.26 9.875s9.24-3.451 9.24-9.875v-13.407h-3.4v13c0 4.396-1.44 7.407-5.84 7.407s-5.82-3.011-5.82-7.407v-13z"/>
<use x="98.539" xlink:href="#e"/>
<path id="d" d="m239.34 106.38v2.9h7.41v20h3.41v-20h7.4v-2.9z"/>
<use x="107.06" xlink:href="#d"/>
<path id="c" d="m379.97 106c-7.24 0-11.47 5.06-11.47 11.84 0 6.96 4.2 11.82 11.47 11.82 7.26 0 11.47-4.86 11.47-11.82 0-6.78-4.24-11.84-11.47-11.84zm0 2.88c5.26-0.04 7.84 4.3 7.84 8.96 0 4.56-2.35 8.94-7.84 8.94s-7.85-4.38-7.85-8.94c0-4.66 2.59-9 7.85-8.96z"/>
<use y="-38.06" x="-17.629" xlink:href="#c"/>
<path d="m143.5 188.56v-95.998c0-3.549-2.85-6.193-6.22-6.218s-6.22 2.786-6.22 6.218v95.998"/>
<use xlink:href="#k" transform="matrix(-1,0,0,-1,274.56,436.19)"/>
<path stroke="#000" stroke-width="1.5" d="m147.5 99.062v14.628h-4.81v16.5h4.81v14.65h8.78v-3.9h5.91v3.9h8.87v-9.5h-4.5v-5.28h4.5v-16.22h-4.5v-5.28h4.5v-9.498h-8.87v3.878h-5.91v-3.878h-8.78zm8.78 9.628h5.91v10.62h4.06v5.28h-4.06v10.6h-5.91v-10.6h-4.22v-5.28h4.22v-10.62z" fill="#fddd04"/>
<g id="k">
<g id="l" transform="translate(-0.285)">
<path d="m117.62 218.38c7.97-2.47 17.46-9.31 20.41-21.84h-8.7c-2 6.17-7.05 11.16-12.83 13.34v-2.1c0-2.15-1.72-3.87-3.88-3.87h-0.96c-2.16 0-3.85 1.77-3.88 3.87v3.13c-3.77 0.04-6.84 3.33-6.84 7.21s3.15 7.19 6.84 7.19v3.1c0 2.25 1.74 3.9 3.88 3.93h0.96c2.23 0 3.88-1.83 3.88-3.93v-1.57"/>
<path d="m130.72 197.25c-2.5 7-7.77 12.16-14.22 14.28v5.53c9.59-2.66 17.08-10.21 19.75-19.81zm-19.06 8.19c-0.77 0-2.28 0.58-2.28 2.34v20.63c0 1.28 1.01 2.34 2.28 2.34h0.96c1.52 0 2.35-1.17 2.35-2.34v-20.63c0-1.48-1.31-2.34-2.35-2.34zm-3.88 7.03c-2.89 0-5.28 2.71-5.28 5.65 0 2.96 2.36 5.46 5.28 5.66z" fill="#fddd04"/>
</g>
<use xlink:href="#l" transform="matrix(0 -1 1 0 -80.815 355.38)"/>
</g>
<path fill="#fddd04" d="m39.22 109.25c1.331 1.78 3.817 3.03 6.343 3.03 1.97-0.03 3.262-0.55 4.469-1.03 1.017-0.42 1.949-0.81 3.157-0.81 2.542 0 4.154 1.22 4.218 1.28l0.25 0.22-0.844 1.28-0.312-0.1-0.062-0.03c-0.572-0.19-1.642-0.57-4.376 0.91-0.254 0.13-0.526 0.28-0.781 0.44-1.461 0.83-3.489 2.03-6.031 2.03-1.335 0-3.995-0.51-5.406-2.31-1.144-1.47-1.11-3.26-0.625-4.91zm17.656-8.63v1.69h2.375c0 1.38 1.071 2.5 2.469 2.5 1.335 0 2.469-1.12 2.469-2.5h2.343v-1.69zm80.404-12.776c-2.7 0-4.69 2.203-4.69 4.687v95.799h9.38v-95.799c0-2.518-1.99-4.687-4.69-4.687zm-71.373-0.063c-1.275 0-2.344 0.973-2.344 2.36v2.265h2.344c1.271 0 2.282-1.014 2.282-2.265 0-1.32-1.006-2.36-2.282-2.36zm-9.156 0c-1.21 0-2.281 0.896-2.281 2.36 0 1.126 0.837 2.265 2.281 2.265h2.344v-2.265c0-1.437-1.134-2.36-2.344-2.36zm-54.281-17.437v119.25c0 25.19 9.861 48.91 27.656 66.72s41.493 27.63 66.406 27.66v-16.5c-4.007-3.85-6.9-8.79-8-14.44-1.144 0.64-2.414 1.03-3.812 1.03-1.144 0-2.172-0.26-3.125-0.68 4.702-6.74 7.687-11.22 7.687-18.66 0-1.93-0.492-3.8-1-5.56-0.954 9.24-9.102 14.5-10.5 18.03-1.271 3.4-1.253 5.93-1.062 8.4-4.512-2.19-7.625-6.8-7.625-12.12 0-3.37 1.247-6.44 3.281-8.78 3.496-4.08 7.124-6.94 9.031-9.16-3.75 0.07-7.925 2.71-10.531 5.5-0.127-0.68-0.187-1.38-0.187-2.09 0-4.39 2.261-8.12 5.312-10.85 8.77-7.86 9.171-15.16 8.344-22.5-6.037 2.34-10.071 8.56-10.375 15.41-2.099-0.13-4.076-0.65-5.875-1.5-0.077 0.25-0.182 0.46-0.282 0.62v0.04l-10.218 12.81c2.225 0.8 4.687 2.89 4.687 8.25 0 0.19-0.001 0.8 0.063 1.28 0.19 1.48 0.013 2.94-0.75 4.22-0.699 1.35-1.976 2.3-3.438 2.72-2.224 0.6-4.57-0.2-6.031-2.06l-0.187-0.26 0.937-1.06 0.25 0.16c0.445 0.29 1.022 0.35 1.531 0.22 0.762-0.19 1.282-0.89 1.282-1.66-0.192-0.48-0.25-0.96-0.25-1.47 0.062-0.84 0.428-1.61 1-2.22 0.064-0.35 0.187-1.58 0.187-2.09 0-0.26-0.059-0.43-0.187-0.56s-0.431-0.22-0.813-0.22c-1.08 0-3.437-0.02-7.313 0.34-4.004 0.32-7.877 1.99-9.593 2.69l-0.063 0.03c-0.127 1.76-1.41 3.18-3.062 3.31-0.445 0.03-0.899-0.05-1.344-0.18-0.445 0.35-0.69 0.95-0.562 1.56 0.064 0.45 0.306 0.87 0.687 1.12l0.281 0.16-0.531 1.16-0.313-0.07c-2.032-0.44-3.556-2.09-3.937-4.18-0.191-1.34 0.143-2.69 0.906-3.82 0.826-1.09 1.694-1.63 3.219-2.15 0.254-0.12 0.461-0.15 0.969-0.31l5.906-2.47c-0.89-0.25-2.495-0.66-4.719-0.82-0.254 0.74-0.738 1.34-1.437 1.72-0.763 0.45-1.673 0.58-2.563 0.35-0.572-0.16-1.087-0.52-1.531-0.94-0.763-0.09-1.433 0.33-1.687 1.06-0.192 0.42-0.128 0.92 0.062 1.31l0.125 0.29-1.031 0.78-0.188-0.19c-1.589-1.42-2.168-3.6-1.468-5.56 0.508-1.28 1.48-2.26 2.687-2.91 0.954-0.51 1.909-0.5 3.625-0.38 0.191-0.02 0.31-0.02 0.5 0 0.382 0 7.101-0.06 10.406 0.13l-2.031-1.84c-1.207 0.29-2.33 0.05-3.156-0.79-0.445-0.44-0.715-1.01-0.907-1.59-0.572-0.35-1.335-0.29-1.843 0.19-0.381 0.32-0.563 0.77-0.563 1.22v0.34l-1.281 0.19-0.063-0.28c-0.762-1.95-0.243-4.15 1.282-5.57 1.017-0.92 2.352-1.4 3.75-1.34 1.271 0.07 2.484 0.6 3.437 1.44 0.064 0 0.125 0.03 0.125 0.06 2.161 1.19 5.279 4.53 7.313 6.75 0.572 0.58 0.995 0.96 1.312 1.19 1.589-1.93 10.93-12.99 11.438-13.66 0.155-0.2 0.369-0.37 0.625-0.53-1.356-1.43-2.455-3.08-3.219-4.94-0.254 0.03-0.558 0.07-0.875 0.07-2.098 0-3.946-0.85-5.344-2.16 7.436-2.73 9.158-6.74 12.906-11.75 3.178-4.23 7.924-7.45 12.563-9.13l-4.437-12.43c-3.034 1.92-6.586 3.17-10.376 3.62l0.407 9.5c0 5.08-4.601 8.36-8.907 7.69 1.398-8.43 2.092-15.96 2.219-17.22-1.144-0.16-2.295-0.36-3.375-0.66l-8.375 28.69c-1.462 5.16-6.249 8.94-11.906 8.94-2.288 0-4.437-0.6-6.281-1.69 6.356-6.32 10.172-15.06 12.968-21l7.938-17.22c-0.636-0.35-1.27-0.74-1.906-1.18l-18.219 20.37c-2.288 2.73-5.656 4.44-9.469 4.44-3.814 0-7.212-1.65-9.5-4.35 5.466-2.46 8.269-4.78 10.875-6.71 2.542-1.96 21.313-18.29 21.313-18.29-0.502-0.52-0.845-0.96-1.219-1.53l-20.469 8.69c-1.398 0.54-2.848 0.84-4.437 0.84-5.784 0-10.635-4.01-11.969-9.4 2.796 0.42 10.109-1.02 12.969-1.56 2.859-0.55 20.149-4.59 20.593-4.69-0.318-0.83-0.558-1.66-0.812-2.53l-20.969-0.06c-7.627 0-13.062-6.58-12.344-13.63 9.915 4.04 19.003 5.52 20.719 5.81 1.588 0.29 10.668 1.47 11.75 1.6v-0.1c0-0.89 0.061-1.75 0.125-2.62l-25.593-11.69c-3.688-2.15-6.188-6.13-6.188-10.69 0-2.37 0.6996-4.61 1.8438-6.5 5.3382 5.93 8.7182 8.48 14.375 11.75 5.466 3.18 16.771 9.84 17.343 10.16 0.254-0.61 0.527-1.23 0.844-1.85l-0.25-0.15-27.218-23.85c-3.0526-2.24-4.9384-5.86-4.9384-9.893 0-4.492 2.4096-8.414 5.9694-10.563 1.144 2.92 3.55 7.912 8.062 12.806l36.344 37.91c0.699 0.8 1.031 1.69 1.031 2.78 0 1.99-1.282 3.7-3.125 4.28 0.762 0.51 1.671 0.81 2.625 0.81 1.461 0 2.704-0.7 3.532-1.75 1.398-1.87 3.646-3 6.124-3 1.906 0 3.666 0.72 5 1.88-0.254-1.18-0.374-2.44-0.374-3.72 0-3.85 1.336-7.43 3.624-10.19-0.698 0.45-1.328 0.69-2.281 0.69-1.017 0-1.987-0.36-2.75-0.97 0.445-1.28 0.659-2.65 0.531-4.1-0.444-5.71-5.283-9.89-10.812-9.47-0.572 0.04-1.084 0.13-1.656 0.29-1.716 0.73-3.825 0.42-4.969-0.44l-0.25-0.25 0.187-0.31 0.25-0.35 0.157-0.15h0.187c1.589 0 2.919-1.07 4.063-2.1 0.444-0.38 0.687-1.07 0.687-1.69 0-0.6-0.18-1.11-0.625-1.53-0.381-0.41-0.959-0.62-1.531-0.62-0.699 0-1.274 0.29-1.719 0.91l-0.687-0.16c-0.445-1.76-2.288-3.38-3.813-3.38h-4.469c-0.318 0-0.558 0.06-0.75 0.25-0.254 0.22-0.25 0.59-0.25 0.75v1.38h-1.531l-0.125-0.22c-0.064-0.13-2.084-3.42-2.718-5.31-0.382-1.03-0.26-1.98 0.25-2.66 0.318-0.53 0.928-0.834 1.5-0.834h10.718l0.938-1.563h0.812v-2.344c-0.763-0.289-1.522-0.735-2.094-1.343-1.144-1.124-1.781-2.693-1.781-4.297 0-3.274 2.664-5.922 5.969-5.922 1.335 0 2.61 0.413 3.625 1.219 0.166 0.13 0.508 0.156 0.969 0.156 0.462 0 0.739-0.008 0.937-0.156 1.074-0.814 2.354-1.219 3.625-1.219 1.589 0 3.108 0.626 4.188 1.781 1.144 1.123 1.781 2.537 1.781 4.141s-0.637 3.173-1.781 4.297c-0.572 0.608-1.33 1.086-2.156 1.374v2.313c12.848 0.166 13.934 12.807 23.468 12.807h0.563c0 0.23 0.062 0.43 0.062 0.65 0 1.77-0.945 3.32-2.343 4.22 2.732 1.15 5.097 3.03 6.843 5.38v-50.838z"/>
<circle r="1.79" cy="82.097" stroke="#000" cx="61.356" stroke-width=".8" fill="#ED1C24"/>
</svg>