<?xml version="1.0" encoding="UTF-8" standalone="no"?>

<svg
   version="1.1"
   id="svg2"
   width="1540.5867"
   height="713.05334"
   viewBox="0 0 1540.5867 713.05334"
   xmlns="http://www.w3.org/2000/svg"
   xmlns:svg="http://www.w3.org/2000/svg">
  <g
     id="g8"
     transform="matrix(1.3333333,0,0,-1.3333333,0,713.05333)">
    <g
       id="g10"
       transform="scale(0.1)" fill="#dddddd">
      <path
         d="m 6998.52,3030.31 v -450.77 h 317.86 c 117.55,0 211.91,100.15 211.91,225.39 0,125.23 -94.36,225.38 -211.91,225.38 z m 547.13,-1140.44 -285.13,491.22 h -262 v -491.22 h -221.5 v 1348.52 h 539.36 c 121.39,0 223.48,-42.39 306.33,-127.18 84.74,-82.84 127.13,-184.93 127.13,-306.28 0,-171.47 -107.88,-327.49 -267.78,-391.07 l 306.33,-523.99 h -242.74"
         style="fill-opacity:1;fill-rule:nonzero;stroke:none"
         id="path12" />
      <path
         d="m 8144.37,3238.39 h 221.5 V 1889.87 h -221.5 z m -158,134.82 v 171.47 h 539.4 v -171.47 h -539.4"
         style="fill-opacity:1;fill-rule:nonzero;stroke:none"
         id="path14" />
      <path
         d="m 10113.4,2587.22 v -92.46 c 0,-184.94 -61.6,-337.11 -182.99,-454.62 -121.35,-117.51 -281.25,-175.31 -477.75,-175.31 -208.04,0 -379.51,67.43 -516.27,202.29 -134.86,134.82 -202.29,300.5 -202.29,497.01 0,194.56 67.43,360.25 202.29,495.06 136.76,136.81 304.35,204.24 504.7,204.24 252.36,0 471.97,-125.24 587.61,-319.8 l -190.76,-109.82 c -71.27,129.07 -221.54,213.86 -396.85,213.86 -140.61,0 -258.11,-46.24 -348.68,-138.71 -90.53,-92.46 -136.76,-208.07 -136.76,-346.77 0,-138.71 46.23,-254.27 136.76,-344.84 92.47,-90.53 213.86,-136.76 362.19,-136.76 238.85,0 394.91,121.35 435.36,308.23 h -450.77 v 198.4 h 674.21"
         style="fill-opacity:1;fill-rule:nonzero;stroke:none"
         id="path16" />
      <path
         d="m 10720.3,2369.56 h 427.7 l -213.9,608.73 z m 595.2,-479.69 -94.4,271.62 h -574 l -94.4,-271.62 h -240.8 l 489.3,1348.52 h 265.8 l 487.4,-1348.52 h -238.9"
         style="fill-opacity:1;fill-rule:nonzero;stroke:none"
         id="path18" />
      <path
         d="m 4804.9,395.09 c -70.09,-75.18 -175.91,-114.508 -280.51,-95.399 -69.63,12.668 -130.88,47.411 -177.14,100.438 -42.5,48.75 -125.63,193.461 -126.44,194.934 l -5.25,9.117 c 0,0 -116.65,-71.469 -221.62,-104.68 -65.48,-20.719 -135.99,-17.551 -201.95,8.219 -136.6,53.453 -217.97,202.25 -189.39,346.183 24.55,123 119.78,218.328 243,242.698 46.47,9.22 230.88,13.79 232.76,13.83 l 10.92,0.27 0.28,10.93 c 0.04,1.87 4.61,186.29 13.82,232.75 24.38,123.23 119.71,218.46 242.7,243 143.94,28.59 292.73,-52.78 346.18,-189.38 25.78,-65.96 28.95,-136.48 8.23,-201.95 -33.22,-104.97 -104.68,-221.628 -104.68,-221.628 l 9.12,-5.25 c 1.47,-0.801 146.18,-83.93 194.92,-126.442 53.04,-46.25 87.78,-107.5 100.45,-177.128 19.11,-104.61 -20.22,-210.422 -95.4,-280.512 z M 1267.21,505.582 c -75.51,0 -248.98,-5.152 -427.054,-45.23 40.082,178.078 45.235,351.539 45.235,427.058 0,75.512 -5.153,248.98 -45.235,427.05 178.074,-40.08 351.544,-45.23 427.054,-45.23 75.52,0 248.98,5.15 427.05,45.23 -40.07,-178.07 -45.23,-351.538 -45.23,-427.05 0,-75.519 5.16,-248.98 45.23,-427.058 -178.07,40.078 -351.53,45.23 -427.05,45.23 z M 1461.1,3104.48 1249.84,3315.74 1461.1,3527 1672.35,3315.74 Z M 1038.58,3949.5 1249.84,3738.25 1038.58,3527 827.328,3738.25 Z M 4910.74,1072.24 c 64.88,95.12 99.19,281.89 63.77,408.8 -87.9,315.04 -413.96,484.61 -733.66,393.82 -171.45,-48.73 -298.54,-178.49 -351.99,-353.12 l -889.43,889.44 693.88,693.88 817.67,-817.35 422.43,422.6 -355.53,355.22 -203.55,-218.78 -211.31,211.2 217.89,204.56 -231.88,231.87 -33.2,33.2 211.24,211.23 265.07,-265.07 204.56,217.88 211.2,-211.3 -218.78,-203.55 355.21,-355.53 422.6,422.42 -817.34,817.67 218.21,218.21 -207.87,209.02 L 2790.99,2619.62 819.805,4590.8 608.551,4379.54 827.328,4160.76 616.07,3949.51 404.816,3738.25 633.766,3509.3 422.508,3298.05 211.254,3509.3 0,3298.05 l 211.254,-211.26 211.254,-211.26 211.258,211.26 211.257,211.26 175.867,-175.87 -211.257,-211.26 -211.254,-211.25 211.254,-211.26 211.257,-211.26 211.26,211.26 -211.26,211.26 211.26,211.25 228.95,-228.95 211.25,211.25 211.26,211.26 696.12,-696.12 -691.77,-691.76 -0.98,0.99 c -88.79,-88.78 -343.64,-150.8 -619.77,-150.8 -276.132,0 -530.98,62.02 -619.769,150.8 L 437.027,1507.18 c 88.789,-88.79 150.801,-343.64 150.801,-619.77 0,-276.121 -62.012,-530.98 -150.801,-619.769 L 647.441,57.2305 C 736.23,146.02 991.078,208.031 1267.21,208.031 c 276.13,0 530.99,-62.011 619.77,-150.8005 l 210.41,210.4105 c -88.79,88.781 -150.79,343.648 -150.79,619.769 0,276.13 62,530.98 150.79,619.77 l -0.98,0.98 691.76,691.76 889.08,-889.08 c -174.13,-53.63 -303.48,-180.57 -352.13,-351.711 -90.79,-319.688 78.8,-645.75 393.83,-733.649 126.92,-35.421 313.67,-1.121 408.8,63.762 40.38,-105.781 164.66,-231.4998 286.48,-266.1014 154.64,-43.9687 317.41,-24.80857 458.07,53.5391 53.24,29.6723 100.82,66.5113 141.84,109.1723 42.66,41.019 79.5,88.597 109.17,141.828 78.35,140.672 97.51,303.429 53.54,458.082 -34.6,121.82 -160.32,246.108 -266.11,286.478"
         style="fill-opacity:1;fill-rule:nonzero;stroke:none"
         id="path20" />
      <path
         d="m 2603.68,3821.1 h 374.53 l -42.67,618.77 618.77,-42.64 v 374.5 l -618.77,-42.64 42.67,618.77 h -374.53 l 42.64,-618.77 -618.77,42.64 v -374.5 l 618.77,42.64 -42.64,-618.77"
         style="fill-opacity:1;fill-rule:nonzero;stroke:none"
         id="path22" />
    </g>
  </g>
</svg>
