<?xml version="1.0" encoding="UTF-8" standalone="no"?>
<!-- Created with Inkscape (http://www.inkscape.org/) -->

<svg
   xmlns:dc="http://purl.org/dc/elements/1.1/"
   xmlns:cc="http://creativecommons.org/ns#"
   xmlns:rdf="http://www.w3.org/1999/02/22-rdf-syntax-ns#"
   xmlns:svg="http://www.w3.org/2000/svg"
   xmlns="http://www.w3.org/2000/svg"
   xmlns:sodipodi="http://sodipodi.sourceforge.net/DTD/sodipodi-0.dtd"
   xmlns:inkscape="http://www.inkscape.org/namespaces/inkscape"
   width="25.578192mm"
   height="53.144596mm"
   viewBox="0 0 90.631388 188.30762"
   id="svg2"
   version="1.1"
   inkscape:version="0.91 r13725"
   sodipodi:docname="spb.svg">
  <defs
     id="defs4">
    <clipPath
       id="clipPath3387"
       clipPathUnits="userSpaceOnUse">
      <path
         inkscape:connector-curvature="0"
         id="path3389"
         d="m 0,7.575547 595,0 0,826.848903 -595,0 L 0,7.575547 Z" />
    </clipPath>
    <clipPath
       id="clipPath3809"
       clipPathUnits="userSpaceOnUse">
      <path
         inkscape:connector-curvature="0"
         id="path3811"
         d="m 0,7.575547 594.5753,0 0,826.035103 L 0,833.61065 0,7.575547 Z" />
    </clipPath>
    <clipPath
       id="clipPath3821"
       clipPathUnits="userSpaceOnUse">
      <path
         inkscape:connector-curvature="0"
         id="path3823"
         d="m 0,7.575547 595,0 0,826.848903 -595,0 L 0,7.575547 Z" />
    </clipPath>
    <clipPath
       id="clipPath3953"
       clipPathUnits="userSpaceOnUse">
      <path
         inkscape:connector-curvature="0"
         id="path3955"
         d="m 0,7.575547 594.5753,0 0,826.035103 L 0,833.61065 0,7.575547 Z" />
    </clipPath>
    <clipPath
       id="clipPath3965"
       clipPathUnits="userSpaceOnUse">
      <path
         inkscape:connector-curvature="0"
         id="path3967"
         d="m 0,7.575547 595,0 0,826.848903 -595,0 L 0,7.575547 Z" />
    </clipPath>
  </defs>
  <sodipodi:namedview
     id="base"
     pagecolor="#ffffff"
     bordercolor="#666666"
     borderopacity="1.0"
     inkscape:pageopacity="0.0"
     inkscape:pageshadow="2"
     inkscape:zoom="1.979899"
     inkscape:cx="-232.39469"
     inkscape:cy="56.175133"
     inkscape:document-units="px"
     inkscape:current-layer="layer1"
     showgrid="false"
     inkscape:window-width="1920"
     inkscape:window-height="1075"
     inkscape:window-x="0"
     inkscape:window-y="1"
     inkscape:window-maximized="1"
     fit-margin-top="0"
     fit-margin-left="0"
     fit-margin-right="0"
     fit-margin-bottom="0" />
  <metadata
     id="metadata7">
    <rdf:RDF>
      <cc:Work
         rdf:about="">
        <dc:format>image/svg+xml</dc:format>
        <dc:type
           rdf:resource="http://purl.org/dc/dcmitype/StillImage" />
        <dc:title />
      </cc:Work>
    </rdf:RDF>
  </metadata>
  <g
     inkscape:label="Layer 1"
     inkscape:groupmode="layer"
     id="layer1"
     transform="translate(-712.40673,-123.3515)">
    <path
       d="m 768.91289,311.65912 c -10.81312,0 -12.92175,-5.74887 -21.98425,-5.74887 -9.0565,0 -11.17537,5.74887 -21.98275,5.74887 l 0,-6.982 c 8.7165,0 10.90938,-5.74887 21.98275,-5.74887 11.09713,0 13.23225,5.74887 21.98425,5.74887 8.70763,0 10.90938,-5.74887 21.98275,-5.74887 l 0,6.982 c -9.0625,0 -11.171,5.74887 -21.98275,5.74887"
       style="fill:#00accf;fill-opacity:1;fill-rule:nonzero;stroke:none"
       id="path3777"
       inkscape:connector-curvature="0" />
    <path
       d="m 794.55089,259.62475 c 0,-1.05575 1.177,-1.32038 2.314,-1.32038 0.79113,0 1.54225,0.14188 1.94888,0.26463 l 0,1.764 2.71912,0 0,-3.5915 c -1.17837,-0.4865 -2.6985,-0.79113 -4.22,-0.79113 -3.53237,0 -5.54037,1.21688 -5.54037,3.95688 0,4.912 7.38575,3.28837 7.38575,5.52112 0,0.689 -0.38588,0.99363 -2.07013,0.99363 -2.14987,0 -4.38412,-0.87238 -5.27712,-1.2775 l 0,2.799 c 1.05712,0.692 3.0045,1.177 4.93412,1.177 2.71775,0 5.31425,-0.62838 5.31425,-3.81488 0,-4.72712 -7.5085,-2.96312 -7.5085,-5.68087"
       style="fill:#808080;fill-opacity:1;fill-rule:nonzero;stroke:none"
       id="path3779"
       inkscape:connector-curvature="0" />
    <path
       d="m 771.01114,258.325 c 1.29825,0 2.61863,0.7305 2.64075,2.67937 l -5.56112,0 c 0.0208,-1.74487 1.43875,-2.67937 2.92037,-2.67937 z m 12.80638,0.30463 -0.36525,-2.39388 -5.45913,0 0,2.5965 2.941,0 0,7.5705 -8.84662,0 c -2.14988,0 -3.976,-0.50862 -4.03813,-2.92325 l 8.38088,0 c 0.0399,-0.56775 0.1005,-1.17688 0.1005,-1.74475 0,-2.94388 -1.239,-5.78438 -5.37925,-5.78438 -4.0765,0 -6.02538,2.802 -6.02538,6.59475 0,4.0395 2.09075,6.23088 6.41425,6.23088 l 15.502,0 0,-2.37325 -3.08437,0 0,-3.22625 c 0,-2.67938 1.58362,-4.18163 3.61375,-4.263 l 0,2.7385 2.63787,0 0,-5.41625 c -0.47025,-0.0621 -0.89312,-0.0827 -1.29975,-0.0827 -1.8675,0 -4.03962,0.81325 -5.09237,2.47662"
       style="fill:#808080;fill-opacity:1;fill-rule:nonzero;stroke:none"
       id="path3781"
       inkscape:connector-curvature="0" />
    <path
       d="m 763.15814,278.69312 -0.36375,-2.39387 -5.13675,0 0,2.5965 2.61863,0 0,7.56912 -5.94563,0 0,-10.16562 -3.043,0 0,5.96625 c 0,2.53587 -1.483,3.97612 -3.20562,3.97612 -0.95663,0 -1.523,-0.6255 -1.523,-2.80062 l 0,-7.14175 -5.70163,0 0,2.5965 2.65713,0 0,5.55962 c 0,3.2885 1.68412,4.58825 3.8755,4.58825 1.5215,0 3.16575,-0.63 4.26287,-2.21362 l 0.3445,2.0095 14.36638,0 0,-2.37463 -3.06375,0 0,-3.22637 c 0,-2.65863 1.58362,-4.17863 3.59162,-4.26138 l 0,2.73988 2.63788,0 0,-5.41775 c -0.44513,-0.0399 -0.87088,-0.0606 -1.29825,-0.0606 -1.8675,0 -4.01738,0.81175 -5.07313,2.4545"
       style="fill:#808080;fill-opacity:1;fill-rule:nonzero;stroke:none"
       id="path3783"
       inkscape:connector-curvature="0" />
    <path
       d="m 742.70277,244.39637 c 0,-1.50225 1.44162,-1.727 3.06525,-1.727 0.81025,0 1.78462,0.102 2.2105,0.16413 l 0,1.44012 c -0.60925,0.973 -2.04788,1.68425 -3.55163,1.68425 -0.95375,0 -1.72412,-0.386 -1.72412,-1.5615 z m 5.56112,2.18988 0.28238,1.60287 2.43687,0 0,-8.46225 c 0,-2.941 -1.54375,-4.38262 -4.78937,-4.38262 -1.92813,0 -3.99963,0.26312 -5.29638,0.70975 l 0,2.82112 c 0.66825,-0.26312 2.71913,-0.71112 4.4225,-0.71112 1.38113,0 2.65863,0.28537 2.65863,1.625 l 0,0.81025 c -1.64425,-0.0799 -1.968,-0.1405 -2.598,-0.1405 -3.57088,0 -5.61875,1.23762 -5.61875,4.07812 0,2.72063 1.78475,3.85625 4.15937,3.85625 1.54225,0 3.2855,-0.56925 4.34275,-1.80687"
       style="fill:#808080;fill-opacity:1;fill-rule:nonzero;stroke:none"
       id="path3785"
       inkscape:connector-curvature="0" />
    <path
       d="m 779.29139,280.33587 c 0,1.13713 -0.9345,1.98875 -2.51662,1.98875 -1.60138,0 -2.53725,-0.85162 -2.53725,-1.98875 0,-1.15624 0.93587,-1.9665 2.53725,-1.9665 1.58212,0 2.51662,0.81025 2.51662,1.9665 z m -4.68725,8.07776 c 0.6285,0.10212 1.37963,0.22337 2.17063,0.244 2.598,0.18187 3.5325,0.50712 3.5325,1.29825 0,1.03499 -1.09863,1.80687 -3.81638,1.80687 -2.17062,0 -3.20412,-0.63137 -3.20412,-1.66637 0,-0.627 0.40512,-1.29675 1.31737,-1.68275 z m 2.17063,-12.39825 c -3.53088,0 -5.397,1.80537 -5.397,4.3205 0,1.11787 0.42587,2.09225 1.19775,2.8435 -0.936,0.4465 -1.48313,1.39875 -1.48313,2.314 0,0.80875 0.46725,1.62062 1.33963,2.20912 -1.25825,0.448 -1.94725,1.625 -1.94725,2.84338 0,1.764 1.41937,3.5295 6.046,3.5295 4.54537,0 6.7175,-1.72413 6.7175,-4.38413 0,-4.99037 -9.45588,-2.51525 -9.45588,-4.76712 0,-0.346 0.20263,-0.62988 0.54563,-0.65063 0.75412,0.22475 1.50375,0.38588 2.43675,0.38588 3.48962,0 5.37925,-1.80688 5.37925,-4.3235 0,-0.66825 -0.204,-1.31738 -0.50863,-1.90588 l 3.32988,0 0,-2.19137 -6.39363,0 c -0.5885,-0.16413 -1.1755,-0.22325 -1.80687,-0.22325"
       style="fill:#808080;fill-opacity:1;fill-rule:nonzero;stroke:none"
       id="path3787"
       inkscape:connector-curvature="0" />
    <path
       d="m 765.04489,248.18912 3.04588,0 0,-5.96637 c 0,-2.47513 1.58212,-3.95525 3.389,-3.95525 0.973,0 1.58225,0.54712 1.58225,2.6985 l 0,7.22312 5.07312,0 0,-2.53587 -2.04937,0 0,-5.70162 c 0,-3.2885 -1.70488,-4.50688 -3.89763,-4.50688 -1.62212,0 -3.1865,0.5885 -4.38275,2.07163 l -0.4465,-1.8675 -4.54525,0 0,2.57575 2.23125,0 0,9.96449"
       style="fill:#808080;fill-opacity:1;fill-rule:nonzero;stroke:none"
       id="path3789"
       inkscape:connector-curvature="0" />
    <path
       d="m 780.44777,242.95475 c 0,2.73988 -0.0799,5.23437 4.30125,5.23437 l 2.71925,0 0,-2.63787 -1.05425,0 c -1.94738,0 -2.92188,-0.0799 -2.92188,-2.19138 l 0,-5.45762 3.81488,0 0,-2.25337 -3.81488,0 0,-3.14513 -2.09075,0 c -0.38587,2.47525 -1.1755,3.14513 -3.2455,3.14513 l 0,2.25337 2.29188,0 0,5.0525"
       style="fill:#808080;fill-opacity:1;fill-rule:nonzero;stroke:none"
       id="path3791"
       inkscape:connector-curvature="0" />
    <path
       d="m 737.81152,243.6645 c 0,-5.70163 -8.66488,-4.40188 -8.66488,-7.853 0,-1.33963 1.01438,-1.74488 2.09088,-1.74488 1.74625,0 4.16087,0.99375 5.17362,1.62363 l 4.5055,-5.66313 -2.252,-1.54225 -2.98387,3.7335 c -1.2775,-0.587 -2.57575,-1.03499 -3.93613,-1.03499 -3.22637,0 -5.5995,1.54362 -5.5995,5.13524 0.2425,5.64251 8.66475,4.34276 8.66475,7.65038 0,1.27763 -1.05425,1.807 -2.944,1.807 -1.13562,0 -2.33325,-0.244 -3.16575,-0.8325 l 0,-2.57725 -2.72062,0 0,4.36188 c 1.40312,1.23912 3.81625,1.82612 5.74587,1.82612 4.74788,0 6.04763,-2.25187 6.08613,-4.88975"
       style="fill:#808080;fill-opacity:1;fill-rule:nonzero;stroke:none"
       id="path3793"
       inkscape:connector-curvature="0" />
    <path
       d="m 743.79839,261.025 c 0.04,-1.78613 1.40025,-2.7 3.00463,-2.7 1.35887,0 2.67925,0.75262 2.67925,2.7 l -5.68388,0 z m 3.06375,-5.07463 c -4.078,0 -6.00475,2.82125 -6.00475,6.61538 0,4.03812 2.08788,6.53412 6.39213,6.53412 1.37962,0 3.20425,-0.20262 4.4655,-0.75125 l 0,-2.53575 c -0.91525,0.38438 -2.49888,0.6505 -3.89913,0.6505 -2.17062,0 -3.99675,-0.52787 -4.05887,-2.96312 l 10.35187,0 0,-2.47525 -1.934,0 c 10e-4,-0.068 0.006,-0.1375 0.006,-0.204 0,-2.57725 -1.78612,-4.87062 -5.31862,-4.87062"
       style="fill:#808080;fill-opacity:1;fill-rule:nonzero;stroke:none"
       id="path3795"
       inkscape:connector-curvature="0" />
    <path
       d="m 733.42739,286.54762 c -0.70837,0 -1.50087,-0.12275 -2.33337,-0.50862 l 0,-5.80363 c 0.46875,-0.87087 1.78775,-1.6635 3.06525,-1.6635 1.90737,0 2.77975,1.39888 2.77975,3.75275 0,2.802 -1.31738,4.22301 -3.51163,4.22301 z m 1.25975,-10.53225 c -1.50225,0 -2.90112,0.52788 -3.59312,1.1755 l 0,-5.051 -5.78288,0 0,2.598 2.75913,0 0,13.08725 c 0.97587,0.54863 2.4575,1.33963 4.97412,1.33963 4.93125,0 6.83713,-2.86263 6.83713,-6.9805 0,-3.22788 -1.31888,-6.16888 -5.19438,-6.16888"
       style="fill:#808080;fill-opacity:1;fill-rule:nonzero;stroke:none"
       id="path3797"
       inkscape:connector-curvature="0" />
    <path
       d="m 761.21077,268.776 2.71775,0 0,-2.63638 -1.05288,0 c -1.94875,0 -2.92325,-0.0621 -2.92325,-2.17212 l 0,-5.48125 3.81488,0 0,-2.2505 -3.81488,0 0,-3.1465 -2.09075,0 c -0.38587,2.47675 -1.1755,3.1465 -3.247,3.1465 l 0,2.2505 2.27263,0 0,5.0525 c 0,2.74137 -0.0606,5.23725 4.3235,5.23725"
       style="fill:#808080;fill-opacity:1;fill-rule:nonzero;stroke:none"
       id="path3799"
       inkscape:connector-curvature="0" />
    <path
       d="m 731.23752,254.75412 2.3125,0 c 1.99025,0 3.16725,0.87101 3.16725,2.595 0,2.33626 -1.64275,3.08738 -3.57388,3.08738 -0.64762,0 -1.33812,-0.0606 -1.90587,-0.14337 l 0,-5.539 z m -5.43838,4.91063 c -1.461,-0.04 -2.008,-1.09575 -2.008,-2.29338 0,-1.60287 0.89013,-2.61725 3.08438,-2.61725 l 1.19475,0 0,14.02188 3.16725,0 0,-5.76225 c 0.5485,0.0784 1.1355,0.10062 1.7255,0.10062 3.34762,0 6.73662,-1.217 6.73662,-5.6425 0,-3.14499 -1.8275,-5.3955 -6.06825,-5.3955 l -5.9855,0 c -4.60737,0.0591 -6.5755,1.98725 -6.5755,5.295 0,3.08588 1.70488,4.9105 4.72875,4.9105 l 0,-2.61712"
       style="fill:#808080;fill-opacity:1;fill-rule:nonzero;stroke:none"
       id="path3801"
       inkscape:connector-curvature="0" />
    <path
       d="m 759.16139,232.4225 -4.081,-4.14025 -2.17062,1.88675 4.05737,4.10025 2.19425,-1.84675"
       style="fill:#808080;fill-opacity:1;fill-rule:nonzero;stroke:none"
       id="path3803"
       inkscape:connector-curvature="0" />
    <path
       d="m 753.41689,235.64887 0,2.57575 3.16725,0 0,7.368 -3.16725,0 0,2.5965 9.39675,0 0,-2.5965 -3.16437,0 0,-9.94375 -6.23238,0"
       style="fill:#808080;fill-opacity:1;fill-rule:nonzero;stroke:none"
       id="path3813"
       inkscape:connector-curvature="0" />
    <path
       d="m 727.60889,209.44462 c 0,-3.45262 14.634,-6.716 30.11225,-6.716 15.48125,0 30.11525,3.26338 30.11525,6.716 0,3.45113 -14.634,6.71438 -30.11525,6.71438 -15.47825,0 -30.11225,-3.26325 -30.11225,-6.71438 z m 25.45763,-61.76675 c 0,-5.64687 3.38162,-5.64687 4.65612,-5.64687 1.27313,0 4.65775,0 4.65775,5.64687 0,4.78775 -3.26925,8.28625 -4.65775,8.28625 -1.38837,0 -4.65612,-3.4985 -4.65612,-8.28625 z m -34.54225,19.34775 c 2.12475,-6.03125 7.72437,-10.38437 16.64637,-12.935 2.382,-0.68162 3.71425,1.60725 3.99525,2.46188 0.50713,1.55412 6.75875,19.5875 7.0235,20.35337 l 4.92088,-1.70487 c -0.037,-0.10937 -2.25638,-6.51037 -4.1905,-12.1055 3.16875,-1.25537 6.89937,-1.92225 10.80287,-1.92225 3.90363,0 7.63125,0.66688 10.79988,1.92225 -1.9325,5.59513 -4.15188,11.99613 -4.18888,12.1055 l 4.92238,1.70487 c 0.26462,-0.76587 6.51325,-18.79775 7.02487,-20.35187 0.2795,-0.85613 1.61325,-3.14063 3.99238,-2.46338 8.922,2.55063 14.523,6.90375 16.64337,12.935 2.16475,6.14675 0.46438,14.0455 -4.54525,21.12675 -3.3225,4.7005 -3.58125,7.92988 -3.58125,11.97975 l 0,2.215 c -7.65787,-4.3235 -22.37012,-5.82575 -31.069,-5.82575 -7.68137,0 -23.037,1.28938 -31.06887,5.82725 l 0,-2.2165 c 0,-4.04987 -0.25588,-7.27925 -3.57975,-11.97975 -5.00963,-7.08262 -6.71,-14.98 -4.54825,-21.12675 z m 78.10262,24.13575 c 5.9825,-8.45925 7.92688,-18.128 5.20325,-25.86425 -3.38162,-9.6125 -12.81225,-14.12237 -20.12412,-16.21312 -4.8395,-1.3855 -9.07875,1.88525 -10.377,5.848 -0.11088,0.3415 -0.52938,1.55987 -1.106,3.23962 -1.69163,-0.6535 -3.50288,-1.16812 -5.394,-1.53325 1.67812,-2.4605 2.75762,-5.66612 2.75762,-8.9605 0,-5.6765 -2.72362,-9.5195 -7.26012,-10.56037 l 0,-3.86963 4.62375,0 0,-5.20912 -4.62375,0 0,-4.68725 -5.20925,0 0,4.68725 -4.62213,0 0,5.20912 4.62213,0 0,3.86963 c -4.53488,1.04087 -7.2615,4.88387 -7.2615,10.56037 0,3.29438 1.08237,6.5 2.76062,8.9605 -1.89412,0.36513 -3.7025,0.87975 -5.394,1.53175 -0.57825,-1.67675 -0.99512,-2.89512 -1.1075,-3.23662 -1.29825,-3.96425 -5.53312,-7.2365 -10.37562,-5.8495 -7.31475,2.09075 -16.74388,6.59912 -20.1255,16.21312 -2.72225,7.73475 -0.77788,17.4035 5.20625,25.86425 2.50175,3.53838 2.623,5.60988 2.623,8.97075 0,9.77525 -0.0414,9.3125 -0.0414,9.3125 0,10.60025 26.219,12.92163 36.3195,12.92163 10.105,0 36.3255,-2.32137 36.3255,-12.92163 0,0 -0.0473,0.46275 -0.0473,-9.3125 0,-3.35937 0.12413,-5.43237 2.6275,-8.97075"
       style="fill:#fab20b;fill-opacity:1;fill-rule:nonzero;stroke:none"
       id="path3815"
       inkscape:connector-curvature="0" />
  </g>
</svg>
