<?xml version="1.0" encoding="UTF-8" standalone="no"?>
<!-- Created with Inkscape (http://www.inkscape.org/) -->

<svg
   xmlns:dc="http://purl.org/dc/elements/1.1/"
   xmlns:cc="http://creativecommons.org/ns#"
   xmlns:rdf="http://www.w3.org/1999/02/22-rdf-syntax-ns#"
   xmlns:svg="http://www.w3.org/2000/svg"
   xmlns="http://www.w3.org/2000/svg"
   xmlns:sodipodi="http://sodipodi.sourceforge.net/DTD/sodipodi-0.dtd"
   xmlns:inkscape="http://www.inkscape.org/namespaces/inkscape"
   width="27.473896mm"
   height="41.51651mm"
   viewBox="0 0 97.34845 147.10574"
   id="svg2"
   version="1.1"
   inkscape:version="0.91 r13725"
   sodipodi:docname="spb1.svg">
  <defs
     id="defs4">
    <clipPath
       id="clipPath3387"
       clipPathUnits="userSpaceOnUse">
      <path
         inkscape:connector-curvature="0"
         id="path3389"
         d="m 0,7.575547 595,0 0,826.848903 -595,0 L 0,7.575547 Z" />
    </clipPath>
    <clipPath
       id="clipPath3809"
       clipPathUnits="userSpaceOnUse">
      <path
         inkscape:connector-curvature="0"
         id="path3811"
         d="m 0,7.575547 594.5753,0 0,826.035103 L 0,833.61065 0,7.575547 Z" />
    </clipPath>
    <clipPath
       id="clipPath3821"
       clipPathUnits="userSpaceOnUse">
      <path
         inkscape:connector-curvature="0"
         id="path3823"
         d="m 0,7.575547 595,0 0,826.848903 -595,0 L 0,7.575547 Z" />
    </clipPath>
    <clipPath
       id="clipPath3953"
       clipPathUnits="userSpaceOnUse">
      <path
         inkscape:connector-curvature="0"
         id="path3955"
         d="m 0,7.575547 594.5753,0 0,826.035103 L 0,833.61065 0,7.575547 Z" />
    </clipPath>
    <clipPath
       id="clipPath3965"
       clipPathUnits="userSpaceOnUse">
      <path
         inkscape:connector-curvature="0"
         id="path3967"
         d="m 0,7.575547 595,0 0,826.848903 -595,0 L 0,7.575547 Z" />
    </clipPath>
  </defs>
  <sodipodi:namedview
     id="base"
     pagecolor="#ffffff"
     bordercolor="#666666"
     borderopacity="1.0"
     inkscape:pageopacity="0.0"
     inkscape:pageshadow="2"
     inkscape:zoom="0.35"
     inkscape:cx="23.302558"
     inkscape:cy="-220.70308"
     inkscape:document-units="px"
     inkscape:current-layer="layer1"
     showgrid="false"
     inkscape:window-width="1920"
     inkscape:window-height="1075"
     inkscape:window-x="0"
     inkscape:window-y="1"
     inkscape:window-maximized="1"
     fit-margin-top="0"
     fit-margin-left="0"
     fit-margin-right="0"
     fit-margin-bottom="0" />
  <metadata
     id="metadata7">
    <rdf:RDF>
      <cc:Work
         rdf:about="">
        <dc:format>image/svg+xml</dc:format>
        <dc:type
           rdf:resource="http://purl.org/dc/dcmitype/StillImage" />
        <dc:title></dc:title>
      </cc:Work>
    </rdf:RDF>
  </metadata>
  <g
     inkscape:label="Layer 1"
     inkscape:groupmode="layer"
     id="layer1"
     transform="translate(-77.411728,-164.55338)">
    <path
       d="m 162.71823,259.62475 c 0,-1.05575 1.17551,-1.32038 2.3111,-1.32038 0.79255,0 1.54369,0.14188 1.94884,0.26463 l 0,1.764 2.71918,0 0,-3.5915 c -1.17698,-0.488 -2.69997,-0.79113 -4.22147,-0.79113 -3.53096,0 -5.53895,1.21688 -5.53895,3.95688 0,4.912 7.38575,3.28837 7.38575,5.52112 0,0.689 -0.38444,0.99363 -2.07008,0.99363 -2.14992,0 -4.38117,-0.87238 -5.27575,-1.279 l 0,2.8005 c 1.05574,0.692 3.00458,1.177 4.93123,1.177 2.72067,0 5.31715,-0.62838 5.31715,-3.81488 0,-4.72862 -7.507,-2.96312 -7.507,-5.68087"
       style="fill:#231f20;fill-opacity:1;fill-rule:nonzero;stroke:none"
       id="path3583"
       inkscape:connector-curvature="0" />
    <path
       d="m 139.17847,258.325 c 1.29676,0 2.6157,0.7305 2.63787,2.67937 l -5.5626,0 c 0.0207,-1.74625 1.44315,-2.67937 2.92473,-2.67937 z m 12.80345,0.30463 -0.36523,-2.39388 -5.45761,0 0,2.595 2.94099,0 0,7.57063 -8.84812,0 c -2.1514,0 -3.97751,-0.50725 -4.03813,-2.92188 l 8.38087,0 c 0.0414,-0.56775 0.10054,-1.17687 0.10054,-1.74475 0,-2.94387 -1.23761,-5.78438 -5.37629,-5.78438 -4.07954,0 -6.02836,2.802 -6.02836,6.59475 0,4.03813 2.09225,6.23088 6.41281,6.23088 l 15.50489,0 0,-2.37463 -3.08441,0 0,-3.22487 c 0,-2.67938 1.58212,-4.18163 3.61228,-4.263 l 0,2.7385 2.63639,0 0,-5.41625 c -0.46576,-0.0621 -0.89012,-0.0827 -1.29824,-0.0827 -1.86602,0 -4.03812,0.81325 -5.09238,2.47663"
       style="fill:#231f20;fill-opacity:1;fill-rule:nonzero;stroke:none"
       id="path3585"
       inkscape:connector-curvature="0" />
    <path
       d="m 131.32252,278.69312 -0.36522,-2.39537 -5.1338,0 0,2.598 2.61865,0 0,7.56912 -5.94556,0 0,-10.16712 -3.0445,0 0,5.96775 c 0,2.53587 -1.48159,3.97612 -3.20714,3.97612 -0.95372,0 -1.52003,-0.6285 -1.52003,-2.80062 l 0,-7.14325 -5.70307,0 0,2.598 2.65858,0 0,5.55962 c 0,3.2885 1.68415,4.58826 3.87547,4.58826 1.52299,0 3.16575,-0.63001 4.26142,-2.21363 l 0.346,2.0095 14.36635,0 0,-2.37463 -3.06373,0 0,-3.22787 c 0,-2.65713 1.58214,-4.17863 3.5916,-4.25988 l 0,2.73988 2.63935,0 0,-5.41925 c -0.44802,-0.0384 -0.87387,-0.0606 -1.3012,-0.0606 -1.86602,0 -4.01742,0.81175 -5.07317,2.456"
       style="fill:#231f20;fill-opacity:1;fill-rule:nonzero;stroke:none"
       id="path3587"
       inkscape:connector-curvature="0" />
    <path
       d="m 110.86718,244.39637 c 0,-1.50225 1.44166,-1.727 3.0652,-1.727 0.81176,0 1.78766,0.102 2.21202,0.16413 l 0,1.44012 c -0.6092,0.973 -2.04937,1.68425 -3.55166,1.68425 -0.95372,0 -1.72556,-0.386 -1.72556,-1.5615 z m 5.56112,2.18988 0.28389,1.60287 2.4353,0 0,-8.46225 c 0,-2.941 -1.54369,-4.38262 -4.7878,-4.38262 -1.92812,0 -3.9982,0.26312 -5.29792,0.70975 l 0,2.82112 c 0.66982,-0.26312 2.7192,-0.71112 4.42406,-0.71112 1.38104,0 2.65857,0.28537 2.65857,1.625 l 0,0.81025 c -1.64423,-0.0813 -1.96806,-0.14188 -2.59795,-0.14188 -3.57088,0 -5.62026,1.239 -5.62026,4.078 0,2.72213 1.7847,3.85775 4.16085,3.85775 1.54074,0 3.28551,-0.56925 4.34126,-1.80687"
       style="fill:#231f20;fill-opacity:1;fill-rule:nonzero;stroke:none"
       id="path3589"
       inkscape:connector-curvature="0" />
    <path
       d="m 147.45732,280.33587 c 0,1.13713 -0.93303,1.98875 -2.51812,1.98875 -1.60282,0 -2.53583,-0.85162 -2.53583,-1.98875 0,-1.15624 0.93301,-1.9665 2.53583,-1.9665 1.58509,0 2.51812,0.81025 2.51812,1.9665 z m -4.68727,8.07776 c 0.62695,0.10212 1.37809,0.22337 2.16915,0.24249 2.59648,0.18338 3.53245,0.50863 3.53245,1.29976 0,1.03499 -1.09715,1.80687 -3.81633,1.80687 -2.17064,0 -3.20419,-0.63137 -3.20419,-1.66637 0,-0.627 0.40514,-1.29675 1.31892,-1.68275 z m 2.16915,-12.39825 c -3.52948,0 -5.39698,1.80537 -5.39698,4.3205 0,1.11787 0.42583,2.09087 1.19768,2.842 -0.93301,0.448 -1.48011,1.40025 -1.48011,2.314 0,0.81025 0.46578,1.62212 1.33816,2.21062 -1.25831,0.448 -1.94882,1.625 -1.94882,2.84338 0,1.764 1.41947,3.5295 6.0461,3.5295 4.54679,0 6.71741,-1.72413 6.71741,-4.38413 0,-4.99037 -9.45435,-2.51525 -9.45435,-4.76862 0,-0.3445 0.2011,-0.62838 0.54561,-0.64913 0.75115,0.22475 1.50229,0.38588 2.4353,0.38588 3.49253,0 5.37778,-1.80688 5.37778,-4.3235 0,-0.66825 -0.20258,-1.31738 -0.50718,-1.90588 l 3.3284,0 0,-2.19287 -6.39211,0 c -0.58701,-0.16263 -1.17699,-0.22175 -1.80689,-0.22175"
       style="fill:#231f20;fill-opacity:1;fill-rule:nonzero;stroke:none"
       id="path3591"
       inkscape:connector-curvature="0" />
    <path
       d="m 133.21073,248.18912 3.04301,0 0,-5.96637 c 0,-2.47513 1.58361,-3.95525 3.38903,-3.95525 0.97588,0 1.5836,0.54712 1.5836,2.697 l 0,7.22462 5.07317,0 0,-2.53737 -2.04937,0 0,-5.70013 c 0,-3.28999 -1.70487,-4.50687 -3.89619,-4.50687 -1.62353,0 -3.18644,0.5885 -4.38265,2.07162 l -0.44803,-1.8675 -4.5453,0 0,2.57575 2.23273,0 0,9.9645"
       style="fill:#231f20;fill-opacity:1;fill-rule:nonzero;stroke:none"
       id="path3593"
       inkscape:connector-curvature="0" />
    <path
       d="m 148.6136,242.95475 c 0,2.73988 -0.0813,5.23437 4.30133,5.23437 l 2.7192,0 0,-2.63787 -1.05426,0 c -1.94884,0 -2.92178,-0.0814 -2.92178,-2.19138 l 0,-5.45912 3.81339,0 0,-2.25188 -3.81339,0 0,-3.14512 -2.09225,0 c -0.38445,2.47525 -1.17551,3.14512 -3.2456,3.14512 l 0,2.25188 2.29336,0 0,5.054"
       style="fill:#231f20;fill-opacity:1;fill-rule:nonzero;stroke:none"
       id="path3595"
       inkscape:connector-curvature="0" />
    <path
       d="m 105.97735,243.6645 c 0,-5.70313 -8.664759,-4.40338 -8.664759,-7.853 0,-1.33963 1.015813,-1.74625 2.0893,-1.74625 1.746259,0 4.160859,0.99512 5.175199,1.625 l 4.50539,-5.66313 -2.25344,-1.54225 -2.98239,3.7335 c -1.27901,-0.587 -2.57725,-1.035 -3.937584,-1.035 -3.224887,0 -5.599563,1.54363 -5.599563,5.13525 0.242488,5.641 8.664747,4.34275 8.664747,7.649 0,1.279 -1.05277,1.80688 -2.94246,1.80688 -1.135587,0 -2.334749,-0.244 -3.165749,-0.831 l 0,-2.57725 -2.720675,0 0,4.36187 c 1.40175,1.23763 3.81635,1.82613 5.744475,1.82613 4.747879,0 6.046109,-2.25188 6.087509,-4.88975"
       style="fill:#231f20;fill-opacity:1;fill-rule:nonzero;stroke:none"
       id="path3597"
       inkscape:connector-curvature="0" />
    <path
       d="m 116.99757,261.0235 -5.03177,0 c 0.0384,-1.78463 1.39878,-2.6985 3.00162,-2.6985 1.35886,0 2.67778,0.75125 2.67778,2.6985 l -0.64763,0 z m -1.96953,-5.07313 c -4.07954,0 -6.00619,2.82125 -6.00619,6.61538 0,4.03812 2.0893,6.53412 6.3921,6.53412 1.37957,0 3.20715,-0.20262 4.46399,-0.75125 l 0,-2.53575 c -0.9138,0.38438 -2.49592,0.6505 -3.89619,0.6505 -2.17211,0 -3.99821,-0.52787 -4.05883,-2.96312 l 10.34892,0 0,-2.47675 -1.93257,0 c 0.003,-0.0665 0.007,-0.136 0.007,-0.2025 0,-2.57725 -1.78766,-4.87063 -5.31862,-4.87063"
       style="fill:#231f20;fill-opacity:1;fill-rule:nonzero;stroke:none"
       id="path3599"
       inkscape:connector-curvature="0" />
    <path
       d="m 101.5947,286.54762 c -0.71122,0 -1.50228,-0.12275 -2.334759,-0.50862 l 0,-5.80363 c 0.465775,-0.87237 1.786189,-1.6635 3.063729,-1.6635 1.9089,0 2.7813,1.39888 2.7813,3.75275 0,2.802 -1.31894,4.22301 -3.51027,4.22301 z m 1.25832,-10.53225 c -1.50229,0 -2.901079,0.52788 -3.593079,1.1755 l 0,-5.051 -5.782913,0 0,2.5965 2.7606,0 0,13.08875 c 0.972938,0.54863 2.454525,1.33963 4.971152,1.33963 4.93122,0 6.83865,-2.86263 6.83865,-6.9805 0,-3.22788 -1.31745,-6.16888 -5.19441,-6.16888"
       style="fill:#231f20;fill-opacity:1;fill-rule:nonzero;stroke:none"
       id="path3601"
       inkscape:connector-curvature="0" />
    <path
       d="m 129.37517,268.776 2.7192,0 0,-2.63638 -1.05427,0 c -1.94883,0 -2.92325,-0.0621 -2.92325,-2.17212 l 0,-5.48125 3.81487,0 0,-2.2505 -3.81487,0 0,-3.1465 -2.09077,0 c -0.38445,2.47675 -1.17551,3.1465 -3.2456,3.1465 l 0,2.2505 2.27266,0 0,5.0525 c 0,2.74137 -0.0606,5.23725 4.32203,5.23725"
       style="fill:#231f20;fill-opacity:1;fill-rule:nonzero;stroke:none"
       id="path3603"
       inkscape:connector-curvature="0" />
    <path
       d="m 99.401891,254.75412 2.314049,0 c 1.99024,0 3.16575,0.87101 3.16575,2.595 0,2.33626 -1.64424,3.086 -3.57089,3.086 -0.6506,0 -1.341109,-0.0606 -1.908909,-0.142 l 0,-5.539 z m -5.436913,4.91063 c -1.462362,-0.04 -2.009462,-1.09575 -2.009462,-2.29338 0,-1.60437 0.8931,-2.61725 3.084425,-2.61725 l 1.197687,0 0,14.02188 3.164263,0 0,-5.76225 c 0.55005,0.0784 1.137059,0.10062 1.724089,0.10062 3.34909,0 6.7381,-1.21837 6.7381,-5.6425 0,-3.14499 -1.8261,-5.39699 -6.06681,-5.39699 l -5.985492,0 c -4.605925,0.0606 -6.576937,1.98874 -6.576937,5.2965 0,3.08437 1.706337,4.9105 4.730137,4.9105 l 0,-2.61713"
       style="fill:#231f20;fill-opacity:1;fill-rule:nonzero;stroke:none"
       id="path3605"
       inkscape:connector-curvature="0" />
    <path
       d="m 127.32579,232.4225 -4.07954,-4.14025 -2.1721,1.88675 4.06032,4.09875 2.19132,-1.84525"
       style="fill:#231f20;fill-opacity:1;fill-rule:nonzero;stroke:none"
       id="path3607"
       inkscape:connector-curvature="0" />
    <path
       d="m 121.58279,235.64887 0,2.57575 3.16428,0 0,7.3665 -3.16428,0 0,2.598 9.39521,0 0,-2.598 -3.16575,0 0,-9.94225 -6.22946,0"
       style="fill:#231f20;fill-opacity:1;fill-rule:nonzero;stroke:none"
       id="path3609"
       inkscape:connector-curvature="0" />
    <path
       d="m 105.79253,221.25875 4.39004,2.802 6.15848,-9.645 -4.39152,-2.802 -6.157,9.645 z m -28.380802,-13.29725 1.663463,4.93562 11.02465,-3.71425 -1.66345,-4.93712 -11.024663,3.71575 z m 58.420612,6.45425 6.15553,9.645 4.39152,-2.802 -6.15701,-9.645 -4.39004,2.802 z m 26.23825,-5.23287 11.02465,3.71425 1.66494,-4.93563 -11.02613,-3.71575 -1.66346,4.93713 z m -45.72954,-34.98438 -6.15848,-9.64512 -4.39004,2.8035 6.157,9.64362 4.39152,-2.802 z m -26.241209,5.23288 -11.02465,-3.71438 -1.663463,4.93575 11.024663,3.71425 1.66345,-4.93562 z m 56.279549,-12.0745 -4.39152,-2.8035 -6.15553,9.64512 4.39004,2.802 6.15701,-9.64362 z m 28.38079,13.29587 -1.66494,-4.93575 -11.02465,3.71438 1.66346,4.93562 11.02613,-3.71425 z m -48.67496,20.371 c -15.47828,0 -30.113742,-3.26325 -30.113742,-6.71588 0,-3.45262 14.635462,-6.71737 30.113742,-6.71737 15.47976,0 30.1167,3.26475 30.1167,6.71737 0,3.45263 -14.63694,6.71588 -30.1167,6.71588 z m 0,-19.64062 c -10.10052,0 -36.321029,2.3215 -36.321029,12.92474 0,10.60025 26.220509,12.92175 36.321029,12.92175 10.10347,0 36.32102,-2.3215 36.32102,-12.92175 0,-10.60325 -26.21755,-12.92474 -36.32102,-12.92474"
       style="fill:#fab20b;fill-opacity:1;fill-rule:nonzero;stroke:none"
       id="path3611"
       inkscape:connector-curvature="0" />
    <path
       d="m 137.07734,311.65912 c -10.81321,0 -12.92025,-5.74887 -21.98276,-5.74887 -9.05808,0 -11.17695,5.74887 -21.981289,5.74887 l 0,-6.982 c 8.712079,0 10.909309,-5.74887 21.981289,-5.74887 11.0971,0 13.23224,5.74887 21.98276,5.74887 8.70913,0 10.9108,-5.74887 21.98129,-5.74887 l 0,6.982 c -9.06104,0 -11.17104,5.74887 -21.98129,5.74887"
       style="fill:#00accf;fill-opacity:1;fill-rule:nonzero;stroke:none"
       id="path3613"
       inkscape:connector-curvature="0" />
  </g>
</svg>
