<?xml version="1.0" encoding="UTF-8" standalone="no"?>
<!-- Created with Inkscape (http://www.inkscape.org/) -->

<svg
   xmlns:dc="http://purl.org/dc/elements/1.1/"
   xmlns:cc="http://creativecommons.org/ns#"
   xmlns:rdf="http://www.w3.org/1999/02/22-rdf-syntax-ns#"
   xmlns:svg="http://www.w3.org/2000/svg"
   xmlns="http://www.w3.org/2000/svg"
   xmlns:sodipodi="http://sodipodi.sourceforge.net/DTD/sodipodi-0.dtd"
   xmlns:inkscape="http://www.inkscape.org/namespaces/inkscape"
   width="23.66144mm"
   height="59.359058mm"
   viewBox="0 0 83.839748 210.32737"
   id="svg2"
   version="1.1"
   inkscape:version="0.91 r13725"
   sodipodi:docname="spb2.svg">
  <defs
     id="defs4">
    <clipPath
       id="clipPath3387"
       clipPathUnits="userSpaceOnUse">
      <path
         inkscape:connector-curvature="0"
         id="path3389"
         d="m 0,7.575547 595,0 0,826.848903 -595,0 L 0,7.575547 Z" />
    </clipPath>
    <clipPath
       id="clipPath3809"
       clipPathUnits="userSpaceOnUse">
      <path
         inkscape:connector-curvature="0"
         id="path3811"
         d="m 0,7.575547 594.5753,0 0,826.035103 L 0,833.61065 0,7.575547 Z" />
    </clipPath>
    <clipPath
       id="clipPath3821"
       clipPathUnits="userSpaceOnUse">
      <path
         inkscape:connector-curvature="0"
         id="path3823"
         d="m 0,7.575547 595,0 0,826.848903 -595,0 L 0,7.575547 Z" />
    </clipPath>
    <clipPath
       id="clipPath3953"
       clipPathUnits="userSpaceOnUse">
      <path
         inkscape:connector-curvature="0"
         id="path3955"
         d="m 0,7.575547 594.5753,0 0,826.035103 L 0,833.61065 0,7.575547 Z" />
    </clipPath>
    <clipPath
       id="clipPath3965"
       clipPathUnits="userSpaceOnUse">
      <path
         inkscape:connector-curvature="0"
         id="path3967"
         d="m 0,7.575547 595,0 0,826.848903 -595,0 L 0,7.575547 Z" />
    </clipPath>
  </defs>
  <sodipodi:namedview
     id="base"
     pagecolor="#ffffff"
     bordercolor="#666666"
     borderopacity="1.0"
     inkscape:pageopacity="0.0"
     inkscape:pageshadow="2"
     inkscape:zoom="0.35"
     inkscape:cx="-1034.9341"
     inkscape:cy="48.233072"
     inkscape:document-units="px"
     inkscape:current-layer="layer1"
     showgrid="false"
     inkscape:window-width="1920"
     inkscape:window-height="1075"
     inkscape:window-x="0"
     inkscape:window-y="1"
     inkscape:window-maximized="1"
     fit-margin-top="0"
     fit-margin-left="0"
     fit-margin-right="0"
     fit-margin-bottom="0" />
  <metadata
     id="metadata7">
    <rdf:RDF>
      <cc:Work
         rdf:about="">
        <dc:format>image/svg+xml</dc:format>
        <dc:type
           rdf:resource="http://purl.org/dc/dcmitype/StillImage" />
        <dc:title></dc:title>
      </cc:Work>
    </rdf:RDF>
  </metadata>
  <g
     inkscape:label="Layer 1"
     inkscape:groupmode="layer"
     id="layer1"
     transform="translate(-560.25627,-101.33175)">
    <path
       d="m 610.94664,311.65912 c -10.81175,0 -12.92025,-5.74887 -21.98275,-5.74887 -9.05812,0 -11.174,5.74887 -21.98125,5.74887 l 0,-6.982 c 8.715,0 10.90925,-5.74887 21.98125,-5.74887 11.09863,0 13.23225,5.74887 21.98275,5.74887 8.71063,0 10.91075,-5.74887 21.98275,-5.74887 l 0,6.982 c -9.061,0 -11.171,5.74887 -21.98275,5.74887"
       style="fill:#00accf;fill-opacity:1;fill-rule:nonzero;stroke:none"
       id="path3825"
       inkscape:connector-curvature="0" />
    <path
       d="m 636.58752,259.62475 c 0,-1.05575 1.1755,-1.32038 2.31412,-1.32038 0.7895,0 1.54213,0.14188 1.94588,0.26463 l 0,1.764 2.71912,0 0,-3.5915 c -1.1755,-0.4865 -2.697,-0.79113 -4.2185,-0.79113 -3.5325,0 -5.54187,1.21688 -5.54187,3.95688 0,4.912 7.38862,3.28837 7.38862,5.52112 0,0.689 -0.38737,0.99363 -2.07,0.99363 -2.1515,0 -4.38412,-0.87238 -5.27725,-1.2775 l 0,2.799 c 1.05575,0.692 3.00313,1.177 4.93125,1.177 2.71913,0 5.31713,-0.62838 5.31713,-3.81488 0,-4.72712 -7.5085,-2.96312 -7.5085,-5.68087"
       style="fill:#231f20;fill-opacity:1;fill-rule:nonzero;stroke:none"
       id="path3827"
       inkscape:connector-curvature="0" />
    <path
       d="m 613.04777,258.325 c 1.29825,0 2.61862,0.7305 2.63787,2.67937 l -5.56112,0 c 0.0221,-1.74487 1.44025,-2.67937 2.92325,-2.67937 z m 12.80487,0.30463 -0.36512,-2.39388 -5.46063,0 0,2.5965 2.9425,0 0,7.5705 -8.84662,0 c -2.15,0 -3.97613,-0.50862 -4.03813,-2.92325 l 8.37938,0 c 0.0429,-0.56775 0.1035,-1.17688 0.1035,-1.74475 0,-2.94388 -1.23763,-5.78438 -5.37775,-5.78438 -4.08113,0 -6.027,2.802 -6.027,6.59475 0,4.0395 2.08937,6.23088 6.41137,6.23088 l 15.50488,0 0,-2.37325 -3.08438,0 0,-3.22625 c 0,-2.67938 1.58363,-4.18163 3.61225,-4.263 l 0,2.7385 2.63788,0 0,-5.41625 c -0.46725,-0.0621 -0.8945,-0.0827 -1.29825,-0.0827 -1.8675,0 -4.041,0.81325 -5.09388,2.47662"
       style="fill:#231f20;fill-opacity:1;fill-rule:nonzero;stroke:none"
       id="path3829"
       inkscape:connector-curvature="0" />
    <path
       d="m 605.19477,278.69312 -0.36525,-2.39387 -5.13525,0 0,2.5965 2.61862,0 0,7.56912 -5.947,0 0,-10.16562 -3.043,0 0,5.96625 c 0,2.53587 -1.48012,3.97612 -3.20575,3.97612 -0.95512,0 -1.52287,-0.6255 -1.52287,-2.80062 l 0,-7.14175 -5.70163,0 0,2.5965 2.6585,0 0,5.55962 c 0,3.2885 1.68425,4.58825 3.8755,4.58825 1.5215,0 3.16425,-0.63 4.26,-2.21362 l 0.346,2.0095 14.36775,0 0,-2.37463 -3.06362,0 0,-3.22637 c 0,-2.65863 1.58212,-4.17863 3.5915,-4.26138 l 0,2.73988 2.6365,0 0,-5.41775 c -0.44363,-0.0399 -0.871,-0.0606 -1.29688,-0.0606 -1.8675,0 -4.01887,0.81175 -5.07312,2.4545"
       style="fill:#231f20;fill-opacity:1;fill-rule:nonzero;stroke:none"
       id="path3831"
       inkscape:connector-curvature="0" />
    <path
       d="m 584.73789,244.39637 c 0,-1.50225 1.44175,-1.727 3.06525,-1.727 0.81175,0 1.78475,0.102 2.212,0.16413 l 0,1.44012 c -0.60912,0.973 -2.04787,1.68425 -3.55162,1.68425 -0.95375,0 -1.72563,-0.386 -1.72563,-1.5615 z m 5.56113,2.18988 0.284,1.60287 2.43525,0 0,-8.46225 c 0,-2.941 -1.54225,-4.38262 -4.79075,-4.38262 -1.92513,0 -3.99675,0.26312 -5.295,0.70975 l 0,2.82112 c 0.66837,-0.26312 2.72075,-0.71112 4.42262,-0.71112 1.381,0 2.66,0.28537 2.66,1.625 l 0,0.81025 c -1.64425,-0.0799 -1.968,-0.1405 -2.59787,-0.1405 -3.57088,0 -5.62025,1.23762 -5.62025,4.07812 0,2.72063 1.78612,3.85625 4.15937,3.85625 1.54213,0 3.28838,-0.56925 4.34263,-1.80687"
       style="fill:#231f20;fill-opacity:1;fill-rule:nonzero;stroke:none"
       id="path3833"
       inkscape:connector-curvature="0" />
    <path
       d="m 621.32814,280.33587 c 0,1.13713 -0.9345,1.98875 -2.51662,1.98875 -1.60438,0 -2.53888,-0.85162 -2.53888,-1.98875 0,-1.15624 0.9345,-1.9665 2.53888,-1.9665 1.58212,0 2.51662,0.81025 2.51662,1.9665 z m -4.69025,8.07776 c 0.63138,0.10212 1.3825,0.22337 2.17363,0.244 2.59787,0.18187 3.52937,0.50712 3.52937,1.29825 0,1.03499 -1.09562,1.80687 -3.81475,1.80687 -2.17212,0 -3.20575,-0.63137 -3.20575,-1.66637 0,-0.627 0.40663,-1.29675 1.3175,-1.68275 z m 2.17363,-12.39825 c -3.5325,0 -5.3985,1.80537 -5.3985,4.3205 0,1.11787 0.42587,2.09225 1.19762,2.8435 -0.9345,0.4465 -1.4815,1.39875 -1.4815,2.314 0,0.80875 0.46725,1.62062 1.33813,2.20912 -1.25838,0.448 -1.94888,1.625 -1.94888,2.84338 0,1.764 1.4225,3.5295 6.04913,3.5295 4.54525,0 6.71587,-1.72413 6.71587,-4.38413 0,-4.99037 -9.45575,-2.51525 -9.45575,-4.76712 0,-0.346 0.2025,-0.62988 0.547,-0.65063 0.75113,0.22475 1.50088,0.38588 2.43688,0.38588 3.4895,0 5.37775,-1.80688 5.37775,-4.3235 0,-0.66825 -0.20413,-1.31738 -0.50725,-1.90588 l 3.327,0 0,-2.19137 -6.39213,0 c -0.59,-0.16413 -1.177,-0.22325 -1.80537,-0.22325"
       style="fill:#231f20;fill-opacity:1;fill-rule:nonzero;stroke:none"
       id="path3835"
       inkscape:connector-curvature="0" />
    <path
       d="m 607.08152,248.18912 3.043,0 0,-5.96637 c 0,-2.47513 1.58362,-3.95525 3.3905,-3.95525 0.9715,0 1.58212,0.54712 1.58212,2.6985 l 0,7.22312 5.07313,0 0,-2.53587 -2.05075,0 0,-5.70162 c 0,-3.2885 -1.70338,-4.50688 -3.89475,-4.50688 -1.625,0 -3.1865,0.5885 -4.38413,2.07163 l -0.44512,-1.8675 -4.54675,0 0,2.57575 2.23275,0 0,9.96449"
       style="fill:#231f20;fill-opacity:1;fill-rule:nonzero;stroke:none"
       id="path3837"
       inkscape:connector-curvature="0" />
    <path
       d="m 622.48289,242.95475 c 0,2.73988 -0.0799,5.23437 4.30138,5.23437 l 2.71912,0 0,-2.63787 -1.05425,0 c -1.94737,0 -2.92175,-0.0799 -2.92175,-2.19138 l 0,-5.45762 3.81488,0 0,-2.25337 -3.81488,0 0,-3.14513 -2.08925,0 c -0.3875,2.47525 -1.1785,3.14513 -3.24862,3.14513 l 0,2.25337 2.29337,0 0,5.0525"
       style="fill:#231f20;fill-opacity:1;fill-rule:nonzero;stroke:none"
       id="path3839"
       inkscape:connector-curvature="0" />
    <path
       d="m 579.84814,243.6645 c 0,-5.70163 -8.66475,-4.40188 -8.66475,-7.853 0,-1.33963 1.01288,-1.74488 2.09075,-1.74488 1.74475,0 4.15788,0.99375 5.17525,1.62363 l 4.50538,-5.66313 -2.2535,-1.54225 -2.98238,3.7335 c -1.279,-0.587 -2.57875,-1.03499 -3.939,-1.03499 -3.22637,0 -5.59962,1.54362 -5.59962,5.13524 0.244,5.64251 8.66475,4.34276 8.66475,7.65038 0,1.27763 -1.05575,1.807 -2.9425,1.807 -1.1355,0 -2.33325,-0.244 -3.16575,-0.8325 l 0,-2.57725 -2.72063,0 0,4.36188 c 1.40175,1.23912 3.81488,1.82612 5.7445,1.82612 4.74788,0 6.04613,-2.25187 6.0875,-4.88975"
       style="fill:#231f20;fill-opacity:1;fill-rule:nonzero;stroke:none"
       id="path3841"
       inkscape:connector-curvature="0" />
    <path
       d="m 585.83214,261.025 c 0.0414,-1.78613 1.40325,-2.7 3.00463,-2.7 1.36025,0 2.67925,0.75262 2.67925,2.7 l -5.68388,0 z m 3.06525,-5.07463 c -4.07662,0 -6.00475,2.82125 -6.00475,6.61538 0,4.03812 2.09075,6.53412 6.39213,6.53412 1.3795,0 3.20562,-0.20262 4.464,-0.75125 l 0,-2.53575 c -0.91388,0.38438 -2.4945,0.6505 -3.89475,0.6505 -2.17363,0 -3.99825,-0.52787 -4.06038,-2.96312 l 10.3505,0 0,-2.47525 -1.93412,0 c 10e-4,-0.068 0.006,-0.1375 0.006,-0.204 0,-2.57725 -1.78625,-4.87062 -5.31863,-4.87062"
       style="fill:#231f20;fill-opacity:1;fill-rule:nonzero;stroke:none"
       id="path3843"
       inkscape:connector-curvature="0" />
    <path
       d="m 575.46402,286.54762 c -0.70825,0 -1.50088,-0.12275 -2.33188,-0.50862 l 0,-5.80363 c 0.46725,-0.87087 1.78325,-1.6635 3.06375,-1.6635 1.9075,0 2.77988,1.39888 2.77988,3.75275 0,2.802 -1.319,4.22301 -3.51175,4.22301 z m 1.25975,-10.53225 c -1.50375,0 -2.904,0.52788 -3.59163,1.1755 l 0,-5.051 -5.78437,0 0,2.598 2.76062,0 0,13.08725 c 0.973,0.54863 2.4545,1.33963 4.97263,1.33963 4.92975,0 6.83725,-2.86263 6.83725,-6.9805 0,-3.22788 -1.319,-6.16888 -5.1945,-6.16888"
       style="fill:#231f20;fill-opacity:1;fill-rule:nonzero;stroke:none"
       id="path3845"
       inkscape:connector-curvature="0" />
    <path
       d="m 603.24589,268.776 2.71925,0 0,-2.63638 -1.05575,0 c -1.94737,0 -2.92025,-0.0621 -2.92025,-2.17212 l 0,-5.48125 3.81338,0 0,-2.2505 -3.81338,0 0,-3.1465 -2.09087,0 c -0.38738,2.47675 -1.17838,3.1465 -3.247,3.1465 l 0,2.2505 2.27262,0 0,5.0525 c 0,2.74137 -0.0591,5.23725 4.322,5.23725"
       style="fill:#231f20;fill-opacity:1;fill-rule:nonzero;stroke:none"
       id="path3847"
       inkscape:connector-curvature="0" />
    <path
       d="m 573.27414,254.75412 2.31263,0 c 1.98725,0 3.16575,0.87101 3.16575,2.595 0,2.33626 -1.64425,3.08738 -3.57238,3.08738 -0.64762,0 -1.33825,-0.0606 -1.906,-0.14337 l 0,-5.539 z m -5.44137,4.91063 c -1.45938,-0.04 -2.0065,-1.09575 -2.0065,-2.29338 0,-1.60287 0.89162,-2.61725 3.0845,-2.61725 l 1.19762,0 0,14.02188 3.16575,0 0,-5.76225 c 0.54563,0.0784 1.13713,0.10062 1.72413,0.10062 3.349,0 6.73812,-1.217 6.73812,-5.6425 0,-3.14499 -1.82762,-5.3955 -6.06837,-5.3955 l -5.98688,0 c -4.606,0.0591 -6.5755,1.98725 -6.5755,5.295 0,3.08588 1.70488,4.9105 4.72713,4.9105 l 0,-2.61712"
       style="fill:#231f20;fill-opacity:1;fill-rule:nonzero;stroke:none"
       id="path3849"
       inkscape:connector-curvature="0" />
    <path
       d="m 601.19514,232.4225 -4.07812,-4.14025 -2.17063,1.88675 4.05738,4.10025 2.19137,-1.84675"
       style="fill:#231f20;fill-opacity:1;fill-rule:nonzero;stroke:none"
       id="path3851"
       inkscape:connector-curvature="0" />
    <path
       d="m 595.45352,235.64887 0,2.57575 3.16725,0 0,7.368 -3.16725,0 0,2.5965 9.39525,0 0,-2.5965 -3.16425,0 0,-9.94375 -6.231,0"
       style="fill:#231f20;fill-opacity:1;fill-rule:nonzero;stroke:none"
       id="path3853"
       inkscape:connector-curvature="0" />
    <path
       d="m 582.98727,164.549 c 6.43937,-5.34088 13.05037,-10.82212 15.672,-18.24775 0.93,0.15375 1.61462,0.14638 2.4855,0.0177 5.20487,12.02562 -1.44313,18.81112 -9.0905,26.6005 -6.58738,6.71 -14.00263,14.27462 -12.03463,25.6335 -5.28462,1.11487 -10.207,2.77987 -13.2515,5.21062 -0.896,-3.47175 -1.29962,-7.4685 -1.29962,-12.50762 0,-12.1795 8.90425,-19.56375 17.51875,-26.707 z m 16.96725,-28.93087 c 1.55112,0 2.79762,1.27012 2.79762,2.79612 0,1.53925 -1.254,2.79463 -2.79762,2.79463 -1.54075,0 -2.79313,-1.25538 -2.79313,-2.79463 0,-1.523 1.242,-2.79612 2.79313,-2.79612 z m 14.22887,26.642 c 6.503,7.58237 3.8355,12.18675 0.14488,18.54337 -2.6645,4.58825 -5.63063,9.70275 -4.69025,16.22212 -3.77938,-0.36524 -7.21275,-0.50424 -9.6835,-0.50424 -3.55313,0 -9.10388,0.28837 -14.81,1.12374 -1.49488,-8.71949 4.14312,-14.46987 10.627,-21.07487 5.4635,-5.567 11.40462,-11.625 12.3435,-19.88313 1.87637,1.94438 3.948,3.77938 6.06837,5.573 z m -44.34262,47.1845 c 0,-3.45263 14.6355,-6.716 30.11375,-6.716 15.47975,0 30.11525,3.26337 30.11525,6.716 0,3.45112 -14.6355,6.71437 -30.11525,6.71437 -15.47825,0 -30.11375,-3.26325 -30.11375,-6.71437 z M 634.44502,191.256 c 0,5.03913 -0.40513,9.03588 -1.30125,12.50763 -3.95975,-3.16276 -11.1,-5.03025 -18.06875,-6.07413 -1.38263,-5.41625 1.01137,-9.54162 3.75712,-14.27175 2.3155,-3.98787 4.81438,-8.29662 4.50538,-13.3535 6.1215,5.65138 11.1075,12.0775 11.1075,21.19175 z m -14.19488,-30.717 c -6.61687,-5.48575 -12.4885,-10.35787 -14.35,-16.78687 1.276,-1.418 2.06113,-3.2855 2.06113,-5.33788 0,-3.50138 -2.26375,-6.47788 -5.39988,-7.56025 l 0,-4.65175 3.06813,1.03213 1.662,-4.93725 -4.73013,-1.591 0,-6.41863 10.38725,0 0,-5.20925 -10.38725,0 0,-7.7465 -5.21075,0 0,7.7465 -10.38737,0 0,5.20925 10.38737,0 0,4.6665 -3.06812,-1.03212 -1.6605,4.93712 4.72862,1.591 0,6.404 c -3.13612,1.08238 -5.3985,4.05888 -5.3985,7.56025 0,2.05238 0.78075,3.91988 2.05675,5.33638 -1.85862,6.42899 -7.72725,11.30262 -14.3485,16.78837 -9.09362,7.541 -19.40412,16.09037 -19.40412,30.717 0,8.4385 1.072,14.34563 3.57237,19.716 2.391,9.29912 26.5325,11.39425 36.12588,11.39425 9.60225,0 33.75112,-2.09662 36.13025,-11.40163 2.50037,-5.3675 3.5695,-11.27162 3.5695,-19.70862 0,-14.62663 -10.309,-23.176 -19.40413,-30.717"
       style="fill:#fab20b;fill-opacity:1;fill-rule:nonzero;stroke:none"
       id="path3855"
       inkscape:connector-curvature="0" />
  </g>
</svg>
